M48
;DRILL file {KiCad 4.0.2-stable} date woensdag 06 september 2017 16:49:09
;FORMAT={-:-/ absolute / inch / decimal}
FMAT,2
INCH,TZ
T1C0.016
T2C0.020
T3C0.028
T4C0.031
T5C0.039
T6C0.039
T7C0.040
%
G90
G05
M72
T1
X3.515Y-3.7665
X3.5496Y-3.2415
X3.5496Y-3.6165
X3.5746Y-4.4165
X3.5996Y-3.6415
X3.5996Y-5.7665
X3.6246Y-3.5165
X3.6246Y-5.7915
X3.6496Y-1.8665
X3.6746Y-1.8915
X3.6746Y-3.7165
X3.6746Y-5.9415
X3.6996Y-1.9165
X3.6996Y-4.4665
X3.6996Y-6.0965
X3.7246Y-1.9415
X3.7246Y-4.5665
X3.7246Y-5.9665
X3.7496Y-1.9665
X3.7496Y-3.8165
X3.7496Y-5.9915
X3.7746Y-1.9915
X3.7746Y-3.9165
X3.7746Y-6.1665
X3.7746Y-6.2665
X3.7996Y-4.0165
X3.7996Y-6.1915
X3.8061Y-2.0165
X3.8242Y-6.8221
X3.8246Y-4.1165
X3.8246Y-6.2165
X3.8248Y-2.0419
X3.8484Y-6.2415
X3.8496Y-2.0665
X3.8496Y-4.3915
X3.8735Y-2.101
X3.8996Y-2.1189
X3.9242Y-2.1412
X3.9417Y-2.1674
X3.9746Y-3.6701
X3.9746Y-3.6915
X4.0496Y-3.2415
X4.0496Y-4.4415
X4.1746Y-2.5915
X4.2246Y-2.1415
X4.2496Y-3.6165
X4.3246Y-1.1165
X4.3246Y-3.3165
X4.3246Y-5.6165
X4.5996Y-1.5915
X4.7496Y-1.9665
X4.9996Y-5.6047
X5.1796Y-5.8165
T2
X4.7496Y-4.3415
X4.8496Y-4.4415
X4.9496Y-4.3415
T3
X4.5997Y-1.8166
X4.5997Y-2.2166
T4
X4.1996Y-1.4165
X4.1996Y-1.7165
X4.2996Y-1.4165
X4.2996Y-1.7165
X4.3996Y-1.4165
X4.3996Y-1.7165
X4.4996Y-1.4165
X4.4996Y-1.7165
X4.5996Y-1.4165
X4.5996Y-1.7165
X4.6996Y-1.4165
X4.6996Y-1.7165
X4.7996Y-1.4165
X4.7996Y-1.7165
X4.8996Y-1.4165
X4.8996Y-1.7165
X4.9996Y-1.4165
X4.9996Y-1.7165
X5.0996Y-1.4165
X5.0996Y-1.7165
X5.1996Y-1.4165
X5.1996Y-1.7165
X5.2996Y-1.4165
X5.2996Y-1.7165
X5.3996Y-1.4165
X5.3996Y-1.7165
X5.4996Y-1.4165
X5.4996Y-1.7165
T5
X3.7374Y-1.274
X3.8496Y-2.6165
X3.8496Y-2.7165
X3.8496Y-2.8165
X3.8496Y-2.9165
X3.8496Y-4.8165
X3.8496Y-4.9165
X3.8496Y-5.0165
X3.8496Y-5.1165
X3.8496Y-7.0915
X3.8496Y-7.1915
X3.8496Y-7.2915
X3.8496Y-7.3915
X3.9343Y-1.274
X3.9736Y-5.1323
X3.9736Y-5.3291
X3.9736Y-6.4709
X3.9736Y-6.6677
X3.9746Y-5.8697
X3.9746Y-6.0665
X3.9996Y-2.4665
X3.9996Y-2.6634
X3.9996Y-2.9276
X3.9996Y-3.1244
X4.5028Y-1.2665
X4.6996Y-1.2665
T6
X4.5996Y-3.5165
X4.5996Y-5.7665
X4.7996Y-1.2665
X4.9996Y-3.5165
X4.9996Y-5.7665
X5.1996Y-1.2665
T7
X3.7996Y-1.4165
X3.7996Y-1.5665
X3.7996Y-1.7165
X3.8996Y-1.4165
X3.8996Y-1.5665
X3.8996Y-1.7165
X3.9996Y-1.4165
X3.9996Y-1.5665
X3.9996Y-1.7165
X4.3996Y-1.1165
X4.3996Y-2.2213
X4.3996Y-2.3213
X4.3996Y-3.3606
X4.3996Y-3.5713
X4.3996Y-3.6713
X4.3996Y-3.7713
X4.3996Y-3.8713
X4.3996Y-3.9713
X4.3996Y-4.0713
X4.3996Y-4.1713
X4.3996Y-4.2713
X4.3996Y-5.6047
X4.4996Y-1.1165
X4.4996Y-3.3606
X4.4996Y-5.6047
X4.5996Y-1.1165
X4.5996Y-3.3606
X4.5996Y-5.6047
X4.6996Y-1.1165
X4.6996Y-3.3606
X4.6996Y-5.6047
X4.7996Y-1.1165
X4.7996Y-3.3606
X4.7996Y-5.6047
X4.8996Y-1.1165
X4.8996Y-3.3606
X4.8996Y-5.6047
X4.9996Y-1.1165
X4.9996Y-3.3606
X4.9996Y-5.6047
X5.0996Y-1.1165
X5.0996Y-3.3606
X5.0996Y-5.6047
X5.1996Y-1.1165
X5.1996Y-3.3606
X5.1996Y-5.6047
X5.2996Y-1.1165
X5.2996Y-2.2213
X5.2996Y-2.3213
X5.2996Y-3.3606
X5.2996Y-3.5713
X5.2996Y-3.6713
X5.2996Y-3.7713
X5.2996Y-3.8713
X5.2996Y-3.9713
X5.2996Y-4.0713
X5.2996Y-4.1713
X5.2996Y-4.2713
X5.2996Y-4.4713
X5.2996Y-4.5713
X5.2996Y-5.6047
X5.3996Y-1.1165
X5.3996Y-3.3606
X5.3996Y-5.6047
X5.3996Y-6.7213
X5.3996Y-6.8213
X5.4996Y-1.1165
X5.4996Y-3.3606
X5.4996Y-5.6047
X5.5996Y-1.1165
X5.5996Y-3.3606
X5.5996Y-5.6047
X5.6996Y-1.1165
X5.6996Y-3.3606
X5.6996Y-5.6047
X5.7996Y-1.1165
X5.7996Y-3.3606
X5.7996Y-5.6047
X5.8996Y-1.1165
X5.8996Y-3.3606
X5.8996Y-5.6047
X5.9996Y-1.1165
X5.9996Y-3.3606
X5.9996Y-5.6047
X6.0996Y-1.1165
X6.0996Y-3.3606
X6.0996Y-5.6047
T0
M30
