M48
;DRILL file {KiCad 4.0.2-stable} date 23-3-2017 17:20:26
;FORMAT={-:-/ absolute / metric / decimal}
FMAT,2
METRIC,TZ
T1C0.400
T2C0.510
T3C0.701
T4C0.800
T5C1.000
T6C1.001
T7C1.016
%
G90
G05
M71
T1
X89.281Y-95.67
X90.16Y-82.335
X90.16Y-91.86
X90.795Y-112.18
X91.43Y-92.495
X91.43Y-146.47
X92.065Y-89.32
X92.065Y-147.105
X92.7Y-47.41
X93.335Y-48.045
X93.335Y-94.4
X93.335Y-150.915
X93.97Y-48.68
X93.97Y-113.45
X93.97Y-154.852
X94.605Y-49.315
X94.605Y-115.99
X94.605Y-151.55
X95.24Y-49.95
X95.24Y-96.94
X95.24Y-152.185
X95.875Y-50.585
X95.875Y-99.48
X95.875Y-156.63
X95.875Y-159.17
X96.51Y-102.02
X96.51Y-157.265
X96.675Y-51.22
X97.135Y-173.281
X97.145Y-104.56
X97.145Y-157.9
X97.151Y-51.863
X97.75Y-158.535
X97.78Y-52.49
X97.78Y-111.545
X98.388Y-53.365
X99.05Y-53.819
X99.675Y-54.388
X100.12Y-55.052
X100.955Y-93.22
X100.955Y-93.765
X102.86Y-82.335
X102.86Y-112.815
X106.035Y-65.825
X107.305Y-54.395
X107.94Y-91.86
X109.845Y-28.36
X109.845Y-84.24
X109.845Y-142.66
X116.83Y-40.425
X120.64Y-49.95
X126.99Y-142.36
X131.562Y-147.74
T2
X120.64Y-110.275
X123.18Y-112.815
X125.72Y-110.275
T3
X116.833Y-46.141
X116.833Y-56.301
T4
X106.67Y-35.98
X106.67Y-43.6
X109.21Y-35.98
X109.21Y-43.6
X111.75Y-35.98
X111.75Y-43.6
X114.29Y-35.98
X114.29Y-43.6
X116.83Y-35.98
X116.83Y-43.6
X119.37Y-35.98
X119.37Y-43.6
X121.91Y-35.98
X121.91Y-43.6
X124.45Y-35.98
X124.45Y-43.6
X126.99Y-35.98
X126.99Y-43.6
X129.53Y-35.98
X129.53Y-43.6
X132.07Y-35.98
X132.07Y-43.6
X134.61Y-35.98
X134.61Y-43.6
X137.15Y-35.98
X137.15Y-43.6
X139.69Y-35.98
X139.69Y-43.6
T5
X94.93Y-32.36
X97.78Y-66.46
X97.78Y-69.
X97.78Y-71.54
X97.78Y-74.08
X97.78Y-122.34
X97.78Y-124.88
X97.78Y-127.42
X97.78Y-129.96
X97.78Y-180.125
X97.78Y-182.665
X97.78Y-185.205
X97.78Y-187.745
X99.93Y-32.36
X100.93Y-130.36
X100.93Y-135.36
X100.93Y-164.36
X100.93Y-169.36
X100.955Y-149.09
X100.955Y-154.09
X101.59Y-62.65
X101.59Y-67.65
X101.59Y-74.36
X101.59Y-79.36
X114.37Y-32.17
X119.37Y-32.17
T6
X116.83Y-89.32
X116.83Y-146.47
X121.91Y-32.17
X126.99Y-89.32
X126.99Y-146.47
X132.07Y-32.17
T7
X96.51Y-35.98
X96.51Y-39.79
X96.51Y-43.6
X99.05Y-35.98
X99.05Y-39.79
X99.05Y-43.6
X101.59Y-35.98
X101.59Y-39.79
X101.59Y-43.6
X111.75Y-28.36
X111.75Y-56.42
X111.75Y-58.96
X111.75Y-85.36
X111.75Y-90.71
X111.75Y-93.25
X111.75Y-95.79
X111.75Y-98.33
X111.75Y-100.87
X111.75Y-103.41
X111.75Y-105.95
X111.75Y-108.49
X111.75Y-142.36
X114.29Y-28.36
X114.29Y-85.36
X114.29Y-142.36
X116.83Y-28.36
X116.83Y-85.36
X116.83Y-142.36
X119.37Y-28.36
X119.37Y-85.36
X119.37Y-142.36
X121.91Y-28.36
X121.91Y-85.36
X121.91Y-142.36
X124.45Y-28.36
X124.45Y-85.36
X124.45Y-142.36
X126.99Y-28.36
X126.99Y-85.36
X126.99Y-142.36
X129.53Y-28.36
X129.53Y-85.36
X129.53Y-142.36
X132.07Y-28.36
X132.07Y-85.36
X132.07Y-142.36
X134.61Y-28.36
X134.61Y-56.42
X134.61Y-58.96
X134.61Y-85.36
X134.61Y-90.71
X134.61Y-93.25
X134.61Y-95.79
X134.61Y-98.33
X134.61Y-100.87
X134.61Y-103.41
X134.61Y-105.95
X134.61Y-108.49
X134.61Y-113.57
X134.61Y-116.11
X134.61Y-142.36
X137.15Y-28.36
X137.15Y-85.36
X137.15Y-142.36
X137.15Y-170.72
X137.15Y-173.26
X139.69Y-28.36
X139.69Y-85.36
X139.69Y-142.36
X142.23Y-28.36
X142.23Y-85.36
X142.23Y-142.36
X144.77Y-28.36
X144.77Y-85.36
X144.77Y-142.36
X147.31Y-28.36
X147.31Y-85.36
X147.31Y-142.36
X149.85Y-28.36
X149.85Y-85.36
X149.85Y-142.36
X152.39Y-28.36
X152.39Y-85.36
X152.39Y-142.36
X154.93Y-28.36
X154.93Y-85.36
X154.93Y-142.36
T0
M30
