G04 #@! TF.FileFunction,Legend,Top*
%FSLAX46Y46*%
G04 Gerber Fmt 4.6, Leading zero omitted, Abs format (unit mm)*
G04 Created by KiCad (PCBNEW 4.0.2-stable) date maandag 04 september 2017 19:31:41*
%MOMM*%
G01*
G04 APERTURE LIST*
%ADD10C,0.100000*%
%ADD11C,0.600000*%
%ADD12C,0.200000*%
%ADD13C,0.300000*%
%ADD14C,0.125000*%
%ADD15C,0.150000*%
%ADD16C,0.120000*%
G04 APERTURE END LIST*
D10*
D11*
X111123571Y-170052143D02*
X110123571Y-168623571D01*
X109409286Y-170052143D02*
X109409286Y-167052143D01*
X110552143Y-167052143D01*
X110837857Y-167195000D01*
X110980714Y-167337857D01*
X111123571Y-167623571D01*
X111123571Y-168052143D01*
X110980714Y-168337857D01*
X110837857Y-168480714D01*
X110552143Y-168623571D01*
X109409286Y-168623571D01*
X112409286Y-168480714D02*
X113409286Y-168480714D01*
X113837857Y-170052143D02*
X112409286Y-170052143D01*
X112409286Y-167052143D01*
X113837857Y-167052143D01*
X114695000Y-167052143D02*
X115695000Y-170052143D01*
X116695000Y-167052143D01*
X117695001Y-169766429D02*
X117837858Y-169909286D01*
X117695001Y-170052143D01*
X117552144Y-169909286D01*
X117695001Y-169766429D01*
X117695001Y-170052143D01*
X122409286Y-168480714D02*
X122837857Y-168623571D01*
X122980714Y-168766429D01*
X123123571Y-169052143D01*
X123123571Y-169480714D01*
X122980714Y-169766429D01*
X122837857Y-169909286D01*
X122552143Y-170052143D01*
X121409286Y-170052143D01*
X121409286Y-167052143D01*
X122409286Y-167052143D01*
X122695000Y-167195000D01*
X122837857Y-167337857D01*
X122980714Y-167623571D01*
X122980714Y-167909286D01*
X122837857Y-168195000D01*
X122695000Y-168337857D01*
X122409286Y-168480714D01*
X121409286Y-168480714D01*
D12*
X99050000Y-46140000D02*
X99685000Y-46140000D01*
X98415000Y-46140000D02*
X99050000Y-46140000D01*
X99050000Y-46140000D02*
X98415000Y-46140000D01*
X99050000Y-45505000D02*
X99050000Y-46140000D01*
D13*
X97954572Y-46818571D02*
X97097429Y-46818571D01*
X97526001Y-46818571D02*
X97526001Y-45318571D01*
X97383144Y-45532857D01*
X97240286Y-45675714D01*
X97097429Y-45747143D01*
D14*
X131720000Y-108916666D02*
X131686667Y-108983332D01*
X131686667Y-109083332D01*
X131720000Y-109183332D01*
X131786667Y-109249999D01*
X131853333Y-109283332D01*
X131986667Y-109316666D01*
X132086667Y-109316666D01*
X132220000Y-109283332D01*
X132286667Y-109249999D01*
X132353333Y-109183332D01*
X132386667Y-109083332D01*
X132386667Y-109016666D01*
X132353333Y-108916666D01*
X132320000Y-108883332D01*
X132086667Y-108883332D01*
X132086667Y-109016666D01*
X132386667Y-108583332D02*
X131686667Y-108583332D01*
X132386667Y-108183332D01*
X131686667Y-108183332D01*
X132386667Y-107849999D02*
X131686667Y-107849999D01*
X131686667Y-107683333D01*
X131720000Y-107583333D01*
X131786667Y-107516666D01*
X131853333Y-107483333D01*
X131986667Y-107449999D01*
X132086667Y-107449999D01*
X132220000Y-107483333D01*
X132286667Y-107516666D01*
X132353333Y-107583333D01*
X132386667Y-107683333D01*
X132386667Y-107849999D01*
X132120000Y-106616666D02*
X132120000Y-106083333D01*
X132386667Y-106350000D02*
X131853333Y-106350000D01*
X131686667Y-105416666D02*
X131686667Y-105749999D01*
X132020000Y-105783333D01*
X131986667Y-105749999D01*
X131953333Y-105683333D01*
X131953333Y-105516666D01*
X131986667Y-105449999D01*
X132020000Y-105416666D01*
X132086667Y-105383333D01*
X132253333Y-105383333D01*
X132320000Y-105416666D01*
X132353333Y-105449999D01*
X132386667Y-105516666D01*
X132386667Y-105683333D01*
X132353333Y-105749999D01*
X132320000Y-105783333D01*
X131686667Y-105183332D02*
X132386667Y-104949999D01*
X131686667Y-104716666D01*
X132353333Y-103983333D02*
X132386667Y-103883333D01*
X132386667Y-103716666D01*
X132353333Y-103649999D01*
X132320000Y-103616666D01*
X132253333Y-103583333D01*
X132186667Y-103583333D01*
X132120000Y-103616666D01*
X132086667Y-103649999D01*
X132053333Y-103716666D01*
X132020000Y-103849999D01*
X131986667Y-103916666D01*
X131953333Y-103949999D01*
X131886667Y-103983333D01*
X131820000Y-103983333D01*
X131753333Y-103949999D01*
X131720000Y-103916666D01*
X131686667Y-103849999D01*
X131686667Y-103683333D01*
X131720000Y-103583333D01*
X132386667Y-103283332D02*
X131686667Y-103283332D01*
X131686667Y-103116666D01*
X131720000Y-103016666D01*
X131786667Y-102949999D01*
X131853333Y-102916666D01*
X131986667Y-102883332D01*
X132086667Y-102883332D01*
X132220000Y-102916666D01*
X132286667Y-102949999D01*
X132353333Y-103016666D01*
X132386667Y-103116666D01*
X132386667Y-103283332D01*
X132186667Y-102616666D02*
X132186667Y-102283332D01*
X132386667Y-102683332D02*
X131686667Y-102449999D01*
X132386667Y-102216666D01*
X132353333Y-101483333D02*
X132386667Y-101383333D01*
X132386667Y-101216666D01*
X132353333Y-101149999D01*
X132320000Y-101116666D01*
X132253333Y-101083333D01*
X132186667Y-101083333D01*
X132120000Y-101116666D01*
X132086667Y-101149999D01*
X132053333Y-101216666D01*
X132020000Y-101349999D01*
X131986667Y-101416666D01*
X131953333Y-101449999D01*
X131886667Y-101483333D01*
X131820000Y-101483333D01*
X131753333Y-101449999D01*
X131720000Y-101416666D01*
X131686667Y-101349999D01*
X131686667Y-101183333D01*
X131720000Y-101083333D01*
X132320000Y-100383332D02*
X132353333Y-100416666D01*
X132386667Y-100516666D01*
X132386667Y-100583332D01*
X132353333Y-100683332D01*
X132286667Y-100749999D01*
X132220000Y-100783332D01*
X132086667Y-100816666D01*
X131986667Y-100816666D01*
X131853333Y-100783332D01*
X131786667Y-100749999D01*
X131720000Y-100683332D01*
X131686667Y-100583332D01*
X131686667Y-100516666D01*
X131720000Y-100416666D01*
X131753333Y-100383332D01*
X132386667Y-99749999D02*
X132386667Y-100083332D01*
X131686667Y-100083332D01*
X132386667Y-98983332D02*
X131686667Y-98983332D01*
X132386667Y-98649999D02*
X131686667Y-98649999D01*
X132386667Y-98249999D01*
X131686667Y-98249999D01*
X131686667Y-98016666D02*
X131686667Y-97616666D01*
X132386667Y-97816666D02*
X131686667Y-97816666D01*
X132386667Y-97016667D02*
X132386667Y-97416667D01*
X132386667Y-97216667D02*
X131686667Y-97216667D01*
X131786667Y-97283333D01*
X131853333Y-97350000D01*
X131886667Y-97416667D01*
X131686667Y-96250000D02*
X132386667Y-96083333D01*
X131886667Y-95950000D01*
X132386667Y-95816667D01*
X131686667Y-95650000D01*
X132386667Y-95383333D02*
X131686667Y-95383333D01*
X131686667Y-95216667D01*
X131720000Y-95116667D01*
X131786667Y-95050000D01*
X131853333Y-95016667D01*
X131986667Y-94983333D01*
X132086667Y-94983333D01*
X132220000Y-95016667D01*
X132286667Y-95050000D01*
X132353333Y-95116667D01*
X132386667Y-95216667D01*
X132386667Y-95383333D01*
X132386667Y-94683333D02*
X131920000Y-94683333D01*
X131686667Y-94683333D02*
X131720000Y-94716667D01*
X131753333Y-94683333D01*
X131720000Y-94650000D01*
X131686667Y-94683333D01*
X131753333Y-94683333D01*
X131686667Y-93883334D02*
X131686667Y-93450001D01*
X131953333Y-93683334D01*
X131953333Y-93583334D01*
X131986667Y-93516667D01*
X132020000Y-93483334D01*
X132086667Y-93450001D01*
X132253333Y-93450001D01*
X132320000Y-93483334D01*
X132353333Y-93516667D01*
X132386667Y-93583334D01*
X132386667Y-93783334D01*
X132353333Y-93850001D01*
X132320000Y-93883334D01*
X131686667Y-93250000D02*
X132386667Y-93016667D01*
X131686667Y-92783334D01*
X131686667Y-92616667D02*
X131686667Y-92183334D01*
X131953333Y-92416667D01*
X131953333Y-92316667D01*
X131986667Y-92250000D01*
X132020000Y-92216667D01*
X132086667Y-92183334D01*
X132253333Y-92183334D01*
X132320000Y-92216667D01*
X132353333Y-92250000D01*
X132386667Y-92316667D01*
X132386667Y-92516667D01*
X132353333Y-92583334D01*
X132320000Y-92616667D01*
X132386667Y-91350000D02*
X131686667Y-91350000D01*
X132386667Y-90950000D01*
X131686667Y-90950000D01*
X132386667Y-90616667D02*
X131686667Y-90616667D01*
X131686667Y-90450001D01*
X131720000Y-90350001D01*
X131786667Y-90283334D01*
X131853333Y-90250001D01*
X131986667Y-90216667D01*
X132086667Y-90216667D01*
X132220000Y-90250001D01*
X132286667Y-90283334D01*
X132353333Y-90350001D01*
X132386667Y-90450001D01*
X132386667Y-90616667D01*
X132386667Y-89916667D02*
X131920000Y-89916667D01*
X131686667Y-89916667D02*
X131720000Y-89950001D01*
X131753333Y-89916667D01*
X131720000Y-89883334D01*
X131686667Y-89916667D01*
X131753333Y-89916667D01*
X113940000Y-109216666D02*
X113906667Y-109283332D01*
X113906667Y-109383332D01*
X113940000Y-109483332D01*
X114006667Y-109549999D01*
X114073333Y-109583332D01*
X114206667Y-109616666D01*
X114306667Y-109616666D01*
X114440000Y-109583332D01*
X114506667Y-109549999D01*
X114573333Y-109483332D01*
X114606667Y-109383332D01*
X114606667Y-109316666D01*
X114573333Y-109216666D01*
X114540000Y-109183332D01*
X114306667Y-109183332D01*
X114306667Y-109316666D01*
X114606667Y-108883332D02*
X113906667Y-108883332D01*
X114606667Y-108483332D01*
X113906667Y-108483332D01*
X114606667Y-108149999D02*
X113906667Y-108149999D01*
X113906667Y-107983333D01*
X113940000Y-107883333D01*
X114006667Y-107816666D01*
X114073333Y-107783333D01*
X114206667Y-107749999D01*
X114306667Y-107749999D01*
X114440000Y-107783333D01*
X114506667Y-107816666D01*
X114573333Y-107883333D01*
X114606667Y-107983333D01*
X114606667Y-108149999D01*
X114340000Y-106916666D02*
X114340000Y-106383333D01*
X114606667Y-106650000D02*
X114073333Y-106650000D01*
X113906667Y-105716666D02*
X113906667Y-106049999D01*
X114240000Y-106083333D01*
X114206667Y-106049999D01*
X114173333Y-105983333D01*
X114173333Y-105816666D01*
X114206667Y-105749999D01*
X114240000Y-105716666D01*
X114306667Y-105683333D01*
X114473333Y-105683333D01*
X114540000Y-105716666D01*
X114573333Y-105749999D01*
X114606667Y-105816666D01*
X114606667Y-105983333D01*
X114573333Y-106049999D01*
X114540000Y-106083333D01*
X113906667Y-105483332D02*
X114606667Y-105249999D01*
X113906667Y-105016666D01*
X114573333Y-104283333D02*
X114606667Y-104183333D01*
X114606667Y-104016666D01*
X114573333Y-103949999D01*
X114540000Y-103916666D01*
X114473333Y-103883333D01*
X114406667Y-103883333D01*
X114340000Y-103916666D01*
X114306667Y-103949999D01*
X114273333Y-104016666D01*
X114240000Y-104149999D01*
X114206667Y-104216666D01*
X114173333Y-104249999D01*
X114106667Y-104283333D01*
X114040000Y-104283333D01*
X113973333Y-104249999D01*
X113940000Y-104216666D01*
X113906667Y-104149999D01*
X113906667Y-103983333D01*
X113940000Y-103883333D01*
X114606667Y-103583332D02*
X113906667Y-103583332D01*
X113906667Y-103416666D01*
X113940000Y-103316666D01*
X114006667Y-103249999D01*
X114073333Y-103216666D01*
X114206667Y-103183332D01*
X114306667Y-103183332D01*
X114440000Y-103216666D01*
X114506667Y-103249999D01*
X114573333Y-103316666D01*
X114606667Y-103416666D01*
X114606667Y-103583332D01*
X114406667Y-102916666D02*
X114406667Y-102583332D01*
X114606667Y-102983332D02*
X113906667Y-102749999D01*
X114606667Y-102516666D01*
X114573333Y-101783333D02*
X114606667Y-101683333D01*
X114606667Y-101516666D01*
X114573333Y-101449999D01*
X114540000Y-101416666D01*
X114473333Y-101383333D01*
X114406667Y-101383333D01*
X114340000Y-101416666D01*
X114306667Y-101449999D01*
X114273333Y-101516666D01*
X114240000Y-101649999D01*
X114206667Y-101716666D01*
X114173333Y-101749999D01*
X114106667Y-101783333D01*
X114040000Y-101783333D01*
X113973333Y-101749999D01*
X113940000Y-101716666D01*
X113906667Y-101649999D01*
X113906667Y-101483333D01*
X113940000Y-101383333D01*
X114540000Y-100683332D02*
X114573333Y-100716666D01*
X114606667Y-100816666D01*
X114606667Y-100883332D01*
X114573333Y-100983332D01*
X114506667Y-101049999D01*
X114440000Y-101083332D01*
X114306667Y-101116666D01*
X114206667Y-101116666D01*
X114073333Y-101083332D01*
X114006667Y-101049999D01*
X113940000Y-100983332D01*
X113906667Y-100883332D01*
X113906667Y-100816666D01*
X113940000Y-100716666D01*
X113973333Y-100683332D01*
X114606667Y-100049999D02*
X114606667Y-100383332D01*
X113906667Y-100383332D01*
X114606667Y-99283332D02*
X113906667Y-99283332D01*
X114606667Y-98949999D02*
X113906667Y-98949999D01*
X114606667Y-98549999D01*
X113906667Y-98549999D01*
X113906667Y-98316666D02*
X113906667Y-97916666D01*
X114606667Y-98116666D02*
X113906667Y-98116666D01*
X114606667Y-97316667D02*
X114606667Y-97716667D01*
X114606667Y-97516667D02*
X113906667Y-97516667D01*
X114006667Y-97583333D01*
X114073333Y-97650000D01*
X114106667Y-97716667D01*
X113906667Y-96550000D02*
X114606667Y-96383333D01*
X114106667Y-96250000D01*
X114606667Y-96116667D01*
X113906667Y-95950000D01*
X114606667Y-95683333D02*
X113906667Y-95683333D01*
X113906667Y-95516667D01*
X113940000Y-95416667D01*
X114006667Y-95350000D01*
X114073333Y-95316667D01*
X114206667Y-95283333D01*
X114306667Y-95283333D01*
X114440000Y-95316667D01*
X114506667Y-95350000D01*
X114573333Y-95416667D01*
X114606667Y-95516667D01*
X114606667Y-95683333D01*
X114606667Y-94883333D02*
X114573333Y-94950000D01*
X114540000Y-94983333D01*
X114473333Y-95016667D01*
X114273333Y-95016667D01*
X114206667Y-94983333D01*
X114173333Y-94950000D01*
X114140000Y-94883333D01*
X114140000Y-94783333D01*
X114173333Y-94716667D01*
X114206667Y-94683333D01*
X114273333Y-94650000D01*
X114473333Y-94650000D01*
X114540000Y-94683333D01*
X114573333Y-94716667D01*
X114606667Y-94783333D01*
X114606667Y-94883333D01*
X113906667Y-93883334D02*
X113906667Y-93450001D01*
X114173333Y-93683334D01*
X114173333Y-93583334D01*
X114206667Y-93516667D01*
X114240000Y-93483334D01*
X114306667Y-93450001D01*
X114473333Y-93450001D01*
X114540000Y-93483334D01*
X114573333Y-93516667D01*
X114606667Y-93583334D01*
X114606667Y-93783334D01*
X114573333Y-93850001D01*
X114540000Y-93883334D01*
X113906667Y-93250000D02*
X114606667Y-93016667D01*
X113906667Y-92783334D01*
X113906667Y-92616667D02*
X113906667Y-92183334D01*
X114173333Y-92416667D01*
X114173333Y-92316667D01*
X114206667Y-92250000D01*
X114240000Y-92216667D01*
X114306667Y-92183334D01*
X114473333Y-92183334D01*
X114540000Y-92216667D01*
X114573333Y-92250000D01*
X114606667Y-92316667D01*
X114606667Y-92516667D01*
X114573333Y-92583334D01*
X114540000Y-92616667D01*
X114606667Y-91350000D02*
X113906667Y-91350000D01*
X114606667Y-90950000D01*
X113906667Y-90950000D01*
X114606667Y-90616667D02*
X113906667Y-90616667D01*
X113906667Y-90450001D01*
X113940000Y-90350001D01*
X114006667Y-90283334D01*
X114073333Y-90250001D01*
X114206667Y-90216667D01*
X114306667Y-90216667D01*
X114440000Y-90250001D01*
X114506667Y-90283334D01*
X114573333Y-90350001D01*
X114606667Y-90450001D01*
X114606667Y-90616667D01*
X114606667Y-89816667D02*
X114573333Y-89883334D01*
X114540000Y-89916667D01*
X114473333Y-89950001D01*
X114273333Y-89950001D01*
X114206667Y-89916667D01*
X114173333Y-89883334D01*
X114140000Y-89816667D01*
X114140000Y-89716667D01*
X114173333Y-89650001D01*
X114206667Y-89616667D01*
X114273333Y-89583334D01*
X114473333Y-89583334D01*
X114540000Y-89616667D01*
X114573333Y-89650001D01*
X114606667Y-89716667D01*
X114606667Y-89816667D01*
D13*
X111704286Y-159688571D02*
X112204286Y-161188571D01*
X112704286Y-159688571D01*
X113204286Y-160617143D02*
X114347143Y-160617143D01*
X115918572Y-161045714D02*
X115847143Y-161117143D01*
X115632857Y-161188571D01*
X115490000Y-161188571D01*
X115275715Y-161117143D01*
X115132857Y-160974286D01*
X115061429Y-160831429D01*
X114990000Y-160545714D01*
X114990000Y-160331429D01*
X115061429Y-160045714D01*
X115132857Y-159902857D01*
X115275715Y-159760000D01*
X115490000Y-159688571D01*
X115632857Y-159688571D01*
X115847143Y-159760000D01*
X115918572Y-159831429D01*
X116775715Y-161188571D02*
X116632857Y-161117143D01*
X116561429Y-161045714D01*
X116490000Y-160902857D01*
X116490000Y-160474286D01*
X116561429Y-160331429D01*
X116632857Y-160260000D01*
X116775715Y-160188571D01*
X116990000Y-160188571D01*
X117132857Y-160260000D01*
X117204286Y-160331429D01*
X117275715Y-160474286D01*
X117275715Y-160902857D01*
X117204286Y-161045714D01*
X117132857Y-161117143D01*
X116990000Y-161188571D01*
X116775715Y-161188571D01*
X117918572Y-160188571D02*
X117918572Y-161188571D01*
X117918572Y-160331429D02*
X117990000Y-160260000D01*
X118132858Y-160188571D01*
X118347143Y-160188571D01*
X118490000Y-160260000D01*
X118561429Y-160402857D01*
X118561429Y-161188571D01*
X119061429Y-160188571D02*
X119632858Y-160188571D01*
X119275715Y-159688571D02*
X119275715Y-160974286D01*
X119347143Y-161117143D01*
X119490001Y-161188571D01*
X119632858Y-161188571D01*
X120132858Y-161188571D02*
X120132858Y-160188571D01*
X120132858Y-160474286D02*
X120204286Y-160331429D01*
X120275715Y-160260000D01*
X120418572Y-160188571D01*
X120561429Y-160188571D01*
X121275715Y-161188571D02*
X121132857Y-161117143D01*
X121061429Y-161045714D01*
X120990000Y-160902857D01*
X120990000Y-160474286D01*
X121061429Y-160331429D01*
X121132857Y-160260000D01*
X121275715Y-160188571D01*
X121490000Y-160188571D01*
X121632857Y-160260000D01*
X121704286Y-160331429D01*
X121775715Y-160474286D01*
X121775715Y-160902857D01*
X121704286Y-161045714D01*
X121632857Y-161117143D01*
X121490000Y-161188571D01*
X121275715Y-161188571D01*
X122632858Y-161188571D02*
X122490000Y-161117143D01*
X122418572Y-160974286D01*
X122418572Y-159688571D01*
X123418572Y-161188571D02*
X123275714Y-161117143D01*
X123204286Y-160974286D01*
X123204286Y-159688571D01*
X124561428Y-161117143D02*
X124418571Y-161188571D01*
X124132857Y-161188571D01*
X123990000Y-161117143D01*
X123918571Y-160974286D01*
X123918571Y-160402857D01*
X123990000Y-160260000D01*
X124132857Y-160188571D01*
X124418571Y-160188571D01*
X124561428Y-160260000D01*
X124632857Y-160402857D01*
X124632857Y-160545714D01*
X123918571Y-160688571D01*
X125275714Y-161188571D02*
X125275714Y-160188571D01*
X125275714Y-160474286D02*
X125347142Y-160331429D01*
X125418571Y-160260000D01*
X125561428Y-160188571D01*
X125704285Y-160188571D01*
X127989999Y-161188571D02*
X127989999Y-159688571D01*
X127989999Y-161117143D02*
X127847142Y-161188571D01*
X127561428Y-161188571D01*
X127418570Y-161117143D01*
X127347142Y-161045714D01*
X127275713Y-160902857D01*
X127275713Y-160474286D01*
X127347142Y-160331429D01*
X127418570Y-160260000D01*
X127561428Y-160188571D01*
X127847142Y-160188571D01*
X127989999Y-160260000D01*
X128704285Y-161188571D02*
X128704285Y-160188571D01*
X128704285Y-159688571D02*
X128632856Y-159760000D01*
X128704285Y-159831429D01*
X128775713Y-159760000D01*
X128704285Y-159688571D01*
X128704285Y-159831429D01*
X129347142Y-161117143D02*
X129489999Y-161188571D01*
X129775714Y-161188571D01*
X129918571Y-161117143D01*
X129989999Y-160974286D01*
X129989999Y-160902857D01*
X129918571Y-160760000D01*
X129775714Y-160688571D01*
X129561428Y-160688571D01*
X129418571Y-160617143D01*
X129347142Y-160474286D01*
X129347142Y-160402857D01*
X129418571Y-160260000D01*
X129561428Y-160188571D01*
X129775714Y-160188571D01*
X129918571Y-160260000D01*
X130632857Y-160188571D02*
X130632857Y-161688571D01*
X130632857Y-160260000D02*
X130775714Y-160188571D01*
X131061428Y-160188571D01*
X131204285Y-160260000D01*
X131275714Y-160331429D01*
X131347143Y-160474286D01*
X131347143Y-160902857D01*
X131275714Y-161045714D01*
X131204285Y-161117143D01*
X131061428Y-161188571D01*
X130775714Y-161188571D01*
X130632857Y-161117143D01*
X132204286Y-161188571D02*
X132061428Y-161117143D01*
X131990000Y-160974286D01*
X131990000Y-159688571D01*
X133418571Y-161188571D02*
X133418571Y-160402857D01*
X133347142Y-160260000D01*
X133204285Y-160188571D01*
X132918571Y-160188571D01*
X132775714Y-160260000D01*
X133418571Y-161117143D02*
X133275714Y-161188571D01*
X132918571Y-161188571D01*
X132775714Y-161117143D01*
X132704285Y-160974286D01*
X132704285Y-160831429D01*
X132775714Y-160688571D01*
X132918571Y-160617143D01*
X133275714Y-160617143D01*
X133418571Y-160545714D01*
X133990000Y-160188571D02*
X134347143Y-161188571D01*
X134704285Y-160188571D02*
X134347143Y-161188571D01*
X134204285Y-161545714D01*
X134132857Y-161617143D01*
X133990000Y-161688571D01*
X136418571Y-161188571D02*
X136418571Y-159688571D01*
X136418571Y-160260000D02*
X136561428Y-160188571D01*
X136847142Y-160188571D01*
X136989999Y-160260000D01*
X137061428Y-160331429D01*
X137132857Y-160474286D01*
X137132857Y-160902857D01*
X137061428Y-161045714D01*
X136989999Y-161117143D01*
X136847142Y-161188571D01*
X136561428Y-161188571D01*
X136418571Y-161117143D01*
X137990000Y-161188571D02*
X137847142Y-161117143D01*
X137775714Y-161045714D01*
X137704285Y-160902857D01*
X137704285Y-160474286D01*
X137775714Y-160331429D01*
X137847142Y-160260000D01*
X137990000Y-160188571D01*
X138204285Y-160188571D01*
X138347142Y-160260000D01*
X138418571Y-160331429D01*
X138490000Y-160474286D01*
X138490000Y-160902857D01*
X138418571Y-161045714D01*
X138347142Y-161117143D01*
X138204285Y-161188571D01*
X137990000Y-161188571D01*
X139775714Y-161188571D02*
X139775714Y-160402857D01*
X139704285Y-160260000D01*
X139561428Y-160188571D01*
X139275714Y-160188571D01*
X139132857Y-160260000D01*
X139775714Y-161117143D02*
X139632857Y-161188571D01*
X139275714Y-161188571D01*
X139132857Y-161117143D01*
X139061428Y-160974286D01*
X139061428Y-160831429D01*
X139132857Y-160688571D01*
X139275714Y-160617143D01*
X139632857Y-160617143D01*
X139775714Y-160545714D01*
X140490000Y-161188571D02*
X140490000Y-160188571D01*
X140490000Y-160474286D02*
X140561428Y-160331429D01*
X140632857Y-160260000D01*
X140775714Y-160188571D01*
X140918571Y-160188571D01*
X142061428Y-161188571D02*
X142061428Y-159688571D01*
X142061428Y-161117143D02*
X141918571Y-161188571D01*
X141632857Y-161188571D01*
X141489999Y-161117143D01*
X141418571Y-161045714D01*
X141347142Y-160902857D01*
X141347142Y-160474286D01*
X141418571Y-160331429D01*
X141489999Y-160260000D01*
X141632857Y-160188571D01*
X141918571Y-160188571D01*
X142061428Y-160260000D01*
X110561428Y-163445714D02*
X110489999Y-163517143D01*
X110275713Y-163588571D01*
X110132856Y-163588571D01*
X109918571Y-163517143D01*
X109775713Y-163374286D01*
X109704285Y-163231429D01*
X109632856Y-162945714D01*
X109632856Y-162731429D01*
X109704285Y-162445714D01*
X109775713Y-162302857D01*
X109918571Y-162160000D01*
X110132856Y-162088571D01*
X110275713Y-162088571D01*
X110489999Y-162160000D01*
X110561428Y-162231429D01*
X111847142Y-163588571D02*
X111847142Y-162802857D01*
X111775713Y-162660000D01*
X111632856Y-162588571D01*
X111347142Y-162588571D01*
X111204285Y-162660000D01*
X111847142Y-163517143D02*
X111704285Y-163588571D01*
X111347142Y-163588571D01*
X111204285Y-163517143D01*
X111132856Y-163374286D01*
X111132856Y-163231429D01*
X111204285Y-163088571D01*
X111347142Y-163017143D01*
X111704285Y-163017143D01*
X111847142Y-162945714D01*
X112347142Y-162588571D02*
X112918571Y-162588571D01*
X112561428Y-162088571D02*
X112561428Y-163374286D01*
X112632856Y-163517143D01*
X112775714Y-163588571D01*
X112918571Y-163588571D01*
X113418571Y-163588571D02*
X113418571Y-162588571D01*
X113418571Y-162874286D02*
X113489999Y-162731429D01*
X113561428Y-162660000D01*
X113704285Y-162588571D01*
X113847142Y-162588571D01*
X114347142Y-163588571D02*
X114347142Y-162588571D01*
X114347142Y-162088571D02*
X114275713Y-162160000D01*
X114347142Y-162231429D01*
X114418570Y-162160000D01*
X114347142Y-162088571D01*
X114347142Y-162231429D01*
X115061428Y-162588571D02*
X115061428Y-163588571D01*
X115061428Y-162731429D02*
X115132856Y-162660000D01*
X115275714Y-162588571D01*
X115489999Y-162588571D01*
X115632856Y-162660000D01*
X115704285Y-162802857D01*
X115704285Y-163588571D01*
X117061428Y-162588571D02*
X117061428Y-163588571D01*
X116418571Y-162588571D02*
X116418571Y-163374286D01*
X116489999Y-163517143D01*
X116632857Y-163588571D01*
X116847142Y-163588571D01*
X116989999Y-163517143D01*
X117061428Y-163445714D01*
X117704285Y-163517143D02*
X117847142Y-163588571D01*
X118132857Y-163588571D01*
X118275714Y-163517143D01*
X118347142Y-163374286D01*
X118347142Y-163302857D01*
X118275714Y-163160000D01*
X118132857Y-163088571D01*
X117918571Y-163088571D01*
X117775714Y-163017143D01*
X117704285Y-162874286D01*
X117704285Y-162802857D01*
X117775714Y-162660000D01*
X117918571Y-162588571D01*
X118132857Y-162588571D01*
X118275714Y-162660000D01*
X120632857Y-162802857D02*
X120132857Y-162802857D01*
X120132857Y-163588571D02*
X120132857Y-162088571D01*
X120847143Y-162088571D01*
X121989999Y-163517143D02*
X121847142Y-163588571D01*
X121561428Y-163588571D01*
X121418571Y-163517143D01*
X121347142Y-163374286D01*
X121347142Y-162802857D01*
X121418571Y-162660000D01*
X121561428Y-162588571D01*
X121847142Y-162588571D01*
X121989999Y-162660000D01*
X122061428Y-162802857D01*
X122061428Y-162945714D01*
X121347142Y-163088571D01*
X123347142Y-163588571D02*
X123347142Y-162088571D01*
X123347142Y-163517143D02*
X123204285Y-163588571D01*
X122918571Y-163588571D01*
X122775713Y-163517143D01*
X122704285Y-163445714D01*
X122632856Y-163302857D01*
X122632856Y-162874286D01*
X122704285Y-162731429D01*
X122775713Y-162660000D01*
X122918571Y-162588571D01*
X123204285Y-162588571D01*
X123347142Y-162660000D01*
X124704285Y-163588571D02*
X124704285Y-162088571D01*
X124704285Y-163517143D02*
X124561428Y-163588571D01*
X124275714Y-163588571D01*
X124132856Y-163517143D01*
X124061428Y-163445714D01*
X123989999Y-163302857D01*
X123989999Y-162874286D01*
X124061428Y-162731429D01*
X124132856Y-162660000D01*
X124275714Y-162588571D01*
X124561428Y-162588571D01*
X124704285Y-162660000D01*
X125989999Y-163517143D02*
X125847142Y-163588571D01*
X125561428Y-163588571D01*
X125418571Y-163517143D01*
X125347142Y-163374286D01*
X125347142Y-162802857D01*
X125418571Y-162660000D01*
X125561428Y-162588571D01*
X125847142Y-162588571D01*
X125989999Y-162660000D01*
X126061428Y-162802857D01*
X126061428Y-162945714D01*
X125347142Y-163088571D01*
X126704285Y-163588571D02*
X126704285Y-162588571D01*
X126704285Y-162731429D02*
X126775713Y-162660000D01*
X126918571Y-162588571D01*
X127132856Y-162588571D01*
X127275713Y-162660000D01*
X127347142Y-162802857D01*
X127347142Y-163588571D01*
X127347142Y-162802857D02*
X127418571Y-162660000D01*
X127561428Y-162588571D01*
X127775713Y-162588571D01*
X127918571Y-162660000D01*
X127989999Y-162802857D01*
X127989999Y-163588571D01*
X129347142Y-163588571D02*
X129347142Y-162802857D01*
X129275713Y-162660000D01*
X129132856Y-162588571D01*
X128847142Y-162588571D01*
X128704285Y-162660000D01*
X129347142Y-163517143D02*
X129204285Y-163588571D01*
X128847142Y-163588571D01*
X128704285Y-163517143D01*
X128632856Y-163374286D01*
X128632856Y-163231429D01*
X128704285Y-163088571D01*
X128847142Y-163017143D01*
X129204285Y-163017143D01*
X129347142Y-162945714D01*
X131847142Y-163588571D02*
X131847142Y-162802857D01*
X131775713Y-162660000D01*
X131632856Y-162588571D01*
X131347142Y-162588571D01*
X131204285Y-162660000D01*
X131847142Y-163517143D02*
X131704285Y-163588571D01*
X131347142Y-163588571D01*
X131204285Y-163517143D01*
X131132856Y-163374286D01*
X131132856Y-163231429D01*
X131204285Y-163088571D01*
X131347142Y-163017143D01*
X131704285Y-163017143D01*
X131847142Y-162945714D01*
X132561428Y-163588571D02*
X132561428Y-162088571D01*
X132704285Y-163017143D02*
X133132856Y-163588571D01*
X133132856Y-162588571D02*
X132561428Y-163160000D01*
X134418571Y-163588571D02*
X134418571Y-162802857D01*
X134347142Y-162660000D01*
X134204285Y-162588571D01*
X133918571Y-162588571D01*
X133775714Y-162660000D01*
X134418571Y-163517143D02*
X134275714Y-163588571D01*
X133918571Y-163588571D01*
X133775714Y-163517143D01*
X133704285Y-163374286D01*
X133704285Y-163231429D01*
X133775714Y-163088571D01*
X133918571Y-163017143D01*
X134275714Y-163017143D01*
X134418571Y-162945714D01*
X136204285Y-163517143D02*
X136347142Y-163588571D01*
X136632857Y-163588571D01*
X136775714Y-163517143D01*
X136847142Y-163374286D01*
X136847142Y-163302857D01*
X136775714Y-163160000D01*
X136632857Y-163088571D01*
X136418571Y-163088571D01*
X136275714Y-163017143D01*
X136204285Y-162874286D01*
X136204285Y-162802857D01*
X136275714Y-162660000D01*
X136418571Y-162588571D01*
X136632857Y-162588571D01*
X136775714Y-162660000D01*
X137490000Y-163588571D02*
X137490000Y-162588571D01*
X137490000Y-162088571D02*
X137418571Y-162160000D01*
X137490000Y-162231429D01*
X137561428Y-162160000D01*
X137490000Y-162088571D01*
X137490000Y-162231429D01*
X138061429Y-163588571D02*
X138847143Y-162588571D01*
X138061429Y-162588571D02*
X138847143Y-163588571D01*
X139990000Y-163517143D02*
X139847143Y-163588571D01*
X139561429Y-163588571D01*
X139418572Y-163517143D01*
X139347143Y-163374286D01*
X139347143Y-162802857D01*
X139418572Y-162660000D01*
X139561429Y-162588571D01*
X139847143Y-162588571D01*
X139990000Y-162660000D01*
X140061429Y-162802857D01*
X140061429Y-162945714D01*
X139347143Y-163088571D01*
X140704286Y-163588571D02*
X140704286Y-162588571D01*
X140704286Y-162088571D02*
X140632857Y-162160000D01*
X140704286Y-162231429D01*
X140775714Y-162160000D01*
X140704286Y-162088571D01*
X140704286Y-162231429D01*
X142061429Y-162588571D02*
X142061429Y-163802857D01*
X141990000Y-163945714D01*
X141918572Y-164017143D01*
X141775715Y-164088571D01*
X141561429Y-164088571D01*
X141418572Y-164017143D01*
X142061429Y-163517143D02*
X141918572Y-163588571D01*
X141632858Y-163588571D01*
X141490000Y-163517143D01*
X141418572Y-163445714D01*
X141347143Y-163302857D01*
X141347143Y-162874286D01*
X141418572Y-162731429D01*
X141490000Y-162660000D01*
X141632858Y-162588571D01*
X141918572Y-162588571D01*
X142061429Y-162660000D01*
X142775715Y-163588571D02*
X142775715Y-162088571D01*
X143418572Y-163588571D02*
X143418572Y-162802857D01*
X143347143Y-162660000D01*
X143204286Y-162588571D01*
X142990001Y-162588571D01*
X142847143Y-162660000D01*
X142775715Y-162731429D01*
X143918572Y-162588571D02*
X144490001Y-162588571D01*
X144132858Y-162088571D02*
X144132858Y-163374286D01*
X144204286Y-163517143D01*
X144347144Y-163588571D01*
X144490001Y-163588571D01*
D12*
X94488000Y-38926000D02*
X95377000Y-38926000D01*
X94488000Y-37910000D02*
X94488000Y-38926000D01*
X98552000Y-38926000D02*
X97790000Y-38926000D01*
X98552000Y-37910000D02*
X98552000Y-38926000D01*
X98679000Y-43244000D02*
X97917000Y-43244000D01*
X98679000Y-42355000D02*
X98679000Y-43244000D01*
X94488000Y-43244000D02*
X95250000Y-43244000D01*
X94488000Y-42355000D02*
X94488000Y-43244000D01*
D13*
X96438572Y-38968571D02*
X96581429Y-38968571D01*
X96724286Y-39040000D01*
X96795715Y-39111429D01*
X96867144Y-39254286D01*
X96938572Y-39540000D01*
X96938572Y-39897143D01*
X96867144Y-40182857D01*
X96795715Y-40325714D01*
X96724286Y-40397143D01*
X96581429Y-40468571D01*
X96438572Y-40468571D01*
X96295715Y-40397143D01*
X96224286Y-40325714D01*
X96152858Y-40182857D01*
X96081429Y-39897143D01*
X96081429Y-39540000D01*
X96152858Y-39254286D01*
X96224286Y-39111429D01*
X96295715Y-39040000D01*
X96438572Y-38968571D01*
X96438572Y-42778571D02*
X96581429Y-42778571D01*
X96724286Y-42850000D01*
X96795715Y-42921429D01*
X96867144Y-43064286D01*
X96938572Y-43350000D01*
X96938572Y-43707143D01*
X96867144Y-43992857D01*
X96795715Y-44135714D01*
X96724286Y-44207143D01*
X96581429Y-44278571D01*
X96438572Y-44278571D01*
X96295715Y-44207143D01*
X96224286Y-44135714D01*
X96152858Y-43992857D01*
X96081429Y-43707143D01*
X96081429Y-43350000D01*
X96152858Y-43064286D01*
X96224286Y-42921429D01*
X96295715Y-42850000D01*
X96438572Y-42778571D01*
X100502572Y-45318571D02*
X100645429Y-45318571D01*
X100788286Y-45390000D01*
X100859715Y-45461429D01*
X100931144Y-45604286D01*
X101002572Y-45890000D01*
X101002572Y-46247143D01*
X100931144Y-46532857D01*
X100859715Y-46675714D01*
X100788286Y-46747143D01*
X100645429Y-46818571D01*
X100502572Y-46818571D01*
X100359715Y-46747143D01*
X100288286Y-46675714D01*
X100216858Y-46532857D01*
X100145429Y-46247143D01*
X100145429Y-45890000D01*
X100216858Y-45604286D01*
X100288286Y-45461429D01*
X100359715Y-45390000D01*
X100502572Y-45318571D01*
D12*
X102362000Y-46292000D02*
X101600000Y-46292000D01*
X102362000Y-45530000D02*
X102362000Y-46292000D01*
X95758000Y-46292000D02*
X96520000Y-46292000D01*
X95758000Y-45530000D02*
X95758000Y-46292000D01*
X115570000Y-27282000D02*
X115570000Y-29568000D01*
X115560000Y-84088000D02*
X115560000Y-86628000D01*
X115550000Y-141114000D02*
X115550000Y-143654000D01*
D15*
X153660000Y-27090000D02*
X110480000Y-27090000D01*
X110480000Y-27090000D02*
X110480000Y-29630000D01*
X110480000Y-29630000D02*
X153660000Y-29630000D01*
X156480000Y-26810000D02*
X154930000Y-26810000D01*
X153660000Y-27090000D02*
X153660000Y-29630000D01*
X154930000Y-29910000D02*
X156480000Y-29910000D01*
X156480000Y-29910000D02*
X156480000Y-26810000D01*
X153660000Y-84090000D02*
X110480000Y-84090000D01*
X110480000Y-84090000D02*
X110480000Y-86630000D01*
X110480000Y-86630000D02*
X153660000Y-86630000D01*
X156480000Y-83810000D02*
X154930000Y-83810000D01*
X153660000Y-84090000D02*
X153660000Y-86630000D01*
X154930000Y-86910000D02*
X156480000Y-86910000D01*
X156480000Y-86910000D02*
X156480000Y-83810000D01*
X153660000Y-141090000D02*
X110480000Y-141090000D01*
X110480000Y-141090000D02*
X110480000Y-143630000D01*
X110480000Y-143630000D02*
X153660000Y-143630000D01*
X156480000Y-140810000D02*
X154930000Y-140810000D01*
X153660000Y-141090000D02*
X153660000Y-143630000D01*
X154930000Y-143910000D02*
X156480000Y-143910000D01*
X156480000Y-143910000D02*
X156480000Y-140810000D01*
X97780000Y-37250000D02*
X102860000Y-37250000D01*
X102860000Y-37250000D02*
X102860000Y-34710000D01*
X102860000Y-34710000D02*
X97780000Y-34710000D01*
X94960000Y-34430000D02*
X96510000Y-34430000D01*
X97780000Y-34710000D02*
X97780000Y-37250000D01*
X96510000Y-37530000D02*
X94960000Y-37530000D01*
X94960000Y-37530000D02*
X94960000Y-34430000D01*
X97780000Y-41060000D02*
X102860000Y-41060000D01*
X102860000Y-41060000D02*
X102860000Y-38520000D01*
X102860000Y-38520000D02*
X97780000Y-38520000D01*
X94960000Y-38240000D02*
X96510000Y-38240000D01*
X97780000Y-38520000D02*
X97780000Y-41060000D01*
X96510000Y-41340000D02*
X94960000Y-41340000D01*
X94960000Y-41340000D02*
X94960000Y-38240000D01*
X97780000Y-44870000D02*
X102860000Y-44870000D01*
X102860000Y-44870000D02*
X102860000Y-42330000D01*
X102860000Y-42330000D02*
X97780000Y-42330000D01*
X94960000Y-42050000D02*
X96510000Y-42050000D01*
X97780000Y-42330000D02*
X97780000Y-44870000D01*
X96510000Y-45150000D02*
X94960000Y-45150000D01*
X94960000Y-45150000D02*
X94960000Y-42050000D01*
X113050000Y-110040000D02*
X113050000Y-108490000D01*
X111750000Y-110040000D02*
X113050000Y-110040000D01*
X107559000Y-108617000D02*
X101717000Y-108617000D01*
X101717000Y-108617000D02*
X101717000Y-108363000D01*
X101717000Y-108363000D02*
X107559000Y-108363000D01*
X107559000Y-108363000D02*
X107559000Y-108490000D01*
X107559000Y-108490000D02*
X101717000Y-108490000D01*
X110226000Y-90964000D02*
X110607000Y-90964000D01*
X110226000Y-90456000D02*
X110607000Y-90456000D01*
X110226000Y-108744000D02*
X110607000Y-108744000D01*
X110226000Y-108236000D02*
X110607000Y-108236000D01*
X110226000Y-106204000D02*
X110607000Y-106204000D01*
X110226000Y-105696000D02*
X110607000Y-105696000D01*
X110226000Y-103664000D02*
X110607000Y-103664000D01*
X110226000Y-103156000D02*
X110607000Y-103156000D01*
X110226000Y-92996000D02*
X110607000Y-92996000D01*
X110226000Y-93504000D02*
X110607000Y-93504000D01*
X110226000Y-95536000D02*
X110607000Y-95536000D01*
X110226000Y-96044000D02*
X110607000Y-96044000D01*
X110226000Y-98076000D02*
X110607000Y-98076000D01*
X110226000Y-98584000D02*
X110607000Y-98584000D01*
X110226000Y-100616000D02*
X110607000Y-100616000D01*
X110226000Y-101124000D02*
X110607000Y-101124000D01*
X110226000Y-94520000D02*
X107686000Y-94520000D01*
X110226000Y-94520000D02*
X110226000Y-91980000D01*
X110226000Y-91980000D02*
X107686000Y-91980000D01*
X107686000Y-93504000D02*
X101590000Y-93504000D01*
X101590000Y-93504000D02*
X101590000Y-92996000D01*
X101590000Y-92996000D02*
X107686000Y-92996000D01*
X107686000Y-91980000D02*
X107686000Y-94520000D01*
X107686000Y-89440000D02*
X107686000Y-91980000D01*
X101590000Y-90456000D02*
X107686000Y-90456000D01*
X101590000Y-90964000D02*
X101590000Y-90456000D01*
X107686000Y-90964000D02*
X101590000Y-90964000D01*
X110226000Y-91980000D02*
X110226000Y-89440000D01*
X110226000Y-91980000D02*
X107686000Y-91980000D01*
X110226000Y-89440000D02*
X107686000Y-89440000D01*
X110226000Y-109760000D02*
X107686000Y-109760000D01*
X110226000Y-107220000D02*
X107686000Y-107220000D01*
X110226000Y-107220000D02*
X110226000Y-104680000D01*
X110226000Y-104680000D02*
X107686000Y-104680000D01*
X107686000Y-106204000D02*
X101590000Y-106204000D01*
X101590000Y-106204000D02*
X101590000Y-105696000D01*
X101590000Y-105696000D02*
X107686000Y-105696000D01*
X107686000Y-104680000D02*
X107686000Y-107220000D01*
X107686000Y-107220000D02*
X107686000Y-109760000D01*
X101590000Y-108236000D02*
X107686000Y-108236000D01*
X101590000Y-108744000D02*
X101590000Y-108236000D01*
X107686000Y-108744000D02*
X101590000Y-108744000D01*
X110226000Y-107220000D02*
X107686000Y-107220000D01*
X110226000Y-109760000D02*
X110226000Y-107220000D01*
X110226000Y-99600000D02*
X107686000Y-99600000D01*
X110226000Y-99600000D02*
X110226000Y-97060000D01*
X110226000Y-97060000D02*
X107686000Y-97060000D01*
X107686000Y-98584000D02*
X101590000Y-98584000D01*
X101590000Y-98584000D02*
X101590000Y-98076000D01*
X101590000Y-98076000D02*
X107686000Y-98076000D01*
X107686000Y-97060000D02*
X107686000Y-99600000D01*
X107686000Y-94520000D02*
X107686000Y-97060000D01*
X101590000Y-95536000D02*
X107686000Y-95536000D01*
X101590000Y-96044000D02*
X101590000Y-95536000D01*
X107686000Y-96044000D02*
X101590000Y-96044000D01*
X110226000Y-94520000D02*
X107686000Y-94520000D01*
X110226000Y-97060000D02*
X110226000Y-94520000D01*
X110226000Y-97060000D02*
X107686000Y-97060000D01*
X110226000Y-102140000D02*
X107686000Y-102140000D01*
X110226000Y-102140000D02*
X110226000Y-99600000D01*
X110226000Y-99600000D02*
X107686000Y-99600000D01*
X107686000Y-101124000D02*
X101590000Y-101124000D01*
X101590000Y-101124000D02*
X101590000Y-100616000D01*
X101590000Y-100616000D02*
X107686000Y-100616000D01*
X107686000Y-99600000D02*
X107686000Y-102140000D01*
X107686000Y-102140000D02*
X107686000Y-104680000D01*
X101590000Y-103156000D02*
X107686000Y-103156000D01*
X101590000Y-103664000D02*
X101590000Y-103156000D01*
X107686000Y-103664000D02*
X101590000Y-103664000D01*
X110226000Y-102140000D02*
X107686000Y-102140000D01*
X110226000Y-104680000D02*
X110226000Y-102140000D01*
X110226000Y-104680000D02*
X107686000Y-104680000D01*
X121480000Y-109020000D02*
X124880000Y-109020000D01*
X121480000Y-109780000D02*
X124880000Y-109780000D01*
X118415000Y-105510000D02*
X127945000Y-105510000D01*
X127945000Y-105510000D02*
X127945000Y-115040000D01*
X127945000Y-115040000D02*
X118415000Y-115040000D01*
X118415000Y-115040000D02*
X118415000Y-105510000D01*
X124981735Y-109400000D02*
G75*
G03X124981735Y-109400000I-1801735J0D01*
G01*
X135850000Y-169170000D02*
X135850000Y-170720000D01*
X137150000Y-169170000D02*
X135850000Y-169170000D01*
X141341000Y-170593000D02*
X147183000Y-170593000D01*
X147183000Y-170593000D02*
X147183000Y-170847000D01*
X147183000Y-170847000D02*
X141341000Y-170847000D01*
X141341000Y-170847000D02*
X141341000Y-170720000D01*
X141341000Y-170720000D02*
X147183000Y-170720000D01*
X138674000Y-170466000D02*
X138293000Y-170466000D01*
X138674000Y-170974000D02*
X138293000Y-170974000D01*
X138674000Y-173006000D02*
X138293000Y-173006000D01*
X138674000Y-173514000D02*
X138293000Y-173514000D01*
X138674000Y-169450000D02*
X141214000Y-169450000D01*
X138674000Y-171990000D02*
X141214000Y-171990000D01*
X138674000Y-171990000D02*
X138674000Y-174530000D01*
X138674000Y-174530000D02*
X141214000Y-174530000D01*
X141214000Y-173006000D02*
X147310000Y-173006000D01*
X147310000Y-173006000D02*
X147310000Y-173514000D01*
X147310000Y-173514000D02*
X141214000Y-173514000D01*
X141214000Y-174530000D02*
X141214000Y-171990000D01*
X141214000Y-171990000D02*
X141214000Y-169450000D01*
X147310000Y-170974000D02*
X141214000Y-170974000D01*
X147310000Y-170466000D02*
X147310000Y-170974000D01*
X141214000Y-170466000D02*
X147310000Y-170466000D01*
X138674000Y-171990000D02*
X141214000Y-171990000D01*
X138674000Y-169450000D02*
X138674000Y-171990000D01*
X133310000Y-112020000D02*
X133310000Y-113570000D01*
X134610000Y-112020000D02*
X133310000Y-112020000D01*
X138801000Y-113443000D02*
X144643000Y-113443000D01*
X144643000Y-113443000D02*
X144643000Y-113697000D01*
X144643000Y-113697000D02*
X138801000Y-113697000D01*
X138801000Y-113697000D02*
X138801000Y-113570000D01*
X138801000Y-113570000D02*
X144643000Y-113570000D01*
X136134000Y-113316000D02*
X135753000Y-113316000D01*
X136134000Y-113824000D02*
X135753000Y-113824000D01*
X136134000Y-115856000D02*
X135753000Y-115856000D01*
X136134000Y-116364000D02*
X135753000Y-116364000D01*
X136134000Y-112300000D02*
X138674000Y-112300000D01*
X136134000Y-114840000D02*
X138674000Y-114840000D01*
X136134000Y-114840000D02*
X136134000Y-117380000D01*
X136134000Y-117380000D02*
X138674000Y-117380000D01*
X138674000Y-115856000D02*
X144770000Y-115856000D01*
X144770000Y-115856000D02*
X144770000Y-116364000D01*
X144770000Y-116364000D02*
X138674000Y-116364000D01*
X138674000Y-117380000D02*
X138674000Y-114840000D01*
X138674000Y-114840000D02*
X138674000Y-112300000D01*
X144770000Y-113824000D02*
X138674000Y-113824000D01*
X144770000Y-113316000D02*
X144770000Y-113824000D01*
X138674000Y-113316000D02*
X144770000Y-113316000D01*
X136134000Y-114840000D02*
X138674000Y-114840000D01*
X136134000Y-112300000D02*
X136134000Y-114840000D01*
X133310000Y-54870000D02*
X133310000Y-56420000D01*
X134610000Y-54870000D02*
X133310000Y-54870000D01*
X138801000Y-56293000D02*
X144643000Y-56293000D01*
X144643000Y-56293000D02*
X144643000Y-56547000D01*
X144643000Y-56547000D02*
X138801000Y-56547000D01*
X138801000Y-56547000D02*
X138801000Y-56420000D01*
X138801000Y-56420000D02*
X144643000Y-56420000D01*
X136134000Y-56166000D02*
X135753000Y-56166000D01*
X136134000Y-56674000D02*
X135753000Y-56674000D01*
X136134000Y-58706000D02*
X135753000Y-58706000D01*
X136134000Y-59214000D02*
X135753000Y-59214000D01*
X136134000Y-55150000D02*
X138674000Y-55150000D01*
X136134000Y-57690000D02*
X138674000Y-57690000D01*
X136134000Y-57690000D02*
X136134000Y-60230000D01*
X136134000Y-60230000D02*
X138674000Y-60230000D01*
X138674000Y-58706000D02*
X144770000Y-58706000D01*
X144770000Y-58706000D02*
X144770000Y-59214000D01*
X144770000Y-59214000D02*
X138674000Y-59214000D01*
X138674000Y-60230000D02*
X138674000Y-57690000D01*
X138674000Y-57690000D02*
X138674000Y-55150000D01*
X144770000Y-56674000D02*
X138674000Y-56674000D01*
X144770000Y-56166000D02*
X144770000Y-56674000D01*
X138674000Y-56166000D02*
X144770000Y-56166000D01*
X136134000Y-57690000D02*
X138674000Y-57690000D01*
X136134000Y-55150000D02*
X136134000Y-57690000D01*
X113050000Y-60510000D02*
X113050000Y-58960000D01*
X111750000Y-60510000D02*
X113050000Y-60510000D01*
X107559000Y-59087000D02*
X101717000Y-59087000D01*
X101717000Y-59087000D02*
X101717000Y-58833000D01*
X101717000Y-58833000D02*
X107559000Y-58833000D01*
X107559000Y-58833000D02*
X107559000Y-58960000D01*
X107559000Y-58960000D02*
X101717000Y-58960000D01*
X110226000Y-59214000D02*
X110607000Y-59214000D01*
X110226000Y-58706000D02*
X110607000Y-58706000D01*
X110226000Y-56674000D02*
X110607000Y-56674000D01*
X110226000Y-56166000D02*
X110607000Y-56166000D01*
X110226000Y-60230000D02*
X107686000Y-60230000D01*
X110226000Y-57690000D02*
X107686000Y-57690000D01*
X110226000Y-57690000D02*
X110226000Y-55150000D01*
X110226000Y-55150000D02*
X107686000Y-55150000D01*
X107686000Y-56674000D02*
X101590000Y-56674000D01*
X101590000Y-56674000D02*
X101590000Y-56166000D01*
X101590000Y-56166000D02*
X107686000Y-56166000D01*
X107686000Y-55150000D02*
X107686000Y-57690000D01*
X107686000Y-57690000D02*
X107686000Y-60230000D01*
X101590000Y-58706000D02*
X107686000Y-58706000D01*
X101590000Y-59214000D02*
X101590000Y-58706000D01*
X107686000Y-59214000D02*
X101590000Y-59214000D01*
X110226000Y-57690000D02*
X107686000Y-57690000D01*
X110226000Y-60230000D02*
X110226000Y-57690000D01*
X133310000Y-110040000D02*
X133310000Y-108490000D01*
X134610000Y-110040000D02*
X133310000Y-110040000D01*
X138801000Y-108617000D02*
X144643000Y-108617000D01*
X144643000Y-108617000D02*
X144643000Y-108363000D01*
X144643000Y-108363000D02*
X138801000Y-108363000D01*
X138801000Y-108363000D02*
X138801000Y-108490000D01*
X138801000Y-108490000D02*
X144643000Y-108490000D01*
X136134000Y-90964000D02*
X135753000Y-90964000D01*
X136134000Y-90456000D02*
X135753000Y-90456000D01*
X136134000Y-108744000D02*
X135753000Y-108744000D01*
X136134000Y-108236000D02*
X135753000Y-108236000D01*
X136134000Y-106204000D02*
X135753000Y-106204000D01*
X136134000Y-105696000D02*
X135753000Y-105696000D01*
X136134000Y-103664000D02*
X135753000Y-103664000D01*
X136134000Y-103156000D02*
X135753000Y-103156000D01*
X136134000Y-92996000D02*
X135753000Y-92996000D01*
X136134000Y-93504000D02*
X135753000Y-93504000D01*
X136134000Y-95536000D02*
X135753000Y-95536000D01*
X136134000Y-96044000D02*
X135753000Y-96044000D01*
X136134000Y-98076000D02*
X135753000Y-98076000D01*
X136134000Y-98584000D02*
X135753000Y-98584000D01*
X136134000Y-100616000D02*
X135753000Y-100616000D01*
X136134000Y-101124000D02*
X135753000Y-101124000D01*
X136134000Y-94520000D02*
X138674000Y-94520000D01*
X136134000Y-94520000D02*
X136134000Y-91980000D01*
X136134000Y-91980000D02*
X138674000Y-91980000D01*
X138674000Y-93504000D02*
X144770000Y-93504000D01*
X144770000Y-93504000D02*
X144770000Y-92996000D01*
X144770000Y-92996000D02*
X138674000Y-92996000D01*
X138674000Y-91980000D02*
X138674000Y-94520000D01*
X138674000Y-89440000D02*
X138674000Y-91980000D01*
X144770000Y-90456000D02*
X138674000Y-90456000D01*
X144770000Y-90964000D02*
X144770000Y-90456000D01*
X138674000Y-90964000D02*
X144770000Y-90964000D01*
X136134000Y-91980000D02*
X136134000Y-89440000D01*
X136134000Y-91980000D02*
X138674000Y-91980000D01*
X136134000Y-89440000D02*
X138674000Y-89440000D01*
X136134000Y-109760000D02*
X138674000Y-109760000D01*
X136134000Y-107220000D02*
X138674000Y-107220000D01*
X136134000Y-107220000D02*
X136134000Y-104680000D01*
X136134000Y-104680000D02*
X138674000Y-104680000D01*
X138674000Y-106204000D02*
X144770000Y-106204000D01*
X144770000Y-106204000D02*
X144770000Y-105696000D01*
X144770000Y-105696000D02*
X138674000Y-105696000D01*
X138674000Y-104680000D02*
X138674000Y-107220000D01*
X138674000Y-107220000D02*
X138674000Y-109760000D01*
X144770000Y-108236000D02*
X138674000Y-108236000D01*
X144770000Y-108744000D02*
X144770000Y-108236000D01*
X138674000Y-108744000D02*
X144770000Y-108744000D01*
X136134000Y-107220000D02*
X138674000Y-107220000D01*
X136134000Y-109760000D02*
X136134000Y-107220000D01*
X136134000Y-99600000D02*
X138674000Y-99600000D01*
X136134000Y-99600000D02*
X136134000Y-97060000D01*
X136134000Y-97060000D02*
X138674000Y-97060000D01*
X138674000Y-98584000D02*
X144770000Y-98584000D01*
X144770000Y-98584000D02*
X144770000Y-98076000D01*
X144770000Y-98076000D02*
X138674000Y-98076000D01*
X138674000Y-97060000D02*
X138674000Y-99600000D01*
X138674000Y-94520000D02*
X138674000Y-97060000D01*
X144770000Y-95536000D02*
X138674000Y-95536000D01*
X144770000Y-96044000D02*
X144770000Y-95536000D01*
X138674000Y-96044000D02*
X144770000Y-96044000D01*
X136134000Y-94520000D02*
X138674000Y-94520000D01*
X136134000Y-97060000D02*
X136134000Y-94520000D01*
X136134000Y-97060000D02*
X138674000Y-97060000D01*
X136134000Y-102140000D02*
X138674000Y-102140000D01*
X136134000Y-102140000D02*
X136134000Y-99600000D01*
X136134000Y-99600000D02*
X138674000Y-99600000D01*
X138674000Y-101124000D02*
X144770000Y-101124000D01*
X144770000Y-101124000D02*
X144770000Y-100616000D01*
X144770000Y-100616000D02*
X138674000Y-100616000D01*
X138674000Y-99600000D02*
X138674000Y-102140000D01*
X138674000Y-102140000D02*
X138674000Y-104680000D01*
X144770000Y-103156000D02*
X138674000Y-103156000D01*
X144770000Y-103664000D02*
X144770000Y-103156000D01*
X138674000Y-103664000D02*
X144770000Y-103664000D01*
X136134000Y-102140000D02*
X138674000Y-102140000D01*
X136134000Y-104680000D02*
X136134000Y-102140000D01*
X136134000Y-104680000D02*
X138674000Y-104680000D01*
X107475000Y-88720000D02*
X107475000Y-88575000D01*
X103325000Y-88720000D02*
X103325000Y-88575000D01*
X103325000Y-83570000D02*
X103325000Y-83715000D01*
X107475000Y-83570000D02*
X107475000Y-83715000D01*
X107475000Y-88720000D02*
X103325000Y-88720000D01*
X107475000Y-83570000D02*
X103325000Y-83570000D01*
X107475000Y-88575000D02*
X108875000Y-88575000D01*
X107475000Y-32840000D02*
X107475000Y-32695000D01*
X103325000Y-32840000D02*
X103325000Y-32695000D01*
X103325000Y-27690000D02*
X103325000Y-27835000D01*
X107475000Y-27690000D02*
X107475000Y-27835000D01*
X107475000Y-32840000D02*
X103325000Y-32840000D01*
X107475000Y-27690000D02*
X103325000Y-27690000D01*
X107475000Y-32695000D02*
X108875000Y-32695000D01*
X107475000Y-147140000D02*
X107475000Y-146995000D01*
X103325000Y-147140000D02*
X103325000Y-146995000D01*
X103325000Y-141990000D02*
X103325000Y-142135000D01*
X107475000Y-141990000D02*
X107475000Y-142135000D01*
X107475000Y-147140000D02*
X103325000Y-147140000D01*
X107475000Y-141990000D02*
X103325000Y-141990000D01*
X107475000Y-146995000D02*
X108875000Y-146995000D01*
X141985000Y-36115000D02*
X140715000Y-36115000D01*
X141985000Y-43465000D02*
X140715000Y-43465000D01*
X104375000Y-43465000D02*
X105645000Y-43465000D01*
X104375000Y-36115000D02*
X105645000Y-36115000D01*
X141985000Y-36115000D02*
X141985000Y-43465000D01*
X104375000Y-36115000D02*
X104375000Y-43465000D01*
X140715000Y-36115000D02*
X140715000Y-35180000D01*
X116832540Y-53506520D02*
X116832540Y-54903520D01*
X116832540Y-49061520D02*
X116832540Y-47537520D01*
X117594540Y-49442520D02*
X116070540Y-49442520D01*
X117594540Y-49188520D02*
X116070540Y-49188520D01*
X116832540Y-48934520D02*
X116070540Y-48934520D01*
X116070540Y-48934520D02*
X116070540Y-53506520D01*
X116070540Y-53506520D02*
X117594540Y-53506520D01*
X117594540Y-53506520D02*
X117594540Y-48934520D01*
X117594540Y-48934520D02*
X116832540Y-48934520D01*
X119370000Y-145200000D02*
X124450000Y-145200000D01*
X124450000Y-145200000D02*
X124450000Y-147740000D01*
X124450000Y-147740000D02*
X119370000Y-147740000D01*
X119370000Y-147740000D02*
X119370000Y-145200000D01*
X119370000Y-146470000D02*
X118100000Y-146470000D01*
X124450000Y-146470000D02*
X125720000Y-146470000D01*
X124450000Y-90590000D02*
X119370000Y-90590000D01*
X119370000Y-90590000D02*
X119370000Y-88050000D01*
X119370000Y-88050000D02*
X124450000Y-88050000D01*
X124450000Y-88050000D02*
X124450000Y-90590000D01*
X124450000Y-89320000D02*
X125720000Y-89320000D01*
X119370000Y-89320000D02*
X118100000Y-89320000D01*
X124450000Y-30900000D02*
X129530000Y-30900000D01*
X129530000Y-30900000D02*
X129530000Y-33440000D01*
X129530000Y-33440000D02*
X124450000Y-33440000D01*
X124450000Y-33440000D02*
X124450000Y-30900000D01*
X124450000Y-32170000D02*
X123180000Y-32170000D01*
X129530000Y-32170000D02*
X130800000Y-32170000D01*
X120370000Y-33170000D02*
X113370000Y-33170000D01*
X113370000Y-33170000D02*
X113370000Y-31170000D01*
X113370000Y-31170000D02*
X120370000Y-31170000D01*
X120370000Y-31170000D02*
X120370000Y-33170000D01*
X100930000Y-33360000D02*
X93930000Y-33360000D01*
X93930000Y-33360000D02*
X93930000Y-31360000D01*
X93930000Y-31360000D02*
X100930000Y-31360000D01*
X100930000Y-31360000D02*
X100930000Y-33360000D01*
X100590000Y-68650000D02*
X100590000Y-61650000D01*
X100590000Y-61650000D02*
X102590000Y-61650000D01*
X102590000Y-61650000D02*
X102590000Y-68650000D01*
X102590000Y-68650000D02*
X100590000Y-68650000D01*
X100590000Y-80360000D02*
X100590000Y-73360000D01*
X100590000Y-73360000D02*
X102590000Y-73360000D01*
X102590000Y-73360000D02*
X102590000Y-80360000D01*
X102590000Y-80360000D02*
X100590000Y-80360000D01*
X101955000Y-148090000D02*
X101955000Y-155090000D01*
X101955000Y-155090000D02*
X99955000Y-155090000D01*
X99955000Y-155090000D02*
X99955000Y-148090000D01*
X99955000Y-148090000D02*
X101955000Y-148090000D01*
X99930000Y-170360000D02*
X99930000Y-163360000D01*
X99930000Y-163360000D02*
X101930000Y-163360000D01*
X101930000Y-163360000D02*
X101930000Y-170360000D01*
X101930000Y-170360000D02*
X99930000Y-170360000D01*
X101930000Y-129360000D02*
X101930000Y-136360000D01*
X101930000Y-136360000D02*
X99930000Y-136360000D01*
X99930000Y-136360000D02*
X99930000Y-129360000D01*
X99930000Y-129360000D02*
X101930000Y-129360000D01*
X100320000Y-183935000D02*
G75*
G03X100320000Y-183935000I-2540000J0D01*
G01*
D16*
X99170000Y-186475000D02*
X99170000Y-178735000D01*
X99170000Y-178735000D02*
X96390000Y-178735000D01*
X96390000Y-178735000D02*
X96390000Y-186475000D01*
X96390000Y-186475000D02*
X99170000Y-186475000D01*
X99170000Y-187745000D02*
X99170000Y-189135000D01*
X99170000Y-189135000D02*
X97780000Y-189135000D01*
D15*
X100320000Y-126150000D02*
G75*
G03X100320000Y-126150000I-2540000J0D01*
G01*
D16*
X99170000Y-128690000D02*
X99170000Y-120950000D01*
X99170000Y-120950000D02*
X96390000Y-120950000D01*
X96390000Y-120950000D02*
X96390000Y-128690000D01*
X96390000Y-128690000D02*
X99170000Y-128690000D01*
X99170000Y-129960000D02*
X99170000Y-131350000D01*
X99170000Y-131350000D02*
X97780000Y-131350000D01*
D15*
X100320000Y-70270000D02*
G75*
G03X100320000Y-70270000I-2540000J0D01*
G01*
D16*
X99170000Y-72810000D02*
X99170000Y-65070000D01*
X99170000Y-65070000D02*
X96390000Y-65070000D01*
X96390000Y-65070000D02*
X96390000Y-72810000D01*
X96390000Y-72810000D02*
X99170000Y-72810000D01*
X99170000Y-74080000D02*
X99170000Y-75470000D01*
X99170000Y-75470000D02*
X97780000Y-75470000D01*
D15*
X149175714Y-31987381D02*
X149175714Y-30987381D01*
X149413809Y-30987381D01*
X149556667Y-31035000D01*
X149651905Y-31130238D01*
X149699524Y-31225476D01*
X149747143Y-31415952D01*
X149747143Y-31558810D01*
X149699524Y-31749286D01*
X149651905Y-31844524D01*
X149556667Y-31939762D01*
X149413809Y-31987381D01*
X149175714Y-31987381D01*
X150175714Y-31987381D02*
X150175714Y-30987381D01*
X150604285Y-31939762D02*
X150747142Y-31987381D01*
X150985238Y-31987381D01*
X151080476Y-31939762D01*
X151128095Y-31892143D01*
X151175714Y-31796905D01*
X151175714Y-31701667D01*
X151128095Y-31606429D01*
X151080476Y-31558810D01*
X150985238Y-31511190D01*
X150794761Y-31463571D01*
X150699523Y-31415952D01*
X150651904Y-31368333D01*
X150604285Y-31273095D01*
X150604285Y-31177857D01*
X150651904Y-31082619D01*
X150699523Y-31035000D01*
X150794761Y-30987381D01*
X151032857Y-30987381D01*
X151175714Y-31035000D01*
X151604285Y-31987381D02*
X151604285Y-30987381D01*
X151985238Y-30987381D01*
X152080476Y-31035000D01*
X152128095Y-31082619D01*
X152175714Y-31177857D01*
X152175714Y-31320714D01*
X152128095Y-31415952D01*
X152080476Y-31463571D01*
X151985238Y-31511190D01*
X151604285Y-31511190D01*
X153080476Y-31987381D02*
X152604285Y-31987381D01*
X152604285Y-30987381D01*
X153366190Y-31701667D02*
X153842381Y-31701667D01*
X153270952Y-31987381D02*
X153604285Y-30987381D01*
X153937619Y-31987381D01*
X154461428Y-31511190D02*
X154461428Y-31987381D01*
X154128095Y-30987381D02*
X154461428Y-31511190D01*
X154794762Y-30987381D01*
X155032857Y-30987381D02*
X155651905Y-30987381D01*
X155318571Y-31368333D01*
X155461429Y-31368333D01*
X155556667Y-31415952D01*
X155604286Y-31463571D01*
X155651905Y-31558810D01*
X155651905Y-31796905D01*
X155604286Y-31892143D01*
X155556667Y-31939762D01*
X155461429Y-31987381D01*
X155175714Y-31987381D01*
X155080476Y-31939762D01*
X155032857Y-31892143D01*
X149175714Y-89137381D02*
X149175714Y-88137381D01*
X149413809Y-88137381D01*
X149556667Y-88185000D01*
X149651905Y-88280238D01*
X149699524Y-88375476D01*
X149747143Y-88565952D01*
X149747143Y-88708810D01*
X149699524Y-88899286D01*
X149651905Y-88994524D01*
X149556667Y-89089762D01*
X149413809Y-89137381D01*
X149175714Y-89137381D01*
X150175714Y-89137381D02*
X150175714Y-88137381D01*
X150604285Y-89089762D02*
X150747142Y-89137381D01*
X150985238Y-89137381D01*
X151080476Y-89089762D01*
X151128095Y-89042143D01*
X151175714Y-88946905D01*
X151175714Y-88851667D01*
X151128095Y-88756429D01*
X151080476Y-88708810D01*
X150985238Y-88661190D01*
X150794761Y-88613571D01*
X150699523Y-88565952D01*
X150651904Y-88518333D01*
X150604285Y-88423095D01*
X150604285Y-88327857D01*
X150651904Y-88232619D01*
X150699523Y-88185000D01*
X150794761Y-88137381D01*
X151032857Y-88137381D01*
X151175714Y-88185000D01*
X151604285Y-89137381D02*
X151604285Y-88137381D01*
X151985238Y-88137381D01*
X152080476Y-88185000D01*
X152128095Y-88232619D01*
X152175714Y-88327857D01*
X152175714Y-88470714D01*
X152128095Y-88565952D01*
X152080476Y-88613571D01*
X151985238Y-88661190D01*
X151604285Y-88661190D01*
X153080476Y-89137381D02*
X152604285Y-89137381D01*
X152604285Y-88137381D01*
X153366190Y-88851667D02*
X153842381Y-88851667D01*
X153270952Y-89137381D02*
X153604285Y-88137381D01*
X153937619Y-89137381D01*
X154461428Y-88661190D02*
X154461428Y-89137381D01*
X154128095Y-88137381D02*
X154461428Y-88661190D01*
X154794762Y-88137381D01*
X155080476Y-88232619D02*
X155128095Y-88185000D01*
X155223333Y-88137381D01*
X155461429Y-88137381D01*
X155556667Y-88185000D01*
X155604286Y-88232619D01*
X155651905Y-88327857D01*
X155651905Y-88423095D01*
X155604286Y-88565952D01*
X155032857Y-89137381D01*
X155651905Y-89137381D01*
X149175714Y-145612381D02*
X149175714Y-144612381D01*
X149413809Y-144612381D01*
X149556667Y-144660000D01*
X149651905Y-144755238D01*
X149699524Y-144850476D01*
X149747143Y-145040952D01*
X149747143Y-145183810D01*
X149699524Y-145374286D01*
X149651905Y-145469524D01*
X149556667Y-145564762D01*
X149413809Y-145612381D01*
X149175714Y-145612381D01*
X150175714Y-145612381D02*
X150175714Y-144612381D01*
X150604285Y-145564762D02*
X150747142Y-145612381D01*
X150985238Y-145612381D01*
X151080476Y-145564762D01*
X151128095Y-145517143D01*
X151175714Y-145421905D01*
X151175714Y-145326667D01*
X151128095Y-145231429D01*
X151080476Y-145183810D01*
X150985238Y-145136190D01*
X150794761Y-145088571D01*
X150699523Y-145040952D01*
X150651904Y-144993333D01*
X150604285Y-144898095D01*
X150604285Y-144802857D01*
X150651904Y-144707619D01*
X150699523Y-144660000D01*
X150794761Y-144612381D01*
X151032857Y-144612381D01*
X151175714Y-144660000D01*
X151604285Y-145612381D02*
X151604285Y-144612381D01*
X151985238Y-144612381D01*
X152080476Y-144660000D01*
X152128095Y-144707619D01*
X152175714Y-144802857D01*
X152175714Y-144945714D01*
X152128095Y-145040952D01*
X152080476Y-145088571D01*
X151985238Y-145136190D01*
X151604285Y-145136190D01*
X153080476Y-145612381D02*
X152604285Y-145612381D01*
X152604285Y-144612381D01*
X153366190Y-145326667D02*
X153842381Y-145326667D01*
X153270952Y-145612381D02*
X153604285Y-144612381D01*
X153937619Y-145612381D01*
X154461428Y-145136190D02*
X154461428Y-145612381D01*
X154128095Y-144612381D02*
X154461428Y-145136190D01*
X154794762Y-144612381D01*
X155651905Y-145612381D02*
X155080476Y-145612381D01*
X155366190Y-145612381D02*
X155366190Y-144612381D01*
X155270952Y-144755238D01*
X155175714Y-144850476D01*
X155080476Y-144898095D01*
X92620714Y-36146667D02*
X93096905Y-36146667D01*
X92525476Y-36432381D02*
X92858809Y-35432381D01*
X93192143Y-36432381D01*
X93715952Y-35432381D02*
X93811191Y-35432381D01*
X93906429Y-35480000D01*
X93954048Y-35527619D01*
X94001667Y-35622857D01*
X94049286Y-35813333D01*
X94049286Y-36051429D01*
X94001667Y-36241905D01*
X93954048Y-36337143D01*
X93906429Y-36384762D01*
X93811191Y-36432381D01*
X93715952Y-36432381D01*
X93620714Y-36384762D01*
X93573095Y-36337143D01*
X93525476Y-36241905D01*
X93477857Y-36051429D01*
X93477857Y-35813333D01*
X93525476Y-35622857D01*
X93573095Y-35527619D01*
X93620714Y-35480000D01*
X93715952Y-35432381D01*
X92620714Y-39956667D02*
X93096905Y-39956667D01*
X92525476Y-40242381D02*
X92858809Y-39242381D01*
X93192143Y-40242381D01*
X94049286Y-40242381D02*
X93477857Y-40242381D01*
X93763571Y-40242381D02*
X93763571Y-39242381D01*
X93668333Y-39385238D01*
X93573095Y-39480476D01*
X93477857Y-39528095D01*
X92620714Y-43766667D02*
X93096905Y-43766667D01*
X92525476Y-44052381D02*
X92858809Y-43052381D01*
X93192143Y-44052381D01*
X93477857Y-43147619D02*
X93525476Y-43100000D01*
X93620714Y-43052381D01*
X93858810Y-43052381D01*
X93954048Y-43100000D01*
X94001667Y-43147619D01*
X94049286Y-43242857D01*
X94049286Y-43338095D01*
X94001667Y-43480952D01*
X93430238Y-44052381D01*
X94049286Y-44052381D01*
X110750000Y-110362381D02*
X110940477Y-110362381D01*
X111035715Y-110410000D01*
X111130953Y-110505238D01*
X111178572Y-110695714D01*
X111178572Y-111029048D01*
X111130953Y-111219524D01*
X111035715Y-111314762D01*
X110940477Y-111362381D01*
X110750000Y-111362381D01*
X110654762Y-111314762D01*
X110559524Y-111219524D01*
X110511905Y-111029048D01*
X110511905Y-110695714D01*
X110559524Y-110505238D01*
X110654762Y-110410000D01*
X110750000Y-110362381D01*
X111607143Y-110362381D02*
X111607143Y-111171905D01*
X111654762Y-111267143D01*
X111702381Y-111314762D01*
X111797619Y-111362381D01*
X111988096Y-111362381D01*
X112083334Y-111314762D01*
X112130953Y-111267143D01*
X112178572Y-111171905D01*
X112178572Y-110362381D01*
X112511905Y-110362381D02*
X113083334Y-110362381D01*
X112797619Y-111362381D02*
X112797619Y-110362381D01*
X119790762Y-107044381D02*
X119457428Y-106568190D01*
X119219333Y-107044381D02*
X119219333Y-106044381D01*
X119600286Y-106044381D01*
X119695524Y-106092000D01*
X119743143Y-106139619D01*
X119790762Y-106234857D01*
X119790762Y-106377714D01*
X119743143Y-106472952D01*
X119695524Y-106520571D01*
X119600286Y-106568190D01*
X119219333Y-106568190D01*
X120076476Y-106044381D02*
X120409809Y-107044381D01*
X120743143Y-106044381D01*
X121028857Y-106139619D02*
X121076476Y-106092000D01*
X121171714Y-106044381D01*
X121409810Y-106044381D01*
X121505048Y-106092000D01*
X121552667Y-106139619D01*
X121600286Y-106234857D01*
X121600286Y-106330095D01*
X121552667Y-106472952D01*
X120981238Y-107044381D01*
X121600286Y-107044381D01*
X132641667Y-172274762D02*
X132784524Y-172322381D01*
X133022620Y-172322381D01*
X133117858Y-172274762D01*
X133165477Y-172227143D01*
X133213096Y-172131905D01*
X133213096Y-172036667D01*
X133165477Y-171941429D01*
X133117858Y-171893810D01*
X133022620Y-171846190D01*
X132832143Y-171798571D01*
X132736905Y-171750952D01*
X132689286Y-171703333D01*
X132641667Y-171608095D01*
X132641667Y-171512857D01*
X132689286Y-171417619D01*
X132736905Y-171370000D01*
X132832143Y-171322381D01*
X133070239Y-171322381D01*
X133213096Y-171370000D01*
X133546429Y-171322381D02*
X133784524Y-172322381D01*
X133975001Y-171608095D01*
X134165477Y-172322381D01*
X134403572Y-171322381D01*
X135308334Y-172322381D02*
X134736905Y-172322381D01*
X135022619Y-172322381D02*
X135022619Y-171322381D01*
X134927381Y-171465238D01*
X134832143Y-171560476D01*
X134736905Y-171608095D01*
X130101667Y-115124762D02*
X130244524Y-115172381D01*
X130482620Y-115172381D01*
X130577858Y-115124762D01*
X130625477Y-115077143D01*
X130673096Y-114981905D01*
X130673096Y-114886667D01*
X130625477Y-114791429D01*
X130577858Y-114743810D01*
X130482620Y-114696190D01*
X130292143Y-114648571D01*
X130196905Y-114600952D01*
X130149286Y-114553333D01*
X130101667Y-114458095D01*
X130101667Y-114362857D01*
X130149286Y-114267619D01*
X130196905Y-114220000D01*
X130292143Y-114172381D01*
X130530239Y-114172381D01*
X130673096Y-114220000D01*
X131006429Y-114172381D02*
X131244524Y-115172381D01*
X131435001Y-114458095D01*
X131625477Y-115172381D01*
X131863572Y-114172381D01*
X132196905Y-114267619D02*
X132244524Y-114220000D01*
X132339762Y-114172381D01*
X132577858Y-114172381D01*
X132673096Y-114220000D01*
X132720715Y-114267619D01*
X132768334Y-114362857D01*
X132768334Y-114458095D01*
X132720715Y-114600952D01*
X132149286Y-115172381D01*
X132768334Y-115172381D01*
X130101667Y-57974762D02*
X130244524Y-58022381D01*
X130482620Y-58022381D01*
X130577858Y-57974762D01*
X130625477Y-57927143D01*
X130673096Y-57831905D01*
X130673096Y-57736667D01*
X130625477Y-57641429D01*
X130577858Y-57593810D01*
X130482620Y-57546190D01*
X130292143Y-57498571D01*
X130196905Y-57450952D01*
X130149286Y-57403333D01*
X130101667Y-57308095D01*
X130101667Y-57212857D01*
X130149286Y-57117619D01*
X130196905Y-57070000D01*
X130292143Y-57022381D01*
X130530239Y-57022381D01*
X130673096Y-57070000D01*
X131006429Y-57022381D02*
X131244524Y-58022381D01*
X131435001Y-57308095D01*
X131625477Y-58022381D01*
X131863572Y-57022381D01*
X132149286Y-57022381D02*
X132768334Y-57022381D01*
X132435000Y-57403333D01*
X132577858Y-57403333D01*
X132673096Y-57450952D01*
X132720715Y-57498571D01*
X132768334Y-57593810D01*
X132768334Y-57831905D01*
X132720715Y-57927143D01*
X132673096Y-57974762D01*
X132577858Y-58022381D01*
X132292143Y-58022381D01*
X132196905Y-57974762D01*
X132149286Y-57927143D01*
X113591667Y-57974762D02*
X113734524Y-58022381D01*
X113972620Y-58022381D01*
X114067858Y-57974762D01*
X114115477Y-57927143D01*
X114163096Y-57831905D01*
X114163096Y-57736667D01*
X114115477Y-57641429D01*
X114067858Y-57593810D01*
X113972620Y-57546190D01*
X113782143Y-57498571D01*
X113686905Y-57450952D01*
X113639286Y-57403333D01*
X113591667Y-57308095D01*
X113591667Y-57212857D01*
X113639286Y-57117619D01*
X113686905Y-57070000D01*
X113782143Y-57022381D01*
X114020239Y-57022381D01*
X114163096Y-57070000D01*
X114496429Y-57022381D02*
X114734524Y-58022381D01*
X114925001Y-57308095D01*
X115115477Y-58022381D01*
X115353572Y-57022381D01*
X116163096Y-57355714D02*
X116163096Y-58022381D01*
X115925000Y-56974762D02*
X115686905Y-57689048D01*
X116305953Y-57689048D01*
X134086191Y-111362381D02*
X134086191Y-110362381D01*
X134562381Y-111362381D02*
X134562381Y-110362381D01*
X135133810Y-111362381D01*
X135133810Y-110362381D01*
X104638095Y-89097381D02*
X104638095Y-89906905D01*
X104685714Y-90002143D01*
X104733333Y-90049762D01*
X104828571Y-90097381D01*
X105019048Y-90097381D01*
X105114286Y-90049762D01*
X105161905Y-90002143D01*
X105209524Y-89906905D01*
X105209524Y-89097381D01*
X105590476Y-89097381D02*
X106209524Y-89097381D01*
X105876190Y-89478333D01*
X106019048Y-89478333D01*
X106114286Y-89525952D01*
X106161905Y-89573571D01*
X106209524Y-89668810D01*
X106209524Y-89906905D01*
X106161905Y-90002143D01*
X106114286Y-90049762D01*
X106019048Y-90097381D01*
X105733333Y-90097381D01*
X105638095Y-90049762D01*
X105590476Y-90002143D01*
X104638095Y-33217381D02*
X104638095Y-34026905D01*
X104685714Y-34122143D01*
X104733333Y-34169762D01*
X104828571Y-34217381D01*
X105019048Y-34217381D01*
X105114286Y-34169762D01*
X105161905Y-34122143D01*
X105209524Y-34026905D01*
X105209524Y-33217381D01*
X106114286Y-33550714D02*
X106114286Y-34217381D01*
X105876190Y-33169762D02*
X105638095Y-33884048D01*
X106257143Y-33884048D01*
X104638095Y-147517381D02*
X104638095Y-148326905D01*
X104685714Y-148422143D01*
X104733333Y-148469762D01*
X104828571Y-148517381D01*
X105019048Y-148517381D01*
X105114286Y-148469762D01*
X105161905Y-148422143D01*
X105209524Y-148326905D01*
X105209524Y-147517381D01*
X105638095Y-147612619D02*
X105685714Y-147565000D01*
X105780952Y-147517381D01*
X106019048Y-147517381D01*
X106114286Y-147565000D01*
X106161905Y-147612619D01*
X106209524Y-147707857D01*
X106209524Y-147803095D01*
X106161905Y-147945952D01*
X105590476Y-148517381D01*
X106209524Y-148517381D01*
X144362381Y-36741905D02*
X145171905Y-36741905D01*
X145267143Y-36694286D01*
X145314762Y-36646667D01*
X145362381Y-36551429D01*
X145362381Y-36360952D01*
X145314762Y-36265714D01*
X145267143Y-36218095D01*
X145171905Y-36170476D01*
X144362381Y-36170476D01*
X145362381Y-35170476D02*
X145362381Y-35741905D01*
X145362381Y-35456191D02*
X144362381Y-35456191D01*
X144505238Y-35551429D01*
X144600476Y-35646667D01*
X144648095Y-35741905D01*
X114744921Y-52308615D02*
X113744921Y-52308615D01*
X113744921Y-52070520D01*
X113792540Y-51927662D01*
X113887778Y-51832424D01*
X113983016Y-51784805D01*
X114173492Y-51737186D01*
X114316350Y-51737186D01*
X114506826Y-51784805D01*
X114602064Y-51832424D01*
X114697302Y-51927662D01*
X114744921Y-52070520D01*
X114744921Y-52308615D01*
X114744921Y-50784805D02*
X114744921Y-51356234D01*
X114744921Y-51070520D02*
X113744921Y-51070520D01*
X113887778Y-51165758D01*
X113983016Y-51260996D01*
X114030635Y-51356234D01*
X129363334Y-146922381D02*
X129030000Y-146446190D01*
X128791905Y-146922381D02*
X128791905Y-145922381D01*
X129172858Y-145922381D01*
X129268096Y-145970000D01*
X129315715Y-146017619D01*
X129363334Y-146112857D01*
X129363334Y-146255714D01*
X129315715Y-146350952D01*
X129268096Y-146398571D01*
X129172858Y-146446190D01*
X128791905Y-146446190D01*
X130315715Y-146922381D02*
X129744286Y-146922381D01*
X130030000Y-146922381D02*
X130030000Y-145922381D01*
X129934762Y-146065238D01*
X129839524Y-146160476D01*
X129744286Y-146208095D01*
X129363334Y-89772381D02*
X129030000Y-89296190D01*
X128791905Y-89772381D02*
X128791905Y-88772381D01*
X129172858Y-88772381D01*
X129268096Y-88820000D01*
X129315715Y-88867619D01*
X129363334Y-88962857D01*
X129363334Y-89105714D01*
X129315715Y-89200952D01*
X129268096Y-89248571D01*
X129172858Y-89296190D01*
X128791905Y-89296190D01*
X129744286Y-88867619D02*
X129791905Y-88820000D01*
X129887143Y-88772381D01*
X130125239Y-88772381D01*
X130220477Y-88820000D01*
X130268096Y-88867619D01*
X130315715Y-88962857D01*
X130315715Y-89058095D01*
X130268096Y-89200952D01*
X129696667Y-89772381D01*
X130315715Y-89772381D01*
X134443334Y-32622381D02*
X134110000Y-32146190D01*
X133871905Y-32622381D02*
X133871905Y-31622381D01*
X134252858Y-31622381D01*
X134348096Y-31670000D01*
X134395715Y-31717619D01*
X134443334Y-31812857D01*
X134443334Y-31955714D01*
X134395715Y-32050952D01*
X134348096Y-32098571D01*
X134252858Y-32146190D01*
X133871905Y-32146190D01*
X134776667Y-31622381D02*
X135395715Y-31622381D01*
X135062381Y-32003333D01*
X135205239Y-32003333D01*
X135300477Y-32050952D01*
X135348096Y-32098571D01*
X135395715Y-32193810D01*
X135395715Y-32431905D01*
X135348096Y-32527143D01*
X135300477Y-32574762D01*
X135205239Y-32622381D01*
X134919524Y-32622381D01*
X134824286Y-32574762D01*
X134776667Y-32527143D01*
X116703334Y-34777143D02*
X116655715Y-34824762D01*
X116512858Y-34872381D01*
X116417620Y-34872381D01*
X116274762Y-34824762D01*
X116179524Y-34729524D01*
X116131905Y-34634286D01*
X116084286Y-34443810D01*
X116084286Y-34300952D01*
X116131905Y-34110476D01*
X116179524Y-34015238D01*
X116274762Y-33920000D01*
X116417620Y-33872381D01*
X116512858Y-33872381D01*
X116655715Y-33920000D01*
X116703334Y-33967619D01*
X117655715Y-34872381D02*
X117084286Y-34872381D01*
X117370000Y-34872381D02*
X117370000Y-33872381D01*
X117274762Y-34015238D01*
X117179524Y-34110476D01*
X117084286Y-34158095D01*
X97263334Y-34967143D02*
X97215715Y-35014762D01*
X97072858Y-35062381D01*
X96977620Y-35062381D01*
X96834762Y-35014762D01*
X96739524Y-34919524D01*
X96691905Y-34824286D01*
X96644286Y-34633810D01*
X96644286Y-34490952D01*
X96691905Y-34300476D01*
X96739524Y-34205238D01*
X96834762Y-34110000D01*
X96977620Y-34062381D01*
X97072858Y-34062381D01*
X97215715Y-34110000D01*
X97263334Y-34157619D01*
X98120477Y-34395714D02*
X98120477Y-35062381D01*
X97882381Y-34014762D02*
X97644286Y-34729048D01*
X98263334Y-34729048D01*
X99697143Y-65316666D02*
X99744762Y-65364285D01*
X99792381Y-65507142D01*
X99792381Y-65602380D01*
X99744762Y-65745238D01*
X99649524Y-65840476D01*
X99554286Y-65888095D01*
X99363810Y-65935714D01*
X99220952Y-65935714D01*
X99030476Y-65888095D01*
X98935238Y-65840476D01*
X98840000Y-65745238D01*
X98792381Y-65602380D01*
X98792381Y-65507142D01*
X98840000Y-65364285D01*
X98887619Y-65316666D01*
X98792381Y-64983333D02*
X98792381Y-64316666D01*
X99792381Y-64745238D01*
X99697143Y-77026666D02*
X99744762Y-77074285D01*
X99792381Y-77217142D01*
X99792381Y-77312380D01*
X99744762Y-77455238D01*
X99649524Y-77550476D01*
X99554286Y-77598095D01*
X99363810Y-77645714D01*
X99220952Y-77645714D01*
X99030476Y-77598095D01*
X98935238Y-77550476D01*
X98840000Y-77455238D01*
X98792381Y-77312380D01*
X98792381Y-77217142D01*
X98840000Y-77074285D01*
X98887619Y-77026666D01*
X98792381Y-76693333D02*
X98792381Y-76074285D01*
X99173333Y-76407619D01*
X99173333Y-76264761D01*
X99220952Y-76169523D01*
X99268571Y-76121904D01*
X99363810Y-76074285D01*
X99601905Y-76074285D01*
X99697143Y-76121904D01*
X99744762Y-76169523D01*
X99792381Y-76264761D01*
X99792381Y-76550476D01*
X99744762Y-76645714D01*
X99697143Y-76693333D01*
X103562143Y-151756666D02*
X103609762Y-151804285D01*
X103657381Y-151947142D01*
X103657381Y-152042380D01*
X103609762Y-152185238D01*
X103514524Y-152280476D01*
X103419286Y-152328095D01*
X103228810Y-152375714D01*
X103085952Y-152375714D01*
X102895476Y-152328095D01*
X102800238Y-152280476D01*
X102705000Y-152185238D01*
X102657381Y-152042380D01*
X102657381Y-151947142D01*
X102705000Y-151804285D01*
X102752619Y-151756666D01*
X102752619Y-151375714D02*
X102705000Y-151328095D01*
X102657381Y-151232857D01*
X102657381Y-150994761D01*
X102705000Y-150899523D01*
X102752619Y-150851904D01*
X102847857Y-150804285D01*
X102943095Y-150804285D01*
X103085952Y-150851904D01*
X103657381Y-151423333D01*
X103657381Y-150804285D01*
X99037143Y-167026666D02*
X99084762Y-167074285D01*
X99132381Y-167217142D01*
X99132381Y-167312380D01*
X99084762Y-167455238D01*
X98989524Y-167550476D01*
X98894286Y-167598095D01*
X98703810Y-167645714D01*
X98560952Y-167645714D01*
X98370476Y-167598095D01*
X98275238Y-167550476D01*
X98180000Y-167455238D01*
X98132381Y-167312380D01*
X98132381Y-167217142D01*
X98180000Y-167074285D01*
X98227619Y-167026666D01*
X98132381Y-166121904D02*
X98132381Y-166598095D01*
X98608571Y-166645714D01*
X98560952Y-166598095D01*
X98513333Y-166502857D01*
X98513333Y-166264761D01*
X98560952Y-166169523D01*
X98608571Y-166121904D01*
X98703810Y-166074285D01*
X98941905Y-166074285D01*
X99037143Y-166121904D01*
X99084762Y-166169523D01*
X99132381Y-166264761D01*
X99132381Y-166502857D01*
X99084762Y-166598095D01*
X99037143Y-166645714D01*
X103537143Y-133026666D02*
X103584762Y-133074285D01*
X103632381Y-133217142D01*
X103632381Y-133312380D01*
X103584762Y-133455238D01*
X103489524Y-133550476D01*
X103394286Y-133598095D01*
X103203810Y-133645714D01*
X103060952Y-133645714D01*
X102870476Y-133598095D01*
X102775238Y-133550476D01*
X102680000Y-133455238D01*
X102632381Y-133312380D01*
X102632381Y-133217142D01*
X102680000Y-133074285D01*
X102727619Y-133026666D01*
X102632381Y-132169523D02*
X102632381Y-132360000D01*
X102680000Y-132455238D01*
X102727619Y-132502857D01*
X102870476Y-132598095D01*
X103060952Y-132645714D01*
X103441905Y-132645714D01*
X103537143Y-132598095D01*
X103584762Y-132550476D01*
X103632381Y-132455238D01*
X103632381Y-132264761D01*
X103584762Y-132169523D01*
X103537143Y-132121904D01*
X103441905Y-132074285D01*
X103203810Y-132074285D01*
X103108571Y-132121904D01*
X103060952Y-132169523D01*
X103013333Y-132264761D01*
X103013333Y-132455238D01*
X103060952Y-132550476D01*
X103108571Y-132598095D01*
X103203810Y-132645714D01*
X93843095Y-187197381D02*
X93843095Y-188006905D01*
X93890714Y-188102143D01*
X93938333Y-188149762D01*
X94033571Y-188197381D01*
X94224048Y-188197381D01*
X94319286Y-188149762D01*
X94366905Y-188102143D01*
X94414524Y-188006905D01*
X94414524Y-187197381D01*
X95366905Y-187197381D02*
X94890714Y-187197381D01*
X94843095Y-187673571D01*
X94890714Y-187625952D01*
X94985952Y-187578333D01*
X95224048Y-187578333D01*
X95319286Y-187625952D01*
X95366905Y-187673571D01*
X95414524Y-187768810D01*
X95414524Y-188006905D01*
X95366905Y-188102143D01*
X95319286Y-188149762D01*
X95224048Y-188197381D01*
X94985952Y-188197381D01*
X94890714Y-188149762D01*
X94843095Y-188102143D01*
X97018095Y-131802381D02*
X97018095Y-132611905D01*
X97065714Y-132707143D01*
X97113333Y-132754762D01*
X97208571Y-132802381D01*
X97399048Y-132802381D01*
X97494286Y-132754762D01*
X97541905Y-132707143D01*
X97589524Y-132611905D01*
X97589524Y-131802381D01*
X98494286Y-131802381D02*
X98303809Y-131802381D01*
X98208571Y-131850000D01*
X98160952Y-131897619D01*
X98065714Y-132040476D01*
X98018095Y-132230952D01*
X98018095Y-132611905D01*
X98065714Y-132707143D01*
X98113333Y-132754762D01*
X98208571Y-132802381D01*
X98399048Y-132802381D01*
X98494286Y-132754762D01*
X98541905Y-132707143D01*
X98589524Y-132611905D01*
X98589524Y-132373810D01*
X98541905Y-132278571D01*
X98494286Y-132230952D01*
X98399048Y-132183333D01*
X98208571Y-132183333D01*
X98113333Y-132230952D01*
X98065714Y-132278571D01*
X98018095Y-132373810D01*
X97018095Y-75922381D02*
X97018095Y-76731905D01*
X97065714Y-76827143D01*
X97113333Y-76874762D01*
X97208571Y-76922381D01*
X97399048Y-76922381D01*
X97494286Y-76874762D01*
X97541905Y-76827143D01*
X97589524Y-76731905D01*
X97589524Y-75922381D01*
X97970476Y-75922381D02*
X98637143Y-75922381D01*
X98208571Y-76922381D01*
M02*
