G04 #@! TF.FileFunction,Copper,L1,Top,Signal*
%FSLAX46Y46*%
G04 Gerber Fmt 4.6, Leading zero omitted, Abs format (unit mm)*
G04 Created by KiCad (PCBNEW 4.0.2-stable) date 23-3-2017 17:20:20*
%MOMM*%
G01*
G04 APERTURE LIST*
%ADD10C,0.100000*%
%ADD11R,1.727200X2.032000*%
%ADD12O,1.727200X2.032000*%
%ADD13R,2.032000X1.727200*%
%ADD14O,2.032000X1.727200*%
%ADD15C,1.510000*%
%ADD16R,1.510000X1.510000*%
%ADD17R,2.032000X2.032000*%
%ADD18O,2.032000X2.032000*%
%ADD19R,1.550000X0.600000*%
%ADD20O,1.600000X1.600000*%
%ADD21C,1.699260*%
%ADD22R,1.699260X1.699260*%
%ADD23C,1.998980*%
%ADD24R,2.000000X2.000000*%
%ADD25C,2.000000*%
%ADD26R,1.700000X1.700000*%
%ADD27O,1.700000X1.700000*%
%ADD28C,0.600000*%
%ADD29C,0.500000*%
%ADD30C,1.000000*%
%ADD31C,0.250000*%
%ADD32C,0.254000*%
G04 APERTURE END LIST*
D10*
D11*
X154930000Y-28360000D03*
D12*
X152390000Y-28360000D03*
X149850000Y-28360000D03*
X147310000Y-28360000D03*
X144770000Y-28360000D03*
X142230000Y-28360000D03*
X139690000Y-28360000D03*
X137150000Y-28360000D03*
X134610000Y-28360000D03*
X132070000Y-28360000D03*
X129530000Y-28360000D03*
X126990000Y-28360000D03*
X124450000Y-28360000D03*
X121910000Y-28360000D03*
X119370000Y-28360000D03*
X116830000Y-28360000D03*
X114290000Y-28360000D03*
X111750000Y-28360000D03*
D11*
X154930000Y-85360000D03*
D12*
X152390000Y-85360000D03*
X149850000Y-85360000D03*
X147310000Y-85360000D03*
X144770000Y-85360000D03*
X142230000Y-85360000D03*
X139690000Y-85360000D03*
X137150000Y-85360000D03*
X134610000Y-85360000D03*
X132070000Y-85360000D03*
X129530000Y-85360000D03*
X126990000Y-85360000D03*
X124450000Y-85360000D03*
X121910000Y-85360000D03*
X119370000Y-85360000D03*
X116830000Y-85360000D03*
X114290000Y-85360000D03*
X111750000Y-85360000D03*
D11*
X154930000Y-142360000D03*
D12*
X152390000Y-142360000D03*
X149850000Y-142360000D03*
X147310000Y-142360000D03*
X144770000Y-142360000D03*
X142230000Y-142360000D03*
X139690000Y-142360000D03*
X137150000Y-142360000D03*
X134610000Y-142360000D03*
X132070000Y-142360000D03*
X129530000Y-142360000D03*
X126990000Y-142360000D03*
X124450000Y-142360000D03*
X121910000Y-142360000D03*
X119370000Y-142360000D03*
X116830000Y-142360000D03*
X114290000Y-142360000D03*
X111750000Y-142360000D03*
D11*
X96510000Y-35980000D03*
D12*
X99050000Y-35980000D03*
X101590000Y-35980000D03*
D11*
X96510000Y-39790000D03*
D12*
X99050000Y-39790000D03*
X101590000Y-39790000D03*
D11*
X96510000Y-43600000D03*
D12*
X99050000Y-43600000D03*
X101590000Y-43600000D03*
D13*
X111750000Y-108490000D03*
D14*
X111750000Y-105950000D03*
X111750000Y-103410000D03*
X111750000Y-100870000D03*
X111750000Y-98330000D03*
X111750000Y-95790000D03*
X111750000Y-93250000D03*
X111750000Y-90710000D03*
D15*
X125720000Y-110275000D03*
D16*
X120640000Y-110275000D03*
D15*
X123180000Y-112815000D03*
D17*
X137150000Y-170720000D03*
D18*
X137150000Y-173260000D03*
D17*
X134610000Y-113570000D03*
D18*
X134610000Y-116110000D03*
D17*
X134610000Y-56420000D03*
D18*
X134610000Y-58960000D03*
D17*
X111750000Y-58960000D03*
D18*
X111750000Y-56420000D03*
D13*
X134610000Y-108490000D03*
D14*
X134610000Y-105950000D03*
X134610000Y-103410000D03*
X134610000Y-100870000D03*
X134610000Y-98330000D03*
X134610000Y-95790000D03*
X134610000Y-93250000D03*
X134610000Y-90710000D03*
D19*
X108100000Y-88050000D03*
X108100000Y-86780000D03*
X108100000Y-85510000D03*
X108100000Y-84240000D03*
X102700000Y-84240000D03*
X102700000Y-85510000D03*
X102700000Y-86780000D03*
X102700000Y-88050000D03*
X108100000Y-32170000D03*
X108100000Y-30900000D03*
X108100000Y-29630000D03*
X108100000Y-28360000D03*
X102700000Y-28360000D03*
X102700000Y-29630000D03*
X102700000Y-30900000D03*
X102700000Y-32170000D03*
X108100000Y-146470000D03*
X108100000Y-145200000D03*
X108100000Y-143930000D03*
X108100000Y-142660000D03*
X102700000Y-142660000D03*
X102700000Y-143930000D03*
X102700000Y-145200000D03*
X102700000Y-146470000D03*
D20*
X139690000Y-35980000D03*
X137150000Y-35980000D03*
X134610000Y-35980000D03*
X132070000Y-35980000D03*
X129530000Y-35980000D03*
X126990000Y-35980000D03*
X124450000Y-35980000D03*
X121910000Y-35980000D03*
X119370000Y-35980000D03*
X116830000Y-35980000D03*
X114290000Y-35980000D03*
X111750000Y-35980000D03*
X109210000Y-35980000D03*
X106670000Y-35980000D03*
X106670000Y-43600000D03*
X109210000Y-43600000D03*
X111750000Y-43600000D03*
X114290000Y-43600000D03*
X116830000Y-43600000D03*
X119370000Y-43600000D03*
X121910000Y-43600000D03*
X124450000Y-43600000D03*
X126990000Y-43600000D03*
X129530000Y-43600000D03*
X132070000Y-43600000D03*
X134610000Y-43600000D03*
X137150000Y-43600000D03*
X139690000Y-43600000D03*
D21*
X116832540Y-56300520D03*
D22*
X116832540Y-46140520D03*
D23*
X116830000Y-146470000D03*
X126990000Y-146470000D03*
X126990000Y-89320000D03*
X116830000Y-89320000D03*
X121910000Y-32170000D03*
X132070000Y-32170000D03*
D24*
X119370000Y-32170000D03*
D25*
X114370000Y-32170000D03*
D24*
X99930000Y-32360000D03*
D25*
X94930000Y-32360000D03*
D24*
X101590000Y-67650000D03*
D25*
X101590000Y-62650000D03*
D24*
X101590000Y-79360000D03*
D25*
X101590000Y-74360000D03*
D24*
X100955000Y-149090000D03*
D25*
X100955000Y-154090000D03*
D24*
X100930000Y-169360000D03*
D25*
X100930000Y-164360000D03*
D24*
X100930000Y-130360000D03*
D25*
X100930000Y-135360000D03*
D26*
X97780000Y-187745000D03*
D27*
X97780000Y-185205000D03*
X97780000Y-182665000D03*
X97780000Y-180125000D03*
D26*
X97780000Y-129960000D03*
D27*
X97780000Y-127420000D03*
X97780000Y-124880000D03*
X97780000Y-122340000D03*
D26*
X97780000Y-74080000D03*
D27*
X97780000Y-71540000D03*
X97780000Y-69000000D03*
X97780000Y-66460000D03*
D28*
X109845000Y-84240000D03*
X109845000Y-28360000D03*
X109845000Y-142660000D03*
X102860000Y-112815000D03*
X90160000Y-82335000D03*
X102860000Y-82335000D03*
X94605000Y-49315000D03*
X97135010Y-173280539D03*
X96675013Y-51220000D03*
X94605000Y-115990000D03*
X131562000Y-147740000D03*
X93970000Y-154852000D03*
X93970000Y-113450000D03*
X120640000Y-49950000D03*
X95875000Y-50585000D03*
X95875000Y-159170000D03*
X116830000Y-40425000D03*
X92700000Y-47410000D03*
X90795000Y-112180000D03*
X97749979Y-158535000D03*
X100119958Y-55052364D03*
X97145000Y-157900000D03*
X97780000Y-111545000D03*
X99674984Y-54387520D03*
X96510000Y-157265000D03*
X97145000Y-104560000D03*
X99050000Y-53819031D03*
X95875000Y-156630000D03*
X96510000Y-102020000D03*
X98387744Y-53365029D03*
X95240000Y-152185000D03*
X95875000Y-99480000D03*
X97780000Y-52490000D03*
X94605000Y-151550000D03*
X97150951Y-51863041D03*
X95240000Y-96940000D03*
X93335000Y-150915000D03*
X95240000Y-49950000D03*
X93335000Y-94400000D03*
X126990000Y-142360000D03*
X92065000Y-147105000D03*
X93970000Y-48680000D03*
X92065000Y-89320000D03*
X91430000Y-146470000D03*
X93335000Y-48045000D03*
X91430000Y-92495000D03*
X107305000Y-54395000D03*
X100955000Y-93220010D03*
X100955000Y-93765000D03*
X90160000Y-91860000D03*
X107940002Y-91860000D03*
X89280990Y-95670000D03*
X106035000Y-65825000D03*
D29*
X102700000Y-147270000D02*
X102700000Y-146470000D01*
X121910000Y-147740000D02*
X120640000Y-149010000D01*
X121910000Y-146416000D02*
X121910000Y-147740000D01*
X119370000Y-143876000D02*
X121910000Y-146416000D01*
X119370000Y-142360000D02*
X119370000Y-143876000D01*
X101590000Y-79483842D02*
X101590000Y-79360000D01*
X104130000Y-82023842D02*
X101590000Y-79483842D01*
X104130000Y-87415000D02*
X104130000Y-82023842D01*
X103495000Y-88050000D02*
X104130000Y-87415000D01*
X102700000Y-88050000D02*
X103495000Y-88050000D01*
X107690064Y-70494549D02*
X107980011Y-70204602D01*
X107690064Y-82085064D02*
X107690064Y-70494549D01*
X152390000Y-82970000D02*
X108575000Y-82970000D01*
X108575000Y-82970000D02*
X107690064Y-82085064D01*
X107980011Y-69065398D02*
X107690064Y-68775451D01*
X107980011Y-70204602D02*
X107980011Y-69065398D01*
X107690064Y-68775451D02*
X107690064Y-61629936D01*
X108793999Y-60526001D02*
X110480000Y-60526001D01*
X107690064Y-61629936D02*
X108793999Y-60526001D01*
X114290000Y-43600000D02*
X114290000Y-44235000D01*
X114925000Y-45486370D02*
X114925000Y-49315000D01*
X114290000Y-43720000D02*
X114290000Y-44851370D01*
X114290000Y-44851370D02*
X114925000Y-45486370D01*
X114290000Y-42330000D02*
X114290000Y-43720000D01*
X119370000Y-36100000D02*
X119370000Y-37250000D01*
X110293999Y-60526001D02*
X110480000Y-60526001D01*
X110480000Y-60526001D02*
X150703999Y-60526001D01*
X109210000Y-59442002D02*
X110293999Y-60526001D01*
X109210000Y-55030000D02*
X109210000Y-59442002D01*
X150703999Y-60526001D02*
X153695001Y-57534999D01*
X153695001Y-57534999D02*
X153695001Y-43635001D01*
X152390000Y-142360000D02*
X152390000Y-146535000D01*
X96510000Y-39790000D02*
X96510000Y-43600000D01*
X96510000Y-35980000D02*
X96510000Y-39790000D01*
X152390000Y-82970000D02*
X155409602Y-82970000D01*
X152390000Y-85360000D02*
X152390000Y-82970000D01*
X155565000Y-117895000D02*
X121910000Y-117895000D01*
X121910000Y-117895000D02*
X108575000Y-117895000D01*
X120640000Y-117895000D02*
X121910000Y-117895000D01*
X120640000Y-108490000D02*
X120640000Y-117895000D01*
X152390000Y-28360000D02*
X152390000Y-42330000D01*
X152390000Y-42330000D02*
X153695001Y-43635001D01*
X156343601Y-83903999D02*
X156343601Y-117116399D01*
X155409602Y-82970000D02*
X156343601Y-83903999D01*
X107940000Y-118530000D02*
X107940000Y-139485000D01*
X108575000Y-117895000D02*
X107940000Y-118530000D01*
X156343601Y-117116399D02*
X155565000Y-117895000D01*
X152390000Y-140755000D02*
X152390000Y-142360000D01*
X107940000Y-139485000D02*
X108575000Y-140120000D01*
X151755000Y-140120000D02*
X152390000Y-140755000D01*
X108575000Y-140120000D02*
X151755000Y-140120000D01*
X102700000Y-32170000D02*
X104765000Y-32170000D01*
X104765000Y-32170000D02*
X105400000Y-31535000D01*
X105400000Y-31535000D02*
X105400000Y-27090000D01*
X105400000Y-27090000D02*
X106035000Y-26455000D01*
X106035000Y-26455000D02*
X118981000Y-26455000D01*
X118981000Y-26455000D02*
X119370000Y-26844000D01*
X119370000Y-26844000D02*
X119370000Y-28360000D01*
D30*
X111750000Y-108490000D02*
X116710000Y-108490000D01*
X116710000Y-108490000D02*
X118100000Y-107100000D01*
X118100000Y-107100000D02*
X131562000Y-107100000D01*
X131562000Y-107100000D02*
X132952000Y-108490000D01*
X132952000Y-108490000D02*
X134610000Y-108490000D01*
X101590000Y-39790000D02*
X101590000Y-43600000D01*
X101590000Y-35980000D02*
X101590000Y-39790000D01*
X126990000Y-146590000D02*
X140692400Y-146590000D01*
X140692400Y-146590000D02*
X144770000Y-142512400D01*
X144770000Y-142512400D02*
X144770000Y-142360000D01*
X108100000Y-84240000D02*
X109845000Y-84240000D01*
X108100000Y-28360000D02*
X109845000Y-28360000D01*
X108100000Y-142660000D02*
X109845000Y-142660000D01*
D31*
X111597600Y-103410000D02*
X111750000Y-103410000D01*
X104805011Y-87694598D02*
X104130000Y-88369609D01*
X104170011Y-41019989D02*
X104170011Y-81109244D01*
X109210000Y-35980000D02*
X104170011Y-41019989D01*
X104170011Y-81109244D02*
X104805011Y-81744244D01*
X104130000Y-95942400D02*
X111597600Y-103410000D01*
X104130000Y-88369609D02*
X104130000Y-95942400D01*
X104805011Y-81744244D02*
X104805011Y-87694598D01*
X111750000Y-103410000D02*
X134610000Y-103410000D01*
X104765000Y-88371019D02*
X104765000Y-94037400D01*
X104765000Y-81067822D02*
X105255022Y-81557844D01*
X104765000Y-42965000D02*
X104765000Y-81067822D01*
X111597600Y-100870000D02*
X111750000Y-100870000D01*
X104765000Y-94037400D02*
X111597600Y-100870000D01*
X111750000Y-35980000D02*
X104765000Y-42965000D01*
X105255022Y-81557844D02*
X105255022Y-87880998D01*
X105255022Y-87880998D02*
X104765000Y-88371019D01*
X111750000Y-100870000D02*
X134610000Y-100870000D01*
X102700000Y-143930000D02*
X103175000Y-143930000D01*
X103175000Y-143930000D02*
X104130000Y-142975000D01*
X104130000Y-142975000D02*
X104130000Y-127420000D01*
X104130000Y-127420000D02*
X102860000Y-126150000D01*
X102860000Y-126150000D02*
X102860000Y-112815000D01*
X134457600Y-95790000D02*
X134610000Y-95790000D01*
X102700000Y-142660000D02*
X102700000Y-127580000D01*
X102225000Y-127105000D02*
X102225000Y-90051413D01*
X102225000Y-85510000D02*
X102700000Y-85510000D01*
X102700000Y-127580000D02*
X102225000Y-127105000D01*
X102225000Y-90051413D02*
X101049988Y-88876401D01*
X101049988Y-88876401D02*
X101049988Y-86685012D01*
X101049988Y-86685012D02*
X102225000Y-85510000D01*
X90160000Y-82335000D02*
X90160000Y-32805000D01*
X90160000Y-32805000D02*
X93335000Y-29630000D01*
X93335000Y-29630000D02*
X101675000Y-29630000D01*
X101675000Y-29630000D02*
X102700000Y-29630000D01*
X102860000Y-82335000D02*
X102860000Y-84080000D01*
X102860000Y-84080000D02*
X102700000Y-84240000D01*
X92700000Y-78519356D02*
X91960044Y-77779400D01*
X91960044Y-64776198D02*
X92145033Y-64591209D01*
X92446000Y-120054000D02*
X92700000Y-119800000D01*
X92446000Y-133516000D02*
X92446000Y-120054000D01*
X92145033Y-51774967D02*
X94605000Y-49315000D01*
X92145033Y-64591209D02*
X92145033Y-51774967D01*
X91960044Y-77779400D02*
X91960044Y-64776198D01*
X92700000Y-119800000D02*
X92700000Y-78519356D01*
X93335000Y-157900000D02*
X92690002Y-157255002D01*
X97145000Y-159170000D02*
X95875000Y-157900000D01*
X95875000Y-157900000D02*
X93335000Y-157900000D01*
X97135010Y-159179990D02*
X97145000Y-159170000D01*
X97135010Y-173280539D02*
X97135010Y-159179990D01*
X92700000Y-133770000D02*
X92446000Y-133516000D01*
X92690002Y-133779998D02*
X92700000Y-133770000D01*
X92690002Y-157255002D02*
X92690002Y-133779998D01*
X93310077Y-65335398D02*
X93495066Y-65150409D01*
X93310077Y-77220199D02*
X93310077Y-65335398D01*
X94605000Y-78515123D02*
X93310077Y-77220199D01*
X94605000Y-115990000D02*
X94605000Y-78515123D01*
X96375014Y-51519999D02*
X96675013Y-51220000D01*
X93495066Y-54399947D02*
X96375014Y-51519999D01*
X93495066Y-65150409D02*
X93495066Y-54399947D01*
X126990000Y-56300000D02*
X126990000Y-43720000D01*
X129650000Y-58960000D02*
X126990000Y-56300000D01*
X134610000Y-58960000D02*
X129650000Y-58960000D01*
X126355000Y-41695000D02*
X127505000Y-41695000D01*
X125720000Y-55030000D02*
X125720000Y-42330000D01*
X126355000Y-41695000D02*
X125720000Y-42330000D01*
X111750000Y-56420000D02*
X113535000Y-56420000D01*
X113535000Y-56420000D02*
X115320000Y-58205000D01*
X115320000Y-58205000D02*
X122545000Y-58205000D01*
X122545000Y-58205000D02*
X125720000Y-55030000D01*
X127505000Y-41695000D02*
X129530000Y-43720000D01*
X99050000Y-39790000D02*
X99050000Y-39942400D01*
X99050000Y-39942400D02*
X99040000Y-39952400D01*
X99050000Y-43600000D02*
X99050000Y-43752400D01*
X99050000Y-43600000D02*
X99050000Y-43447600D01*
X93045055Y-53414945D02*
X93045055Y-64964009D01*
X93970000Y-113025736D02*
X93970000Y-113450000D01*
X93970000Y-78516534D02*
X93970000Y-113025736D01*
X92860066Y-65148998D02*
X92860066Y-77406600D01*
X93045055Y-64964009D02*
X92860066Y-65148998D01*
X92860066Y-77406600D02*
X93970000Y-78516534D01*
X95875000Y-50585000D02*
X93045055Y-53414945D01*
X93970000Y-154427736D02*
X93970000Y-154852000D01*
X93462000Y-133259179D02*
X93970000Y-133767179D01*
X93462000Y-120310822D02*
X93462000Y-133259179D01*
X93970000Y-119802822D02*
X93462000Y-120310822D01*
X93970000Y-133767179D02*
X93970000Y-154427736D01*
X93970000Y-113450000D02*
X93970000Y-119802822D01*
X131562000Y-147740000D02*
X141214000Y-147740000D01*
X141214000Y-147740000D02*
X144770000Y-144184000D01*
X144770000Y-144184000D02*
X148178400Y-144184000D01*
X149850000Y-142512400D02*
X149850000Y-142360000D01*
X148178400Y-144184000D02*
X149850000Y-142512400D01*
X140071000Y-46775000D02*
X143754000Y-43092000D01*
X143754000Y-34608400D02*
X143754000Y-43092000D01*
X149850000Y-28360000D02*
X149850000Y-28512400D01*
X149850000Y-28512400D02*
X143754000Y-34608400D01*
X132070000Y-46775000D02*
X140071000Y-46775000D01*
X130800000Y-45505000D02*
X132070000Y-46775000D01*
X128895000Y-111030000D02*
X148260000Y-111030000D01*
X123180000Y-112815000D02*
X127110000Y-112815000D01*
X127110000Y-112815000D02*
X128895000Y-111030000D01*
X148260000Y-111030000D02*
X149850000Y-109440000D01*
X149850000Y-109440000D02*
X149850000Y-85360000D01*
X120640000Y-49950000D02*
X123180000Y-47410000D01*
X123180000Y-47410000D02*
X123180000Y-42330000D01*
X123180000Y-42330000D02*
X124450000Y-41060000D01*
X124450000Y-41060000D02*
X128895000Y-41060000D01*
X128895000Y-41060000D02*
X130800000Y-42965000D01*
X130800000Y-42965000D02*
X130800000Y-45505000D01*
X90795000Y-112180000D02*
X90795000Y-78523589D01*
X90795000Y-49315000D02*
X92700000Y-47410000D01*
X90795000Y-78523589D02*
X90610011Y-78338600D01*
X90610011Y-78338600D02*
X90610011Y-64216998D01*
X90610011Y-64216998D02*
X90795000Y-64032009D01*
X90795000Y-64032009D02*
X90795000Y-49315000D01*
X90795000Y-112180000D02*
X90795000Y-157265000D01*
X90795000Y-157265000D02*
X92700000Y-159170000D01*
X92700000Y-159170000D02*
X95875000Y-159170000D01*
X130026370Y-40425000D02*
X116830000Y-40425000D01*
X132070000Y-42468630D02*
X130026370Y-40425000D01*
X132070000Y-43600000D02*
X132070000Y-42468630D01*
X142865000Y-32805000D02*
X147310000Y-28360000D01*
X142865000Y-42965000D02*
X142865000Y-32805000D01*
X140325000Y-45505000D02*
X142865000Y-42965000D01*
X132705000Y-45505000D02*
X140325000Y-45505000D01*
X132070000Y-44870000D02*
X132705000Y-45505000D01*
X132070000Y-43600000D02*
X132070000Y-44870000D01*
X97749979Y-158110736D02*
X97749979Y-158535000D01*
X100119958Y-62343983D02*
X96010143Y-66453798D01*
X98415000Y-119809875D02*
X96162066Y-122062809D01*
X96162066Y-132140779D02*
X97780000Y-133758713D01*
X97780000Y-158080715D02*
X97749979Y-158110736D01*
X98415000Y-77255000D02*
X98415000Y-119809875D01*
X96162066Y-122062809D02*
X96162066Y-132140779D01*
X96010143Y-74850143D02*
X98415000Y-77255000D01*
X100119958Y-55052364D02*
X100119958Y-62343983D01*
X96010143Y-66453798D02*
X96010143Y-74850143D01*
X97780000Y-133758713D02*
X97780000Y-158080715D01*
X97780000Y-77890000D02*
X97780000Y-111120736D01*
X97780000Y-111120736D02*
X97780000Y-111545000D01*
X95745121Y-58317383D02*
X95745121Y-66082409D01*
X95745121Y-66082409D02*
X95560132Y-66267398D01*
X95560132Y-75670132D02*
X97780000Y-77890000D01*
X95560132Y-66267398D02*
X95560132Y-75670132D01*
X99674984Y-54387520D02*
X95745121Y-58317383D01*
X97215034Y-152409201D02*
X97145000Y-152479235D01*
X95712055Y-121876409D02*
X95712055Y-132327179D01*
X95712055Y-132327179D02*
X97215034Y-133830158D01*
X97780000Y-111545000D02*
X97780000Y-119808464D01*
X97145000Y-152479235D02*
X97145000Y-157475736D01*
X97780000Y-119808464D02*
X95712055Y-121876409D01*
X97145000Y-157475736D02*
X97145000Y-157900000D01*
X97215034Y-133830158D02*
X97215034Y-152409201D01*
X139690000Y-28360000D02*
X139690000Y-36100000D01*
X95110121Y-66080998D02*
X95110121Y-76474600D01*
X95295110Y-65896009D02*
X95110121Y-66080998D01*
X97145000Y-104135736D02*
X97145000Y-104560000D01*
X97145000Y-78509479D02*
X97145000Y-104135736D01*
X95110121Y-76474600D02*
X97145000Y-78509479D01*
X95295110Y-57573921D02*
X95295110Y-65896009D01*
X99050000Y-53819031D02*
X95295110Y-57573921D01*
X96570045Y-133821580D02*
X96570045Y-156780691D01*
X97145000Y-119807054D02*
X95262044Y-121690010D01*
X95262044Y-132513579D02*
X96570045Y-133821580D01*
X97145000Y-104560000D02*
X97145000Y-119807054D01*
X96570045Y-156780691D02*
X96510000Y-156840736D01*
X95262044Y-121690010D02*
X95262044Y-132513579D01*
X96510000Y-156840736D02*
X96510000Y-157265000D01*
X137150000Y-28360000D02*
X137150000Y-36100000D01*
X94660110Y-65894598D02*
X94660110Y-76660999D01*
X94845099Y-65709609D02*
X94660110Y-65894598D01*
X96510000Y-78510890D02*
X96510000Y-101595736D01*
X94660110Y-76660999D02*
X96510000Y-78510890D01*
X98387744Y-53365029D02*
X94845099Y-56907674D01*
X96510000Y-101595736D02*
X96510000Y-102020000D01*
X94845099Y-56907674D02*
X94845099Y-65709609D01*
X96510000Y-102020000D02*
X96510000Y-119805644D01*
X95875000Y-156205736D02*
X95875000Y-156630000D01*
X94812033Y-132699979D02*
X95875000Y-133762946D01*
X96510000Y-119805644D02*
X94812033Y-121503611D01*
X94812033Y-121503611D02*
X94812033Y-132699979D01*
X95875000Y-133762946D02*
X95875000Y-156205736D01*
X134610000Y-28360000D02*
X134610000Y-36100000D01*
X97780000Y-52490000D02*
X94395088Y-55874912D01*
X94395088Y-65523209D02*
X94210099Y-65708198D01*
X95875000Y-99055736D02*
X95875000Y-99480000D01*
X95875000Y-78512301D02*
X95875000Y-99055736D01*
X94210099Y-76847400D02*
X95875000Y-78512301D01*
X94210099Y-65708198D02*
X94210099Y-76847400D01*
X94395088Y-55874912D02*
X94395088Y-65523209D01*
X94362022Y-121317211D02*
X94362022Y-132886379D01*
X95240000Y-151760736D02*
X95240000Y-152185000D01*
X95875000Y-119804233D02*
X94362022Y-121317211D01*
X95875000Y-99480000D02*
X95875000Y-119804233D01*
X94362022Y-132886379D02*
X95240000Y-133764357D01*
X95240000Y-133764357D02*
X95240000Y-151760736D01*
X132070000Y-28360000D02*
X133975000Y-30265000D01*
X133975000Y-30265000D02*
X133975000Y-34195000D01*
X133975000Y-34195000D02*
X132070000Y-36100000D01*
X95240000Y-78513712D02*
X93760088Y-77033800D01*
X93945077Y-55068915D02*
X96850952Y-52163040D01*
X96850952Y-52163040D02*
X97150951Y-51863041D01*
X93945077Y-65336809D02*
X93945077Y-55068915D01*
X93760088Y-77033800D02*
X93760088Y-65521798D01*
X93760088Y-65521798D02*
X93945077Y-65336809D01*
X95240000Y-96940000D02*
X95240000Y-78513712D01*
X94605000Y-151125736D02*
X94605000Y-151550000D01*
X94605000Y-133765768D02*
X94605000Y-151125736D01*
X93912011Y-133072779D02*
X94605000Y-133765768D01*
X95240000Y-119802822D02*
X93912011Y-121130811D01*
X95240000Y-96940000D02*
X95240000Y-119802822D01*
X93912011Y-121130811D02*
X93912011Y-133072779D01*
X129530000Y-28360000D02*
X129530000Y-36100000D01*
X93335000Y-94400000D02*
X93335000Y-78517945D01*
X92595044Y-52594956D02*
X94940001Y-50249999D01*
X92410055Y-77593000D02*
X92410055Y-64962598D01*
X93335000Y-78517945D02*
X92410055Y-77593000D01*
X94940001Y-50249999D02*
X95240000Y-49950000D01*
X92595044Y-64777609D02*
X92595044Y-52594956D01*
X92410055Y-64962598D02*
X92595044Y-64777609D01*
X93335000Y-150490736D02*
X93335000Y-150915000D01*
X93335000Y-133768590D02*
X93335000Y-150490736D01*
X92954000Y-133387590D02*
X93335000Y-133768590D01*
X93335000Y-119801411D02*
X92954000Y-120182411D01*
X92954000Y-120182411D02*
X92954000Y-133387590D01*
X93335000Y-94400000D02*
X93335000Y-119801411D01*
X126990000Y-28360000D02*
X126990000Y-36100000D01*
X92065000Y-89320000D02*
X92065000Y-78520767D01*
X93670001Y-48979999D02*
X93970000Y-48680000D01*
X91695022Y-50954978D02*
X93670001Y-48979999D01*
X91695022Y-64404809D02*
X91695022Y-50954978D01*
X92065000Y-78520767D02*
X91510033Y-77965800D01*
X91510033Y-64589798D02*
X91695022Y-64404809D01*
X91510033Y-77965800D02*
X91510033Y-64589798D01*
X92065000Y-89320000D02*
X92065000Y-119800000D01*
X92065000Y-119800000D02*
X91995989Y-119869011D01*
X91995989Y-119869011D02*
X91995989Y-133702400D01*
X91995989Y-133702400D02*
X92065000Y-133771411D01*
X92065000Y-133771411D02*
X92065000Y-146680736D01*
X92065000Y-146680736D02*
X92065000Y-147105000D01*
X124450000Y-28360000D02*
X124450000Y-36100000D01*
X91430000Y-92495000D02*
X91430000Y-78522178D01*
X91430000Y-78522178D02*
X91060022Y-78152200D01*
X91060022Y-78152200D02*
X91060022Y-64403398D01*
X91245011Y-64218409D02*
X91245011Y-50134989D01*
X91060022Y-64403398D02*
X91245011Y-64218409D01*
X91245011Y-50134989D02*
X93335000Y-48045000D01*
X91430000Y-92495000D02*
X91430000Y-146470000D01*
X121910000Y-28360000D02*
X123815000Y-30265000D01*
X123815000Y-30265000D02*
X123815000Y-34195000D01*
X123815000Y-34195000D02*
X121910000Y-36100000D01*
D29*
X116830000Y-146470000D02*
X116830000Y-142360000D01*
X108100000Y-146470000D02*
X116830000Y-146470000D01*
X108100000Y-145200000D02*
X111602400Y-145200000D01*
X111602400Y-145200000D02*
X114290000Y-142512400D01*
X114290000Y-142512400D02*
X114290000Y-142360000D01*
X108100000Y-143930000D02*
X110332400Y-143930000D01*
X110332400Y-143930000D02*
X111750000Y-142512400D01*
X111750000Y-142512400D02*
X111750000Y-142360000D01*
D31*
X142230000Y-85360000D02*
X142230000Y-85512400D01*
X107305000Y-89320000D02*
X106670000Y-88685000D01*
X142230000Y-85512400D02*
X140327400Y-87415000D01*
X106670000Y-88685000D02*
X106670000Y-55030000D01*
X140327400Y-87415000D02*
X132705000Y-87415000D01*
X132705000Y-87415000D02*
X129375509Y-90744491D01*
X129375509Y-90744491D02*
X115079491Y-90744491D01*
X115079491Y-90744491D02*
X113655000Y-89320000D01*
X113655000Y-89320000D02*
X107305000Y-89320000D01*
X106670000Y-55030000D02*
X107305000Y-54395000D01*
D29*
X116830000Y-86780000D02*
X119370000Y-89320000D01*
X119370000Y-89320000D02*
X126990000Y-89320000D01*
X108100000Y-88050000D02*
X115560000Y-88050000D01*
X115560000Y-88050000D02*
X116830000Y-86780000D01*
X116830000Y-85360000D02*
X116830000Y-86780000D01*
X116830000Y-85512400D02*
X116830000Y-85360000D01*
X109718000Y-87034000D02*
X113882000Y-87034000D01*
X113882000Y-87034000D02*
X114290000Y-86626000D01*
X109464000Y-86780000D02*
X109718000Y-87034000D01*
X109464000Y-86780000D02*
X108100000Y-86780000D01*
X114290000Y-85360000D02*
X114290000Y-86626000D01*
X108100000Y-85510000D02*
X111600000Y-85510000D01*
D31*
X111600000Y-85510000D02*
X111750000Y-85360000D01*
X134610000Y-43720000D02*
X134610000Y-43600000D01*
X142230000Y-35980000D02*
X142230000Y-28360000D01*
X134610000Y-43600000D02*
X142230000Y-35980000D01*
D29*
X110395000Y-30900000D02*
X113020000Y-30900000D01*
X113655000Y-30265000D02*
X113020000Y-30900000D01*
X116191000Y-30265000D02*
X116830000Y-29626000D01*
X116191000Y-30265000D02*
X113655000Y-30265000D01*
X116830000Y-29626000D02*
X116830000Y-28360000D01*
X109125000Y-32170000D02*
X110395000Y-30900000D01*
X108100000Y-32170000D02*
X109125000Y-32170000D01*
X112602411Y-30199989D02*
X114290000Y-28512400D01*
X108100000Y-30900000D02*
X109405035Y-30900000D01*
X110105046Y-30199989D02*
X112602411Y-30199989D01*
X109405035Y-30900000D02*
X110105046Y-30199989D01*
X114290000Y-28512400D02*
X114290000Y-28360000D01*
X110610022Y-29499978D02*
X111750000Y-28360000D01*
X109505022Y-29499978D02*
X110610022Y-29499978D01*
X108100000Y-29630000D02*
X109375000Y-29630000D01*
X109375000Y-29630000D02*
X109505022Y-29499978D01*
D31*
X97780000Y-178922919D02*
X97780000Y-180125000D01*
X98374989Y-158865013D02*
X97780000Y-159460002D01*
X97780000Y-131060000D02*
X98374989Y-131654989D01*
X97780000Y-159460002D02*
X97780000Y-178922919D01*
X98374989Y-131654989D02*
X98374989Y-158865013D01*
X97780000Y-129960000D02*
X97780000Y-131060000D01*
X99009991Y-121110009D02*
X97780000Y-122340000D01*
X99009991Y-76409991D02*
X99009991Y-121110009D01*
X97780000Y-74080000D02*
X97780000Y-75180000D01*
X97780000Y-75180000D02*
X99009991Y-76409991D01*
D29*
X100930000Y-169360000D02*
X99080000Y-169360000D01*
X100930000Y-131890000D02*
X100930000Y-130360000D01*
X99080000Y-169360000D02*
X99050000Y-169330000D01*
X99050000Y-169330000D02*
X99050000Y-133770000D01*
X99050000Y-133770000D02*
X100930000Y-131890000D01*
X100360011Y-93170011D02*
X100410010Y-93220010D01*
X100410010Y-93220010D02*
X100955000Y-93220010D01*
X99382500Y-71360000D02*
X99685000Y-71662500D01*
X99685000Y-71662500D02*
X99685000Y-92495000D01*
X99685000Y-92495000D02*
X100360011Y-93170011D01*
X100360011Y-93170011D02*
X100955000Y-93765000D01*
X100930000Y-130360000D02*
X100930000Y-127420000D01*
X100930000Y-127420000D02*
X100930000Y-125812500D01*
X97780000Y-127420000D02*
X100930000Y-127420000D01*
X100930000Y-125812500D02*
X100955000Y-125787500D01*
X99530000Y-185360000D02*
X100930000Y-183960000D01*
X100930000Y-183960000D02*
X100930000Y-169360000D01*
X97930000Y-185360000D02*
X99530000Y-185360000D01*
X100955000Y-125787500D02*
X100955000Y-93765000D01*
X111750000Y-93250000D02*
X111750000Y-93130000D01*
X111750000Y-93130000D02*
X111870000Y-93250000D01*
D30*
X111870000Y-93250000D02*
X134610000Y-93250000D01*
D29*
X99382500Y-71360000D02*
X101590000Y-69152500D01*
X101590000Y-69152500D02*
X101590000Y-67650000D01*
X99382500Y-71360000D02*
X97930000Y-71360000D01*
D31*
X105705033Y-92437433D02*
X105705033Y-81371444D01*
X111597600Y-98330000D02*
X105705033Y-92437433D01*
X111750000Y-98330000D02*
X111597600Y-98330000D01*
X111750000Y-98330000D02*
X134610000Y-98330000D01*
X105400000Y-81066411D02*
X105400000Y-54395000D01*
X105705033Y-81371444D02*
X105400000Y-81066411D01*
X105400000Y-54395000D02*
X106670000Y-53125000D01*
X116830000Y-55030000D02*
X116830000Y-55969990D01*
X114925000Y-53125000D02*
X116830000Y-55030000D01*
X106670000Y-53125000D02*
X114925000Y-53125000D01*
X97780000Y-187745000D02*
X96680000Y-187745000D01*
X96680000Y-187745000D02*
X90160000Y-181225000D01*
X90160000Y-181225000D02*
X90160000Y-91860000D01*
X108364266Y-91860000D02*
X107940002Y-91860000D01*
X108428617Y-91924351D02*
X108364266Y-91860000D01*
X133344000Y-90710000D02*
X132129649Y-91924351D01*
X134610000Y-90710000D02*
X133344000Y-90710000D01*
X132129649Y-91924351D02*
X108428617Y-91924351D01*
X102700000Y-28360000D02*
X93335000Y-28360000D01*
X93335000Y-28360000D02*
X89525000Y-32170000D01*
X89525000Y-32170000D02*
X89525000Y-95001726D01*
X89525000Y-95001726D02*
X89280990Y-95245736D01*
X89280990Y-95245736D02*
X89280990Y-95670000D01*
X111750000Y-95790000D02*
X111597600Y-95790000D01*
X111750000Y-95790000D02*
X111902400Y-95790000D01*
X106035000Y-66249264D02*
X106035000Y-65825000D01*
X106219989Y-66434253D02*
X106035000Y-66249264D01*
X106219989Y-88871400D02*
X106219989Y-66434253D01*
X108058589Y-90710000D02*
X106219989Y-88871400D01*
X111750000Y-90710000D02*
X108058589Y-90710000D01*
D32*
G36*
X115879421Y-55154223D02*
X115574666Y-55458446D01*
X115348168Y-56003913D01*
X115347652Y-56594536D01*
X115573198Y-57140397D01*
X115877270Y-57445000D01*
X115634802Y-57445000D01*
X114072401Y-55882599D01*
X113825839Y-55717852D01*
X113535000Y-55660000D01*
X113222016Y-55660000D01*
X112949778Y-55252567D01*
X112414155Y-54894675D01*
X111782345Y-54769000D01*
X111717655Y-54769000D01*
X111085845Y-54894675D01*
X110550222Y-55252567D01*
X110192330Y-55788190D01*
X110066655Y-56420000D01*
X110192330Y-57051810D01*
X110419499Y-57391792D01*
X110282559Y-57479910D01*
X110137569Y-57692110D01*
X110086560Y-57944000D01*
X110086560Y-59963000D01*
X108930000Y-59963000D01*
X108880590Y-59973006D01*
X108838965Y-60001447D01*
X108811685Y-60043841D01*
X108803000Y-60090000D01*
X108803000Y-60675262D01*
X108658295Y-60704046D01*
X108427954Y-60857954D01*
X108274046Y-61088295D01*
X108220000Y-61360000D01*
X108220000Y-82360000D01*
X108274046Y-82631705D01*
X108427954Y-82862046D01*
X108658295Y-83015954D01*
X108930000Y-83070000D01*
X156220000Y-83070000D01*
X156220000Y-83866807D01*
X156045490Y-83747569D01*
X155793600Y-83696560D01*
X154066400Y-83696560D01*
X153831083Y-83740838D01*
X153614959Y-83879910D01*
X153469969Y-84092110D01*
X153450768Y-84186927D01*
X153292036Y-84009268D01*
X152764791Y-83755291D01*
X152749026Y-83752642D01*
X152517000Y-83873783D01*
X152517000Y-85233000D01*
X152537000Y-85233000D01*
X152537000Y-85487000D01*
X152517000Y-85487000D01*
X152517000Y-86846217D01*
X152749026Y-86967358D01*
X152764791Y-86964709D01*
X153292036Y-86710732D01*
X153448907Y-86535155D01*
X153463238Y-86611317D01*
X153602310Y-86827441D01*
X153814510Y-86972431D01*
X154066400Y-87023440D01*
X155793600Y-87023440D01*
X156028917Y-86979162D01*
X156220000Y-86856203D01*
X156220000Y-116963000D01*
X136019876Y-116963000D01*
X136167670Y-116741810D01*
X136293345Y-116110000D01*
X136167670Y-115478190D01*
X135940501Y-115138208D01*
X136077441Y-115050090D01*
X136222431Y-114837890D01*
X136273440Y-114586000D01*
X136273440Y-112554000D01*
X136229162Y-112318683D01*
X136090090Y-112102559D01*
X135877890Y-111957569D01*
X135626000Y-111906560D01*
X133594000Y-111906560D01*
X133358683Y-111950838D01*
X133142559Y-112089910D01*
X132997569Y-112302110D01*
X132946560Y-112554000D01*
X132946560Y-114586000D01*
X132990838Y-114821317D01*
X133129910Y-115037441D01*
X133278837Y-115139198D01*
X133052330Y-115478190D01*
X132926655Y-116110000D01*
X133052330Y-116741810D01*
X133200124Y-116963000D01*
X108930000Y-116963000D01*
X108880590Y-116973006D01*
X108838965Y-117001447D01*
X108811685Y-117043841D01*
X108803000Y-117090000D01*
X108803000Y-117675262D01*
X108658295Y-117704046D01*
X108427954Y-117857954D01*
X108274046Y-118088295D01*
X108220000Y-118360000D01*
X108220000Y-139360000D01*
X108274046Y-139631705D01*
X108427954Y-139862046D01*
X108658295Y-140015954D01*
X108930000Y-140070000D01*
X156220000Y-140070000D01*
X156220000Y-140866807D01*
X156045490Y-140747569D01*
X155793600Y-140696560D01*
X154066400Y-140696560D01*
X153831083Y-140740838D01*
X153614959Y-140879910D01*
X153469969Y-141092110D01*
X153450768Y-141186927D01*
X153292036Y-141009268D01*
X152764791Y-140755291D01*
X152749026Y-140752642D01*
X152517000Y-140873783D01*
X152517000Y-142233000D01*
X152537000Y-142233000D01*
X152537000Y-142487000D01*
X152517000Y-142487000D01*
X152517000Y-143846217D01*
X152749026Y-143967358D01*
X152764791Y-143964709D01*
X153292036Y-143710732D01*
X153448907Y-143535155D01*
X153463238Y-143611317D01*
X153602310Y-143827441D01*
X153814510Y-143972431D01*
X154066400Y-144023440D01*
X155793600Y-144023440D01*
X156028917Y-143979162D01*
X156220000Y-143856203D01*
X156220000Y-173963000D01*
X138660102Y-173963000D01*
X138707670Y-173891810D01*
X138833345Y-173260000D01*
X138707670Y-172628190D01*
X138480501Y-172288208D01*
X138617441Y-172200090D01*
X138762431Y-171987890D01*
X138813440Y-171736000D01*
X138813440Y-169704000D01*
X138769162Y-169468683D01*
X138630090Y-169252559D01*
X138417890Y-169107569D01*
X138166000Y-169056560D01*
X136134000Y-169056560D01*
X135898683Y-169100838D01*
X135682559Y-169239910D01*
X135537569Y-169452110D01*
X135486560Y-169704000D01*
X135486560Y-171736000D01*
X135530838Y-171971317D01*
X135669910Y-172187441D01*
X135818837Y-172289198D01*
X135592330Y-172628190D01*
X135466655Y-173260000D01*
X135592330Y-173891810D01*
X135639898Y-173963000D01*
X108930000Y-173963000D01*
X108880590Y-173973006D01*
X108838965Y-174001447D01*
X108811685Y-174043841D01*
X108803000Y-174090000D01*
X108803000Y-174675262D01*
X108658295Y-174704046D01*
X108427954Y-174857954D01*
X108274046Y-175088295D01*
X108220000Y-175360000D01*
X108220000Y-188650000D01*
X99266302Y-188650000D01*
X99277440Y-188595000D01*
X99277440Y-186895000D01*
X99233162Y-186659683D01*
X99094090Y-186443559D01*
X98881890Y-186298569D01*
X98814459Y-186284914D01*
X98859147Y-186255054D01*
X98865865Y-186245000D01*
X99529995Y-186245000D01*
X99530000Y-186245001D01*
X99812484Y-186188810D01*
X99868675Y-186177633D01*
X100155790Y-185985790D01*
X101555787Y-184585792D01*
X101555790Y-184585790D01*
X101747633Y-184298675D01*
X101776223Y-184154946D01*
X101815001Y-183960000D01*
X101815000Y-183959995D01*
X101815000Y-171007440D01*
X101930000Y-171007440D01*
X102165317Y-170963162D01*
X102381441Y-170824090D01*
X102526431Y-170611890D01*
X102577440Y-170360000D01*
X102577440Y-168360000D01*
X102533162Y-168124683D01*
X102394090Y-167908559D01*
X102181890Y-167763569D01*
X101930000Y-167712560D01*
X99935000Y-167712560D01*
X99935000Y-165677523D01*
X100002637Y-165745278D01*
X100603352Y-165994716D01*
X101253795Y-165995284D01*
X101854943Y-165746894D01*
X102315278Y-165287363D01*
X102564716Y-164686648D01*
X102565284Y-164036205D01*
X102316894Y-163435057D01*
X101857363Y-162974722D01*
X101256648Y-162725284D01*
X100606205Y-162724716D01*
X100005057Y-162973106D01*
X99935000Y-163043041D01*
X99935000Y-155382479D01*
X100027637Y-155475278D01*
X100628352Y-155724716D01*
X101278795Y-155725284D01*
X101879943Y-155476894D01*
X102340278Y-155017363D01*
X102589716Y-154416648D01*
X102590284Y-153766205D01*
X102341894Y-153165057D01*
X101882363Y-152704722D01*
X101281648Y-152455284D01*
X100631205Y-152454716D01*
X100030057Y-152703106D01*
X99935000Y-152797997D01*
X99935000Y-150725000D01*
X100669250Y-150725000D01*
X100828000Y-150566250D01*
X100828000Y-149217000D01*
X101082000Y-149217000D01*
X101082000Y-150566250D01*
X101240750Y-150725000D01*
X102081310Y-150725000D01*
X102314699Y-150628327D01*
X102493327Y-150449698D01*
X102590000Y-150216309D01*
X102590000Y-149375750D01*
X102431250Y-149217000D01*
X101082000Y-149217000D01*
X100828000Y-149217000D01*
X100808000Y-149217000D01*
X100808000Y-148963000D01*
X100828000Y-148963000D01*
X100828000Y-147613750D01*
X101082000Y-147613750D01*
X101082000Y-148963000D01*
X102431250Y-148963000D01*
X102590000Y-148804250D01*
X102590000Y-147963691D01*
X102493327Y-147730302D01*
X102314699Y-147551673D01*
X102081310Y-147455000D01*
X101240750Y-147455000D01*
X101082000Y-147613750D01*
X100828000Y-147613750D01*
X100669250Y-147455000D01*
X99935000Y-147455000D01*
X99935000Y-146755750D01*
X101290000Y-146755750D01*
X101290000Y-146896310D01*
X101386673Y-147129699D01*
X101565302Y-147308327D01*
X101798691Y-147405000D01*
X102414250Y-147405000D01*
X102573000Y-147246250D01*
X102573000Y-146597000D01*
X102827000Y-146597000D01*
X102827000Y-147246250D01*
X102985750Y-147405000D01*
X103601309Y-147405000D01*
X103834698Y-147308327D01*
X104013327Y-147129699D01*
X104110000Y-146896310D01*
X104110000Y-146755750D01*
X103951250Y-146597000D01*
X102827000Y-146597000D01*
X102573000Y-146597000D01*
X101448750Y-146597000D01*
X101290000Y-146755750D01*
X99935000Y-146755750D01*
X99935000Y-136677523D01*
X100002637Y-136745278D01*
X100603352Y-136994716D01*
X101253795Y-136995284D01*
X101854943Y-136746894D01*
X101940000Y-136661986D01*
X101940000Y-141712560D01*
X101925000Y-141712560D01*
X101689683Y-141756838D01*
X101473559Y-141895910D01*
X101328569Y-142108110D01*
X101277560Y-142360000D01*
X101277560Y-142960000D01*
X101321838Y-143195317D01*
X101385678Y-143294528D01*
X101328569Y-143378110D01*
X101277560Y-143630000D01*
X101277560Y-144230000D01*
X101321838Y-144465317D01*
X101385678Y-144564528D01*
X101328569Y-144648110D01*
X101277560Y-144900000D01*
X101277560Y-145500000D01*
X101321838Y-145735317D01*
X101380178Y-145825980D01*
X101290000Y-146043690D01*
X101290000Y-146184250D01*
X101448750Y-146343000D01*
X102573000Y-146343000D01*
X102573000Y-146323000D01*
X102827000Y-146323000D01*
X102827000Y-146343000D01*
X103951250Y-146343000D01*
X104110000Y-146184250D01*
X104110000Y-146043690D01*
X104020194Y-145826878D01*
X104071431Y-145751890D01*
X104122440Y-145500000D01*
X104122440Y-144900000D01*
X104078162Y-144664683D01*
X104014322Y-144565472D01*
X104071431Y-144481890D01*
X104122440Y-144230000D01*
X104122440Y-144057362D01*
X104667401Y-143512401D01*
X104832148Y-143265839D01*
X104890000Y-142975000D01*
X104890000Y-142360000D01*
X106677560Y-142360000D01*
X106677560Y-142960000D01*
X106721838Y-143195317D01*
X106785678Y-143294528D01*
X106728569Y-143378110D01*
X106677560Y-143630000D01*
X106677560Y-144230000D01*
X106721838Y-144465317D01*
X106785678Y-144564528D01*
X106728569Y-144648110D01*
X106677560Y-144900000D01*
X106677560Y-145500000D01*
X106721838Y-145735317D01*
X106785678Y-145834528D01*
X106728569Y-145918110D01*
X106677560Y-146170000D01*
X106677560Y-146770000D01*
X106721838Y-147005317D01*
X106860910Y-147221441D01*
X107073110Y-147366431D01*
X107325000Y-147417440D01*
X108875000Y-147417440D01*
X109110317Y-147373162D01*
X109138542Y-147355000D01*
X115427153Y-147355000D01*
X115443538Y-147394655D01*
X115902927Y-147854846D01*
X116503453Y-148104206D01*
X117153694Y-148104774D01*
X117754655Y-147856462D01*
X118214846Y-147397073D01*
X118464206Y-146796547D01*
X118464774Y-146146306D01*
X118216462Y-145545345D01*
X117757073Y-145085154D01*
X117715000Y-145067684D01*
X117715000Y-143721126D01*
X117889670Y-143604415D01*
X118096461Y-143294931D01*
X118467964Y-143710732D01*
X118995209Y-143964709D01*
X119010974Y-143967358D01*
X119243000Y-143846217D01*
X119243000Y-142487000D01*
X119223000Y-142487000D01*
X119223000Y-142233000D01*
X119243000Y-142233000D01*
X119243000Y-140873783D01*
X119497000Y-140873783D01*
X119497000Y-142233000D01*
X119517000Y-142233000D01*
X119517000Y-142487000D01*
X119497000Y-142487000D01*
X119497000Y-143846217D01*
X119729026Y-143967358D01*
X119744791Y-143964709D01*
X120272036Y-143710732D01*
X120643539Y-143294931D01*
X120850330Y-143604415D01*
X121336511Y-143929271D01*
X121910000Y-144043345D01*
X122483489Y-143929271D01*
X122969670Y-143604415D01*
X123180000Y-143289634D01*
X123390330Y-143604415D01*
X123876511Y-143929271D01*
X124450000Y-144043345D01*
X125023489Y-143929271D01*
X125509670Y-143604415D01*
X125720000Y-143289634D01*
X125930330Y-143604415D01*
X126416511Y-143929271D01*
X126990000Y-144043345D01*
X127563489Y-143929271D01*
X128049670Y-143604415D01*
X128260000Y-143289634D01*
X128470330Y-143604415D01*
X128956511Y-143929271D01*
X129530000Y-144043345D01*
X130103489Y-143929271D01*
X130589670Y-143604415D01*
X130800000Y-143289634D01*
X131010330Y-143604415D01*
X131496511Y-143929271D01*
X132070000Y-144043345D01*
X132643489Y-143929271D01*
X133129670Y-143604415D01*
X133340000Y-143289634D01*
X133550330Y-143604415D01*
X134036511Y-143929271D01*
X134610000Y-144043345D01*
X135183489Y-143929271D01*
X135669670Y-143604415D01*
X135880000Y-143289634D01*
X136090330Y-143604415D01*
X136576511Y-143929271D01*
X137150000Y-144043345D01*
X137723489Y-143929271D01*
X138209670Y-143604415D01*
X138420000Y-143289634D01*
X138630330Y-143604415D01*
X139116511Y-143929271D01*
X139690000Y-144043345D01*
X140263489Y-143929271D01*
X140749670Y-143604415D01*
X140960000Y-143289634D01*
X141170330Y-143604415D01*
X141656511Y-143929271D01*
X141732819Y-143944449D01*
X140222268Y-145455000D01*
X128286274Y-145455000D01*
X127917073Y-145085154D01*
X127316547Y-144835794D01*
X126666306Y-144835226D01*
X126065345Y-145083538D01*
X125605154Y-145542927D01*
X125355794Y-146143453D01*
X125355226Y-146793694D01*
X125603538Y-147394655D01*
X126062927Y-147854846D01*
X126663453Y-148104206D01*
X127313694Y-148104774D01*
X127914655Y-147856462D01*
X128046347Y-147725000D01*
X130627012Y-147725000D01*
X130626838Y-147925167D01*
X130768883Y-148268943D01*
X131031673Y-148532192D01*
X131375201Y-148674838D01*
X131747167Y-148675162D01*
X132090943Y-148533117D01*
X132124118Y-148500000D01*
X141214000Y-148500000D01*
X141504839Y-148442148D01*
X141751401Y-148277401D01*
X145084802Y-144944000D01*
X148178400Y-144944000D01*
X148469239Y-144886148D01*
X148715801Y-144721401D01*
X149469536Y-143967666D01*
X149850000Y-144043345D01*
X150423489Y-143929271D01*
X150909670Y-143604415D01*
X151116461Y-143294931D01*
X151487964Y-143710732D01*
X152015209Y-143964709D01*
X152030974Y-143967358D01*
X152263000Y-143846217D01*
X152263000Y-142487000D01*
X152243000Y-142487000D01*
X152243000Y-142233000D01*
X152263000Y-142233000D01*
X152263000Y-140873783D01*
X152030974Y-140752642D01*
X152015209Y-140755291D01*
X151487964Y-141009268D01*
X151116461Y-141425069D01*
X150909670Y-141115585D01*
X150423489Y-140790729D01*
X149850000Y-140676655D01*
X149276511Y-140790729D01*
X148790330Y-141115585D01*
X148580000Y-141430366D01*
X148369670Y-141115585D01*
X147883489Y-140790729D01*
X147310000Y-140676655D01*
X146736511Y-140790729D01*
X146250330Y-141115585D01*
X146040000Y-141430366D01*
X145829670Y-141115585D01*
X145343489Y-140790729D01*
X144770000Y-140676655D01*
X144196511Y-140790729D01*
X143710330Y-141115585D01*
X143500000Y-141430366D01*
X143289670Y-141115585D01*
X142803489Y-140790729D01*
X142230000Y-140676655D01*
X141656511Y-140790729D01*
X141170330Y-141115585D01*
X140960000Y-141430366D01*
X140749670Y-141115585D01*
X140263489Y-140790729D01*
X139690000Y-140676655D01*
X139116511Y-140790729D01*
X138630330Y-141115585D01*
X138420000Y-141430366D01*
X138209670Y-141115585D01*
X137723489Y-140790729D01*
X137150000Y-140676655D01*
X136576511Y-140790729D01*
X136090330Y-141115585D01*
X135880000Y-141430366D01*
X135669670Y-141115585D01*
X135183489Y-140790729D01*
X134610000Y-140676655D01*
X134036511Y-140790729D01*
X133550330Y-141115585D01*
X133340000Y-141430366D01*
X133129670Y-141115585D01*
X132643489Y-140790729D01*
X132070000Y-140676655D01*
X131496511Y-140790729D01*
X131010330Y-141115585D01*
X130800000Y-141430366D01*
X130589670Y-141115585D01*
X130103489Y-140790729D01*
X129530000Y-140676655D01*
X128956511Y-140790729D01*
X128470330Y-141115585D01*
X128260000Y-141430366D01*
X128049670Y-141115585D01*
X127563489Y-140790729D01*
X126990000Y-140676655D01*
X126416511Y-140790729D01*
X125930330Y-141115585D01*
X125720000Y-141430366D01*
X125509670Y-141115585D01*
X125023489Y-140790729D01*
X124450000Y-140676655D01*
X123876511Y-140790729D01*
X123390330Y-141115585D01*
X123180000Y-141430366D01*
X122969670Y-141115585D01*
X122483489Y-140790729D01*
X121910000Y-140676655D01*
X121336511Y-140790729D01*
X120850330Y-141115585D01*
X120643539Y-141425069D01*
X120272036Y-141009268D01*
X119744791Y-140755291D01*
X119729026Y-140752642D01*
X119497000Y-140873783D01*
X119243000Y-140873783D01*
X119010974Y-140752642D01*
X118995209Y-140755291D01*
X118467964Y-141009268D01*
X118096461Y-141425069D01*
X117889670Y-141115585D01*
X117403489Y-140790729D01*
X116830000Y-140676655D01*
X116256511Y-140790729D01*
X115770330Y-141115585D01*
X115560000Y-141430366D01*
X115349670Y-141115585D01*
X114863489Y-140790729D01*
X114290000Y-140676655D01*
X113716511Y-140790729D01*
X113230330Y-141115585D01*
X113020000Y-141430366D01*
X112809670Y-141115585D01*
X112323489Y-140790729D01*
X111750000Y-140676655D01*
X111176511Y-140790729D01*
X110690330Y-141115585D01*
X110365474Y-141601766D01*
X110353679Y-141661065D01*
X110279346Y-141611397D01*
X109845000Y-141525000D01*
X108100000Y-141525000D01*
X107665654Y-141611397D01*
X107514253Y-141712560D01*
X107325000Y-141712560D01*
X107089683Y-141756838D01*
X106873559Y-141895910D01*
X106728569Y-142108110D01*
X106677560Y-142360000D01*
X104890000Y-142360000D01*
X104890000Y-127420000D01*
X104832148Y-127129161D01*
X104832148Y-127129160D01*
X104667401Y-126882599D01*
X103620000Y-125835198D01*
X103620000Y-113377463D01*
X103652192Y-113345327D01*
X103794838Y-113001799D01*
X103795162Y-112629833D01*
X103653117Y-112286057D01*
X103390327Y-112022808D01*
X103046799Y-111880162D01*
X102985000Y-111880108D01*
X102985000Y-110560750D01*
X119250000Y-110560750D01*
X119250000Y-111156310D01*
X119346673Y-111389699D01*
X119525302Y-111568327D01*
X119758691Y-111665000D01*
X120354250Y-111665000D01*
X120513000Y-111506250D01*
X120513000Y-110402000D01*
X120767000Y-110402000D01*
X120767000Y-111506250D01*
X120925750Y-111665000D01*
X121521309Y-111665000D01*
X121754698Y-111568327D01*
X121933327Y-111389699D01*
X122030000Y-111156310D01*
X122030000Y-110560750D01*
X122019525Y-110550275D01*
X124329759Y-110550275D01*
X124540928Y-111061343D01*
X124931600Y-111452698D01*
X125442299Y-111664758D01*
X125995275Y-111665241D01*
X126506343Y-111454072D01*
X126897698Y-111063400D01*
X127109758Y-110552701D01*
X127110241Y-109999725D01*
X126899072Y-109488657D01*
X126508400Y-109097302D01*
X125997701Y-108885242D01*
X125444725Y-108884759D01*
X124933657Y-109095928D01*
X124542302Y-109486600D01*
X124330242Y-109997299D01*
X124329759Y-110550275D01*
X122019525Y-110550275D01*
X121871250Y-110402000D01*
X120767000Y-110402000D01*
X120513000Y-110402000D01*
X119408750Y-110402000D01*
X119250000Y-110560750D01*
X102985000Y-110560750D01*
X102985000Y-107626400D01*
X110086560Y-107626400D01*
X110086560Y-109353600D01*
X110130838Y-109588917D01*
X110269910Y-109805041D01*
X110482110Y-109950031D01*
X110734000Y-110001040D01*
X112766000Y-110001040D01*
X113001317Y-109956762D01*
X113217441Y-109817690D01*
X113349100Y-109625000D01*
X116710000Y-109625000D01*
X117144346Y-109538603D01*
X117361223Y-109393690D01*
X119250000Y-109393690D01*
X119250000Y-109989250D01*
X119408750Y-110148000D01*
X120513000Y-110148000D01*
X120513000Y-109043750D01*
X120767000Y-109043750D01*
X120767000Y-110148000D01*
X121871250Y-110148000D01*
X122030000Y-109989250D01*
X122030000Y-109393690D01*
X121933327Y-109160301D01*
X121754698Y-108981673D01*
X121521309Y-108885000D01*
X120925750Y-108885000D01*
X120767000Y-109043750D01*
X120513000Y-109043750D01*
X120354250Y-108885000D01*
X119758691Y-108885000D01*
X119525302Y-108981673D01*
X119346673Y-109160301D01*
X119250000Y-109393690D01*
X117361223Y-109393690D01*
X117512566Y-109292566D01*
X118570132Y-108235000D01*
X131091868Y-108235000D01*
X132149434Y-109292566D01*
X132517654Y-109538603D01*
X132952000Y-109625000D01*
X133014057Y-109625000D01*
X133129910Y-109805041D01*
X133342110Y-109950031D01*
X133594000Y-110001040D01*
X135626000Y-110001040D01*
X135861317Y-109956762D01*
X136077441Y-109817690D01*
X136222431Y-109605490D01*
X136273440Y-109353600D01*
X136273440Y-107626400D01*
X136229162Y-107391083D01*
X136090090Y-107174959D01*
X135877890Y-107029969D01*
X135783073Y-107010768D01*
X135960732Y-106852036D01*
X136214709Y-106324791D01*
X136217358Y-106309026D01*
X136096217Y-106077000D01*
X134737000Y-106077000D01*
X134737000Y-106097000D01*
X134483000Y-106097000D01*
X134483000Y-106077000D01*
X133123783Y-106077000D01*
X133002642Y-106309026D01*
X133005291Y-106324791D01*
X133259268Y-106852036D01*
X133434845Y-107008907D01*
X133358683Y-107023238D01*
X133195424Y-107128292D01*
X132364566Y-106297434D01*
X131996346Y-106051397D01*
X131562000Y-105965000D01*
X118100000Y-105965000D01*
X117665654Y-106051397D01*
X117297434Y-106297434D01*
X116239868Y-107355000D01*
X113345943Y-107355000D01*
X113230090Y-107174959D01*
X113017890Y-107029969D01*
X112923073Y-107010768D01*
X113100732Y-106852036D01*
X113354709Y-106324791D01*
X113357358Y-106309026D01*
X113236217Y-106077000D01*
X111877000Y-106077000D01*
X111877000Y-106097000D01*
X111623000Y-106097000D01*
X111623000Y-106077000D01*
X110263783Y-106077000D01*
X110142642Y-106309026D01*
X110145291Y-106324791D01*
X110399268Y-106852036D01*
X110574845Y-107008907D01*
X110498683Y-107023238D01*
X110282559Y-107162310D01*
X110137569Y-107374510D01*
X110086560Y-107626400D01*
X102985000Y-107626400D01*
X102985000Y-90051413D01*
X102927148Y-89760574D01*
X102762401Y-89514012D01*
X102233389Y-88985000D01*
X102414250Y-88985000D01*
X102573000Y-88826250D01*
X102573000Y-88177000D01*
X102553000Y-88177000D01*
X102553000Y-87923000D01*
X102573000Y-87923000D01*
X102573000Y-87903000D01*
X102827000Y-87903000D01*
X102827000Y-87923000D01*
X102847000Y-87923000D01*
X102847000Y-88177000D01*
X102827000Y-88177000D01*
X102827000Y-88826250D01*
X102985750Y-88985000D01*
X103370000Y-88985000D01*
X103370000Y-95942400D01*
X103427852Y-96233239D01*
X103592599Y-96479801D01*
X110142334Y-103029536D01*
X110066655Y-103410000D01*
X110180729Y-103983489D01*
X110505585Y-104469670D01*
X110815069Y-104676461D01*
X110399268Y-105047964D01*
X110145291Y-105575209D01*
X110142642Y-105590974D01*
X110263783Y-105823000D01*
X111623000Y-105823000D01*
X111623000Y-105803000D01*
X111877000Y-105803000D01*
X111877000Y-105823000D01*
X113236217Y-105823000D01*
X113357358Y-105590974D01*
X113354709Y-105575209D01*
X113100732Y-105047964D01*
X112684931Y-104676461D01*
X112994415Y-104469670D01*
X113194648Y-104170000D01*
X133165352Y-104170000D01*
X133365585Y-104469670D01*
X133675069Y-104676461D01*
X133259268Y-105047964D01*
X133005291Y-105575209D01*
X133002642Y-105590974D01*
X133123783Y-105823000D01*
X134483000Y-105823000D01*
X134483000Y-105803000D01*
X134737000Y-105803000D01*
X134737000Y-105823000D01*
X136096217Y-105823000D01*
X136217358Y-105590974D01*
X136214709Y-105575209D01*
X135960732Y-105047964D01*
X135544931Y-104676461D01*
X135854415Y-104469670D01*
X136179271Y-103983489D01*
X136293345Y-103410000D01*
X136179271Y-102836511D01*
X135854415Y-102350330D01*
X135539634Y-102140000D01*
X135854415Y-101929670D01*
X136179271Y-101443489D01*
X136293345Y-100870000D01*
X136179271Y-100296511D01*
X135854415Y-99810330D01*
X135539634Y-99600000D01*
X135854415Y-99389670D01*
X136179271Y-98903489D01*
X136293345Y-98330000D01*
X136179271Y-97756511D01*
X135854415Y-97270330D01*
X135539634Y-97060000D01*
X135854415Y-96849670D01*
X136179271Y-96363489D01*
X136293345Y-95790000D01*
X136179271Y-95216511D01*
X135854415Y-94730330D01*
X135539634Y-94520000D01*
X135854415Y-94309670D01*
X136179271Y-93823489D01*
X136293345Y-93250000D01*
X136179271Y-92676511D01*
X135854415Y-92190330D01*
X135539634Y-91980000D01*
X135854415Y-91769670D01*
X136179271Y-91283489D01*
X136293345Y-90710000D01*
X136179271Y-90136511D01*
X135854415Y-89650330D01*
X135368234Y-89325474D01*
X134794745Y-89211400D01*
X134425255Y-89211400D01*
X133851766Y-89325474D01*
X133365585Y-89650330D01*
X133137968Y-89990983D01*
X133053161Y-90007852D01*
X132806599Y-90172599D01*
X131814847Y-91164351D01*
X130030451Y-91164351D01*
X133019802Y-88175000D01*
X140327400Y-88175000D01*
X140618239Y-88117148D01*
X140864801Y-87952401D01*
X141849536Y-86967666D01*
X142230000Y-87043345D01*
X142803489Y-86929271D01*
X143289670Y-86604415D01*
X143500000Y-86289634D01*
X143710330Y-86604415D01*
X144196511Y-86929271D01*
X144770000Y-87043345D01*
X145343489Y-86929271D01*
X145829670Y-86604415D01*
X146040000Y-86289634D01*
X146250330Y-86604415D01*
X146736511Y-86929271D01*
X147310000Y-87043345D01*
X147883489Y-86929271D01*
X148369670Y-86604415D01*
X148580000Y-86289634D01*
X148790330Y-86604415D01*
X149090000Y-86804648D01*
X149090000Y-109125198D01*
X147945198Y-110270000D01*
X128895000Y-110270000D01*
X128604160Y-110327852D01*
X128357599Y-110492599D01*
X126795198Y-112055000D01*
X124369957Y-112055000D01*
X124359072Y-112028657D01*
X123968400Y-111637302D01*
X123457701Y-111425242D01*
X122904725Y-111424759D01*
X122393657Y-111635928D01*
X122002302Y-112026600D01*
X121790242Y-112537299D01*
X121789759Y-113090275D01*
X122000928Y-113601343D01*
X122391600Y-113992698D01*
X122902299Y-114204758D01*
X123455275Y-114205241D01*
X123966343Y-113994072D01*
X124357698Y-113603400D01*
X124369491Y-113575000D01*
X127110000Y-113575000D01*
X127400839Y-113517148D01*
X127647401Y-113352401D01*
X129209802Y-111790000D01*
X148260000Y-111790000D01*
X148550839Y-111732148D01*
X148797401Y-111567401D01*
X150387401Y-109977401D01*
X150552148Y-109730839D01*
X150610000Y-109440000D01*
X150610000Y-86804648D01*
X150909670Y-86604415D01*
X151116461Y-86294931D01*
X151487964Y-86710732D01*
X152015209Y-86964709D01*
X152030974Y-86967358D01*
X152263000Y-86846217D01*
X152263000Y-85487000D01*
X152243000Y-85487000D01*
X152243000Y-85233000D01*
X152263000Y-85233000D01*
X152263000Y-83873783D01*
X152030974Y-83752642D01*
X152015209Y-83755291D01*
X151487964Y-84009268D01*
X151116461Y-84425069D01*
X150909670Y-84115585D01*
X150423489Y-83790729D01*
X149850000Y-83676655D01*
X149276511Y-83790729D01*
X148790330Y-84115585D01*
X148580000Y-84430366D01*
X148369670Y-84115585D01*
X147883489Y-83790729D01*
X147310000Y-83676655D01*
X146736511Y-83790729D01*
X146250330Y-84115585D01*
X146040000Y-84430366D01*
X145829670Y-84115585D01*
X145343489Y-83790729D01*
X144770000Y-83676655D01*
X144196511Y-83790729D01*
X143710330Y-84115585D01*
X143500000Y-84430366D01*
X143289670Y-84115585D01*
X142803489Y-83790729D01*
X142230000Y-83676655D01*
X141656511Y-83790729D01*
X141170330Y-84115585D01*
X140960000Y-84430366D01*
X140749670Y-84115585D01*
X140263489Y-83790729D01*
X139690000Y-83676655D01*
X139116511Y-83790729D01*
X138630330Y-84115585D01*
X138420000Y-84430366D01*
X138209670Y-84115585D01*
X137723489Y-83790729D01*
X137150000Y-83676655D01*
X136576511Y-83790729D01*
X136090330Y-84115585D01*
X135880000Y-84430366D01*
X135669670Y-84115585D01*
X135183489Y-83790729D01*
X134610000Y-83676655D01*
X134036511Y-83790729D01*
X133550330Y-84115585D01*
X133340000Y-84430366D01*
X133129670Y-84115585D01*
X132643489Y-83790729D01*
X132070000Y-83676655D01*
X131496511Y-83790729D01*
X131010330Y-84115585D01*
X130800000Y-84430366D01*
X130589670Y-84115585D01*
X130103489Y-83790729D01*
X129530000Y-83676655D01*
X128956511Y-83790729D01*
X128470330Y-84115585D01*
X128260000Y-84430366D01*
X128049670Y-84115585D01*
X127563489Y-83790729D01*
X126990000Y-83676655D01*
X126416511Y-83790729D01*
X125930330Y-84115585D01*
X125720000Y-84430366D01*
X125509670Y-84115585D01*
X125023489Y-83790729D01*
X124450000Y-83676655D01*
X123876511Y-83790729D01*
X123390330Y-84115585D01*
X123180000Y-84430366D01*
X122969670Y-84115585D01*
X122483489Y-83790729D01*
X121910000Y-83676655D01*
X121336511Y-83790729D01*
X120850330Y-84115585D01*
X120643539Y-84425069D01*
X120272036Y-84009268D01*
X119744791Y-83755291D01*
X119729026Y-83752642D01*
X119497000Y-83873783D01*
X119497000Y-85233000D01*
X119517000Y-85233000D01*
X119517000Y-85487000D01*
X119497000Y-85487000D01*
X119497000Y-86846217D01*
X119729026Y-86967358D01*
X119744791Y-86964709D01*
X120272036Y-86710732D01*
X120643539Y-86294931D01*
X120850330Y-86604415D01*
X121336511Y-86929271D01*
X121910000Y-87043345D01*
X122483489Y-86929271D01*
X122969670Y-86604415D01*
X123180000Y-86289634D01*
X123390330Y-86604415D01*
X123876511Y-86929271D01*
X124450000Y-87043345D01*
X125023489Y-86929271D01*
X125509670Y-86604415D01*
X125720000Y-86289634D01*
X125930330Y-86604415D01*
X126416511Y-86929271D01*
X126990000Y-87043345D01*
X127563489Y-86929271D01*
X128049670Y-86604415D01*
X128260000Y-86289634D01*
X128470330Y-86604415D01*
X128956511Y-86929271D01*
X129530000Y-87043345D01*
X130103489Y-86929271D01*
X130589670Y-86604415D01*
X130800000Y-86289634D01*
X131010330Y-86604415D01*
X131496511Y-86929271D01*
X132013159Y-87032039D01*
X129060707Y-89984491D01*
X128483879Y-89984491D01*
X128624206Y-89646547D01*
X128624774Y-88996306D01*
X128376462Y-88395345D01*
X127917073Y-87935154D01*
X127316547Y-87685794D01*
X126666306Y-87685226D01*
X126065345Y-87933538D01*
X125605154Y-88392927D01*
X125587684Y-88435000D01*
X119736579Y-88435000D01*
X117896209Y-86594629D01*
X118096461Y-86294931D01*
X118467964Y-86710732D01*
X118995209Y-86964709D01*
X119010974Y-86967358D01*
X119243000Y-86846217D01*
X119243000Y-85487000D01*
X119223000Y-85487000D01*
X119223000Y-85233000D01*
X119243000Y-85233000D01*
X119243000Y-83873783D01*
X119010974Y-83752642D01*
X118995209Y-83755291D01*
X118467964Y-84009268D01*
X118096461Y-84425069D01*
X117889670Y-84115585D01*
X117403489Y-83790729D01*
X116830000Y-83676655D01*
X116256511Y-83790729D01*
X115770330Y-84115585D01*
X115560000Y-84430366D01*
X115349670Y-84115585D01*
X114863489Y-83790729D01*
X114290000Y-83676655D01*
X113716511Y-83790729D01*
X113230330Y-84115585D01*
X113020000Y-84430366D01*
X112809670Y-84115585D01*
X112323489Y-83790729D01*
X111750000Y-83676655D01*
X111176511Y-83790729D01*
X110924172Y-83959336D01*
X110893603Y-83805654D01*
X110647566Y-83437434D01*
X110279346Y-83191397D01*
X109845000Y-83105000D01*
X108100000Y-83105000D01*
X107665654Y-83191397D01*
X107514253Y-83292560D01*
X107430000Y-83292560D01*
X107430000Y-55344802D01*
X107444680Y-55330122D01*
X107490167Y-55330162D01*
X107833943Y-55188117D01*
X108097192Y-54925327D01*
X108239838Y-54581799D01*
X108240162Y-54209833D01*
X108105944Y-53885000D01*
X114610198Y-53885000D01*
X115879421Y-55154223D01*
X115879421Y-55154223D01*
G37*
X115879421Y-55154223D02*
X115574666Y-55458446D01*
X115348168Y-56003913D01*
X115347652Y-56594536D01*
X115573198Y-57140397D01*
X115877270Y-57445000D01*
X115634802Y-57445000D01*
X114072401Y-55882599D01*
X113825839Y-55717852D01*
X113535000Y-55660000D01*
X113222016Y-55660000D01*
X112949778Y-55252567D01*
X112414155Y-54894675D01*
X111782345Y-54769000D01*
X111717655Y-54769000D01*
X111085845Y-54894675D01*
X110550222Y-55252567D01*
X110192330Y-55788190D01*
X110066655Y-56420000D01*
X110192330Y-57051810D01*
X110419499Y-57391792D01*
X110282559Y-57479910D01*
X110137569Y-57692110D01*
X110086560Y-57944000D01*
X110086560Y-59963000D01*
X108930000Y-59963000D01*
X108880590Y-59973006D01*
X108838965Y-60001447D01*
X108811685Y-60043841D01*
X108803000Y-60090000D01*
X108803000Y-60675262D01*
X108658295Y-60704046D01*
X108427954Y-60857954D01*
X108274046Y-61088295D01*
X108220000Y-61360000D01*
X108220000Y-82360000D01*
X108274046Y-82631705D01*
X108427954Y-82862046D01*
X108658295Y-83015954D01*
X108930000Y-83070000D01*
X156220000Y-83070000D01*
X156220000Y-83866807D01*
X156045490Y-83747569D01*
X155793600Y-83696560D01*
X154066400Y-83696560D01*
X153831083Y-83740838D01*
X153614959Y-83879910D01*
X153469969Y-84092110D01*
X153450768Y-84186927D01*
X153292036Y-84009268D01*
X152764791Y-83755291D01*
X152749026Y-83752642D01*
X152517000Y-83873783D01*
X152517000Y-85233000D01*
X152537000Y-85233000D01*
X152537000Y-85487000D01*
X152517000Y-85487000D01*
X152517000Y-86846217D01*
X152749026Y-86967358D01*
X152764791Y-86964709D01*
X153292036Y-86710732D01*
X153448907Y-86535155D01*
X153463238Y-86611317D01*
X153602310Y-86827441D01*
X153814510Y-86972431D01*
X154066400Y-87023440D01*
X155793600Y-87023440D01*
X156028917Y-86979162D01*
X156220000Y-86856203D01*
X156220000Y-116963000D01*
X136019876Y-116963000D01*
X136167670Y-116741810D01*
X136293345Y-116110000D01*
X136167670Y-115478190D01*
X135940501Y-115138208D01*
X136077441Y-115050090D01*
X136222431Y-114837890D01*
X136273440Y-114586000D01*
X136273440Y-112554000D01*
X136229162Y-112318683D01*
X136090090Y-112102559D01*
X135877890Y-111957569D01*
X135626000Y-111906560D01*
X133594000Y-111906560D01*
X133358683Y-111950838D01*
X133142559Y-112089910D01*
X132997569Y-112302110D01*
X132946560Y-112554000D01*
X132946560Y-114586000D01*
X132990838Y-114821317D01*
X133129910Y-115037441D01*
X133278837Y-115139198D01*
X133052330Y-115478190D01*
X132926655Y-116110000D01*
X133052330Y-116741810D01*
X133200124Y-116963000D01*
X108930000Y-116963000D01*
X108880590Y-116973006D01*
X108838965Y-117001447D01*
X108811685Y-117043841D01*
X108803000Y-117090000D01*
X108803000Y-117675262D01*
X108658295Y-117704046D01*
X108427954Y-117857954D01*
X108274046Y-118088295D01*
X108220000Y-118360000D01*
X108220000Y-139360000D01*
X108274046Y-139631705D01*
X108427954Y-139862046D01*
X108658295Y-140015954D01*
X108930000Y-140070000D01*
X156220000Y-140070000D01*
X156220000Y-140866807D01*
X156045490Y-140747569D01*
X155793600Y-140696560D01*
X154066400Y-140696560D01*
X153831083Y-140740838D01*
X153614959Y-140879910D01*
X153469969Y-141092110D01*
X153450768Y-141186927D01*
X153292036Y-141009268D01*
X152764791Y-140755291D01*
X152749026Y-140752642D01*
X152517000Y-140873783D01*
X152517000Y-142233000D01*
X152537000Y-142233000D01*
X152537000Y-142487000D01*
X152517000Y-142487000D01*
X152517000Y-143846217D01*
X152749026Y-143967358D01*
X152764791Y-143964709D01*
X153292036Y-143710732D01*
X153448907Y-143535155D01*
X153463238Y-143611317D01*
X153602310Y-143827441D01*
X153814510Y-143972431D01*
X154066400Y-144023440D01*
X155793600Y-144023440D01*
X156028917Y-143979162D01*
X156220000Y-143856203D01*
X156220000Y-173963000D01*
X138660102Y-173963000D01*
X138707670Y-173891810D01*
X138833345Y-173260000D01*
X138707670Y-172628190D01*
X138480501Y-172288208D01*
X138617441Y-172200090D01*
X138762431Y-171987890D01*
X138813440Y-171736000D01*
X138813440Y-169704000D01*
X138769162Y-169468683D01*
X138630090Y-169252559D01*
X138417890Y-169107569D01*
X138166000Y-169056560D01*
X136134000Y-169056560D01*
X135898683Y-169100838D01*
X135682559Y-169239910D01*
X135537569Y-169452110D01*
X135486560Y-169704000D01*
X135486560Y-171736000D01*
X135530838Y-171971317D01*
X135669910Y-172187441D01*
X135818837Y-172289198D01*
X135592330Y-172628190D01*
X135466655Y-173260000D01*
X135592330Y-173891810D01*
X135639898Y-173963000D01*
X108930000Y-173963000D01*
X108880590Y-173973006D01*
X108838965Y-174001447D01*
X108811685Y-174043841D01*
X108803000Y-174090000D01*
X108803000Y-174675262D01*
X108658295Y-174704046D01*
X108427954Y-174857954D01*
X108274046Y-175088295D01*
X108220000Y-175360000D01*
X108220000Y-188650000D01*
X99266302Y-188650000D01*
X99277440Y-188595000D01*
X99277440Y-186895000D01*
X99233162Y-186659683D01*
X99094090Y-186443559D01*
X98881890Y-186298569D01*
X98814459Y-186284914D01*
X98859147Y-186255054D01*
X98865865Y-186245000D01*
X99529995Y-186245000D01*
X99530000Y-186245001D01*
X99812484Y-186188810D01*
X99868675Y-186177633D01*
X100155790Y-185985790D01*
X101555787Y-184585792D01*
X101555790Y-184585790D01*
X101747633Y-184298675D01*
X101776223Y-184154946D01*
X101815001Y-183960000D01*
X101815000Y-183959995D01*
X101815000Y-171007440D01*
X101930000Y-171007440D01*
X102165317Y-170963162D01*
X102381441Y-170824090D01*
X102526431Y-170611890D01*
X102577440Y-170360000D01*
X102577440Y-168360000D01*
X102533162Y-168124683D01*
X102394090Y-167908559D01*
X102181890Y-167763569D01*
X101930000Y-167712560D01*
X99935000Y-167712560D01*
X99935000Y-165677523D01*
X100002637Y-165745278D01*
X100603352Y-165994716D01*
X101253795Y-165995284D01*
X101854943Y-165746894D01*
X102315278Y-165287363D01*
X102564716Y-164686648D01*
X102565284Y-164036205D01*
X102316894Y-163435057D01*
X101857363Y-162974722D01*
X101256648Y-162725284D01*
X100606205Y-162724716D01*
X100005057Y-162973106D01*
X99935000Y-163043041D01*
X99935000Y-155382479D01*
X100027637Y-155475278D01*
X100628352Y-155724716D01*
X101278795Y-155725284D01*
X101879943Y-155476894D01*
X102340278Y-155017363D01*
X102589716Y-154416648D01*
X102590284Y-153766205D01*
X102341894Y-153165057D01*
X101882363Y-152704722D01*
X101281648Y-152455284D01*
X100631205Y-152454716D01*
X100030057Y-152703106D01*
X99935000Y-152797997D01*
X99935000Y-150725000D01*
X100669250Y-150725000D01*
X100828000Y-150566250D01*
X100828000Y-149217000D01*
X101082000Y-149217000D01*
X101082000Y-150566250D01*
X101240750Y-150725000D01*
X102081310Y-150725000D01*
X102314699Y-150628327D01*
X102493327Y-150449698D01*
X102590000Y-150216309D01*
X102590000Y-149375750D01*
X102431250Y-149217000D01*
X101082000Y-149217000D01*
X100828000Y-149217000D01*
X100808000Y-149217000D01*
X100808000Y-148963000D01*
X100828000Y-148963000D01*
X100828000Y-147613750D01*
X101082000Y-147613750D01*
X101082000Y-148963000D01*
X102431250Y-148963000D01*
X102590000Y-148804250D01*
X102590000Y-147963691D01*
X102493327Y-147730302D01*
X102314699Y-147551673D01*
X102081310Y-147455000D01*
X101240750Y-147455000D01*
X101082000Y-147613750D01*
X100828000Y-147613750D01*
X100669250Y-147455000D01*
X99935000Y-147455000D01*
X99935000Y-146755750D01*
X101290000Y-146755750D01*
X101290000Y-146896310D01*
X101386673Y-147129699D01*
X101565302Y-147308327D01*
X101798691Y-147405000D01*
X102414250Y-147405000D01*
X102573000Y-147246250D01*
X102573000Y-146597000D01*
X102827000Y-146597000D01*
X102827000Y-147246250D01*
X102985750Y-147405000D01*
X103601309Y-147405000D01*
X103834698Y-147308327D01*
X104013327Y-147129699D01*
X104110000Y-146896310D01*
X104110000Y-146755750D01*
X103951250Y-146597000D01*
X102827000Y-146597000D01*
X102573000Y-146597000D01*
X101448750Y-146597000D01*
X101290000Y-146755750D01*
X99935000Y-146755750D01*
X99935000Y-136677523D01*
X100002637Y-136745278D01*
X100603352Y-136994716D01*
X101253795Y-136995284D01*
X101854943Y-136746894D01*
X101940000Y-136661986D01*
X101940000Y-141712560D01*
X101925000Y-141712560D01*
X101689683Y-141756838D01*
X101473559Y-141895910D01*
X101328569Y-142108110D01*
X101277560Y-142360000D01*
X101277560Y-142960000D01*
X101321838Y-143195317D01*
X101385678Y-143294528D01*
X101328569Y-143378110D01*
X101277560Y-143630000D01*
X101277560Y-144230000D01*
X101321838Y-144465317D01*
X101385678Y-144564528D01*
X101328569Y-144648110D01*
X101277560Y-144900000D01*
X101277560Y-145500000D01*
X101321838Y-145735317D01*
X101380178Y-145825980D01*
X101290000Y-146043690D01*
X101290000Y-146184250D01*
X101448750Y-146343000D01*
X102573000Y-146343000D01*
X102573000Y-146323000D01*
X102827000Y-146323000D01*
X102827000Y-146343000D01*
X103951250Y-146343000D01*
X104110000Y-146184250D01*
X104110000Y-146043690D01*
X104020194Y-145826878D01*
X104071431Y-145751890D01*
X104122440Y-145500000D01*
X104122440Y-144900000D01*
X104078162Y-144664683D01*
X104014322Y-144565472D01*
X104071431Y-144481890D01*
X104122440Y-144230000D01*
X104122440Y-144057362D01*
X104667401Y-143512401D01*
X104832148Y-143265839D01*
X104890000Y-142975000D01*
X104890000Y-142360000D01*
X106677560Y-142360000D01*
X106677560Y-142960000D01*
X106721838Y-143195317D01*
X106785678Y-143294528D01*
X106728569Y-143378110D01*
X106677560Y-143630000D01*
X106677560Y-144230000D01*
X106721838Y-144465317D01*
X106785678Y-144564528D01*
X106728569Y-144648110D01*
X106677560Y-144900000D01*
X106677560Y-145500000D01*
X106721838Y-145735317D01*
X106785678Y-145834528D01*
X106728569Y-145918110D01*
X106677560Y-146170000D01*
X106677560Y-146770000D01*
X106721838Y-147005317D01*
X106860910Y-147221441D01*
X107073110Y-147366431D01*
X107325000Y-147417440D01*
X108875000Y-147417440D01*
X109110317Y-147373162D01*
X109138542Y-147355000D01*
X115427153Y-147355000D01*
X115443538Y-147394655D01*
X115902927Y-147854846D01*
X116503453Y-148104206D01*
X117153694Y-148104774D01*
X117754655Y-147856462D01*
X118214846Y-147397073D01*
X118464206Y-146796547D01*
X118464774Y-146146306D01*
X118216462Y-145545345D01*
X117757073Y-145085154D01*
X117715000Y-145067684D01*
X117715000Y-143721126D01*
X117889670Y-143604415D01*
X118096461Y-143294931D01*
X118467964Y-143710732D01*
X118995209Y-143964709D01*
X119010974Y-143967358D01*
X119243000Y-143846217D01*
X119243000Y-142487000D01*
X119223000Y-142487000D01*
X119223000Y-142233000D01*
X119243000Y-142233000D01*
X119243000Y-140873783D01*
X119497000Y-140873783D01*
X119497000Y-142233000D01*
X119517000Y-142233000D01*
X119517000Y-142487000D01*
X119497000Y-142487000D01*
X119497000Y-143846217D01*
X119729026Y-143967358D01*
X119744791Y-143964709D01*
X120272036Y-143710732D01*
X120643539Y-143294931D01*
X120850330Y-143604415D01*
X121336511Y-143929271D01*
X121910000Y-144043345D01*
X122483489Y-143929271D01*
X122969670Y-143604415D01*
X123180000Y-143289634D01*
X123390330Y-143604415D01*
X123876511Y-143929271D01*
X124450000Y-144043345D01*
X125023489Y-143929271D01*
X125509670Y-143604415D01*
X125720000Y-143289634D01*
X125930330Y-143604415D01*
X126416511Y-143929271D01*
X126990000Y-144043345D01*
X127563489Y-143929271D01*
X128049670Y-143604415D01*
X128260000Y-143289634D01*
X128470330Y-143604415D01*
X128956511Y-143929271D01*
X129530000Y-144043345D01*
X130103489Y-143929271D01*
X130589670Y-143604415D01*
X130800000Y-143289634D01*
X131010330Y-143604415D01*
X131496511Y-143929271D01*
X132070000Y-144043345D01*
X132643489Y-143929271D01*
X133129670Y-143604415D01*
X133340000Y-143289634D01*
X133550330Y-143604415D01*
X134036511Y-143929271D01*
X134610000Y-144043345D01*
X135183489Y-143929271D01*
X135669670Y-143604415D01*
X135880000Y-143289634D01*
X136090330Y-143604415D01*
X136576511Y-143929271D01*
X137150000Y-144043345D01*
X137723489Y-143929271D01*
X138209670Y-143604415D01*
X138420000Y-143289634D01*
X138630330Y-143604415D01*
X139116511Y-143929271D01*
X139690000Y-144043345D01*
X140263489Y-143929271D01*
X140749670Y-143604415D01*
X140960000Y-143289634D01*
X141170330Y-143604415D01*
X141656511Y-143929271D01*
X141732819Y-143944449D01*
X140222268Y-145455000D01*
X128286274Y-145455000D01*
X127917073Y-145085154D01*
X127316547Y-144835794D01*
X126666306Y-144835226D01*
X126065345Y-145083538D01*
X125605154Y-145542927D01*
X125355794Y-146143453D01*
X125355226Y-146793694D01*
X125603538Y-147394655D01*
X126062927Y-147854846D01*
X126663453Y-148104206D01*
X127313694Y-148104774D01*
X127914655Y-147856462D01*
X128046347Y-147725000D01*
X130627012Y-147725000D01*
X130626838Y-147925167D01*
X130768883Y-148268943D01*
X131031673Y-148532192D01*
X131375201Y-148674838D01*
X131747167Y-148675162D01*
X132090943Y-148533117D01*
X132124118Y-148500000D01*
X141214000Y-148500000D01*
X141504839Y-148442148D01*
X141751401Y-148277401D01*
X145084802Y-144944000D01*
X148178400Y-144944000D01*
X148469239Y-144886148D01*
X148715801Y-144721401D01*
X149469536Y-143967666D01*
X149850000Y-144043345D01*
X150423489Y-143929271D01*
X150909670Y-143604415D01*
X151116461Y-143294931D01*
X151487964Y-143710732D01*
X152015209Y-143964709D01*
X152030974Y-143967358D01*
X152263000Y-143846217D01*
X152263000Y-142487000D01*
X152243000Y-142487000D01*
X152243000Y-142233000D01*
X152263000Y-142233000D01*
X152263000Y-140873783D01*
X152030974Y-140752642D01*
X152015209Y-140755291D01*
X151487964Y-141009268D01*
X151116461Y-141425069D01*
X150909670Y-141115585D01*
X150423489Y-140790729D01*
X149850000Y-140676655D01*
X149276511Y-140790729D01*
X148790330Y-141115585D01*
X148580000Y-141430366D01*
X148369670Y-141115585D01*
X147883489Y-140790729D01*
X147310000Y-140676655D01*
X146736511Y-140790729D01*
X146250330Y-141115585D01*
X146040000Y-141430366D01*
X145829670Y-141115585D01*
X145343489Y-140790729D01*
X144770000Y-140676655D01*
X144196511Y-140790729D01*
X143710330Y-141115585D01*
X143500000Y-141430366D01*
X143289670Y-141115585D01*
X142803489Y-140790729D01*
X142230000Y-140676655D01*
X141656511Y-140790729D01*
X141170330Y-141115585D01*
X140960000Y-141430366D01*
X140749670Y-141115585D01*
X140263489Y-140790729D01*
X139690000Y-140676655D01*
X139116511Y-140790729D01*
X138630330Y-141115585D01*
X138420000Y-141430366D01*
X138209670Y-141115585D01*
X137723489Y-140790729D01*
X137150000Y-140676655D01*
X136576511Y-140790729D01*
X136090330Y-141115585D01*
X135880000Y-141430366D01*
X135669670Y-141115585D01*
X135183489Y-140790729D01*
X134610000Y-140676655D01*
X134036511Y-140790729D01*
X133550330Y-141115585D01*
X133340000Y-141430366D01*
X133129670Y-141115585D01*
X132643489Y-140790729D01*
X132070000Y-140676655D01*
X131496511Y-140790729D01*
X131010330Y-141115585D01*
X130800000Y-141430366D01*
X130589670Y-141115585D01*
X130103489Y-140790729D01*
X129530000Y-140676655D01*
X128956511Y-140790729D01*
X128470330Y-141115585D01*
X128260000Y-141430366D01*
X128049670Y-141115585D01*
X127563489Y-140790729D01*
X126990000Y-140676655D01*
X126416511Y-140790729D01*
X125930330Y-141115585D01*
X125720000Y-141430366D01*
X125509670Y-141115585D01*
X125023489Y-140790729D01*
X124450000Y-140676655D01*
X123876511Y-140790729D01*
X123390330Y-141115585D01*
X123180000Y-141430366D01*
X122969670Y-141115585D01*
X122483489Y-140790729D01*
X121910000Y-140676655D01*
X121336511Y-140790729D01*
X120850330Y-141115585D01*
X120643539Y-141425069D01*
X120272036Y-141009268D01*
X119744791Y-140755291D01*
X119729026Y-140752642D01*
X119497000Y-140873783D01*
X119243000Y-140873783D01*
X119010974Y-140752642D01*
X118995209Y-140755291D01*
X118467964Y-141009268D01*
X118096461Y-141425069D01*
X117889670Y-141115585D01*
X117403489Y-140790729D01*
X116830000Y-140676655D01*
X116256511Y-140790729D01*
X115770330Y-141115585D01*
X115560000Y-141430366D01*
X115349670Y-141115585D01*
X114863489Y-140790729D01*
X114290000Y-140676655D01*
X113716511Y-140790729D01*
X113230330Y-141115585D01*
X113020000Y-141430366D01*
X112809670Y-141115585D01*
X112323489Y-140790729D01*
X111750000Y-140676655D01*
X111176511Y-140790729D01*
X110690330Y-141115585D01*
X110365474Y-141601766D01*
X110353679Y-141661065D01*
X110279346Y-141611397D01*
X109845000Y-141525000D01*
X108100000Y-141525000D01*
X107665654Y-141611397D01*
X107514253Y-141712560D01*
X107325000Y-141712560D01*
X107089683Y-141756838D01*
X106873559Y-141895910D01*
X106728569Y-142108110D01*
X106677560Y-142360000D01*
X104890000Y-142360000D01*
X104890000Y-127420000D01*
X104832148Y-127129161D01*
X104832148Y-127129160D01*
X104667401Y-126882599D01*
X103620000Y-125835198D01*
X103620000Y-113377463D01*
X103652192Y-113345327D01*
X103794838Y-113001799D01*
X103795162Y-112629833D01*
X103653117Y-112286057D01*
X103390327Y-112022808D01*
X103046799Y-111880162D01*
X102985000Y-111880108D01*
X102985000Y-110560750D01*
X119250000Y-110560750D01*
X119250000Y-111156310D01*
X119346673Y-111389699D01*
X119525302Y-111568327D01*
X119758691Y-111665000D01*
X120354250Y-111665000D01*
X120513000Y-111506250D01*
X120513000Y-110402000D01*
X120767000Y-110402000D01*
X120767000Y-111506250D01*
X120925750Y-111665000D01*
X121521309Y-111665000D01*
X121754698Y-111568327D01*
X121933327Y-111389699D01*
X122030000Y-111156310D01*
X122030000Y-110560750D01*
X122019525Y-110550275D01*
X124329759Y-110550275D01*
X124540928Y-111061343D01*
X124931600Y-111452698D01*
X125442299Y-111664758D01*
X125995275Y-111665241D01*
X126506343Y-111454072D01*
X126897698Y-111063400D01*
X127109758Y-110552701D01*
X127110241Y-109999725D01*
X126899072Y-109488657D01*
X126508400Y-109097302D01*
X125997701Y-108885242D01*
X125444725Y-108884759D01*
X124933657Y-109095928D01*
X124542302Y-109486600D01*
X124330242Y-109997299D01*
X124329759Y-110550275D01*
X122019525Y-110550275D01*
X121871250Y-110402000D01*
X120767000Y-110402000D01*
X120513000Y-110402000D01*
X119408750Y-110402000D01*
X119250000Y-110560750D01*
X102985000Y-110560750D01*
X102985000Y-107626400D01*
X110086560Y-107626400D01*
X110086560Y-109353600D01*
X110130838Y-109588917D01*
X110269910Y-109805041D01*
X110482110Y-109950031D01*
X110734000Y-110001040D01*
X112766000Y-110001040D01*
X113001317Y-109956762D01*
X113217441Y-109817690D01*
X113349100Y-109625000D01*
X116710000Y-109625000D01*
X117144346Y-109538603D01*
X117361223Y-109393690D01*
X119250000Y-109393690D01*
X119250000Y-109989250D01*
X119408750Y-110148000D01*
X120513000Y-110148000D01*
X120513000Y-109043750D01*
X120767000Y-109043750D01*
X120767000Y-110148000D01*
X121871250Y-110148000D01*
X122030000Y-109989250D01*
X122030000Y-109393690D01*
X121933327Y-109160301D01*
X121754698Y-108981673D01*
X121521309Y-108885000D01*
X120925750Y-108885000D01*
X120767000Y-109043750D01*
X120513000Y-109043750D01*
X120354250Y-108885000D01*
X119758691Y-108885000D01*
X119525302Y-108981673D01*
X119346673Y-109160301D01*
X119250000Y-109393690D01*
X117361223Y-109393690D01*
X117512566Y-109292566D01*
X118570132Y-108235000D01*
X131091868Y-108235000D01*
X132149434Y-109292566D01*
X132517654Y-109538603D01*
X132952000Y-109625000D01*
X133014057Y-109625000D01*
X133129910Y-109805041D01*
X133342110Y-109950031D01*
X133594000Y-110001040D01*
X135626000Y-110001040D01*
X135861317Y-109956762D01*
X136077441Y-109817690D01*
X136222431Y-109605490D01*
X136273440Y-109353600D01*
X136273440Y-107626400D01*
X136229162Y-107391083D01*
X136090090Y-107174959D01*
X135877890Y-107029969D01*
X135783073Y-107010768D01*
X135960732Y-106852036D01*
X136214709Y-106324791D01*
X136217358Y-106309026D01*
X136096217Y-106077000D01*
X134737000Y-106077000D01*
X134737000Y-106097000D01*
X134483000Y-106097000D01*
X134483000Y-106077000D01*
X133123783Y-106077000D01*
X133002642Y-106309026D01*
X133005291Y-106324791D01*
X133259268Y-106852036D01*
X133434845Y-107008907D01*
X133358683Y-107023238D01*
X133195424Y-107128292D01*
X132364566Y-106297434D01*
X131996346Y-106051397D01*
X131562000Y-105965000D01*
X118100000Y-105965000D01*
X117665654Y-106051397D01*
X117297434Y-106297434D01*
X116239868Y-107355000D01*
X113345943Y-107355000D01*
X113230090Y-107174959D01*
X113017890Y-107029969D01*
X112923073Y-107010768D01*
X113100732Y-106852036D01*
X113354709Y-106324791D01*
X113357358Y-106309026D01*
X113236217Y-106077000D01*
X111877000Y-106077000D01*
X111877000Y-106097000D01*
X111623000Y-106097000D01*
X111623000Y-106077000D01*
X110263783Y-106077000D01*
X110142642Y-106309026D01*
X110145291Y-106324791D01*
X110399268Y-106852036D01*
X110574845Y-107008907D01*
X110498683Y-107023238D01*
X110282559Y-107162310D01*
X110137569Y-107374510D01*
X110086560Y-107626400D01*
X102985000Y-107626400D01*
X102985000Y-90051413D01*
X102927148Y-89760574D01*
X102762401Y-89514012D01*
X102233389Y-88985000D01*
X102414250Y-88985000D01*
X102573000Y-88826250D01*
X102573000Y-88177000D01*
X102553000Y-88177000D01*
X102553000Y-87923000D01*
X102573000Y-87923000D01*
X102573000Y-87903000D01*
X102827000Y-87903000D01*
X102827000Y-87923000D01*
X102847000Y-87923000D01*
X102847000Y-88177000D01*
X102827000Y-88177000D01*
X102827000Y-88826250D01*
X102985750Y-88985000D01*
X103370000Y-88985000D01*
X103370000Y-95942400D01*
X103427852Y-96233239D01*
X103592599Y-96479801D01*
X110142334Y-103029536D01*
X110066655Y-103410000D01*
X110180729Y-103983489D01*
X110505585Y-104469670D01*
X110815069Y-104676461D01*
X110399268Y-105047964D01*
X110145291Y-105575209D01*
X110142642Y-105590974D01*
X110263783Y-105823000D01*
X111623000Y-105823000D01*
X111623000Y-105803000D01*
X111877000Y-105803000D01*
X111877000Y-105823000D01*
X113236217Y-105823000D01*
X113357358Y-105590974D01*
X113354709Y-105575209D01*
X113100732Y-105047964D01*
X112684931Y-104676461D01*
X112994415Y-104469670D01*
X113194648Y-104170000D01*
X133165352Y-104170000D01*
X133365585Y-104469670D01*
X133675069Y-104676461D01*
X133259268Y-105047964D01*
X133005291Y-105575209D01*
X133002642Y-105590974D01*
X133123783Y-105823000D01*
X134483000Y-105823000D01*
X134483000Y-105803000D01*
X134737000Y-105803000D01*
X134737000Y-105823000D01*
X136096217Y-105823000D01*
X136217358Y-105590974D01*
X136214709Y-105575209D01*
X135960732Y-105047964D01*
X135544931Y-104676461D01*
X135854415Y-104469670D01*
X136179271Y-103983489D01*
X136293345Y-103410000D01*
X136179271Y-102836511D01*
X135854415Y-102350330D01*
X135539634Y-102140000D01*
X135854415Y-101929670D01*
X136179271Y-101443489D01*
X136293345Y-100870000D01*
X136179271Y-100296511D01*
X135854415Y-99810330D01*
X135539634Y-99600000D01*
X135854415Y-99389670D01*
X136179271Y-98903489D01*
X136293345Y-98330000D01*
X136179271Y-97756511D01*
X135854415Y-97270330D01*
X135539634Y-97060000D01*
X135854415Y-96849670D01*
X136179271Y-96363489D01*
X136293345Y-95790000D01*
X136179271Y-95216511D01*
X135854415Y-94730330D01*
X135539634Y-94520000D01*
X135854415Y-94309670D01*
X136179271Y-93823489D01*
X136293345Y-93250000D01*
X136179271Y-92676511D01*
X135854415Y-92190330D01*
X135539634Y-91980000D01*
X135854415Y-91769670D01*
X136179271Y-91283489D01*
X136293345Y-90710000D01*
X136179271Y-90136511D01*
X135854415Y-89650330D01*
X135368234Y-89325474D01*
X134794745Y-89211400D01*
X134425255Y-89211400D01*
X133851766Y-89325474D01*
X133365585Y-89650330D01*
X133137968Y-89990983D01*
X133053161Y-90007852D01*
X132806599Y-90172599D01*
X131814847Y-91164351D01*
X130030451Y-91164351D01*
X133019802Y-88175000D01*
X140327400Y-88175000D01*
X140618239Y-88117148D01*
X140864801Y-87952401D01*
X141849536Y-86967666D01*
X142230000Y-87043345D01*
X142803489Y-86929271D01*
X143289670Y-86604415D01*
X143500000Y-86289634D01*
X143710330Y-86604415D01*
X144196511Y-86929271D01*
X144770000Y-87043345D01*
X145343489Y-86929271D01*
X145829670Y-86604415D01*
X146040000Y-86289634D01*
X146250330Y-86604415D01*
X146736511Y-86929271D01*
X147310000Y-87043345D01*
X147883489Y-86929271D01*
X148369670Y-86604415D01*
X148580000Y-86289634D01*
X148790330Y-86604415D01*
X149090000Y-86804648D01*
X149090000Y-109125198D01*
X147945198Y-110270000D01*
X128895000Y-110270000D01*
X128604160Y-110327852D01*
X128357599Y-110492599D01*
X126795198Y-112055000D01*
X124369957Y-112055000D01*
X124359072Y-112028657D01*
X123968400Y-111637302D01*
X123457701Y-111425242D01*
X122904725Y-111424759D01*
X122393657Y-111635928D01*
X122002302Y-112026600D01*
X121790242Y-112537299D01*
X121789759Y-113090275D01*
X122000928Y-113601343D01*
X122391600Y-113992698D01*
X122902299Y-114204758D01*
X123455275Y-114205241D01*
X123966343Y-113994072D01*
X124357698Y-113603400D01*
X124369491Y-113575000D01*
X127110000Y-113575000D01*
X127400839Y-113517148D01*
X127647401Y-113352401D01*
X129209802Y-111790000D01*
X148260000Y-111790000D01*
X148550839Y-111732148D01*
X148797401Y-111567401D01*
X150387401Y-109977401D01*
X150552148Y-109730839D01*
X150610000Y-109440000D01*
X150610000Y-86804648D01*
X150909670Y-86604415D01*
X151116461Y-86294931D01*
X151487964Y-86710732D01*
X152015209Y-86964709D01*
X152030974Y-86967358D01*
X152263000Y-86846217D01*
X152263000Y-85487000D01*
X152243000Y-85487000D01*
X152243000Y-85233000D01*
X152263000Y-85233000D01*
X152263000Y-83873783D01*
X152030974Y-83752642D01*
X152015209Y-83755291D01*
X151487964Y-84009268D01*
X151116461Y-84425069D01*
X150909670Y-84115585D01*
X150423489Y-83790729D01*
X149850000Y-83676655D01*
X149276511Y-83790729D01*
X148790330Y-84115585D01*
X148580000Y-84430366D01*
X148369670Y-84115585D01*
X147883489Y-83790729D01*
X147310000Y-83676655D01*
X146736511Y-83790729D01*
X146250330Y-84115585D01*
X146040000Y-84430366D01*
X145829670Y-84115585D01*
X145343489Y-83790729D01*
X144770000Y-83676655D01*
X144196511Y-83790729D01*
X143710330Y-84115585D01*
X143500000Y-84430366D01*
X143289670Y-84115585D01*
X142803489Y-83790729D01*
X142230000Y-83676655D01*
X141656511Y-83790729D01*
X141170330Y-84115585D01*
X140960000Y-84430366D01*
X140749670Y-84115585D01*
X140263489Y-83790729D01*
X139690000Y-83676655D01*
X139116511Y-83790729D01*
X138630330Y-84115585D01*
X138420000Y-84430366D01*
X138209670Y-84115585D01*
X137723489Y-83790729D01*
X137150000Y-83676655D01*
X136576511Y-83790729D01*
X136090330Y-84115585D01*
X135880000Y-84430366D01*
X135669670Y-84115585D01*
X135183489Y-83790729D01*
X134610000Y-83676655D01*
X134036511Y-83790729D01*
X133550330Y-84115585D01*
X133340000Y-84430366D01*
X133129670Y-84115585D01*
X132643489Y-83790729D01*
X132070000Y-83676655D01*
X131496511Y-83790729D01*
X131010330Y-84115585D01*
X130800000Y-84430366D01*
X130589670Y-84115585D01*
X130103489Y-83790729D01*
X129530000Y-83676655D01*
X128956511Y-83790729D01*
X128470330Y-84115585D01*
X128260000Y-84430366D01*
X128049670Y-84115585D01*
X127563489Y-83790729D01*
X126990000Y-83676655D01*
X126416511Y-83790729D01*
X125930330Y-84115585D01*
X125720000Y-84430366D01*
X125509670Y-84115585D01*
X125023489Y-83790729D01*
X124450000Y-83676655D01*
X123876511Y-83790729D01*
X123390330Y-84115585D01*
X123180000Y-84430366D01*
X122969670Y-84115585D01*
X122483489Y-83790729D01*
X121910000Y-83676655D01*
X121336511Y-83790729D01*
X120850330Y-84115585D01*
X120643539Y-84425069D01*
X120272036Y-84009268D01*
X119744791Y-83755291D01*
X119729026Y-83752642D01*
X119497000Y-83873783D01*
X119497000Y-85233000D01*
X119517000Y-85233000D01*
X119517000Y-85487000D01*
X119497000Y-85487000D01*
X119497000Y-86846217D01*
X119729026Y-86967358D01*
X119744791Y-86964709D01*
X120272036Y-86710732D01*
X120643539Y-86294931D01*
X120850330Y-86604415D01*
X121336511Y-86929271D01*
X121910000Y-87043345D01*
X122483489Y-86929271D01*
X122969670Y-86604415D01*
X123180000Y-86289634D01*
X123390330Y-86604415D01*
X123876511Y-86929271D01*
X124450000Y-87043345D01*
X125023489Y-86929271D01*
X125509670Y-86604415D01*
X125720000Y-86289634D01*
X125930330Y-86604415D01*
X126416511Y-86929271D01*
X126990000Y-87043345D01*
X127563489Y-86929271D01*
X128049670Y-86604415D01*
X128260000Y-86289634D01*
X128470330Y-86604415D01*
X128956511Y-86929271D01*
X129530000Y-87043345D01*
X130103489Y-86929271D01*
X130589670Y-86604415D01*
X130800000Y-86289634D01*
X131010330Y-86604415D01*
X131496511Y-86929271D01*
X132013159Y-87032039D01*
X129060707Y-89984491D01*
X128483879Y-89984491D01*
X128624206Y-89646547D01*
X128624774Y-88996306D01*
X128376462Y-88395345D01*
X127917073Y-87935154D01*
X127316547Y-87685794D01*
X126666306Y-87685226D01*
X126065345Y-87933538D01*
X125605154Y-88392927D01*
X125587684Y-88435000D01*
X119736579Y-88435000D01*
X117896209Y-86594629D01*
X118096461Y-86294931D01*
X118467964Y-86710732D01*
X118995209Y-86964709D01*
X119010974Y-86967358D01*
X119243000Y-86846217D01*
X119243000Y-85487000D01*
X119223000Y-85487000D01*
X119223000Y-85233000D01*
X119243000Y-85233000D01*
X119243000Y-83873783D01*
X119010974Y-83752642D01*
X118995209Y-83755291D01*
X118467964Y-84009268D01*
X118096461Y-84425069D01*
X117889670Y-84115585D01*
X117403489Y-83790729D01*
X116830000Y-83676655D01*
X116256511Y-83790729D01*
X115770330Y-84115585D01*
X115560000Y-84430366D01*
X115349670Y-84115585D01*
X114863489Y-83790729D01*
X114290000Y-83676655D01*
X113716511Y-83790729D01*
X113230330Y-84115585D01*
X113020000Y-84430366D01*
X112809670Y-84115585D01*
X112323489Y-83790729D01*
X111750000Y-83676655D01*
X111176511Y-83790729D01*
X110924172Y-83959336D01*
X110893603Y-83805654D01*
X110647566Y-83437434D01*
X110279346Y-83191397D01*
X109845000Y-83105000D01*
X108100000Y-83105000D01*
X107665654Y-83191397D01*
X107514253Y-83292560D01*
X107430000Y-83292560D01*
X107430000Y-55344802D01*
X107444680Y-55330122D01*
X107490167Y-55330162D01*
X107833943Y-55188117D01*
X108097192Y-54925327D01*
X108239838Y-54581799D01*
X108240162Y-54209833D01*
X108105944Y-53885000D01*
X114610198Y-53885000D01*
X115879421Y-55154223D01*
G36*
X156220000Y-26866807D02*
X156045490Y-26747569D01*
X155793600Y-26696560D01*
X154066400Y-26696560D01*
X153831083Y-26740838D01*
X153614959Y-26879910D01*
X153469969Y-27092110D01*
X153450768Y-27186927D01*
X153292036Y-27009268D01*
X152764791Y-26755291D01*
X152749026Y-26752642D01*
X152517000Y-26873783D01*
X152517000Y-28233000D01*
X152537000Y-28233000D01*
X152537000Y-28487000D01*
X152517000Y-28487000D01*
X152517000Y-29846217D01*
X152749026Y-29967358D01*
X152764791Y-29964709D01*
X153292036Y-29710732D01*
X153448907Y-29535155D01*
X153463238Y-29611317D01*
X153602310Y-29827441D01*
X153814510Y-29972431D01*
X154066400Y-30023440D01*
X155793600Y-30023440D01*
X156028917Y-29979162D01*
X156220000Y-29856203D01*
X156220000Y-59963000D01*
X135919649Y-59963000D01*
X136167670Y-59591810D01*
X136293345Y-58960000D01*
X136167670Y-58328190D01*
X135940501Y-57988208D01*
X136077441Y-57900090D01*
X136222431Y-57687890D01*
X136273440Y-57436000D01*
X136273440Y-55404000D01*
X136229162Y-55168683D01*
X136090090Y-54952559D01*
X135877890Y-54807569D01*
X135626000Y-54756560D01*
X133594000Y-54756560D01*
X133358683Y-54800838D01*
X133142559Y-54939910D01*
X132997569Y-55152110D01*
X132946560Y-55404000D01*
X132946560Y-57436000D01*
X132990838Y-57671317D01*
X133129910Y-57887441D01*
X133278837Y-57989198D01*
X133137984Y-58200000D01*
X129964802Y-58200000D01*
X127750000Y-55985198D01*
X127750000Y-44812995D01*
X128004698Y-44642811D01*
X128260000Y-44260725D01*
X128515302Y-44642811D01*
X128980849Y-44953880D01*
X129530000Y-45063113D01*
X130040000Y-44961668D01*
X130040000Y-45505000D01*
X130097852Y-45795839D01*
X130262599Y-46042401D01*
X131532599Y-47312401D01*
X131779160Y-47477148D01*
X132070000Y-47535000D01*
X140071000Y-47535000D01*
X140361839Y-47477148D01*
X140608401Y-47312401D01*
X144291401Y-43629401D01*
X144456148Y-43382839D01*
X144514000Y-43092000D01*
X144514000Y-34923202D01*
X149469536Y-29967666D01*
X149850000Y-30043345D01*
X150423489Y-29929271D01*
X150909670Y-29604415D01*
X151116461Y-29294931D01*
X151487964Y-29710732D01*
X152015209Y-29964709D01*
X152030974Y-29967358D01*
X152263000Y-29846217D01*
X152263000Y-28487000D01*
X152243000Y-28487000D01*
X152243000Y-28233000D01*
X152263000Y-28233000D01*
X152263000Y-26873783D01*
X152030974Y-26752642D01*
X152015209Y-26755291D01*
X151487964Y-27009268D01*
X151116461Y-27425069D01*
X150909670Y-27115585D01*
X150423489Y-26790729D01*
X149850000Y-26676655D01*
X149276511Y-26790729D01*
X148790330Y-27115585D01*
X148580000Y-27430366D01*
X148369670Y-27115585D01*
X147883489Y-26790729D01*
X147310000Y-26676655D01*
X146736511Y-26790729D01*
X146250330Y-27115585D01*
X146040000Y-27430366D01*
X145829670Y-27115585D01*
X145343489Y-26790729D01*
X144770000Y-26676655D01*
X144196511Y-26790729D01*
X143710330Y-27115585D01*
X143500000Y-27430366D01*
X143289670Y-27115585D01*
X142803489Y-26790729D01*
X142230000Y-26676655D01*
X141656511Y-26790729D01*
X141170330Y-27115585D01*
X140960000Y-27430366D01*
X140749670Y-27115585D01*
X140263489Y-26790729D01*
X139690000Y-26676655D01*
X139116511Y-26790729D01*
X138630330Y-27115585D01*
X138420000Y-27430366D01*
X138209670Y-27115585D01*
X137723489Y-26790729D01*
X137150000Y-26676655D01*
X136576511Y-26790729D01*
X136090330Y-27115585D01*
X135880000Y-27430366D01*
X135669670Y-27115585D01*
X135183489Y-26790729D01*
X134610000Y-26676655D01*
X134036511Y-26790729D01*
X133550330Y-27115585D01*
X133340000Y-27430366D01*
X133129670Y-27115585D01*
X132643489Y-26790729D01*
X132070000Y-26676655D01*
X131496511Y-26790729D01*
X131010330Y-27115585D01*
X130800000Y-27430366D01*
X130589670Y-27115585D01*
X130103489Y-26790729D01*
X129530000Y-26676655D01*
X128956511Y-26790729D01*
X128470330Y-27115585D01*
X128260000Y-27430366D01*
X128049670Y-27115585D01*
X127563489Y-26790729D01*
X126990000Y-26676655D01*
X126416511Y-26790729D01*
X125930330Y-27115585D01*
X125720000Y-27430366D01*
X125509670Y-27115585D01*
X125023489Y-26790729D01*
X124450000Y-26676655D01*
X123876511Y-26790729D01*
X123390330Y-27115585D01*
X123180000Y-27430366D01*
X122969670Y-27115585D01*
X122483489Y-26790729D01*
X121910000Y-26676655D01*
X121336511Y-26790729D01*
X120850330Y-27115585D01*
X120643539Y-27425069D01*
X120272036Y-27009268D01*
X119744791Y-26755291D01*
X119729026Y-26752642D01*
X119497000Y-26873783D01*
X119497000Y-28233000D01*
X119517000Y-28233000D01*
X119517000Y-28487000D01*
X119497000Y-28487000D01*
X119497000Y-29846217D01*
X119729026Y-29967358D01*
X119744791Y-29964709D01*
X120272036Y-29710732D01*
X120643539Y-29294931D01*
X120850330Y-29604415D01*
X121336511Y-29929271D01*
X121910000Y-30043345D01*
X122417579Y-29942381D01*
X123055000Y-30579802D01*
X123055000Y-31003461D01*
X122837073Y-30785154D01*
X122236547Y-30535794D01*
X121586306Y-30535226D01*
X120985345Y-30783538D01*
X120923015Y-30845760D01*
X120908327Y-30810301D01*
X120729698Y-30631673D01*
X120496309Y-30535000D01*
X119655750Y-30535000D01*
X119497000Y-30693750D01*
X119497000Y-32043000D01*
X119517000Y-32043000D01*
X119517000Y-32297000D01*
X119497000Y-32297000D01*
X119497000Y-33646250D01*
X119655750Y-33805000D01*
X120496309Y-33805000D01*
X120729698Y-33708327D01*
X120908327Y-33529699D01*
X120922842Y-33494656D01*
X120982927Y-33554846D01*
X121583453Y-33804206D01*
X122233694Y-33804774D01*
X122834655Y-33556462D01*
X123055000Y-33336501D01*
X123055000Y-33880198D01*
X122333977Y-34601221D01*
X121910000Y-34516887D01*
X121360849Y-34626120D01*
X120895302Y-34937189D01*
X120625014Y-35341703D01*
X120522389Y-35124866D01*
X120107423Y-34748959D01*
X119719039Y-34588096D01*
X119497000Y-34710085D01*
X119497000Y-35853000D01*
X119517000Y-35853000D01*
X119517000Y-36107000D01*
X119497000Y-36107000D01*
X119497000Y-37249915D01*
X119719039Y-37371904D01*
X120107423Y-37211041D01*
X120522389Y-36835134D01*
X120625014Y-36618297D01*
X120895302Y-37022811D01*
X121360849Y-37333880D01*
X121910000Y-37443113D01*
X122459151Y-37333880D01*
X122924698Y-37022811D01*
X123180000Y-36640725D01*
X123435302Y-37022811D01*
X123900849Y-37333880D01*
X124450000Y-37443113D01*
X124999151Y-37333880D01*
X125464698Y-37022811D01*
X125720000Y-36640725D01*
X125975302Y-37022811D01*
X126440849Y-37333880D01*
X126990000Y-37443113D01*
X127539151Y-37333880D01*
X128004698Y-37022811D01*
X128260000Y-36640725D01*
X128515302Y-37022811D01*
X128980849Y-37333880D01*
X129530000Y-37443113D01*
X130079151Y-37333880D01*
X130544698Y-37022811D01*
X130800000Y-36640725D01*
X131055302Y-37022811D01*
X131520849Y-37333880D01*
X132070000Y-37443113D01*
X132619151Y-37333880D01*
X133084698Y-37022811D01*
X133340000Y-36640725D01*
X133595302Y-37022811D01*
X134060849Y-37333880D01*
X134610000Y-37443113D01*
X135159151Y-37333880D01*
X135624698Y-37022811D01*
X135880000Y-36640725D01*
X136135302Y-37022811D01*
X136600849Y-37333880D01*
X137150000Y-37443113D01*
X137699151Y-37333880D01*
X138164698Y-37022811D01*
X138420000Y-36640725D01*
X138675302Y-37022811D01*
X139140849Y-37333880D01*
X139690000Y-37443113D01*
X139692603Y-37442595D01*
X134933886Y-42201312D01*
X134610000Y-42136887D01*
X134060849Y-42246120D01*
X133595302Y-42557189D01*
X133340000Y-42939275D01*
X133084698Y-42557189D01*
X132811275Y-42374493D01*
X132802822Y-42332000D01*
X132772148Y-42177790D01*
X132607401Y-41931229D01*
X130563771Y-39887599D01*
X130317209Y-39722852D01*
X130026370Y-39665000D01*
X117392463Y-39665000D01*
X117360327Y-39632808D01*
X117016799Y-39490162D01*
X116644833Y-39489838D01*
X116301057Y-39631883D01*
X116037808Y-39894673D01*
X115895162Y-40238201D01*
X115894838Y-40610167D01*
X116036883Y-40953943D01*
X116299673Y-41217192D01*
X116643201Y-41359838D01*
X117015167Y-41360162D01*
X117358943Y-41218117D01*
X117392118Y-41185000D01*
X123250198Y-41185000D01*
X122642599Y-41792599D01*
X122477852Y-42039161D01*
X122437540Y-42241821D01*
X121910000Y-42136887D01*
X121360849Y-42246120D01*
X120895302Y-42557189D01*
X120640000Y-42939275D01*
X120384698Y-42557189D01*
X119919151Y-42246120D01*
X119370000Y-42136887D01*
X118820849Y-42246120D01*
X118355302Y-42557189D01*
X118100000Y-42939275D01*
X117844698Y-42557189D01*
X117379151Y-42246120D01*
X116830000Y-42136887D01*
X116280849Y-42246120D01*
X115815302Y-42557189D01*
X115545014Y-42961703D01*
X115442389Y-42744866D01*
X115027423Y-42368959D01*
X114639039Y-42208096D01*
X114417000Y-42330085D01*
X114417000Y-43473000D01*
X114437000Y-43473000D01*
X114437000Y-43727000D01*
X114417000Y-43727000D01*
X114417000Y-44869915D01*
X114639039Y-44991904D01*
X115027423Y-44831041D01*
X115442389Y-44455134D01*
X115545014Y-44238297D01*
X115815302Y-44642811D01*
X115852877Y-44667918D01*
X115747593Y-44687728D01*
X115531469Y-44826800D01*
X115386479Y-45039000D01*
X115335470Y-45290890D01*
X115335470Y-46990150D01*
X115379748Y-47225467D01*
X115518820Y-47441591D01*
X115731020Y-47586581D01*
X115982910Y-47637590D01*
X117682170Y-47637590D01*
X117917487Y-47593312D01*
X118133611Y-47454240D01*
X118278601Y-47242040D01*
X118329610Y-46990150D01*
X118329610Y-45290890D01*
X118285332Y-45055573D01*
X118146260Y-44839449D01*
X117934060Y-44694459D01*
X117806163Y-44668559D01*
X117844698Y-44642811D01*
X118100000Y-44260725D01*
X118355302Y-44642811D01*
X118820849Y-44953880D01*
X119370000Y-45063113D01*
X119919151Y-44953880D01*
X120384698Y-44642811D01*
X120640000Y-44260725D01*
X120895302Y-44642811D01*
X121360849Y-44953880D01*
X121910000Y-45063113D01*
X122420000Y-44961668D01*
X122420000Y-47095198D01*
X120500320Y-49014878D01*
X120454833Y-49014838D01*
X120111057Y-49156883D01*
X119847808Y-49419673D01*
X119705162Y-49763201D01*
X119704838Y-50135167D01*
X119846883Y-50478943D01*
X120109673Y-50742192D01*
X120453201Y-50884838D01*
X120825167Y-50885162D01*
X121168943Y-50743117D01*
X121432192Y-50480327D01*
X121574838Y-50136799D01*
X121574879Y-50089923D01*
X123717401Y-47947401D01*
X123882148Y-47700840D01*
X123902843Y-47596799D01*
X123940000Y-47410000D01*
X123940000Y-44961668D01*
X124450000Y-45063113D01*
X124960000Y-44961668D01*
X124960000Y-54715198D01*
X122230198Y-57445000D01*
X117787480Y-57445000D01*
X118090414Y-57142594D01*
X118316912Y-56597127D01*
X118317428Y-56006504D01*
X118091882Y-55460643D01*
X117674614Y-55042646D01*
X117585124Y-55005486D01*
X117532148Y-54739161D01*
X117367401Y-54492599D01*
X115462401Y-52587599D01*
X115215839Y-52422852D01*
X114925000Y-52365000D01*
X106670000Y-52365000D01*
X106379160Y-52422852D01*
X106132599Y-52587599D01*
X105525000Y-53195198D01*
X105525000Y-44447801D01*
X105655302Y-44642811D01*
X106120849Y-44953880D01*
X106670000Y-45063113D01*
X107219151Y-44953880D01*
X107684698Y-44642811D01*
X107940000Y-44260725D01*
X108195302Y-44642811D01*
X108660849Y-44953880D01*
X109210000Y-45063113D01*
X109759151Y-44953880D01*
X110224698Y-44642811D01*
X110480000Y-44260725D01*
X110735302Y-44642811D01*
X111200849Y-44953880D01*
X111750000Y-45063113D01*
X112299151Y-44953880D01*
X112764698Y-44642811D01*
X113034986Y-44238297D01*
X113137611Y-44455134D01*
X113552577Y-44831041D01*
X113940961Y-44991904D01*
X114163000Y-44869915D01*
X114163000Y-43727000D01*
X114143000Y-43727000D01*
X114143000Y-43473000D01*
X114163000Y-43473000D01*
X114163000Y-42330085D01*
X113940961Y-42208096D01*
X113552577Y-42368959D01*
X113137611Y-42744866D01*
X113034986Y-42961703D01*
X112764698Y-42557189D01*
X112299151Y-42246120D01*
X111750000Y-42136887D01*
X111200849Y-42246120D01*
X110735302Y-42557189D01*
X110480000Y-42939275D01*
X110224698Y-42557189D01*
X109759151Y-42246120D01*
X109210000Y-42136887D01*
X108660849Y-42246120D01*
X108195302Y-42557189D01*
X107940000Y-42939275D01*
X107684698Y-42557189D01*
X107219151Y-42246120D01*
X106670000Y-42136887D01*
X106667397Y-42137405D01*
X111426114Y-37378688D01*
X111750000Y-37443113D01*
X112299151Y-37333880D01*
X112764698Y-37022811D01*
X113020000Y-36640725D01*
X113275302Y-37022811D01*
X113740849Y-37333880D01*
X114290000Y-37443113D01*
X114839151Y-37333880D01*
X115304698Y-37022811D01*
X115560000Y-36640725D01*
X115815302Y-37022811D01*
X116280849Y-37333880D01*
X116830000Y-37443113D01*
X117379151Y-37333880D01*
X117844698Y-37022811D01*
X118114986Y-36618297D01*
X118217611Y-36835134D01*
X118632577Y-37211041D01*
X119020961Y-37371904D01*
X119243000Y-37249915D01*
X119243000Y-36107000D01*
X119223000Y-36107000D01*
X119223000Y-35853000D01*
X119243000Y-35853000D01*
X119243000Y-34710085D01*
X119020961Y-34588096D01*
X118632577Y-34748959D01*
X118217611Y-35124866D01*
X118114986Y-35341703D01*
X117844698Y-34937189D01*
X117379151Y-34626120D01*
X116830000Y-34516887D01*
X116280849Y-34626120D01*
X115815302Y-34937189D01*
X115560000Y-35319275D01*
X115304698Y-34937189D01*
X114839151Y-34626120D01*
X114290000Y-34516887D01*
X113740849Y-34626120D01*
X113275302Y-34937189D01*
X113020000Y-35319275D01*
X112764698Y-34937189D01*
X112299151Y-34626120D01*
X111750000Y-34516887D01*
X111200849Y-34626120D01*
X110735302Y-34937189D01*
X110480000Y-35319275D01*
X110224698Y-34937189D01*
X109759151Y-34626120D01*
X109210000Y-34516887D01*
X108660849Y-34626120D01*
X108195302Y-34937189D01*
X107940000Y-35319275D01*
X107684698Y-34937189D01*
X107219151Y-34626120D01*
X106670000Y-34516887D01*
X106120849Y-34626120D01*
X105655302Y-34937189D01*
X105344233Y-35402736D01*
X105235000Y-35951887D01*
X105235000Y-36008113D01*
X105344233Y-36557264D01*
X105655302Y-37022811D01*
X106120849Y-37333880D01*
X106670000Y-37443113D01*
X106672603Y-37442595D01*
X103632610Y-40482588D01*
X103467863Y-40729150D01*
X103410011Y-41019989D01*
X103410011Y-81109244D01*
X103467863Y-81400083D01*
X103632610Y-81646645D01*
X104045011Y-82059046D01*
X104045011Y-83653165D01*
X103939090Y-83488559D01*
X103726890Y-83343569D01*
X103620000Y-83321923D01*
X103620000Y-82897463D01*
X103652192Y-82865327D01*
X103794838Y-82521799D01*
X103795162Y-82149833D01*
X103653117Y-81806057D01*
X103390327Y-81542808D01*
X103046799Y-81400162D01*
X102674833Y-81399838D01*
X102331057Y-81541883D01*
X102067808Y-81804673D01*
X101925162Y-82148201D01*
X101924838Y-82520167D01*
X102066883Y-82863943D01*
X102100000Y-82897118D01*
X102100000Y-83292560D01*
X101925000Y-83292560D01*
X101689683Y-83336838D01*
X101473559Y-83475910D01*
X101328569Y-83688110D01*
X101277560Y-83940000D01*
X101277560Y-84540000D01*
X101321838Y-84775317D01*
X101385678Y-84874528D01*
X101328569Y-84958110D01*
X101277560Y-85210000D01*
X101277560Y-85382638D01*
X100570000Y-86090198D01*
X100570000Y-80995000D01*
X101304250Y-80995000D01*
X101463000Y-80836250D01*
X101463000Y-79487000D01*
X101717000Y-79487000D01*
X101717000Y-80836250D01*
X101875750Y-80995000D01*
X102716310Y-80995000D01*
X102949699Y-80898327D01*
X103128327Y-80719698D01*
X103225000Y-80486309D01*
X103225000Y-79645750D01*
X103066250Y-79487000D01*
X101717000Y-79487000D01*
X101463000Y-79487000D01*
X101443000Y-79487000D01*
X101443000Y-79233000D01*
X101463000Y-79233000D01*
X101463000Y-77883750D01*
X101717000Y-77883750D01*
X101717000Y-79233000D01*
X103066250Y-79233000D01*
X103225000Y-79074250D01*
X103225000Y-78233691D01*
X103128327Y-78000302D01*
X102949699Y-77821673D01*
X102716310Y-77725000D01*
X101875750Y-77725000D01*
X101717000Y-77883750D01*
X101463000Y-77883750D01*
X101304250Y-77725000D01*
X100570000Y-77725000D01*
X100570000Y-75652479D01*
X100662637Y-75745278D01*
X101263352Y-75994716D01*
X101913795Y-75995284D01*
X102514943Y-75746894D01*
X102975278Y-75287363D01*
X103224716Y-74686648D01*
X103225284Y-74036205D01*
X102976894Y-73435057D01*
X102517363Y-72974722D01*
X101916648Y-72725284D01*
X101266205Y-72724716D01*
X100665057Y-72973106D01*
X100570000Y-73067997D01*
X100570000Y-71662505D01*
X100570001Y-71662500D01*
X100530444Y-71463636D01*
X102215787Y-69778292D01*
X102215790Y-69778290D01*
X102407633Y-69491175D01*
X102446169Y-69297440D01*
X102590000Y-69297440D01*
X102825317Y-69253162D01*
X103041441Y-69114090D01*
X103186431Y-68901890D01*
X103237440Y-68650000D01*
X103237440Y-66650000D01*
X103193162Y-66414683D01*
X103054090Y-66198559D01*
X102841890Y-66053569D01*
X102590000Y-66002560D01*
X100590000Y-66002560D01*
X100354683Y-66046838D01*
X100138559Y-66185910D01*
X99993569Y-66398110D01*
X99942560Y-66650000D01*
X99942560Y-68650000D01*
X99986838Y-68885317D01*
X100125910Y-69101441D01*
X100282492Y-69208429D01*
X99015920Y-70475000D01*
X98836779Y-70475000D01*
X98529974Y-70270000D01*
X98859147Y-70050054D01*
X99181054Y-69568285D01*
X99294093Y-69000000D01*
X99181054Y-68431715D01*
X98859147Y-67949946D01*
X98529974Y-67730000D01*
X98859147Y-67510054D01*
X99181054Y-67028285D01*
X99294093Y-66460000D01*
X99181054Y-65891715D01*
X98859147Y-65409946D01*
X98421334Y-65117409D01*
X100133137Y-63405606D01*
X100203106Y-63574943D01*
X100662637Y-64035278D01*
X101263352Y-64284716D01*
X101913795Y-64285284D01*
X102514943Y-64036894D01*
X102975278Y-63577363D01*
X103224716Y-62976648D01*
X103225284Y-62326205D01*
X102976894Y-61725057D01*
X102517363Y-61264722D01*
X101916648Y-61015284D01*
X101266205Y-61014716D01*
X100879958Y-61174310D01*
X100879958Y-55614827D01*
X100912150Y-55582691D01*
X101054796Y-55239163D01*
X101055120Y-54867197D01*
X100913075Y-54523421D01*
X100650285Y-54260172D01*
X100610110Y-54243490D01*
X100610146Y-54202353D01*
X100468101Y-53858577D01*
X100205311Y-53595328D01*
X99920347Y-53477000D01*
X99843117Y-53290088D01*
X99580327Y-53026839D01*
X99236799Y-52884193D01*
X99200725Y-52884162D01*
X99180861Y-52836086D01*
X98918071Y-52572837D01*
X98715002Y-52488515D01*
X98715162Y-52304833D01*
X98573117Y-51961057D01*
X98310327Y-51697808D01*
X98049619Y-51589552D01*
X97944068Y-51334098D01*
X97681278Y-51070849D01*
X97610169Y-51041322D01*
X97610175Y-51034833D01*
X97468130Y-50691057D01*
X97205340Y-50427808D01*
X96861812Y-50285162D01*
X96762745Y-50285076D01*
X96668117Y-50056057D01*
X96405327Y-49792808D01*
X96141446Y-49683235D01*
X96033117Y-49421057D01*
X95770327Y-49157808D01*
X95506446Y-49048235D01*
X95398117Y-48786057D01*
X95135327Y-48522808D01*
X94871446Y-48413235D01*
X94763117Y-48151057D01*
X94500327Y-47887808D01*
X94236446Y-47778235D01*
X94128117Y-47516057D01*
X93865327Y-47252808D01*
X93601446Y-47143235D01*
X93493117Y-46881057D01*
X93230327Y-46617808D01*
X92886799Y-46475162D01*
X92514833Y-46474838D01*
X92171057Y-46616883D01*
X91907808Y-46879673D01*
X91765162Y-47223201D01*
X91765121Y-47270077D01*
X90920000Y-48115198D01*
X90920000Y-43885750D01*
X95011400Y-43885750D01*
X95011400Y-44742309D01*
X95108073Y-44975698D01*
X95286701Y-45154327D01*
X95520090Y-45251000D01*
X96224250Y-45251000D01*
X96383000Y-45092250D01*
X96383000Y-43727000D01*
X95170150Y-43727000D01*
X95011400Y-43885750D01*
X90920000Y-43885750D01*
X90920000Y-42457691D01*
X95011400Y-42457691D01*
X95011400Y-43314250D01*
X95170150Y-43473000D01*
X96383000Y-43473000D01*
X96383000Y-42107750D01*
X96224250Y-41949000D01*
X95520090Y-41949000D01*
X95286701Y-42045673D01*
X95108073Y-42224302D01*
X95011400Y-42457691D01*
X90920000Y-42457691D01*
X90920000Y-40075750D01*
X95011400Y-40075750D01*
X95011400Y-40932309D01*
X95108073Y-41165698D01*
X95286701Y-41344327D01*
X95520090Y-41441000D01*
X96224250Y-41441000D01*
X96383000Y-41282250D01*
X96383000Y-39917000D01*
X95170150Y-39917000D01*
X95011400Y-40075750D01*
X90920000Y-40075750D01*
X90920000Y-38647691D01*
X95011400Y-38647691D01*
X95011400Y-39504250D01*
X95170150Y-39663000D01*
X96383000Y-39663000D01*
X96383000Y-38297750D01*
X96224250Y-38139000D01*
X95520090Y-38139000D01*
X95286701Y-38235673D01*
X95108073Y-38414302D01*
X95011400Y-38647691D01*
X90920000Y-38647691D01*
X90920000Y-36265750D01*
X95011400Y-36265750D01*
X95011400Y-37122309D01*
X95108073Y-37355698D01*
X95286701Y-37534327D01*
X95520090Y-37631000D01*
X96224250Y-37631000D01*
X96383000Y-37472250D01*
X96383000Y-36107000D01*
X95170150Y-36107000D01*
X95011400Y-36265750D01*
X90920000Y-36265750D01*
X90920000Y-34837691D01*
X95011400Y-34837691D01*
X95011400Y-35694250D01*
X95170150Y-35853000D01*
X96383000Y-35853000D01*
X96383000Y-34487750D01*
X96637000Y-34487750D01*
X96637000Y-35853000D01*
X96657000Y-35853000D01*
X96657000Y-36107000D01*
X96637000Y-36107000D01*
X96637000Y-37472250D01*
X96795750Y-37631000D01*
X97499910Y-37631000D01*
X97733299Y-37534327D01*
X97911927Y-37355698D01*
X97975500Y-37202220D01*
X97990330Y-37224415D01*
X98476511Y-37549271D01*
X99050000Y-37663345D01*
X99623489Y-37549271D01*
X100109670Y-37224415D01*
X100320000Y-36909634D01*
X100455000Y-37111676D01*
X100455000Y-38658324D01*
X100320000Y-38860366D01*
X100109670Y-38545585D01*
X99623489Y-38220729D01*
X99050000Y-38106655D01*
X98476511Y-38220729D01*
X97990330Y-38545585D01*
X97975500Y-38567780D01*
X97911927Y-38414302D01*
X97733299Y-38235673D01*
X97499910Y-38139000D01*
X96795750Y-38139000D01*
X96637000Y-38297750D01*
X96637000Y-39663000D01*
X96657000Y-39663000D01*
X96657000Y-39917000D01*
X96637000Y-39917000D01*
X96637000Y-41282250D01*
X96795750Y-41441000D01*
X97499910Y-41441000D01*
X97733299Y-41344327D01*
X97911927Y-41165698D01*
X97975500Y-41012220D01*
X97990330Y-41034415D01*
X98476511Y-41359271D01*
X99050000Y-41473345D01*
X99623489Y-41359271D01*
X100109670Y-41034415D01*
X100320000Y-40719634D01*
X100455000Y-40921676D01*
X100455000Y-42468324D01*
X100320000Y-42670366D01*
X100109670Y-42355585D01*
X99623489Y-42030729D01*
X99050000Y-41916655D01*
X98476511Y-42030729D01*
X97990330Y-42355585D01*
X97975500Y-42377780D01*
X97911927Y-42224302D01*
X97733299Y-42045673D01*
X97499910Y-41949000D01*
X96795750Y-41949000D01*
X96637000Y-42107750D01*
X96637000Y-43473000D01*
X96657000Y-43473000D01*
X96657000Y-43727000D01*
X96637000Y-43727000D01*
X96637000Y-45092250D01*
X96795750Y-45251000D01*
X97499910Y-45251000D01*
X97733299Y-45154327D01*
X97911927Y-44975698D01*
X97975500Y-44822220D01*
X97990330Y-44844415D01*
X98476511Y-45169271D01*
X99050000Y-45283345D01*
X99623489Y-45169271D01*
X100109670Y-44844415D01*
X100320000Y-44529634D01*
X100530330Y-44844415D01*
X101016511Y-45169271D01*
X101590000Y-45283345D01*
X102163489Y-45169271D01*
X102649670Y-44844415D01*
X102974526Y-44358234D01*
X103088600Y-43784745D01*
X103088600Y-43415255D01*
X102974526Y-42841766D01*
X102725000Y-42468324D01*
X102725000Y-40921676D01*
X102974526Y-40548234D01*
X103088600Y-39974745D01*
X103088600Y-39605255D01*
X102974526Y-39031766D01*
X102725000Y-38658324D01*
X102725000Y-37111676D01*
X102974526Y-36738234D01*
X103088600Y-36164745D01*
X103088600Y-35795255D01*
X102974526Y-35221766D01*
X102649670Y-34735585D01*
X102163489Y-34410729D01*
X101590000Y-34296655D01*
X101016511Y-34410729D01*
X100530330Y-34735585D01*
X100320000Y-35050366D01*
X100109670Y-34735585D01*
X99623489Y-34410729D01*
X99050000Y-34296655D01*
X98476511Y-34410729D01*
X97990330Y-34735585D01*
X97975500Y-34757780D01*
X97911927Y-34604302D01*
X97733299Y-34425673D01*
X97499910Y-34329000D01*
X96795750Y-34329000D01*
X96637000Y-34487750D01*
X96383000Y-34487750D01*
X96224250Y-34329000D01*
X95520090Y-34329000D01*
X95286701Y-34425673D01*
X95108073Y-34604302D01*
X95011400Y-34837691D01*
X90920000Y-34837691D01*
X90920000Y-33119802D01*
X91356007Y-32683795D01*
X93294716Y-32683795D01*
X93543106Y-33284943D01*
X94002637Y-33745278D01*
X94603352Y-33994716D01*
X95253795Y-33995284D01*
X95854943Y-33746894D01*
X96315278Y-33287363D01*
X96564716Y-32686648D01*
X96564751Y-32645750D01*
X98295000Y-32645750D01*
X98295000Y-33486310D01*
X98391673Y-33719699D01*
X98570302Y-33898327D01*
X98803691Y-33995000D01*
X99644250Y-33995000D01*
X99803000Y-33836250D01*
X99803000Y-32487000D01*
X98453750Y-32487000D01*
X98295000Y-32645750D01*
X96564751Y-32645750D01*
X96565284Y-32036205D01*
X96316894Y-31435057D01*
X96115879Y-31233690D01*
X98295000Y-31233690D01*
X98295000Y-32074250D01*
X98453750Y-32233000D01*
X99803000Y-32233000D01*
X99803000Y-30883750D01*
X99644250Y-30725000D01*
X98803691Y-30725000D01*
X98570302Y-30821673D01*
X98391673Y-31000301D01*
X98295000Y-31233690D01*
X96115879Y-31233690D01*
X95857363Y-30974722D01*
X95256648Y-30725284D01*
X94606205Y-30724716D01*
X94005057Y-30973106D01*
X93544722Y-31432637D01*
X93295284Y-32033352D01*
X93294716Y-32683795D01*
X91356007Y-32683795D01*
X93649802Y-30390000D01*
X101320086Y-30390000D01*
X101277560Y-30600000D01*
X101277560Y-30816645D01*
X101056309Y-30725000D01*
X100215750Y-30725000D01*
X100057000Y-30883750D01*
X100057000Y-32233000D01*
X100077000Y-32233000D01*
X100077000Y-32487000D01*
X100057000Y-32487000D01*
X100057000Y-33836250D01*
X100215750Y-33995000D01*
X101056309Y-33995000D01*
X101289698Y-33898327D01*
X101468327Y-33719699D01*
X101565000Y-33486310D01*
X101565000Y-33008025D01*
X101565302Y-33008327D01*
X101798691Y-33105000D01*
X102414250Y-33105000D01*
X102573000Y-32946250D01*
X102573000Y-32297000D01*
X102827000Y-32297000D01*
X102827000Y-32946250D01*
X102985750Y-33105000D01*
X103601309Y-33105000D01*
X103834698Y-33008327D01*
X104013327Y-32829699D01*
X104110000Y-32596310D01*
X104110000Y-32455750D01*
X103951250Y-32297000D01*
X102827000Y-32297000D01*
X102573000Y-32297000D01*
X102553000Y-32297000D01*
X102553000Y-32043000D01*
X102573000Y-32043000D01*
X102573000Y-32023000D01*
X102827000Y-32023000D01*
X102827000Y-32043000D01*
X103951250Y-32043000D01*
X104110000Y-31884250D01*
X104110000Y-31743690D01*
X104020194Y-31526878D01*
X104071431Y-31451890D01*
X104122440Y-31200000D01*
X104122440Y-30600000D01*
X104078162Y-30364683D01*
X104014322Y-30265472D01*
X104071431Y-30181890D01*
X104122440Y-29930000D01*
X104122440Y-29330000D01*
X104078162Y-29094683D01*
X104014322Y-28995472D01*
X104071431Y-28911890D01*
X104122440Y-28660000D01*
X104122440Y-28060000D01*
X106677560Y-28060000D01*
X106677560Y-28660000D01*
X106721838Y-28895317D01*
X106785678Y-28994528D01*
X106728569Y-29078110D01*
X106677560Y-29330000D01*
X106677560Y-29930000D01*
X106721838Y-30165317D01*
X106785678Y-30264528D01*
X106728569Y-30348110D01*
X106677560Y-30600000D01*
X106677560Y-31200000D01*
X106721838Y-31435317D01*
X106785678Y-31534528D01*
X106728569Y-31618110D01*
X106677560Y-31870000D01*
X106677560Y-32470000D01*
X106721838Y-32705317D01*
X106860910Y-32921441D01*
X107073110Y-33066431D01*
X107325000Y-33117440D01*
X108875000Y-33117440D01*
X109110317Y-33073162D01*
X109144598Y-33051103D01*
X109407484Y-32998810D01*
X109463675Y-32987633D01*
X109750790Y-32795790D01*
X110761579Y-31785000D01*
X112759514Y-31785000D01*
X112735284Y-31843352D01*
X112734716Y-32493795D01*
X112983106Y-33094943D01*
X113442637Y-33555278D01*
X114043352Y-33804716D01*
X114693795Y-33805284D01*
X115294943Y-33556894D01*
X115755278Y-33097363D01*
X116004716Y-32496648D01*
X116004751Y-32455750D01*
X117735000Y-32455750D01*
X117735000Y-33296310D01*
X117831673Y-33529699D01*
X118010302Y-33708327D01*
X118243691Y-33805000D01*
X119084250Y-33805000D01*
X119243000Y-33646250D01*
X119243000Y-32297000D01*
X117893750Y-32297000D01*
X117735000Y-32455750D01*
X116004751Y-32455750D01*
X116005284Y-31846205D01*
X115756894Y-31245057D01*
X115662003Y-31150000D01*
X116190995Y-31150000D01*
X116191000Y-31150001D01*
X116473484Y-31093810D01*
X116529675Y-31082633D01*
X116587957Y-31043690D01*
X117735000Y-31043690D01*
X117735000Y-31884250D01*
X117893750Y-32043000D01*
X119243000Y-32043000D01*
X119243000Y-30693750D01*
X119084250Y-30535000D01*
X118243691Y-30535000D01*
X118010302Y-30631673D01*
X117831673Y-30810301D01*
X117735000Y-31043690D01*
X116587957Y-31043690D01*
X116816790Y-30890790D01*
X116816791Y-30890789D01*
X117455787Y-30251792D01*
X117455790Y-30251790D01*
X117647633Y-29964675D01*
X117693178Y-29735707D01*
X117889670Y-29604415D01*
X118096461Y-29294931D01*
X118467964Y-29710732D01*
X118995209Y-29964709D01*
X119010974Y-29967358D01*
X119243000Y-29846217D01*
X119243000Y-28487000D01*
X119223000Y-28487000D01*
X119223000Y-28233000D01*
X119243000Y-28233000D01*
X119243000Y-26873783D01*
X119010974Y-26752642D01*
X118995209Y-26755291D01*
X118467964Y-27009268D01*
X118096461Y-27425069D01*
X117889670Y-27115585D01*
X117403489Y-26790729D01*
X116830000Y-26676655D01*
X116256511Y-26790729D01*
X115770330Y-27115585D01*
X115560000Y-27430366D01*
X115349670Y-27115585D01*
X114863489Y-26790729D01*
X114290000Y-26676655D01*
X113716511Y-26790729D01*
X113230330Y-27115585D01*
X113020000Y-27430366D01*
X112809670Y-27115585D01*
X112323489Y-26790729D01*
X111750000Y-26676655D01*
X111176511Y-26790729D01*
X110690330Y-27115585D01*
X110473023Y-27440808D01*
X110279346Y-27311397D01*
X109845000Y-27225000D01*
X108100000Y-27225000D01*
X107665654Y-27311397D01*
X107514253Y-27412560D01*
X107325000Y-27412560D01*
X107089683Y-27456838D01*
X106873559Y-27595910D01*
X106728569Y-27808110D01*
X106677560Y-28060000D01*
X104122440Y-28060000D01*
X104078162Y-27824683D01*
X103939090Y-27608559D01*
X103726890Y-27463569D01*
X103475000Y-27412560D01*
X101925000Y-27412560D01*
X101689683Y-27456838D01*
X101473559Y-27595910D01*
X101470764Y-27600000D01*
X93335000Y-27600000D01*
X93044161Y-27657852D01*
X92797599Y-27822599D01*
X89640000Y-30980198D01*
X89640000Y-26070000D01*
X156220000Y-26070000D01*
X156220000Y-26866807D01*
X156220000Y-26866807D01*
G37*
X156220000Y-26866807D02*
X156045490Y-26747569D01*
X155793600Y-26696560D01*
X154066400Y-26696560D01*
X153831083Y-26740838D01*
X153614959Y-26879910D01*
X153469969Y-27092110D01*
X153450768Y-27186927D01*
X153292036Y-27009268D01*
X152764791Y-26755291D01*
X152749026Y-26752642D01*
X152517000Y-26873783D01*
X152517000Y-28233000D01*
X152537000Y-28233000D01*
X152537000Y-28487000D01*
X152517000Y-28487000D01*
X152517000Y-29846217D01*
X152749026Y-29967358D01*
X152764791Y-29964709D01*
X153292036Y-29710732D01*
X153448907Y-29535155D01*
X153463238Y-29611317D01*
X153602310Y-29827441D01*
X153814510Y-29972431D01*
X154066400Y-30023440D01*
X155793600Y-30023440D01*
X156028917Y-29979162D01*
X156220000Y-29856203D01*
X156220000Y-59963000D01*
X135919649Y-59963000D01*
X136167670Y-59591810D01*
X136293345Y-58960000D01*
X136167670Y-58328190D01*
X135940501Y-57988208D01*
X136077441Y-57900090D01*
X136222431Y-57687890D01*
X136273440Y-57436000D01*
X136273440Y-55404000D01*
X136229162Y-55168683D01*
X136090090Y-54952559D01*
X135877890Y-54807569D01*
X135626000Y-54756560D01*
X133594000Y-54756560D01*
X133358683Y-54800838D01*
X133142559Y-54939910D01*
X132997569Y-55152110D01*
X132946560Y-55404000D01*
X132946560Y-57436000D01*
X132990838Y-57671317D01*
X133129910Y-57887441D01*
X133278837Y-57989198D01*
X133137984Y-58200000D01*
X129964802Y-58200000D01*
X127750000Y-55985198D01*
X127750000Y-44812995D01*
X128004698Y-44642811D01*
X128260000Y-44260725D01*
X128515302Y-44642811D01*
X128980849Y-44953880D01*
X129530000Y-45063113D01*
X130040000Y-44961668D01*
X130040000Y-45505000D01*
X130097852Y-45795839D01*
X130262599Y-46042401D01*
X131532599Y-47312401D01*
X131779160Y-47477148D01*
X132070000Y-47535000D01*
X140071000Y-47535000D01*
X140361839Y-47477148D01*
X140608401Y-47312401D01*
X144291401Y-43629401D01*
X144456148Y-43382839D01*
X144514000Y-43092000D01*
X144514000Y-34923202D01*
X149469536Y-29967666D01*
X149850000Y-30043345D01*
X150423489Y-29929271D01*
X150909670Y-29604415D01*
X151116461Y-29294931D01*
X151487964Y-29710732D01*
X152015209Y-29964709D01*
X152030974Y-29967358D01*
X152263000Y-29846217D01*
X152263000Y-28487000D01*
X152243000Y-28487000D01*
X152243000Y-28233000D01*
X152263000Y-28233000D01*
X152263000Y-26873783D01*
X152030974Y-26752642D01*
X152015209Y-26755291D01*
X151487964Y-27009268D01*
X151116461Y-27425069D01*
X150909670Y-27115585D01*
X150423489Y-26790729D01*
X149850000Y-26676655D01*
X149276511Y-26790729D01*
X148790330Y-27115585D01*
X148580000Y-27430366D01*
X148369670Y-27115585D01*
X147883489Y-26790729D01*
X147310000Y-26676655D01*
X146736511Y-26790729D01*
X146250330Y-27115585D01*
X146040000Y-27430366D01*
X145829670Y-27115585D01*
X145343489Y-26790729D01*
X144770000Y-26676655D01*
X144196511Y-26790729D01*
X143710330Y-27115585D01*
X143500000Y-27430366D01*
X143289670Y-27115585D01*
X142803489Y-26790729D01*
X142230000Y-26676655D01*
X141656511Y-26790729D01*
X141170330Y-27115585D01*
X140960000Y-27430366D01*
X140749670Y-27115585D01*
X140263489Y-26790729D01*
X139690000Y-26676655D01*
X139116511Y-26790729D01*
X138630330Y-27115585D01*
X138420000Y-27430366D01*
X138209670Y-27115585D01*
X137723489Y-26790729D01*
X137150000Y-26676655D01*
X136576511Y-26790729D01*
X136090330Y-27115585D01*
X135880000Y-27430366D01*
X135669670Y-27115585D01*
X135183489Y-26790729D01*
X134610000Y-26676655D01*
X134036511Y-26790729D01*
X133550330Y-27115585D01*
X133340000Y-27430366D01*
X133129670Y-27115585D01*
X132643489Y-26790729D01*
X132070000Y-26676655D01*
X131496511Y-26790729D01*
X131010330Y-27115585D01*
X130800000Y-27430366D01*
X130589670Y-27115585D01*
X130103489Y-26790729D01*
X129530000Y-26676655D01*
X128956511Y-26790729D01*
X128470330Y-27115585D01*
X128260000Y-27430366D01*
X128049670Y-27115585D01*
X127563489Y-26790729D01*
X126990000Y-26676655D01*
X126416511Y-26790729D01*
X125930330Y-27115585D01*
X125720000Y-27430366D01*
X125509670Y-27115585D01*
X125023489Y-26790729D01*
X124450000Y-26676655D01*
X123876511Y-26790729D01*
X123390330Y-27115585D01*
X123180000Y-27430366D01*
X122969670Y-27115585D01*
X122483489Y-26790729D01*
X121910000Y-26676655D01*
X121336511Y-26790729D01*
X120850330Y-27115585D01*
X120643539Y-27425069D01*
X120272036Y-27009268D01*
X119744791Y-26755291D01*
X119729026Y-26752642D01*
X119497000Y-26873783D01*
X119497000Y-28233000D01*
X119517000Y-28233000D01*
X119517000Y-28487000D01*
X119497000Y-28487000D01*
X119497000Y-29846217D01*
X119729026Y-29967358D01*
X119744791Y-29964709D01*
X120272036Y-29710732D01*
X120643539Y-29294931D01*
X120850330Y-29604415D01*
X121336511Y-29929271D01*
X121910000Y-30043345D01*
X122417579Y-29942381D01*
X123055000Y-30579802D01*
X123055000Y-31003461D01*
X122837073Y-30785154D01*
X122236547Y-30535794D01*
X121586306Y-30535226D01*
X120985345Y-30783538D01*
X120923015Y-30845760D01*
X120908327Y-30810301D01*
X120729698Y-30631673D01*
X120496309Y-30535000D01*
X119655750Y-30535000D01*
X119497000Y-30693750D01*
X119497000Y-32043000D01*
X119517000Y-32043000D01*
X119517000Y-32297000D01*
X119497000Y-32297000D01*
X119497000Y-33646250D01*
X119655750Y-33805000D01*
X120496309Y-33805000D01*
X120729698Y-33708327D01*
X120908327Y-33529699D01*
X120922842Y-33494656D01*
X120982927Y-33554846D01*
X121583453Y-33804206D01*
X122233694Y-33804774D01*
X122834655Y-33556462D01*
X123055000Y-33336501D01*
X123055000Y-33880198D01*
X122333977Y-34601221D01*
X121910000Y-34516887D01*
X121360849Y-34626120D01*
X120895302Y-34937189D01*
X120625014Y-35341703D01*
X120522389Y-35124866D01*
X120107423Y-34748959D01*
X119719039Y-34588096D01*
X119497000Y-34710085D01*
X119497000Y-35853000D01*
X119517000Y-35853000D01*
X119517000Y-36107000D01*
X119497000Y-36107000D01*
X119497000Y-37249915D01*
X119719039Y-37371904D01*
X120107423Y-37211041D01*
X120522389Y-36835134D01*
X120625014Y-36618297D01*
X120895302Y-37022811D01*
X121360849Y-37333880D01*
X121910000Y-37443113D01*
X122459151Y-37333880D01*
X122924698Y-37022811D01*
X123180000Y-36640725D01*
X123435302Y-37022811D01*
X123900849Y-37333880D01*
X124450000Y-37443113D01*
X124999151Y-37333880D01*
X125464698Y-37022811D01*
X125720000Y-36640725D01*
X125975302Y-37022811D01*
X126440849Y-37333880D01*
X126990000Y-37443113D01*
X127539151Y-37333880D01*
X128004698Y-37022811D01*
X128260000Y-36640725D01*
X128515302Y-37022811D01*
X128980849Y-37333880D01*
X129530000Y-37443113D01*
X130079151Y-37333880D01*
X130544698Y-37022811D01*
X130800000Y-36640725D01*
X131055302Y-37022811D01*
X131520849Y-37333880D01*
X132070000Y-37443113D01*
X132619151Y-37333880D01*
X133084698Y-37022811D01*
X133340000Y-36640725D01*
X133595302Y-37022811D01*
X134060849Y-37333880D01*
X134610000Y-37443113D01*
X135159151Y-37333880D01*
X135624698Y-37022811D01*
X135880000Y-36640725D01*
X136135302Y-37022811D01*
X136600849Y-37333880D01*
X137150000Y-37443113D01*
X137699151Y-37333880D01*
X138164698Y-37022811D01*
X138420000Y-36640725D01*
X138675302Y-37022811D01*
X139140849Y-37333880D01*
X139690000Y-37443113D01*
X139692603Y-37442595D01*
X134933886Y-42201312D01*
X134610000Y-42136887D01*
X134060849Y-42246120D01*
X133595302Y-42557189D01*
X133340000Y-42939275D01*
X133084698Y-42557189D01*
X132811275Y-42374493D01*
X132802822Y-42332000D01*
X132772148Y-42177790D01*
X132607401Y-41931229D01*
X130563771Y-39887599D01*
X130317209Y-39722852D01*
X130026370Y-39665000D01*
X117392463Y-39665000D01*
X117360327Y-39632808D01*
X117016799Y-39490162D01*
X116644833Y-39489838D01*
X116301057Y-39631883D01*
X116037808Y-39894673D01*
X115895162Y-40238201D01*
X115894838Y-40610167D01*
X116036883Y-40953943D01*
X116299673Y-41217192D01*
X116643201Y-41359838D01*
X117015167Y-41360162D01*
X117358943Y-41218117D01*
X117392118Y-41185000D01*
X123250198Y-41185000D01*
X122642599Y-41792599D01*
X122477852Y-42039161D01*
X122437540Y-42241821D01*
X121910000Y-42136887D01*
X121360849Y-42246120D01*
X120895302Y-42557189D01*
X120640000Y-42939275D01*
X120384698Y-42557189D01*
X119919151Y-42246120D01*
X119370000Y-42136887D01*
X118820849Y-42246120D01*
X118355302Y-42557189D01*
X118100000Y-42939275D01*
X117844698Y-42557189D01*
X117379151Y-42246120D01*
X116830000Y-42136887D01*
X116280849Y-42246120D01*
X115815302Y-42557189D01*
X115545014Y-42961703D01*
X115442389Y-42744866D01*
X115027423Y-42368959D01*
X114639039Y-42208096D01*
X114417000Y-42330085D01*
X114417000Y-43473000D01*
X114437000Y-43473000D01*
X114437000Y-43727000D01*
X114417000Y-43727000D01*
X114417000Y-44869915D01*
X114639039Y-44991904D01*
X115027423Y-44831041D01*
X115442389Y-44455134D01*
X115545014Y-44238297D01*
X115815302Y-44642811D01*
X115852877Y-44667918D01*
X115747593Y-44687728D01*
X115531469Y-44826800D01*
X115386479Y-45039000D01*
X115335470Y-45290890D01*
X115335470Y-46990150D01*
X115379748Y-47225467D01*
X115518820Y-47441591D01*
X115731020Y-47586581D01*
X115982910Y-47637590D01*
X117682170Y-47637590D01*
X117917487Y-47593312D01*
X118133611Y-47454240D01*
X118278601Y-47242040D01*
X118329610Y-46990150D01*
X118329610Y-45290890D01*
X118285332Y-45055573D01*
X118146260Y-44839449D01*
X117934060Y-44694459D01*
X117806163Y-44668559D01*
X117844698Y-44642811D01*
X118100000Y-44260725D01*
X118355302Y-44642811D01*
X118820849Y-44953880D01*
X119370000Y-45063113D01*
X119919151Y-44953880D01*
X120384698Y-44642811D01*
X120640000Y-44260725D01*
X120895302Y-44642811D01*
X121360849Y-44953880D01*
X121910000Y-45063113D01*
X122420000Y-44961668D01*
X122420000Y-47095198D01*
X120500320Y-49014878D01*
X120454833Y-49014838D01*
X120111057Y-49156883D01*
X119847808Y-49419673D01*
X119705162Y-49763201D01*
X119704838Y-50135167D01*
X119846883Y-50478943D01*
X120109673Y-50742192D01*
X120453201Y-50884838D01*
X120825167Y-50885162D01*
X121168943Y-50743117D01*
X121432192Y-50480327D01*
X121574838Y-50136799D01*
X121574879Y-50089923D01*
X123717401Y-47947401D01*
X123882148Y-47700840D01*
X123902843Y-47596799D01*
X123940000Y-47410000D01*
X123940000Y-44961668D01*
X124450000Y-45063113D01*
X124960000Y-44961668D01*
X124960000Y-54715198D01*
X122230198Y-57445000D01*
X117787480Y-57445000D01*
X118090414Y-57142594D01*
X118316912Y-56597127D01*
X118317428Y-56006504D01*
X118091882Y-55460643D01*
X117674614Y-55042646D01*
X117585124Y-55005486D01*
X117532148Y-54739161D01*
X117367401Y-54492599D01*
X115462401Y-52587599D01*
X115215839Y-52422852D01*
X114925000Y-52365000D01*
X106670000Y-52365000D01*
X106379160Y-52422852D01*
X106132599Y-52587599D01*
X105525000Y-53195198D01*
X105525000Y-44447801D01*
X105655302Y-44642811D01*
X106120849Y-44953880D01*
X106670000Y-45063113D01*
X107219151Y-44953880D01*
X107684698Y-44642811D01*
X107940000Y-44260725D01*
X108195302Y-44642811D01*
X108660849Y-44953880D01*
X109210000Y-45063113D01*
X109759151Y-44953880D01*
X110224698Y-44642811D01*
X110480000Y-44260725D01*
X110735302Y-44642811D01*
X111200849Y-44953880D01*
X111750000Y-45063113D01*
X112299151Y-44953880D01*
X112764698Y-44642811D01*
X113034986Y-44238297D01*
X113137611Y-44455134D01*
X113552577Y-44831041D01*
X113940961Y-44991904D01*
X114163000Y-44869915D01*
X114163000Y-43727000D01*
X114143000Y-43727000D01*
X114143000Y-43473000D01*
X114163000Y-43473000D01*
X114163000Y-42330085D01*
X113940961Y-42208096D01*
X113552577Y-42368959D01*
X113137611Y-42744866D01*
X113034986Y-42961703D01*
X112764698Y-42557189D01*
X112299151Y-42246120D01*
X111750000Y-42136887D01*
X111200849Y-42246120D01*
X110735302Y-42557189D01*
X110480000Y-42939275D01*
X110224698Y-42557189D01*
X109759151Y-42246120D01*
X109210000Y-42136887D01*
X108660849Y-42246120D01*
X108195302Y-42557189D01*
X107940000Y-42939275D01*
X107684698Y-42557189D01*
X107219151Y-42246120D01*
X106670000Y-42136887D01*
X106667397Y-42137405D01*
X111426114Y-37378688D01*
X111750000Y-37443113D01*
X112299151Y-37333880D01*
X112764698Y-37022811D01*
X113020000Y-36640725D01*
X113275302Y-37022811D01*
X113740849Y-37333880D01*
X114290000Y-37443113D01*
X114839151Y-37333880D01*
X115304698Y-37022811D01*
X115560000Y-36640725D01*
X115815302Y-37022811D01*
X116280849Y-37333880D01*
X116830000Y-37443113D01*
X117379151Y-37333880D01*
X117844698Y-37022811D01*
X118114986Y-36618297D01*
X118217611Y-36835134D01*
X118632577Y-37211041D01*
X119020961Y-37371904D01*
X119243000Y-37249915D01*
X119243000Y-36107000D01*
X119223000Y-36107000D01*
X119223000Y-35853000D01*
X119243000Y-35853000D01*
X119243000Y-34710085D01*
X119020961Y-34588096D01*
X118632577Y-34748959D01*
X118217611Y-35124866D01*
X118114986Y-35341703D01*
X117844698Y-34937189D01*
X117379151Y-34626120D01*
X116830000Y-34516887D01*
X116280849Y-34626120D01*
X115815302Y-34937189D01*
X115560000Y-35319275D01*
X115304698Y-34937189D01*
X114839151Y-34626120D01*
X114290000Y-34516887D01*
X113740849Y-34626120D01*
X113275302Y-34937189D01*
X113020000Y-35319275D01*
X112764698Y-34937189D01*
X112299151Y-34626120D01*
X111750000Y-34516887D01*
X111200849Y-34626120D01*
X110735302Y-34937189D01*
X110480000Y-35319275D01*
X110224698Y-34937189D01*
X109759151Y-34626120D01*
X109210000Y-34516887D01*
X108660849Y-34626120D01*
X108195302Y-34937189D01*
X107940000Y-35319275D01*
X107684698Y-34937189D01*
X107219151Y-34626120D01*
X106670000Y-34516887D01*
X106120849Y-34626120D01*
X105655302Y-34937189D01*
X105344233Y-35402736D01*
X105235000Y-35951887D01*
X105235000Y-36008113D01*
X105344233Y-36557264D01*
X105655302Y-37022811D01*
X106120849Y-37333880D01*
X106670000Y-37443113D01*
X106672603Y-37442595D01*
X103632610Y-40482588D01*
X103467863Y-40729150D01*
X103410011Y-41019989D01*
X103410011Y-81109244D01*
X103467863Y-81400083D01*
X103632610Y-81646645D01*
X104045011Y-82059046D01*
X104045011Y-83653165D01*
X103939090Y-83488559D01*
X103726890Y-83343569D01*
X103620000Y-83321923D01*
X103620000Y-82897463D01*
X103652192Y-82865327D01*
X103794838Y-82521799D01*
X103795162Y-82149833D01*
X103653117Y-81806057D01*
X103390327Y-81542808D01*
X103046799Y-81400162D01*
X102674833Y-81399838D01*
X102331057Y-81541883D01*
X102067808Y-81804673D01*
X101925162Y-82148201D01*
X101924838Y-82520167D01*
X102066883Y-82863943D01*
X102100000Y-82897118D01*
X102100000Y-83292560D01*
X101925000Y-83292560D01*
X101689683Y-83336838D01*
X101473559Y-83475910D01*
X101328569Y-83688110D01*
X101277560Y-83940000D01*
X101277560Y-84540000D01*
X101321838Y-84775317D01*
X101385678Y-84874528D01*
X101328569Y-84958110D01*
X101277560Y-85210000D01*
X101277560Y-85382638D01*
X100570000Y-86090198D01*
X100570000Y-80995000D01*
X101304250Y-80995000D01*
X101463000Y-80836250D01*
X101463000Y-79487000D01*
X101717000Y-79487000D01*
X101717000Y-80836250D01*
X101875750Y-80995000D01*
X102716310Y-80995000D01*
X102949699Y-80898327D01*
X103128327Y-80719698D01*
X103225000Y-80486309D01*
X103225000Y-79645750D01*
X103066250Y-79487000D01*
X101717000Y-79487000D01*
X101463000Y-79487000D01*
X101443000Y-79487000D01*
X101443000Y-79233000D01*
X101463000Y-79233000D01*
X101463000Y-77883750D01*
X101717000Y-77883750D01*
X101717000Y-79233000D01*
X103066250Y-79233000D01*
X103225000Y-79074250D01*
X103225000Y-78233691D01*
X103128327Y-78000302D01*
X102949699Y-77821673D01*
X102716310Y-77725000D01*
X101875750Y-77725000D01*
X101717000Y-77883750D01*
X101463000Y-77883750D01*
X101304250Y-77725000D01*
X100570000Y-77725000D01*
X100570000Y-75652479D01*
X100662637Y-75745278D01*
X101263352Y-75994716D01*
X101913795Y-75995284D01*
X102514943Y-75746894D01*
X102975278Y-75287363D01*
X103224716Y-74686648D01*
X103225284Y-74036205D01*
X102976894Y-73435057D01*
X102517363Y-72974722D01*
X101916648Y-72725284D01*
X101266205Y-72724716D01*
X100665057Y-72973106D01*
X100570000Y-73067997D01*
X100570000Y-71662505D01*
X100570001Y-71662500D01*
X100530444Y-71463636D01*
X102215787Y-69778292D01*
X102215790Y-69778290D01*
X102407633Y-69491175D01*
X102446169Y-69297440D01*
X102590000Y-69297440D01*
X102825317Y-69253162D01*
X103041441Y-69114090D01*
X103186431Y-68901890D01*
X103237440Y-68650000D01*
X103237440Y-66650000D01*
X103193162Y-66414683D01*
X103054090Y-66198559D01*
X102841890Y-66053569D01*
X102590000Y-66002560D01*
X100590000Y-66002560D01*
X100354683Y-66046838D01*
X100138559Y-66185910D01*
X99993569Y-66398110D01*
X99942560Y-66650000D01*
X99942560Y-68650000D01*
X99986838Y-68885317D01*
X100125910Y-69101441D01*
X100282492Y-69208429D01*
X99015920Y-70475000D01*
X98836779Y-70475000D01*
X98529974Y-70270000D01*
X98859147Y-70050054D01*
X99181054Y-69568285D01*
X99294093Y-69000000D01*
X99181054Y-68431715D01*
X98859147Y-67949946D01*
X98529974Y-67730000D01*
X98859147Y-67510054D01*
X99181054Y-67028285D01*
X99294093Y-66460000D01*
X99181054Y-65891715D01*
X98859147Y-65409946D01*
X98421334Y-65117409D01*
X100133137Y-63405606D01*
X100203106Y-63574943D01*
X100662637Y-64035278D01*
X101263352Y-64284716D01*
X101913795Y-64285284D01*
X102514943Y-64036894D01*
X102975278Y-63577363D01*
X103224716Y-62976648D01*
X103225284Y-62326205D01*
X102976894Y-61725057D01*
X102517363Y-61264722D01*
X101916648Y-61015284D01*
X101266205Y-61014716D01*
X100879958Y-61174310D01*
X100879958Y-55614827D01*
X100912150Y-55582691D01*
X101054796Y-55239163D01*
X101055120Y-54867197D01*
X100913075Y-54523421D01*
X100650285Y-54260172D01*
X100610110Y-54243490D01*
X100610146Y-54202353D01*
X100468101Y-53858577D01*
X100205311Y-53595328D01*
X99920347Y-53477000D01*
X99843117Y-53290088D01*
X99580327Y-53026839D01*
X99236799Y-52884193D01*
X99200725Y-52884162D01*
X99180861Y-52836086D01*
X98918071Y-52572837D01*
X98715002Y-52488515D01*
X98715162Y-52304833D01*
X98573117Y-51961057D01*
X98310327Y-51697808D01*
X98049619Y-51589552D01*
X97944068Y-51334098D01*
X97681278Y-51070849D01*
X97610169Y-51041322D01*
X97610175Y-51034833D01*
X97468130Y-50691057D01*
X97205340Y-50427808D01*
X96861812Y-50285162D01*
X96762745Y-50285076D01*
X96668117Y-50056057D01*
X96405327Y-49792808D01*
X96141446Y-49683235D01*
X96033117Y-49421057D01*
X95770327Y-49157808D01*
X95506446Y-49048235D01*
X95398117Y-48786057D01*
X95135327Y-48522808D01*
X94871446Y-48413235D01*
X94763117Y-48151057D01*
X94500327Y-47887808D01*
X94236446Y-47778235D01*
X94128117Y-47516057D01*
X93865327Y-47252808D01*
X93601446Y-47143235D01*
X93493117Y-46881057D01*
X93230327Y-46617808D01*
X92886799Y-46475162D01*
X92514833Y-46474838D01*
X92171057Y-46616883D01*
X91907808Y-46879673D01*
X91765162Y-47223201D01*
X91765121Y-47270077D01*
X90920000Y-48115198D01*
X90920000Y-43885750D01*
X95011400Y-43885750D01*
X95011400Y-44742309D01*
X95108073Y-44975698D01*
X95286701Y-45154327D01*
X95520090Y-45251000D01*
X96224250Y-45251000D01*
X96383000Y-45092250D01*
X96383000Y-43727000D01*
X95170150Y-43727000D01*
X95011400Y-43885750D01*
X90920000Y-43885750D01*
X90920000Y-42457691D01*
X95011400Y-42457691D01*
X95011400Y-43314250D01*
X95170150Y-43473000D01*
X96383000Y-43473000D01*
X96383000Y-42107750D01*
X96224250Y-41949000D01*
X95520090Y-41949000D01*
X95286701Y-42045673D01*
X95108073Y-42224302D01*
X95011400Y-42457691D01*
X90920000Y-42457691D01*
X90920000Y-40075750D01*
X95011400Y-40075750D01*
X95011400Y-40932309D01*
X95108073Y-41165698D01*
X95286701Y-41344327D01*
X95520090Y-41441000D01*
X96224250Y-41441000D01*
X96383000Y-41282250D01*
X96383000Y-39917000D01*
X95170150Y-39917000D01*
X95011400Y-40075750D01*
X90920000Y-40075750D01*
X90920000Y-38647691D01*
X95011400Y-38647691D01*
X95011400Y-39504250D01*
X95170150Y-39663000D01*
X96383000Y-39663000D01*
X96383000Y-38297750D01*
X96224250Y-38139000D01*
X95520090Y-38139000D01*
X95286701Y-38235673D01*
X95108073Y-38414302D01*
X95011400Y-38647691D01*
X90920000Y-38647691D01*
X90920000Y-36265750D01*
X95011400Y-36265750D01*
X95011400Y-37122309D01*
X95108073Y-37355698D01*
X95286701Y-37534327D01*
X95520090Y-37631000D01*
X96224250Y-37631000D01*
X96383000Y-37472250D01*
X96383000Y-36107000D01*
X95170150Y-36107000D01*
X95011400Y-36265750D01*
X90920000Y-36265750D01*
X90920000Y-34837691D01*
X95011400Y-34837691D01*
X95011400Y-35694250D01*
X95170150Y-35853000D01*
X96383000Y-35853000D01*
X96383000Y-34487750D01*
X96637000Y-34487750D01*
X96637000Y-35853000D01*
X96657000Y-35853000D01*
X96657000Y-36107000D01*
X96637000Y-36107000D01*
X96637000Y-37472250D01*
X96795750Y-37631000D01*
X97499910Y-37631000D01*
X97733299Y-37534327D01*
X97911927Y-37355698D01*
X97975500Y-37202220D01*
X97990330Y-37224415D01*
X98476511Y-37549271D01*
X99050000Y-37663345D01*
X99623489Y-37549271D01*
X100109670Y-37224415D01*
X100320000Y-36909634D01*
X100455000Y-37111676D01*
X100455000Y-38658324D01*
X100320000Y-38860366D01*
X100109670Y-38545585D01*
X99623489Y-38220729D01*
X99050000Y-38106655D01*
X98476511Y-38220729D01*
X97990330Y-38545585D01*
X97975500Y-38567780D01*
X97911927Y-38414302D01*
X97733299Y-38235673D01*
X97499910Y-38139000D01*
X96795750Y-38139000D01*
X96637000Y-38297750D01*
X96637000Y-39663000D01*
X96657000Y-39663000D01*
X96657000Y-39917000D01*
X96637000Y-39917000D01*
X96637000Y-41282250D01*
X96795750Y-41441000D01*
X97499910Y-41441000D01*
X97733299Y-41344327D01*
X97911927Y-41165698D01*
X97975500Y-41012220D01*
X97990330Y-41034415D01*
X98476511Y-41359271D01*
X99050000Y-41473345D01*
X99623489Y-41359271D01*
X100109670Y-41034415D01*
X100320000Y-40719634D01*
X100455000Y-40921676D01*
X100455000Y-42468324D01*
X100320000Y-42670366D01*
X100109670Y-42355585D01*
X99623489Y-42030729D01*
X99050000Y-41916655D01*
X98476511Y-42030729D01*
X97990330Y-42355585D01*
X97975500Y-42377780D01*
X97911927Y-42224302D01*
X97733299Y-42045673D01*
X97499910Y-41949000D01*
X96795750Y-41949000D01*
X96637000Y-42107750D01*
X96637000Y-43473000D01*
X96657000Y-43473000D01*
X96657000Y-43727000D01*
X96637000Y-43727000D01*
X96637000Y-45092250D01*
X96795750Y-45251000D01*
X97499910Y-45251000D01*
X97733299Y-45154327D01*
X97911927Y-44975698D01*
X97975500Y-44822220D01*
X97990330Y-44844415D01*
X98476511Y-45169271D01*
X99050000Y-45283345D01*
X99623489Y-45169271D01*
X100109670Y-44844415D01*
X100320000Y-44529634D01*
X100530330Y-44844415D01*
X101016511Y-45169271D01*
X101590000Y-45283345D01*
X102163489Y-45169271D01*
X102649670Y-44844415D01*
X102974526Y-44358234D01*
X103088600Y-43784745D01*
X103088600Y-43415255D01*
X102974526Y-42841766D01*
X102725000Y-42468324D01*
X102725000Y-40921676D01*
X102974526Y-40548234D01*
X103088600Y-39974745D01*
X103088600Y-39605255D01*
X102974526Y-39031766D01*
X102725000Y-38658324D01*
X102725000Y-37111676D01*
X102974526Y-36738234D01*
X103088600Y-36164745D01*
X103088600Y-35795255D01*
X102974526Y-35221766D01*
X102649670Y-34735585D01*
X102163489Y-34410729D01*
X101590000Y-34296655D01*
X101016511Y-34410729D01*
X100530330Y-34735585D01*
X100320000Y-35050366D01*
X100109670Y-34735585D01*
X99623489Y-34410729D01*
X99050000Y-34296655D01*
X98476511Y-34410729D01*
X97990330Y-34735585D01*
X97975500Y-34757780D01*
X97911927Y-34604302D01*
X97733299Y-34425673D01*
X97499910Y-34329000D01*
X96795750Y-34329000D01*
X96637000Y-34487750D01*
X96383000Y-34487750D01*
X96224250Y-34329000D01*
X95520090Y-34329000D01*
X95286701Y-34425673D01*
X95108073Y-34604302D01*
X95011400Y-34837691D01*
X90920000Y-34837691D01*
X90920000Y-33119802D01*
X91356007Y-32683795D01*
X93294716Y-32683795D01*
X93543106Y-33284943D01*
X94002637Y-33745278D01*
X94603352Y-33994716D01*
X95253795Y-33995284D01*
X95854943Y-33746894D01*
X96315278Y-33287363D01*
X96564716Y-32686648D01*
X96564751Y-32645750D01*
X98295000Y-32645750D01*
X98295000Y-33486310D01*
X98391673Y-33719699D01*
X98570302Y-33898327D01*
X98803691Y-33995000D01*
X99644250Y-33995000D01*
X99803000Y-33836250D01*
X99803000Y-32487000D01*
X98453750Y-32487000D01*
X98295000Y-32645750D01*
X96564751Y-32645750D01*
X96565284Y-32036205D01*
X96316894Y-31435057D01*
X96115879Y-31233690D01*
X98295000Y-31233690D01*
X98295000Y-32074250D01*
X98453750Y-32233000D01*
X99803000Y-32233000D01*
X99803000Y-30883750D01*
X99644250Y-30725000D01*
X98803691Y-30725000D01*
X98570302Y-30821673D01*
X98391673Y-31000301D01*
X98295000Y-31233690D01*
X96115879Y-31233690D01*
X95857363Y-30974722D01*
X95256648Y-30725284D01*
X94606205Y-30724716D01*
X94005057Y-30973106D01*
X93544722Y-31432637D01*
X93295284Y-32033352D01*
X93294716Y-32683795D01*
X91356007Y-32683795D01*
X93649802Y-30390000D01*
X101320086Y-30390000D01*
X101277560Y-30600000D01*
X101277560Y-30816645D01*
X101056309Y-30725000D01*
X100215750Y-30725000D01*
X100057000Y-30883750D01*
X100057000Y-32233000D01*
X100077000Y-32233000D01*
X100077000Y-32487000D01*
X100057000Y-32487000D01*
X100057000Y-33836250D01*
X100215750Y-33995000D01*
X101056309Y-33995000D01*
X101289698Y-33898327D01*
X101468327Y-33719699D01*
X101565000Y-33486310D01*
X101565000Y-33008025D01*
X101565302Y-33008327D01*
X101798691Y-33105000D01*
X102414250Y-33105000D01*
X102573000Y-32946250D01*
X102573000Y-32297000D01*
X102827000Y-32297000D01*
X102827000Y-32946250D01*
X102985750Y-33105000D01*
X103601309Y-33105000D01*
X103834698Y-33008327D01*
X104013327Y-32829699D01*
X104110000Y-32596310D01*
X104110000Y-32455750D01*
X103951250Y-32297000D01*
X102827000Y-32297000D01*
X102573000Y-32297000D01*
X102553000Y-32297000D01*
X102553000Y-32043000D01*
X102573000Y-32043000D01*
X102573000Y-32023000D01*
X102827000Y-32023000D01*
X102827000Y-32043000D01*
X103951250Y-32043000D01*
X104110000Y-31884250D01*
X104110000Y-31743690D01*
X104020194Y-31526878D01*
X104071431Y-31451890D01*
X104122440Y-31200000D01*
X104122440Y-30600000D01*
X104078162Y-30364683D01*
X104014322Y-30265472D01*
X104071431Y-30181890D01*
X104122440Y-29930000D01*
X104122440Y-29330000D01*
X104078162Y-29094683D01*
X104014322Y-28995472D01*
X104071431Y-28911890D01*
X104122440Y-28660000D01*
X104122440Y-28060000D01*
X106677560Y-28060000D01*
X106677560Y-28660000D01*
X106721838Y-28895317D01*
X106785678Y-28994528D01*
X106728569Y-29078110D01*
X106677560Y-29330000D01*
X106677560Y-29930000D01*
X106721838Y-30165317D01*
X106785678Y-30264528D01*
X106728569Y-30348110D01*
X106677560Y-30600000D01*
X106677560Y-31200000D01*
X106721838Y-31435317D01*
X106785678Y-31534528D01*
X106728569Y-31618110D01*
X106677560Y-31870000D01*
X106677560Y-32470000D01*
X106721838Y-32705317D01*
X106860910Y-32921441D01*
X107073110Y-33066431D01*
X107325000Y-33117440D01*
X108875000Y-33117440D01*
X109110317Y-33073162D01*
X109144598Y-33051103D01*
X109407484Y-32998810D01*
X109463675Y-32987633D01*
X109750790Y-32795790D01*
X110761579Y-31785000D01*
X112759514Y-31785000D01*
X112735284Y-31843352D01*
X112734716Y-32493795D01*
X112983106Y-33094943D01*
X113442637Y-33555278D01*
X114043352Y-33804716D01*
X114693795Y-33805284D01*
X115294943Y-33556894D01*
X115755278Y-33097363D01*
X116004716Y-32496648D01*
X116004751Y-32455750D01*
X117735000Y-32455750D01*
X117735000Y-33296310D01*
X117831673Y-33529699D01*
X118010302Y-33708327D01*
X118243691Y-33805000D01*
X119084250Y-33805000D01*
X119243000Y-33646250D01*
X119243000Y-32297000D01*
X117893750Y-32297000D01*
X117735000Y-32455750D01*
X116004751Y-32455750D01*
X116005284Y-31846205D01*
X115756894Y-31245057D01*
X115662003Y-31150000D01*
X116190995Y-31150000D01*
X116191000Y-31150001D01*
X116473484Y-31093810D01*
X116529675Y-31082633D01*
X116587957Y-31043690D01*
X117735000Y-31043690D01*
X117735000Y-31884250D01*
X117893750Y-32043000D01*
X119243000Y-32043000D01*
X119243000Y-30693750D01*
X119084250Y-30535000D01*
X118243691Y-30535000D01*
X118010302Y-30631673D01*
X117831673Y-30810301D01*
X117735000Y-31043690D01*
X116587957Y-31043690D01*
X116816790Y-30890790D01*
X116816791Y-30890789D01*
X117455787Y-30251792D01*
X117455790Y-30251790D01*
X117647633Y-29964675D01*
X117693178Y-29735707D01*
X117889670Y-29604415D01*
X118096461Y-29294931D01*
X118467964Y-29710732D01*
X118995209Y-29964709D01*
X119010974Y-29967358D01*
X119243000Y-29846217D01*
X119243000Y-28487000D01*
X119223000Y-28487000D01*
X119223000Y-28233000D01*
X119243000Y-28233000D01*
X119243000Y-26873783D01*
X119010974Y-26752642D01*
X118995209Y-26755291D01*
X118467964Y-27009268D01*
X118096461Y-27425069D01*
X117889670Y-27115585D01*
X117403489Y-26790729D01*
X116830000Y-26676655D01*
X116256511Y-26790729D01*
X115770330Y-27115585D01*
X115560000Y-27430366D01*
X115349670Y-27115585D01*
X114863489Y-26790729D01*
X114290000Y-26676655D01*
X113716511Y-26790729D01*
X113230330Y-27115585D01*
X113020000Y-27430366D01*
X112809670Y-27115585D01*
X112323489Y-26790729D01*
X111750000Y-26676655D01*
X111176511Y-26790729D01*
X110690330Y-27115585D01*
X110473023Y-27440808D01*
X110279346Y-27311397D01*
X109845000Y-27225000D01*
X108100000Y-27225000D01*
X107665654Y-27311397D01*
X107514253Y-27412560D01*
X107325000Y-27412560D01*
X107089683Y-27456838D01*
X106873559Y-27595910D01*
X106728569Y-27808110D01*
X106677560Y-28060000D01*
X104122440Y-28060000D01*
X104078162Y-27824683D01*
X103939090Y-27608559D01*
X103726890Y-27463569D01*
X103475000Y-27412560D01*
X101925000Y-27412560D01*
X101689683Y-27456838D01*
X101473559Y-27595910D01*
X101470764Y-27600000D01*
X93335000Y-27600000D01*
X93044161Y-27657852D01*
X92797599Y-27822599D01*
X89640000Y-30980198D01*
X89640000Y-26070000D01*
X156220000Y-26070000D01*
X156220000Y-26866807D01*
M02*
