G04 #@! TF.FileFunction,Legend,Top*
%FSLAX46Y46*%
G04 Gerber Fmt 4.6, Leading zero omitted, Abs format (unit mm)*
G04 Created by KiCad (PCBNEW 4.0.2-stable) date woensdag 06 september 2017 16:33:44*
%MOMM*%
G01*
G04 APERTURE LIST*
%ADD10C,0.100000*%
%ADD11C,0.300000*%
%ADD12C,0.600000*%
%ADD13C,0.120000*%
%ADD14C,0.150000*%
G04 APERTURE END LIST*
D10*
D11*
X158863571Y-131387857D02*
X158149286Y-131887857D01*
X158863571Y-132245000D02*
X157363571Y-132245000D01*
X157363571Y-131673572D01*
X157435000Y-131530714D01*
X157506429Y-131459286D01*
X157649286Y-131387857D01*
X157863571Y-131387857D01*
X158006429Y-131459286D01*
X158077857Y-131530714D01*
X158149286Y-131673572D01*
X158149286Y-132245000D01*
X158863571Y-130102143D02*
X158077857Y-130102143D01*
X157935000Y-130173572D01*
X157863571Y-130316429D01*
X157863571Y-130602143D01*
X157935000Y-130745000D01*
X158792143Y-130102143D02*
X158863571Y-130245000D01*
X158863571Y-130602143D01*
X158792143Y-130745000D01*
X158649286Y-130816429D01*
X158506429Y-130816429D01*
X158363571Y-130745000D01*
X158292143Y-130602143D01*
X158292143Y-130245000D01*
X158220714Y-130102143D01*
X158792143Y-129459286D02*
X158863571Y-129316429D01*
X158863571Y-129030714D01*
X158792143Y-128887857D01*
X158649286Y-128816429D01*
X158577857Y-128816429D01*
X158435000Y-128887857D01*
X158363571Y-129030714D01*
X158363571Y-129245000D01*
X158292143Y-129387857D01*
X158149286Y-129459286D01*
X158077857Y-129459286D01*
X157935000Y-129387857D01*
X157863571Y-129245000D01*
X157863571Y-129030714D01*
X157935000Y-128887857D01*
X157863571Y-128173571D02*
X159363571Y-128173571D01*
X157935000Y-128173571D02*
X157863571Y-128030714D01*
X157863571Y-127745000D01*
X157935000Y-127602143D01*
X158006429Y-127530714D01*
X158149286Y-127459285D01*
X158577857Y-127459285D01*
X158720714Y-127530714D01*
X158792143Y-127602143D01*
X158863571Y-127745000D01*
X158863571Y-128030714D01*
X158792143Y-128173571D01*
X158863571Y-126816428D02*
X157363571Y-126816428D01*
X157935000Y-126816428D02*
X157863571Y-126673571D01*
X157863571Y-126387857D01*
X157935000Y-126245000D01*
X158006429Y-126173571D01*
X158149286Y-126102142D01*
X158577857Y-126102142D01*
X158720714Y-126173571D01*
X158792143Y-126245000D01*
X158863571Y-126387857D01*
X158863571Y-126673571D01*
X158792143Y-126816428D01*
X158792143Y-124887857D02*
X158863571Y-125030714D01*
X158863571Y-125316428D01*
X158792143Y-125459285D01*
X158649286Y-125530714D01*
X158077857Y-125530714D01*
X157935000Y-125459285D01*
X157863571Y-125316428D01*
X157863571Y-125030714D01*
X157935000Y-124887857D01*
X158077857Y-124816428D01*
X158220714Y-124816428D01*
X158363571Y-125530714D01*
X158863571Y-124173571D02*
X157863571Y-124173571D01*
X158149286Y-124173571D02*
X158006429Y-124102143D01*
X157935000Y-124030714D01*
X157863571Y-123887857D01*
X157863571Y-123745000D01*
X158863571Y-123245000D02*
X157863571Y-123245000D01*
X158149286Y-123245000D02*
X158006429Y-123173572D01*
X157935000Y-123102143D01*
X157863571Y-122959286D01*
X157863571Y-122816429D01*
X157863571Y-122459286D02*
X158863571Y-122102143D01*
X157863571Y-121745001D02*
X158863571Y-122102143D01*
X159220714Y-122245001D01*
X159292143Y-122316429D01*
X159363571Y-122459286D01*
X158863571Y-120030715D02*
X157363571Y-120030715D01*
X157363571Y-119459287D01*
X157435000Y-119316429D01*
X157506429Y-119245001D01*
X157649286Y-119173572D01*
X157863571Y-119173572D01*
X158006429Y-119245001D01*
X158077857Y-119316429D01*
X158149286Y-119459287D01*
X158149286Y-120030715D01*
X158863571Y-118530715D02*
X157863571Y-118530715D01*
X157363571Y-118530715D02*
X157435000Y-118602144D01*
X157506429Y-118530715D01*
X157435000Y-118459287D01*
X157363571Y-118530715D01*
X157506429Y-118530715D01*
X158863571Y-116673572D02*
X157363571Y-116673572D01*
X158435000Y-116173572D01*
X157363571Y-115673572D01*
X158863571Y-115673572D01*
X158863571Y-114959286D02*
X157363571Y-114959286D01*
X158863571Y-114245000D02*
X157363571Y-114245000D01*
X157363571Y-113887857D01*
X157435000Y-113673572D01*
X157577857Y-113530714D01*
X157720714Y-113459286D01*
X158006429Y-113387857D01*
X158220714Y-113387857D01*
X158506429Y-113459286D01*
X158649286Y-113530714D01*
X158792143Y-113673572D01*
X158863571Y-113887857D01*
X158863571Y-114245000D01*
X158863571Y-112745000D02*
X157363571Y-112745000D01*
X158863571Y-110887857D02*
X157363571Y-110887857D01*
X157935000Y-110887857D02*
X157863571Y-110745000D01*
X157863571Y-110459286D01*
X157935000Y-110316429D01*
X158006429Y-110245000D01*
X158149286Y-110173571D01*
X158577857Y-110173571D01*
X158720714Y-110245000D01*
X158792143Y-110316429D01*
X158863571Y-110459286D01*
X158863571Y-110745000D01*
X158792143Y-110887857D01*
X158863571Y-109316428D02*
X158792143Y-109459286D01*
X158720714Y-109530714D01*
X158577857Y-109602143D01*
X158149286Y-109602143D01*
X158006429Y-109530714D01*
X157935000Y-109459286D01*
X157863571Y-109316428D01*
X157863571Y-109102143D01*
X157935000Y-108959286D01*
X158006429Y-108887857D01*
X158149286Y-108816428D01*
X158577857Y-108816428D01*
X158720714Y-108887857D01*
X158792143Y-108959286D01*
X158863571Y-109102143D01*
X158863571Y-109316428D01*
X158863571Y-107530714D02*
X158077857Y-107530714D01*
X157935000Y-107602143D01*
X157863571Y-107745000D01*
X157863571Y-108030714D01*
X157935000Y-108173571D01*
X158792143Y-107530714D02*
X158863571Y-107673571D01*
X158863571Y-108030714D01*
X158792143Y-108173571D01*
X158649286Y-108245000D01*
X158506429Y-108245000D01*
X158363571Y-108173571D01*
X158292143Y-108030714D01*
X158292143Y-107673571D01*
X158220714Y-107530714D01*
X158863571Y-106816428D02*
X157863571Y-106816428D01*
X158149286Y-106816428D02*
X158006429Y-106745000D01*
X157935000Y-106673571D01*
X157863571Y-106530714D01*
X157863571Y-106387857D01*
X158863571Y-105245000D02*
X157363571Y-105245000D01*
X158792143Y-105245000D02*
X158863571Y-105387857D01*
X158863571Y-105673571D01*
X158792143Y-105816429D01*
X158720714Y-105887857D01*
X158577857Y-105959286D01*
X158149286Y-105959286D01*
X158006429Y-105887857D01*
X157935000Y-105816429D01*
X157863571Y-105673571D01*
X157863571Y-105387857D01*
X157935000Y-105245000D01*
X161263571Y-134423571D02*
X159763571Y-134423571D01*
X160335000Y-134423571D02*
X160263571Y-134280714D01*
X160263571Y-133995000D01*
X160335000Y-133852143D01*
X160406429Y-133780714D01*
X160549286Y-133709285D01*
X160977857Y-133709285D01*
X161120714Y-133780714D01*
X161192143Y-133852143D01*
X161263571Y-133995000D01*
X161263571Y-134280714D01*
X161192143Y-134423571D01*
X160263571Y-133209285D02*
X161263571Y-132852142D01*
X160263571Y-132495000D02*
X161263571Y-132852142D01*
X161620714Y-132995000D01*
X161692143Y-133066428D01*
X161763571Y-133209285D01*
X161120714Y-129923571D02*
X161192143Y-129995000D01*
X161263571Y-130209286D01*
X161263571Y-130352143D01*
X161192143Y-130566428D01*
X161049286Y-130709286D01*
X160906429Y-130780714D01*
X160620714Y-130852143D01*
X160406429Y-130852143D01*
X160120714Y-130780714D01*
X159977857Y-130709286D01*
X159835000Y-130566428D01*
X159763571Y-130352143D01*
X159763571Y-130209286D01*
X159835000Y-129995000D01*
X159906429Y-129923571D01*
X161120714Y-129280714D02*
X161192143Y-129209286D01*
X161263571Y-129280714D01*
X161192143Y-129352143D01*
X161120714Y-129280714D01*
X161263571Y-129280714D01*
X160477857Y-126923571D02*
X160477857Y-127423571D01*
X161263571Y-127423571D02*
X159763571Y-127423571D01*
X159763571Y-126709285D01*
X161192143Y-125566429D02*
X161263571Y-125709286D01*
X161263571Y-125995000D01*
X161192143Y-126137857D01*
X161049286Y-126209286D01*
X160477857Y-126209286D01*
X160335000Y-126137857D01*
X160263571Y-125995000D01*
X160263571Y-125709286D01*
X160335000Y-125566429D01*
X160477857Y-125495000D01*
X160620714Y-125495000D01*
X160763571Y-126209286D01*
X161263571Y-124209286D02*
X159763571Y-124209286D01*
X161192143Y-124209286D02*
X161263571Y-124352143D01*
X161263571Y-124637857D01*
X161192143Y-124780715D01*
X161120714Y-124852143D01*
X160977857Y-124923572D01*
X160549286Y-124923572D01*
X160406429Y-124852143D01*
X160335000Y-124780715D01*
X160263571Y-124637857D01*
X160263571Y-124352143D01*
X160335000Y-124209286D01*
X161263571Y-122852143D02*
X159763571Y-122852143D01*
X161192143Y-122852143D02*
X161263571Y-122995000D01*
X161263571Y-123280714D01*
X161192143Y-123423572D01*
X161120714Y-123495000D01*
X160977857Y-123566429D01*
X160549286Y-123566429D01*
X160406429Y-123495000D01*
X160335000Y-123423572D01*
X160263571Y-123280714D01*
X160263571Y-122995000D01*
X160335000Y-122852143D01*
X161192143Y-121566429D02*
X161263571Y-121709286D01*
X161263571Y-121995000D01*
X161192143Y-122137857D01*
X161049286Y-122209286D01*
X160477857Y-122209286D01*
X160335000Y-122137857D01*
X160263571Y-121995000D01*
X160263571Y-121709286D01*
X160335000Y-121566429D01*
X160477857Y-121495000D01*
X160620714Y-121495000D01*
X160763571Y-122209286D01*
X161263571Y-120852143D02*
X160263571Y-120852143D01*
X160406429Y-120852143D02*
X160335000Y-120780715D01*
X160263571Y-120637857D01*
X160263571Y-120423572D01*
X160335000Y-120280715D01*
X160477857Y-120209286D01*
X161263571Y-120209286D01*
X160477857Y-120209286D02*
X160335000Y-120137857D01*
X160263571Y-119995000D01*
X160263571Y-119780715D01*
X160335000Y-119637857D01*
X160477857Y-119566429D01*
X161263571Y-119566429D01*
X161263571Y-118209286D02*
X160477857Y-118209286D01*
X160335000Y-118280715D01*
X160263571Y-118423572D01*
X160263571Y-118709286D01*
X160335000Y-118852143D01*
X161192143Y-118209286D02*
X161263571Y-118352143D01*
X161263571Y-118709286D01*
X161192143Y-118852143D01*
X161049286Y-118923572D01*
X160906429Y-118923572D01*
X160763571Y-118852143D01*
X160692143Y-118709286D01*
X160692143Y-118352143D01*
X160620714Y-118209286D01*
X161263571Y-115709286D02*
X160477857Y-115709286D01*
X160335000Y-115780715D01*
X160263571Y-115923572D01*
X160263571Y-116209286D01*
X160335000Y-116352143D01*
X161192143Y-115709286D02*
X161263571Y-115852143D01*
X161263571Y-116209286D01*
X161192143Y-116352143D01*
X161049286Y-116423572D01*
X160906429Y-116423572D01*
X160763571Y-116352143D01*
X160692143Y-116209286D01*
X160692143Y-115852143D01*
X160620714Y-115709286D01*
X161263571Y-114995000D02*
X159763571Y-114995000D01*
X160692143Y-114852143D02*
X161263571Y-114423572D01*
X160263571Y-114423572D02*
X160835000Y-114995000D01*
X161263571Y-113137857D02*
X160477857Y-113137857D01*
X160335000Y-113209286D01*
X160263571Y-113352143D01*
X160263571Y-113637857D01*
X160335000Y-113780714D01*
X161192143Y-113137857D02*
X161263571Y-113280714D01*
X161263571Y-113637857D01*
X161192143Y-113780714D01*
X161049286Y-113852143D01*
X160906429Y-113852143D01*
X160763571Y-113780714D01*
X160692143Y-113637857D01*
X160692143Y-113280714D01*
X160620714Y-113137857D01*
X161192143Y-111352143D02*
X161263571Y-111137857D01*
X161263571Y-110780714D01*
X161192143Y-110637857D01*
X161120714Y-110566428D01*
X160977857Y-110495000D01*
X160835000Y-110495000D01*
X160692143Y-110566428D01*
X160620714Y-110637857D01*
X160549286Y-110780714D01*
X160477857Y-111066428D01*
X160406429Y-111209286D01*
X160335000Y-111280714D01*
X160192143Y-111352143D01*
X160049286Y-111352143D01*
X159906429Y-111280714D01*
X159835000Y-111209286D01*
X159763571Y-111066428D01*
X159763571Y-110709286D01*
X159835000Y-110495000D01*
X161263571Y-109852143D02*
X160263571Y-109852143D01*
X159763571Y-109852143D02*
X159835000Y-109923572D01*
X159906429Y-109852143D01*
X159835000Y-109780715D01*
X159763571Y-109852143D01*
X159906429Y-109852143D01*
X161263571Y-109280714D02*
X160263571Y-108495000D01*
X160263571Y-109280714D02*
X161263571Y-108495000D01*
X161192143Y-107352143D02*
X161263571Y-107495000D01*
X161263571Y-107780714D01*
X161192143Y-107923571D01*
X161049286Y-107995000D01*
X160477857Y-107995000D01*
X160335000Y-107923571D01*
X160263571Y-107780714D01*
X160263571Y-107495000D01*
X160335000Y-107352143D01*
X160477857Y-107280714D01*
X160620714Y-107280714D01*
X160763571Y-107995000D01*
X161263571Y-106637857D02*
X160263571Y-106637857D01*
X159763571Y-106637857D02*
X159835000Y-106709286D01*
X159906429Y-106637857D01*
X159835000Y-106566429D01*
X159763571Y-106637857D01*
X159906429Y-106637857D01*
X160263571Y-105280714D02*
X161477857Y-105280714D01*
X161620714Y-105352143D01*
X161692143Y-105423571D01*
X161763571Y-105566428D01*
X161763571Y-105780714D01*
X161692143Y-105923571D01*
X161192143Y-105280714D02*
X161263571Y-105423571D01*
X161263571Y-105709285D01*
X161192143Y-105852143D01*
X161120714Y-105923571D01*
X160977857Y-105995000D01*
X160549286Y-105995000D01*
X160406429Y-105923571D01*
X160335000Y-105852143D01*
X160263571Y-105709285D01*
X160263571Y-105423571D01*
X160335000Y-105280714D01*
X161263571Y-104566428D02*
X159763571Y-104566428D01*
X161263571Y-103923571D02*
X160477857Y-103923571D01*
X160335000Y-103995000D01*
X160263571Y-104137857D01*
X160263571Y-104352142D01*
X160335000Y-104495000D01*
X160406429Y-104566428D01*
X160263571Y-103423571D02*
X160263571Y-102852142D01*
X159763571Y-103209285D02*
X161049286Y-103209285D01*
X161192143Y-103137857D01*
X161263571Y-102994999D01*
X161263571Y-102852142D01*
D12*
X154392143Y-128047143D02*
X152963571Y-129047143D01*
X154392143Y-129761428D02*
X151392143Y-129761428D01*
X151392143Y-128618571D01*
X151535000Y-128332857D01*
X151677857Y-128190000D01*
X151963571Y-128047143D01*
X152392143Y-128047143D01*
X152677857Y-128190000D01*
X152820714Y-128332857D01*
X152963571Y-128618571D01*
X152963571Y-129761428D01*
X154249286Y-125618571D02*
X154392143Y-125904285D01*
X154392143Y-126475714D01*
X154249286Y-126761428D01*
X153963571Y-126904285D01*
X152820714Y-126904285D01*
X152535000Y-126761428D01*
X152392143Y-126475714D01*
X152392143Y-125904285D01*
X152535000Y-125618571D01*
X152820714Y-125475714D01*
X153106429Y-125475714D01*
X153392143Y-126904285D01*
X152392143Y-124475714D02*
X154392143Y-123761428D01*
X152392143Y-123047142D01*
X154106429Y-121904285D02*
X154249286Y-121761428D01*
X154392143Y-121904285D01*
X154249286Y-122047142D01*
X154106429Y-121904285D01*
X154392143Y-121904285D01*
X152820714Y-117190000D02*
X152963571Y-116761429D01*
X153106429Y-116618572D01*
X153392143Y-116475715D01*
X153820714Y-116475715D01*
X154106429Y-116618572D01*
X154249286Y-116761429D01*
X154392143Y-117047143D01*
X154392143Y-118190000D01*
X151392143Y-118190000D01*
X151392143Y-117190000D01*
X151535000Y-116904286D01*
X151677857Y-116761429D01*
X151963571Y-116618572D01*
X152249286Y-116618572D01*
X152535000Y-116761429D01*
X152677857Y-116904286D01*
X152820714Y-117190000D01*
X152820714Y-118190000D01*
D13*
X103341000Y-101010000D02*
G75*
G03X103341000Y-101010000I-2286000J0D01*
G01*
X161341000Y-101010000D02*
G75*
G03X161341000Y-101010000I-2286000J0D01*
G01*
X161341000Y-150010000D02*
G75*
G03X161341000Y-150010000I-2286000J0D01*
G01*
X103341000Y-150010000D02*
G75*
G03X103341000Y-150010000I-2286000J0D01*
G01*
X82026000Y-150904000D02*
X73226000Y-150904000D01*
X73226000Y-150904000D02*
X73226000Y-141704000D01*
X87926000Y-148204000D02*
X87926000Y-150904000D01*
X87926000Y-150904000D02*
X86026000Y-150904000D01*
X73226000Y-141704000D02*
X87926000Y-141704000D01*
X87926000Y-141704000D02*
X87926000Y-144304000D01*
D11*
X93345000Y-97790000D02*
X93345000Y-118110000D01*
X93345000Y-97790000D02*
X74295000Y-97790000D01*
X74295000Y-118110000D02*
X93345000Y-118110000D01*
X88265000Y-118110000D02*
X74295000Y-118110000D01*
X74295000Y-97790000D02*
X74295000Y-118110000D01*
X93345000Y-119380000D02*
X93345000Y-139700000D01*
X93345000Y-119380000D02*
X74295000Y-119380000D01*
X74295000Y-139700000D02*
X93345000Y-139700000D01*
X88265000Y-139700000D02*
X74295000Y-139700000D01*
X74295000Y-119380000D02*
X74295000Y-139700000D01*
D13*
X107315000Y-152520000D02*
X155695000Y-152520000D01*
X155695000Y-152520000D02*
X155695000Y-147200000D01*
X155695000Y-147200000D02*
X104655000Y-147200000D01*
X104655000Y-147200000D02*
X104655000Y-149860000D01*
X104655000Y-149860000D02*
X107315000Y-149860000D01*
X107315000Y-149860000D02*
X107315000Y-152520000D01*
X106045000Y-152520000D02*
X104655000Y-152520000D01*
X104655000Y-152520000D02*
X104655000Y-151130000D01*
D14*
X107045000Y-104410000D02*
X107045000Y-111410000D01*
X107045000Y-111410000D02*
X105045000Y-111410000D01*
X105045000Y-111410000D02*
X105045000Y-104410000D01*
X105045000Y-104410000D02*
X107045000Y-104410000D01*
X129905000Y-104410000D02*
X129905000Y-111410000D01*
X129905000Y-111410000D02*
X127905000Y-111410000D01*
X127905000Y-111410000D02*
X127905000Y-104410000D01*
X127905000Y-104410000D02*
X129905000Y-104410000D01*
X123832460Y-120903480D02*
X123832460Y-119506480D01*
X123832460Y-125348480D02*
X123832460Y-126872480D01*
X123070460Y-124967480D02*
X124594460Y-124967480D01*
X123070460Y-125221480D02*
X124594460Y-125221480D01*
X123832460Y-125475480D02*
X124594460Y-125475480D01*
X124594460Y-125475480D02*
X124594460Y-120903480D01*
X124594460Y-120903480D02*
X123070460Y-120903480D01*
X123070460Y-120903480D02*
X123070460Y-125475480D01*
X123070460Y-125475480D02*
X123832460Y-125475480D01*
X116205000Y-120904000D02*
X116205000Y-119507000D01*
X116205000Y-125349000D02*
X116205000Y-126873000D01*
X115443000Y-124968000D02*
X116967000Y-124968000D01*
X115443000Y-125222000D02*
X116967000Y-125222000D01*
X116205000Y-125476000D02*
X116967000Y-125476000D01*
X116967000Y-125476000D02*
X116967000Y-120904000D01*
X116967000Y-120904000D02*
X115443000Y-120904000D01*
X115443000Y-120904000D02*
X115443000Y-125476000D01*
X115443000Y-125476000D02*
X116205000Y-125476000D01*
X127645000Y-125730000D02*
X127645000Y-120650000D01*
X127645000Y-120650000D02*
X130185000Y-120650000D01*
X130185000Y-120650000D02*
X130185000Y-125730000D01*
X130185000Y-125730000D02*
X127645000Y-125730000D01*
X128915000Y-125730000D02*
X128915000Y-127000000D01*
X128915000Y-120650000D02*
X128915000Y-119380000D01*
X132725000Y-125730000D02*
X132725000Y-120650000D01*
X132725000Y-120650000D02*
X135265000Y-120650000D01*
X135265000Y-120650000D02*
X135265000Y-125730000D01*
X135265000Y-125730000D02*
X132725000Y-125730000D01*
X133995000Y-125730000D02*
X133995000Y-127000000D01*
X133995000Y-120650000D02*
X133995000Y-119380000D01*
X140335000Y-125730000D02*
X140335000Y-120650000D01*
X140335000Y-120650000D02*
X142875000Y-120650000D01*
X142875000Y-120650000D02*
X142875000Y-125730000D01*
X142875000Y-125730000D02*
X140335000Y-125730000D01*
X141605000Y-125730000D02*
X141605000Y-127000000D01*
X141605000Y-120650000D02*
X141605000Y-119380000D01*
X147955000Y-120650000D02*
X147955000Y-125730000D01*
X147955000Y-125730000D02*
X145415000Y-125730000D01*
X145415000Y-125730000D02*
X145415000Y-120650000D01*
X145415000Y-120650000D02*
X147955000Y-120650000D01*
X146685000Y-120650000D02*
X146685000Y-119380000D01*
X146685000Y-125730000D02*
X146685000Y-127000000D01*
D13*
X109735000Y-105680000D02*
G75*
G02X109735000Y-107680000I0J-1000000D01*
G01*
X109735000Y-107680000D02*
X109735000Y-109050000D01*
X109735000Y-109050000D02*
X120135000Y-109050000D01*
X120135000Y-109050000D02*
X120135000Y-104310000D01*
X120135000Y-104310000D02*
X109735000Y-104310000D01*
X109735000Y-104310000D02*
X109735000Y-105680000D01*
X132595000Y-105680000D02*
G75*
G02X132595000Y-107680000I0J-1000000D01*
G01*
X132595000Y-107680000D02*
X132595000Y-109050000D01*
X132595000Y-109050000D02*
X150615000Y-109050000D01*
X150615000Y-109050000D02*
X150615000Y-104310000D01*
X150615000Y-104310000D02*
X132595000Y-104310000D01*
X132595000Y-104310000D02*
X132595000Y-105680000D01*
D14*
X155803472Y-138430000D02*
G75*
G03X155803472Y-138430000I-2514472J0D01*
G01*
X140208000Y-135890000D02*
X138430000Y-135890000D01*
X140208000Y-138430000D02*
X138430000Y-138430000D01*
X140208000Y-140970000D02*
X138430000Y-140970000D01*
X148717000Y-143764000D02*
X156718000Y-143764000D01*
X156718000Y-143764000D02*
X156718000Y-133096000D01*
X156718000Y-133096000D02*
X148717000Y-133096000D01*
X140208000Y-143764000D02*
X148717000Y-143764000D01*
X148717000Y-143764000D02*
X148717000Y-133096000D01*
X148717000Y-133096000D02*
X140208000Y-133096000D01*
X140208000Y-138430000D02*
X140208000Y-133096000D01*
X140208000Y-138430000D02*
X140208000Y-143764000D01*
X106047540Y-125476520D02*
X106047540Y-126873520D01*
X106047540Y-121031520D02*
X106047540Y-119507520D01*
X106809540Y-121412520D02*
X105285540Y-121412520D01*
X106809540Y-121158520D02*
X105285540Y-121158520D01*
X106047540Y-120904520D02*
X105285540Y-120904520D01*
X105285540Y-120904520D02*
X105285540Y-125476520D01*
X105285540Y-125476520D02*
X106809540Y-125476520D01*
X106809540Y-125476520D02*
X106809540Y-120904520D01*
X106809540Y-120904520D02*
X106047540Y-120904520D01*
X111122460Y-120903480D02*
X111122460Y-119506480D01*
X111122460Y-125348480D02*
X111122460Y-126872480D01*
X110360460Y-124967480D02*
X111884460Y-124967480D01*
X110360460Y-125221480D02*
X111884460Y-125221480D01*
X111122460Y-125475480D02*
X111884460Y-125475480D01*
X111884460Y-125475480D02*
X111884460Y-120903480D01*
X111884460Y-120903480D02*
X110360460Y-120903480D01*
X110360460Y-120903480D02*
X110360460Y-125475480D01*
X110360460Y-125475480D02*
X111122460Y-125475480D01*
X112649000Y-138420000D02*
X112649000Y-135880000D01*
X112141000Y-138420000D02*
X112141000Y-135880000D01*
X112141000Y-140706000D02*
X111125000Y-140706000D01*
X112141000Y-139690000D02*
X112141000Y-140706000D01*
X112649000Y-139690000D02*
X112141000Y-139690000D01*
X112649000Y-140706000D02*
X112649000Y-139690000D01*
X113665000Y-140706000D02*
X112649000Y-140706000D01*
X113665000Y-140833000D02*
X113665000Y-140706000D01*
X113665000Y-141214000D02*
X113665000Y-140833000D01*
X112649000Y-141214000D02*
X113665000Y-141214000D01*
X112649000Y-142230000D02*
X112649000Y-141214000D01*
X112141000Y-142230000D02*
X112649000Y-142230000D01*
X112141000Y-141214000D02*
X112141000Y-142230000D01*
X111125000Y-141214000D02*
X112141000Y-141214000D01*
X113665000Y-137150000D02*
G75*
G03X113665000Y-137150000I-1270000J0D01*
G01*
X113665000Y-140960000D02*
G75*
G03X113665000Y-140960000I-1270000J0D01*
G01*
X104775000Y-143500000D02*
X117475000Y-143500000D01*
X104775000Y-134610000D02*
X104775000Y-143500000D01*
X117475000Y-134610000D02*
X104775000Y-134610000D01*
X117475000Y-143500000D02*
X117475000Y-134610000D01*
X128524000Y-138430000D02*
X128524000Y-135890000D01*
X128016000Y-138430000D02*
X128016000Y-135890000D01*
X128016000Y-140716000D02*
X127000000Y-140716000D01*
X128016000Y-139700000D02*
X128016000Y-140716000D01*
X128524000Y-139700000D02*
X128016000Y-139700000D01*
X128524000Y-140716000D02*
X128524000Y-139700000D01*
X129540000Y-140716000D02*
X128524000Y-140716000D01*
X129540000Y-140843000D02*
X129540000Y-140716000D01*
X129540000Y-141224000D02*
X129540000Y-140843000D01*
X128524000Y-141224000D02*
X129540000Y-141224000D01*
X128524000Y-142240000D02*
X128524000Y-141224000D01*
X128016000Y-142240000D02*
X128524000Y-142240000D01*
X128016000Y-141224000D02*
X128016000Y-142240000D01*
X127000000Y-141224000D02*
X128016000Y-141224000D01*
X129540000Y-137160000D02*
G75*
G03X129540000Y-137160000I-1270000J0D01*
G01*
X129540000Y-140970000D02*
G75*
G03X129540000Y-140970000I-1270000J0D01*
G01*
X120650000Y-143510000D02*
X133350000Y-143510000D01*
X120650000Y-134620000D02*
X120650000Y-143510000D01*
X133350000Y-134620000D02*
X120650000Y-134620000D01*
X133350000Y-143510000D02*
X133350000Y-134620000D01*
X77361715Y-152411143D02*
X77314096Y-152458762D01*
X77171239Y-152506381D01*
X77076001Y-152506381D01*
X76933143Y-152458762D01*
X76837905Y-152363524D01*
X76790286Y-152268286D01*
X76742667Y-152077810D01*
X76742667Y-151934952D01*
X76790286Y-151744476D01*
X76837905Y-151649238D01*
X76933143Y-151554000D01*
X77076001Y-151506381D01*
X77171239Y-151506381D01*
X77314096Y-151554000D01*
X77361715Y-151601619D01*
X77980762Y-151506381D02*
X78171239Y-151506381D01*
X78266477Y-151554000D01*
X78361715Y-151649238D01*
X78409334Y-151839714D01*
X78409334Y-152173048D01*
X78361715Y-152363524D01*
X78266477Y-152458762D01*
X78171239Y-152506381D01*
X77980762Y-152506381D01*
X77885524Y-152458762D01*
X77790286Y-152363524D01*
X77742667Y-152173048D01*
X77742667Y-151839714D01*
X77790286Y-151649238D01*
X77885524Y-151554000D01*
X77980762Y-151506381D01*
X78837905Y-152506381D02*
X78837905Y-151506381D01*
X79409334Y-152506381D01*
X79409334Y-151506381D01*
X80409334Y-152506381D02*
X79837905Y-152506381D01*
X80123619Y-152506381D02*
X80123619Y-151506381D01*
X80028381Y-151649238D01*
X79933143Y-151744476D01*
X79837905Y-151792095D01*
X91257381Y-149320000D02*
X91257381Y-149129524D01*
X91209762Y-149034285D01*
X91162143Y-148986666D01*
X91019286Y-148891428D01*
X90828810Y-148843809D01*
X90447857Y-148843809D01*
X90352619Y-148891428D01*
X90305000Y-148939047D01*
X90257381Y-149034285D01*
X90257381Y-149224762D01*
X90305000Y-149320000D01*
X90352619Y-149367619D01*
X90447857Y-149415238D01*
X90685952Y-149415238D01*
X90781190Y-149367619D01*
X90828810Y-149320000D01*
X90876429Y-149224762D01*
X90876429Y-149034285D01*
X90828810Y-148939047D01*
X90781190Y-148891428D01*
X90685952Y-148843809D01*
X90257381Y-148558095D02*
X91257381Y-148224762D01*
X90257381Y-147891428D01*
X91257381Y-146796190D02*
X90257381Y-146796190D01*
X90257381Y-146558095D01*
X90305000Y-146415237D01*
X90400238Y-146319999D01*
X90495476Y-146272380D01*
X90685952Y-146224761D01*
X90828810Y-146224761D01*
X91019286Y-146272380D01*
X91114524Y-146319999D01*
X91209762Y-146415237D01*
X91257381Y-146558095D01*
X91257381Y-146796190D01*
X91162143Y-145224761D02*
X91209762Y-145272380D01*
X91257381Y-145415237D01*
X91257381Y-145510475D01*
X91209762Y-145653333D01*
X91114524Y-145748571D01*
X91019286Y-145796190D01*
X90828810Y-145843809D01*
X90685952Y-145843809D01*
X90495476Y-145796190D01*
X90400238Y-145748571D01*
X90305000Y-145653333D01*
X90257381Y-145510475D01*
X90257381Y-145415237D01*
X90305000Y-145272380D01*
X90352619Y-145224761D01*
X80053571Y-109057142D02*
X78553571Y-109057142D01*
X78553571Y-108485714D01*
X78625000Y-108342856D01*
X78696429Y-108271428D01*
X78839286Y-108199999D01*
X79053571Y-108199999D01*
X79196429Y-108271428D01*
X79267857Y-108342856D01*
X79339286Y-108485714D01*
X79339286Y-109057142D01*
X80053571Y-106771428D02*
X80053571Y-107628571D01*
X80053571Y-107199999D02*
X78553571Y-107199999D01*
X78767857Y-107342856D01*
X78910714Y-107485714D01*
X78982143Y-107628571D01*
X95928571Y-111628572D02*
X94428571Y-111628572D01*
X95500000Y-111128572D01*
X94428571Y-110628572D01*
X95928571Y-110628572D01*
X95928571Y-109914286D02*
X94428571Y-109914286D01*
X95928571Y-109200000D02*
X94428571Y-109200000D01*
X94428571Y-108842857D01*
X94500000Y-108628572D01*
X94642857Y-108485714D01*
X94785714Y-108414286D01*
X95071429Y-108342857D01*
X95285714Y-108342857D01*
X95571429Y-108414286D01*
X95714286Y-108485714D01*
X95857143Y-108628572D01*
X95928571Y-108842857D01*
X95928571Y-109200000D01*
X95928571Y-107700000D02*
X94428571Y-107700000D01*
X95928571Y-105842857D02*
X94428571Y-105842857D01*
X95928571Y-105128571D02*
X94428571Y-105128571D01*
X95928571Y-104271428D01*
X94428571Y-104271428D01*
X80053571Y-130647142D02*
X78553571Y-130647142D01*
X78553571Y-130075714D01*
X78625000Y-129932856D01*
X78696429Y-129861428D01*
X78839286Y-129789999D01*
X79053571Y-129789999D01*
X79196429Y-129861428D01*
X79267857Y-129932856D01*
X79339286Y-130075714D01*
X79339286Y-130647142D01*
X78553571Y-129289999D02*
X78553571Y-128361428D01*
X79125000Y-128861428D01*
X79125000Y-128647142D01*
X79196429Y-128504285D01*
X79267857Y-128432856D01*
X79410714Y-128361428D01*
X79767857Y-128361428D01*
X79910714Y-128432856D01*
X79982143Y-128504285D01*
X80053571Y-128647142D01*
X80053571Y-129075714D01*
X79982143Y-129218571D01*
X79910714Y-129289999D01*
X95674571Y-133456572D02*
X94174571Y-133456572D01*
X95246000Y-132956572D01*
X94174571Y-132456572D01*
X95674571Y-132456572D01*
X95674571Y-131742286D02*
X94174571Y-131742286D01*
X95674571Y-131028000D02*
X94174571Y-131028000D01*
X94174571Y-130670857D01*
X94246000Y-130456572D01*
X94388857Y-130313714D01*
X94531714Y-130242286D01*
X94817429Y-130170857D01*
X95031714Y-130170857D01*
X95317429Y-130242286D01*
X95460286Y-130313714D01*
X95603143Y-130456572D01*
X95674571Y-130670857D01*
X95674571Y-131028000D01*
X95674571Y-129528000D02*
X94174571Y-129528000D01*
X94174571Y-127385143D02*
X94174571Y-127099429D01*
X94246000Y-126956571D01*
X94388857Y-126813714D01*
X94674571Y-126742286D01*
X95174571Y-126742286D01*
X95460286Y-126813714D01*
X95603143Y-126956571D01*
X95674571Y-127099429D01*
X95674571Y-127385143D01*
X95603143Y-127528000D01*
X95460286Y-127670857D01*
X95174571Y-127742286D01*
X94674571Y-127742286D01*
X94388857Y-127670857D01*
X94246000Y-127528000D01*
X94174571Y-127385143D01*
X94174571Y-126099428D02*
X95388857Y-126099428D01*
X95531714Y-126028000D01*
X95603143Y-125956571D01*
X95674571Y-125813714D01*
X95674571Y-125528000D01*
X95603143Y-125385142D01*
X95531714Y-125313714D01*
X95388857Y-125242285D01*
X94174571Y-125242285D01*
X94174571Y-124742285D02*
X94174571Y-123885142D01*
X95674571Y-124313713D02*
X94174571Y-124313713D01*
X104816905Y-146462381D02*
X104816905Y-145462381D01*
X105197858Y-145462381D01*
X105293096Y-145510000D01*
X105340715Y-145557619D01*
X105388334Y-145652857D01*
X105388334Y-145795714D01*
X105340715Y-145890952D01*
X105293096Y-145938571D01*
X105197858Y-145986190D01*
X104816905Y-145986190D01*
X105769286Y-145557619D02*
X105816905Y-145510000D01*
X105912143Y-145462381D01*
X106150239Y-145462381D01*
X106245477Y-145510000D01*
X106293096Y-145557619D01*
X106340715Y-145652857D01*
X106340715Y-145748095D01*
X106293096Y-145890952D01*
X105721667Y-146462381D01*
X106340715Y-146462381D01*
X106402143Y-103036666D02*
X106449762Y-103084285D01*
X106497381Y-103227142D01*
X106497381Y-103322380D01*
X106449762Y-103465238D01*
X106354524Y-103560476D01*
X106259286Y-103608095D01*
X106068810Y-103655714D01*
X105925952Y-103655714D01*
X105735476Y-103608095D01*
X105640238Y-103560476D01*
X105545000Y-103465238D01*
X105497381Y-103322380D01*
X105497381Y-103227142D01*
X105545000Y-103084285D01*
X105592619Y-103036666D01*
X106497381Y-102084285D02*
X106497381Y-102655714D01*
X106497381Y-102370000D02*
X105497381Y-102370000D01*
X105640238Y-102465238D01*
X105735476Y-102560476D01*
X105783095Y-102655714D01*
X129262143Y-103036666D02*
X129309762Y-103084285D01*
X129357381Y-103227142D01*
X129357381Y-103322380D01*
X129309762Y-103465238D01*
X129214524Y-103560476D01*
X129119286Y-103608095D01*
X128928810Y-103655714D01*
X128785952Y-103655714D01*
X128595476Y-103608095D01*
X128500238Y-103560476D01*
X128405000Y-103465238D01*
X128357381Y-103322380D01*
X128357381Y-103227142D01*
X128405000Y-103084285D01*
X128452619Y-103036666D01*
X128690714Y-102179523D02*
X129357381Y-102179523D01*
X128309762Y-102417619D02*
X129024048Y-102655714D01*
X129024048Y-102036666D01*
X124284841Y-116308095D02*
X123284841Y-116308095D01*
X123284841Y-116070000D01*
X123332460Y-115927142D01*
X123427698Y-115831904D01*
X123522936Y-115784285D01*
X123713412Y-115736666D01*
X123856270Y-115736666D01*
X124046746Y-115784285D01*
X124141984Y-115831904D01*
X124237222Y-115927142D01*
X124284841Y-116070000D01*
X124284841Y-116308095D01*
X123380079Y-115355714D02*
X123332460Y-115308095D01*
X123284841Y-115212857D01*
X123284841Y-114974761D01*
X123332460Y-114879523D01*
X123380079Y-114831904D01*
X123475317Y-114784285D01*
X123570555Y-114784285D01*
X123713412Y-114831904D01*
X124284841Y-115403333D01*
X124284841Y-114784285D01*
X116657381Y-116308095D02*
X115657381Y-116308095D01*
X115657381Y-116070000D01*
X115705000Y-115927142D01*
X115800238Y-115831904D01*
X115895476Y-115784285D01*
X116085952Y-115736666D01*
X116228810Y-115736666D01*
X116419286Y-115784285D01*
X116514524Y-115831904D01*
X116609762Y-115927142D01*
X116657381Y-116070000D01*
X116657381Y-116308095D01*
X115990714Y-114879523D02*
X116657381Y-114879523D01*
X115609762Y-115117619D02*
X116324048Y-115355714D01*
X116324048Y-114736666D01*
X129367381Y-115736666D02*
X128891190Y-116070000D01*
X129367381Y-116308095D02*
X128367381Y-116308095D01*
X128367381Y-115927142D01*
X128415000Y-115831904D01*
X128462619Y-115784285D01*
X128557857Y-115736666D01*
X128700714Y-115736666D01*
X128795952Y-115784285D01*
X128843571Y-115831904D01*
X128891190Y-115927142D01*
X128891190Y-116308095D01*
X129367381Y-114784285D02*
X129367381Y-115355714D01*
X129367381Y-115070000D02*
X128367381Y-115070000D01*
X128510238Y-115165238D01*
X128605476Y-115260476D01*
X128653095Y-115355714D01*
X134447381Y-115736666D02*
X133971190Y-116070000D01*
X134447381Y-116308095D02*
X133447381Y-116308095D01*
X133447381Y-115927142D01*
X133495000Y-115831904D01*
X133542619Y-115784285D01*
X133637857Y-115736666D01*
X133780714Y-115736666D01*
X133875952Y-115784285D01*
X133923571Y-115831904D01*
X133971190Y-115927142D01*
X133971190Y-116308095D01*
X133542619Y-115355714D02*
X133495000Y-115308095D01*
X133447381Y-115212857D01*
X133447381Y-114974761D01*
X133495000Y-114879523D01*
X133542619Y-114831904D01*
X133637857Y-114784285D01*
X133733095Y-114784285D01*
X133875952Y-114831904D01*
X134447381Y-115403333D01*
X134447381Y-114784285D01*
X142057381Y-115736666D02*
X141581190Y-116070000D01*
X142057381Y-116308095D02*
X141057381Y-116308095D01*
X141057381Y-115927142D01*
X141105000Y-115831904D01*
X141152619Y-115784285D01*
X141247857Y-115736666D01*
X141390714Y-115736666D01*
X141485952Y-115784285D01*
X141533571Y-115831904D01*
X141581190Y-115927142D01*
X141581190Y-116308095D01*
X141390714Y-114879523D02*
X142057381Y-114879523D01*
X141009762Y-115117619D02*
X141724048Y-115355714D01*
X141724048Y-114736666D01*
X147137381Y-115736666D02*
X146661190Y-116070000D01*
X147137381Y-116308095D02*
X146137381Y-116308095D01*
X146137381Y-115927142D01*
X146185000Y-115831904D01*
X146232619Y-115784285D01*
X146327857Y-115736666D01*
X146470714Y-115736666D01*
X146565952Y-115784285D01*
X146613571Y-115831904D01*
X146661190Y-115927142D01*
X146661190Y-116308095D01*
X146137381Y-114831904D02*
X146137381Y-115308095D01*
X146613571Y-115355714D01*
X146565952Y-115308095D01*
X146518333Y-115212857D01*
X146518333Y-114974761D01*
X146565952Y-114879523D01*
X146613571Y-114831904D01*
X146708810Y-114784285D01*
X146946905Y-114784285D01*
X147042143Y-114831904D01*
X147089762Y-114879523D01*
X147137381Y-114974761D01*
X147137381Y-115212857D01*
X147089762Y-115308095D01*
X147042143Y-115355714D01*
X108187381Y-107441905D02*
X108996905Y-107441905D01*
X109092143Y-107394286D01*
X109139762Y-107346667D01*
X109187381Y-107251429D01*
X109187381Y-107060952D01*
X109139762Y-106965714D01*
X109092143Y-106918095D01*
X108996905Y-106870476D01*
X108187381Y-106870476D01*
X109187381Y-105870476D02*
X109187381Y-106441905D01*
X109187381Y-106156191D02*
X108187381Y-106156191D01*
X108330238Y-106251429D01*
X108425476Y-106346667D01*
X108473095Y-106441905D01*
X131047381Y-107441905D02*
X131856905Y-107441905D01*
X131952143Y-107394286D01*
X131999762Y-107346667D01*
X132047381Y-107251429D01*
X132047381Y-107060952D01*
X131999762Y-106965714D01*
X131952143Y-106918095D01*
X131856905Y-106870476D01*
X131047381Y-106870476D01*
X131142619Y-106441905D02*
X131095000Y-106394286D01*
X131047381Y-106299048D01*
X131047381Y-106060952D01*
X131095000Y-105965714D01*
X131142619Y-105918095D01*
X131237857Y-105870476D01*
X131333095Y-105870476D01*
X131475952Y-105918095D01*
X132047381Y-106489524D01*
X132047381Y-105870476D01*
X140843095Y-131532381D02*
X140843095Y-132341905D01*
X140890714Y-132437143D01*
X140938333Y-132484762D01*
X141033571Y-132532381D01*
X141224048Y-132532381D01*
X141319286Y-132484762D01*
X141366905Y-132437143D01*
X141414524Y-132341905D01*
X141414524Y-131532381D01*
X141795476Y-131532381D02*
X142414524Y-131532381D01*
X142081190Y-131913333D01*
X142224048Y-131913333D01*
X142319286Y-131960952D01*
X142366905Y-132008571D01*
X142414524Y-132103810D01*
X142414524Y-132341905D01*
X142366905Y-132437143D01*
X142319286Y-132484762D01*
X142224048Y-132532381D01*
X141938333Y-132532381D01*
X141843095Y-132484762D01*
X141795476Y-132437143D01*
X106497381Y-116308095D02*
X105497381Y-116308095D01*
X105497381Y-116070000D01*
X105545000Y-115927142D01*
X105640238Y-115831904D01*
X105735476Y-115784285D01*
X105925952Y-115736666D01*
X106068810Y-115736666D01*
X106259286Y-115784285D01*
X106354524Y-115831904D01*
X106449762Y-115927142D01*
X106497381Y-116070000D01*
X106497381Y-116308095D01*
X106497381Y-114784285D02*
X106497381Y-115355714D01*
X106497381Y-115070000D02*
X105497381Y-115070000D01*
X105640238Y-115165238D01*
X105735476Y-115260476D01*
X105783095Y-115355714D01*
X111577381Y-116308095D02*
X110577381Y-116308095D01*
X110577381Y-116070000D01*
X110625000Y-115927142D01*
X110720238Y-115831904D01*
X110815476Y-115784285D01*
X111005952Y-115736666D01*
X111148810Y-115736666D01*
X111339286Y-115784285D01*
X111434524Y-115831904D01*
X111529762Y-115927142D01*
X111577381Y-116070000D01*
X111577381Y-116308095D01*
X110577381Y-115403333D02*
X110577381Y-114784285D01*
X110958333Y-115117619D01*
X110958333Y-114974761D01*
X111005952Y-114879523D01*
X111053571Y-114831904D01*
X111148810Y-114784285D01*
X111386905Y-114784285D01*
X111482143Y-114831904D01*
X111529762Y-114879523D01*
X111577381Y-114974761D01*
X111577381Y-115260476D01*
X111529762Y-115355714D01*
X111482143Y-115403333D01*
X116038334Y-133697143D02*
X115990715Y-133744762D01*
X115847858Y-133792381D01*
X115752620Y-133792381D01*
X115609762Y-133744762D01*
X115514524Y-133649524D01*
X115466905Y-133554286D01*
X115419286Y-133363810D01*
X115419286Y-133220952D01*
X115466905Y-133030476D01*
X115514524Y-132935238D01*
X115609762Y-132840000D01*
X115752620Y-132792381D01*
X115847858Y-132792381D01*
X115990715Y-132840000D01*
X116038334Y-132887619D01*
X116419286Y-132887619D02*
X116466905Y-132840000D01*
X116562143Y-132792381D01*
X116800239Y-132792381D01*
X116895477Y-132840000D01*
X116943096Y-132887619D01*
X116990715Y-132982857D01*
X116990715Y-133078095D01*
X116943096Y-133220952D01*
X116371667Y-133792381D01*
X116990715Y-133792381D01*
X105767381Y-142682381D02*
X105195952Y-142682381D01*
X105481666Y-142682381D02*
X105481666Y-141682381D01*
X105386428Y-141825238D01*
X105291190Y-141920476D01*
X105195952Y-141968095D01*
X106386428Y-141682381D02*
X106481667Y-141682381D01*
X106576905Y-141730000D01*
X106624524Y-141777619D01*
X106672143Y-141872857D01*
X106719762Y-142063333D01*
X106719762Y-142301429D01*
X106672143Y-142491905D01*
X106624524Y-142587143D01*
X106576905Y-142634762D01*
X106481667Y-142682381D01*
X106386428Y-142682381D01*
X106291190Y-142634762D01*
X106243571Y-142587143D01*
X106195952Y-142491905D01*
X106148333Y-142301429D01*
X106148333Y-142063333D01*
X106195952Y-141872857D01*
X106243571Y-141777619D01*
X106291190Y-141730000D01*
X106386428Y-141682381D01*
X107338809Y-141682381D02*
X107434048Y-141682381D01*
X107529286Y-141730000D01*
X107576905Y-141777619D01*
X107624524Y-141872857D01*
X107672143Y-142063333D01*
X107672143Y-142301429D01*
X107624524Y-142491905D01*
X107576905Y-142587143D01*
X107529286Y-142634762D01*
X107434048Y-142682381D01*
X107338809Y-142682381D01*
X107243571Y-142634762D01*
X107195952Y-142587143D01*
X107148333Y-142491905D01*
X107100714Y-142301429D01*
X107100714Y-142063333D01*
X107148333Y-141872857D01*
X107195952Y-141777619D01*
X107243571Y-141730000D01*
X107338809Y-141682381D01*
X108529286Y-142015714D02*
X108529286Y-142682381D01*
X108100714Y-142015714D02*
X108100714Y-142539524D01*
X108148333Y-142634762D01*
X108243571Y-142682381D01*
X108386429Y-142682381D01*
X108481667Y-142634762D01*
X108529286Y-142587143D01*
X109338810Y-142158571D02*
X109005476Y-142158571D01*
X109005476Y-142682381D02*
X109005476Y-141682381D01*
X109481667Y-141682381D01*
X131913334Y-133707143D02*
X131865715Y-133754762D01*
X131722858Y-133802381D01*
X131627620Y-133802381D01*
X131484762Y-133754762D01*
X131389524Y-133659524D01*
X131341905Y-133564286D01*
X131294286Y-133373810D01*
X131294286Y-133230952D01*
X131341905Y-133040476D01*
X131389524Y-132945238D01*
X131484762Y-132850000D01*
X131627620Y-132802381D01*
X131722858Y-132802381D01*
X131865715Y-132850000D01*
X131913334Y-132897619D01*
X132246667Y-132802381D02*
X132865715Y-132802381D01*
X132532381Y-133183333D01*
X132675239Y-133183333D01*
X132770477Y-133230952D01*
X132818096Y-133278571D01*
X132865715Y-133373810D01*
X132865715Y-133611905D01*
X132818096Y-133707143D01*
X132770477Y-133754762D01*
X132675239Y-133802381D01*
X132389524Y-133802381D01*
X132294286Y-133754762D01*
X132246667Y-133707143D01*
X122118572Y-142692381D02*
X121547143Y-142692381D01*
X121832857Y-142692381D02*
X121832857Y-141692381D01*
X121737619Y-141835238D01*
X121642381Y-141930476D01*
X121547143Y-141978095D01*
X122737619Y-141692381D02*
X122832858Y-141692381D01*
X122928096Y-141740000D01*
X122975715Y-141787619D01*
X123023334Y-141882857D01*
X123070953Y-142073333D01*
X123070953Y-142311429D01*
X123023334Y-142501905D01*
X122975715Y-142597143D01*
X122928096Y-142644762D01*
X122832858Y-142692381D01*
X122737619Y-142692381D01*
X122642381Y-142644762D01*
X122594762Y-142597143D01*
X122547143Y-142501905D01*
X122499524Y-142311429D01*
X122499524Y-142073333D01*
X122547143Y-141882857D01*
X122594762Y-141787619D01*
X122642381Y-141740000D01*
X122737619Y-141692381D01*
X123928096Y-142025714D02*
X123928096Y-142692381D01*
X123499524Y-142025714D02*
X123499524Y-142549524D01*
X123547143Y-142644762D01*
X123642381Y-142692381D01*
X123785239Y-142692381D01*
X123880477Y-142644762D01*
X123928096Y-142597143D01*
X124737620Y-142168571D02*
X124404286Y-142168571D01*
X124404286Y-142692381D02*
X124404286Y-141692381D01*
X124880477Y-141692381D01*
M02*
