G04 #@! TF.FileFunction,Profile,NP*
%FSLAX46Y46*%
G04 Gerber Fmt 4.6, Leading zero omitted, Abs format (unit mm)*
G04 Created by KiCad (PCBNEW 4.0.2-stable) date maandag 04 september 2017 19:35:40*
%MOMM*%
G01*
G04 APERTURE LIST*
%ADD10C,0.100000*%
%ADD11C,0.150000*%
G04 APERTURE END LIST*
D10*
D11*
X74305000Y-97130000D02*
X74305000Y-154130000D01*
X163305000Y-154130000D02*
X163305000Y-97130000D01*
X45771666Y-111930000D02*
G75*
G03X45771666Y-111930000I-1666666J0D01*
G01*
X41605000Y-111930000D02*
X46605000Y-111930000D01*
X44105000Y-109430000D02*
X44105000Y-114430000D01*
X161401666Y-150040000D02*
G75*
G03X161401666Y-150040000I-1666666J0D01*
G01*
X157235000Y-150040000D02*
X162235000Y-150040000D01*
X159735000Y-147540000D02*
X159735000Y-152540000D01*
X161261666Y-150050000D02*
G75*
G03X161261666Y-150050000I-1666666J0D01*
G01*
X157095000Y-150050000D02*
X162095000Y-150050000D01*
X159595000Y-147550000D02*
X159595000Y-152550000D01*
X161171666Y-150050000D02*
G75*
G03X161171666Y-150050000I-1666666J0D01*
G01*
X157005000Y-150050000D02*
X162005000Y-150050000D01*
X159505000Y-147550000D02*
X159505000Y-152550000D01*
X161261666Y-150050000D02*
G75*
G03X161261666Y-150050000I-1666666J0D01*
G01*
X157095000Y-150050000D02*
X162095000Y-150050000D01*
X159595000Y-147550000D02*
X159595000Y-152550000D01*
X161061666Y-149970000D02*
G75*
G03X161061666Y-149970000I-1666666J0D01*
G01*
X156895000Y-149970000D02*
X161895000Y-149970000D01*
X159395000Y-147470000D02*
X159395000Y-152470000D01*
X74305000Y-97130000D02*
X163305000Y-97130000D01*
X163305000Y-154130000D02*
X74305000Y-154130000D01*
M02*
