M48
;DRILL file {KiCad 4.0.2-stable} date woensdag 06 september 2017 16:40:08
;FORMAT={-:-/ absolute / inch / decimal}
FMAT,2
INCH,TZ
T1C0.031
T2C0.039
T3C0.039
T4C0.055
T5C0.120
%
G90
G05
M72
T1
X4.275Y-5.95
X4.375Y-4.05
X4.375Y-4.35
X4.475Y-4.05
X4.475Y-4.35
X4.575Y-4.05
X4.575Y-4.35
X4.675Y-4.05
X4.675Y-4.35
X5.275Y-4.05
X5.275Y-4.35
X5.375Y-4.05
X5.375Y-4.35
X5.475Y-4.05
X5.475Y-4.35
X5.575Y-4.05
X5.575Y-4.35
X5.675Y-4.05
X5.675Y-4.35
X5.775Y-4.05
X5.775Y-4.35
X5.875Y-4.05
X5.875Y-4.35
T2
X4.175Y-4.15
X4.175Y-4.3469
X4.175Y-5.85
X4.175Y-5.95
X4.1751Y-4.65
X4.1751Y-5.05
X4.275Y-5.85
X4.275Y-5.95
X4.3749Y-4.65
X4.3749Y-5.05
X4.375Y-5.85
X4.375Y-5.95
X4.475Y-5.85
X4.475Y-5.95
X4.575Y-4.65
X4.575Y-5.05
X4.575Y-5.4
X4.575Y-5.5496
X4.575Y-5.85
X4.575Y-5.95
X4.675Y-5.85
X4.675Y-5.95
X4.775Y-5.85
X4.775Y-5.95
X4.875Y-5.85
X4.875Y-5.95
X4.8753Y-4.65
X4.8753Y-5.05
X4.975Y-5.85
X4.975Y-5.95
X5.075Y-4.15
X5.075Y-4.3469
X5.075Y-5.85
X5.075Y-5.95
X5.175Y-5.85
X5.175Y-5.95
X5.2Y-5.4004
X5.2Y-5.55
X5.275Y-5.85
X5.275Y-5.95
X5.375Y-5.85
X5.375Y-5.95
X5.475Y-5.85
X5.475Y-5.95
X5.575Y-5.85
X5.575Y-5.95
X5.675Y-5.85
X5.675Y-5.95
X5.775Y-5.85
X5.775Y-5.95
X5.875Y-5.85
X5.875Y-5.95
X5.975Y-5.85
X5.975Y-5.95
X6.075Y-5.85
X6.075Y-5.95
T3
X5.0754Y-4.65
X5.0754Y-5.05
X5.2754Y-4.65
X5.2754Y-5.05
X5.375Y-5.35
X5.375Y-5.45
X5.375Y-5.55
X5.575Y-4.65
X5.575Y-5.05
X5.775Y-4.65
X5.775Y-5.05
T4
X3.025Y-4.05
X3.025Y-4.14
X3.025Y-4.35
X3.025Y-4.45
X3.025Y-4.9
X3.025Y-4.99
X3.025Y-5.2
X3.025Y-5.3
X3.425Y-3.95
X3.425Y-4.25
X3.425Y-4.55
X3.425Y-4.8
X3.425Y-5.1
X3.425Y-5.4
X3.525Y-4.05
X3.525Y-4.45
X3.525Y-4.9
X3.525Y-5.3
X3.625Y-3.95
X3.625Y-4.55
X3.625Y-4.8
X3.625Y-5.4
T5
X3.9785Y-3.9768
X3.9785Y-5.9059
X6.262Y-3.9768
X6.262Y-5.9059
T2
X3.19Y-5.7206G85X3.19Y-5.7994
G05
X3.2687Y-5.945G85X3.3475Y-5.945
G05
X3.4262Y-5.7206G85X3.4262Y-5.7994
G05
T0
M30
