M48
;DRILL file {KiCad 4.0.2-stable} date maandag 04 september 2017 19:35:44
;FORMAT={-:-/ absolute / metric / decimal}
FMAT,2
METRIC,TZ
T1C0.800
T2C1.000
T3C1.001
T4C1.400
T5C3.048
%
G90
G05
M71
T1
X108.585Y-151.13
X111.125Y-102.87
X111.125Y-110.49
X113.665Y-102.87
X113.665Y-110.49
X116.205Y-102.87
X116.205Y-110.49
X118.745Y-102.87
X118.745Y-110.49
X133.985Y-102.87
X133.985Y-110.49
X136.525Y-102.87
X136.525Y-110.49
X139.065Y-102.87
X139.065Y-110.49
X141.605Y-102.87
X141.605Y-110.49
X144.145Y-102.87
X144.145Y-110.49
X146.685Y-102.87
X146.685Y-110.49
X149.225Y-102.87
X149.225Y-110.49
T2
X106.045Y-105.41
X106.045Y-110.41
X106.045Y-148.59
X106.045Y-151.13
X106.048Y-118.111
X106.048Y-128.271
X108.585Y-148.59
X108.585Y-151.13
X111.122Y-118.109
X111.122Y-128.269
X111.125Y-148.59
X111.125Y-151.13
X113.665Y-148.59
X113.665Y-151.13
X116.205Y-118.11
X116.205Y-128.27
X116.205Y-137.16
X116.205Y-140.96
X116.205Y-148.59
X116.205Y-151.13
X118.745Y-148.59
X118.745Y-151.13
X121.285Y-148.59
X121.285Y-151.13
X123.825Y-148.59
X123.825Y-151.13
X123.832Y-118.109
X123.832Y-128.269
X126.365Y-148.59
X126.365Y-151.13
X128.905Y-105.41
X128.905Y-110.41
X128.905Y-148.59
X128.905Y-151.13
X131.445Y-148.59
X131.445Y-151.13
X132.08Y-137.17
X132.08Y-140.97
X133.985Y-148.59
X133.985Y-151.13
X136.525Y-148.59
X136.525Y-151.13
X139.065Y-148.59
X139.065Y-151.13
X141.605Y-148.59
X141.605Y-151.13
X144.145Y-148.59
X144.145Y-151.13
X146.685Y-148.59
X146.685Y-151.13
X149.225Y-148.59
X149.225Y-151.13
X151.765Y-148.59
X151.765Y-151.13
X154.305Y-148.59
X154.305Y-151.13
T3
X128.915Y-118.11
X128.915Y-128.27
X133.995Y-118.11
X133.995Y-128.27
X136.525Y-135.89
X136.525Y-138.43
X136.525Y-140.97
X141.605Y-118.11
X141.605Y-128.27
X146.685Y-118.11
X146.685Y-128.27
T4
X76.835Y-102.87
X76.835Y-105.156
X76.835Y-110.49
X76.835Y-113.03
X76.835Y-124.46
X76.835Y-126.746
X76.835Y-132.08
X76.835Y-134.62
X86.995Y-100.33
X86.995Y-107.95
X86.995Y-115.57
X86.995Y-121.92
X86.995Y-129.54
X86.995Y-137.16
X89.535Y-102.87
X89.535Y-113.03
X89.535Y-124.46
X89.535Y-134.62
X92.075Y-100.33
X92.075Y-115.57
X92.075Y-121.92
X92.075Y-137.16
T5
X101.055Y-101.01
X101.055Y-150.01
X159.055Y-101.01
X159.055Y-150.01
T2
X81.026Y-145.304G85X81.026Y-147.304
G05
X83.026Y-151.004G85X85.026Y-151.004
G05
X87.026Y-145.304G85X87.026Y-147.304
G05
T0
M30
