M48
;DRILL file {KiCad 4.0.2-stable} date woensdag 06 september 2017 16:50:40
;FORMAT={-:-/ absolute / inch / decimal}
FMAT,2
INCH,TZ
T1C0.016
T2C0.031
T3C0.032
T4C0.039
T5C0.039
T6C0.040
T7C0.047
T8C0.055
T9C0.066
T10C0.071
T11C0.091
T12C0.120
T13C0.126
%
G90
G05
M72
T1
X1.3504Y-3.55
X1.4254Y-3.475
X2.5004Y-3.65
X2.5254Y-3.5
X2.5504Y-3.475
X3.625Y-3.275
X3.7754Y-4.6
X3.8254Y-4.575
X3.9254Y-3.4
X4.5004Y-3.975
X4.5504Y-3.975
X5.0004Y-3.95
T2
X1.4Y-3.8
X1.4Y-4.4
X1.5Y-3.8
X1.5Y-4.4
X1.6Y-3.8
X1.6Y-4.4
X1.7Y-3.8
X1.7Y-4.4
X1.8Y-3.8
X1.8Y-4.4
X1.9Y-3.8
X1.9Y-4.4
X2.Y-3.8
X2.Y-4.4
X2.1Y-3.8
X2.1Y-4.4
X2.2Y-3.8
X2.2Y-4.4
X2.3Y-3.8
X2.3Y-4.4
X2.4Y-3.8
X2.4Y-4.4
X2.5Y-3.8
X2.5Y-4.4
X2.6Y-3.8
X2.6Y-4.4
X2.7Y-3.8
X2.7Y-4.4
X2.9504Y-4.325
X2.9504Y-4.45
X3.025Y-3.8
X3.025Y-3.9
X3.025Y-4.
X3.025Y-4.1
X3.0504Y-4.325
X3.0504Y-4.45
X3.1504Y-4.325
X3.1504Y-4.45
X3.2504Y-4.325
X3.2504Y-4.45
X3.325Y-3.8
X3.325Y-3.9
X3.325Y-4.
X3.325Y-4.1
X3.3504Y-4.325
X3.3504Y-4.45
X3.4504Y-4.325
X3.4504Y-4.45
X3.5504Y-4.325
X3.5504Y-4.45
X3.5657Y-3.7
X3.5657Y-3.8
X3.5657Y-3.9
X3.6504Y-4.325
X3.6504Y-4.45
X3.9504Y-4.325
X3.9504Y-4.45
X4.0504Y-4.325
X4.0504Y-4.45
X4.0776Y-3.7
X4.0776Y-3.8
X4.0776Y-3.9
X4.1504Y-4.325
X4.1504Y-4.45
X4.2504Y-4.325
X4.2504Y-4.45
X4.3504Y-4.325
X4.3504Y-4.45
X4.4504Y-4.325
X4.4504Y-4.45
X4.5504Y-4.325
X4.5504Y-4.45
X4.6504Y-4.325
X4.6504Y-4.45
X4.9754Y-4.275
X4.9754Y-4.375
X4.9754Y-4.475
X5.125Y-3.8
X5.125Y-3.9
X5.125Y-4.
X5.125Y-4.1
X5.425Y-3.8
X5.425Y-3.9
X5.425Y-4.
X5.425Y-4.1
X5.4254Y-4.275
X5.4254Y-4.375
X5.4254Y-4.475
X6.525Y-3.8
X6.525Y-3.9
X6.525Y-4.
X6.525Y-4.1
X6.825Y-3.8
X6.825Y-3.9
X6.825Y-4.
X6.825Y-4.1
X7.8004Y-4.936
X7.8504Y-4.836
X7.9004Y-4.936
X7.9504Y-4.836
X8.0054Y-4.936
X8.0504Y-4.836
X8.1004Y-4.936
X8.1504Y-4.831
X8.85Y-3.825
X8.85Y-3.925
X8.85Y-4.025
T3
X1.375Y-5.0024
X1.375Y-5.0811
X1.475Y-5.0024
X1.475Y-5.0811
T4
X1.4035Y-4.525
X1.6004Y-4.525
X2.8254Y-4.
X2.8254Y-4.1
X2.8254Y-4.325
X3.0781Y-3.6583
X3.275Y-3.6583
X4.9751Y-3.7
X4.9751Y-4.1
X5.1785Y-3.65
X5.3754Y-3.65
X6.3504Y-3.7
X6.3504Y-4.1
X6.575Y-3.6583
X6.7719Y-3.6583
X7.9Y-3.85
X7.9Y-3.9996
X7.9Y-4.325
X7.9Y-4.4746
X7.9004Y-3.35
X7.9004Y-3.4996
X8.2005Y-4.2
X8.2005Y-4.6
X8.3755Y-4.2
X8.3755Y-4.6
X8.4254Y-3.35
X8.4254Y-3.4996
X8.5255Y-4.2
X8.5255Y-4.6
X8.6755Y-4.2
X8.6755Y-4.6
X8.8255Y-4.2
X8.8255Y-4.6
X8.9755Y-4.2
X8.9755Y-4.6
T5
X3.725Y-3.7
X3.725Y-4.1
X3.875Y-3.7
X3.875Y-4.1
X4.225Y-3.7
X4.225Y-4.1
X4.375Y-3.7
X4.375Y-4.1
X4.525Y-3.7
X4.525Y-4.1
X4.675Y-3.7
X4.675Y-4.1
X4.825Y-3.7
X4.825Y-4.1
X5.1254Y-4.275
X5.1254Y-4.675
X5.2754Y-4.275
X5.2754Y-4.675
X5.6Y-3.7
X5.6Y-4.1
X5.6004Y-4.275
X5.6004Y-4.675
X5.7504Y-3.7
X5.7504Y-4.1
X5.7504Y-4.275
X5.7504Y-4.675
X5.9004Y-3.7
X5.9004Y-4.1
X6.2004Y-3.7
X6.2004Y-4.1
X6.6754Y-4.35
X6.6754Y-4.45
X6.6754Y-4.55
X7.0254Y-3.7
X7.0254Y-4.1
X7.2004Y-3.7
X7.2004Y-4.1
X7.3504Y-3.7
X7.3504Y-4.1
X7.6004Y-4.35
X7.6004Y-4.45
X7.6004Y-4.55
X8.275Y-3.95
X8.2754Y-3.7
X8.2754Y-3.825
X8.675Y-3.95
X8.6754Y-3.7
X8.6754Y-3.825
T6
X1.2504Y-4.3
X1.2504Y-4.4
X1.525Y-3.275
X1.625Y-3.275
X1.725Y-3.275
X1.825Y-3.275
X1.925Y-3.275
X2.25Y-3.275
X2.35Y-3.275
X2.45Y-3.275
X2.55Y-3.275
X2.65Y-3.275
X3.025Y-3.275
X3.125Y-3.275
X3.225Y-3.275
X3.325Y-3.275
X3.625Y-3.275
X3.725Y-3.275
X3.825Y-3.275
X3.925Y-3.275
X4.2Y-3.275
X4.3Y-3.275
X4.4Y-3.275
X4.5Y-3.275
X4.6Y-3.275
X4.7Y-3.275
X4.8Y-3.275
X4.9Y-3.275
X5.2Y-3.275
X5.2Y-3.375
X5.3Y-3.275
X5.3Y-3.375
X5.4Y-3.275
X5.4Y-3.375
X5.5Y-3.275
X5.5Y-3.375
X5.6Y-3.275
X5.6Y-3.375
X5.7Y-3.275
X5.7Y-3.375
X5.8Y-3.275
X5.8Y-3.375
X5.9Y-3.275
X5.9Y-3.375
X6.Y-3.275
X6.Y-3.375
X6.1Y-3.275
X6.1Y-3.375
X6.2Y-3.275
X6.2Y-3.375
X6.3Y-3.275
X6.3Y-3.375
X6.4Y-3.275
X6.5Y-3.275
X6.6Y-3.275
X8.7583Y-3.2677
X8.8583Y-3.2677
T7
X7.7154Y-4.986
T8
X4.9004Y-4.8083
X4.9004Y-5.0083
X5.0004Y-4.9083
X5.0004Y-5.4083
X5.0904Y-5.4083
X5.2004Y-5.0083
X5.3004Y-5.4083
X5.4004Y-4.9083
X5.4004Y-5.4083
X5.5004Y-4.8083
X5.5004Y-5.0083
X5.8004Y-5.0083
X5.9004Y-4.9083
X5.9004Y-5.4083
X5.9904Y-5.4083
X6.1004Y-5.0083
X6.2004Y-5.4083
X6.3004Y-4.9083
X6.3004Y-5.4083
X6.4004Y-5.0083
X6.6989Y-4.8085
X6.6989Y-5.0085
X6.7989Y-4.9085
X6.7989Y-5.4085
X6.8889Y-5.4085
X6.9989Y-5.0085
X7.0989Y-5.4085
X7.1989Y-4.9085
X7.1989Y-5.4085
X7.2989Y-4.8085
X7.2989Y-5.0085
T9
X1.85Y-4.85
X1.85Y-5.1059
X1.85Y-5.3563
X2.3Y-4.85
X2.3Y-5.1059
X2.3Y-5.3563
X2.6354Y-4.85
X2.6354Y-5.1059
X2.6354Y-5.3563
X3.0854Y-4.85
X3.0854Y-5.1059
X3.0854Y-5.3563
X3.4104Y-4.85
X3.4104Y-5.1059
X3.4104Y-5.3563
X3.8604Y-4.85
X3.8604Y-5.1059
X3.8604Y-5.3563
X4.1854Y-4.85
X4.1854Y-5.1059
X4.1854Y-5.3563
X4.6354Y-4.85
X4.6354Y-5.1059
X4.6354Y-5.3563
T10
X9.052Y-5.1098
X9.052Y-5.3067
X9.3472Y-5.1098
X9.3472Y-5.3067
T11
X1.1888Y-5.1874
X1.6612Y-5.1874
T12
X1.2795Y-3.3465
X1.3Y-4.675
X9.1925Y-4.9213
T13
X9.1925Y-3.3465
T5
X8.661Y-5.0309G85X8.7397Y-5.0309
G05
X8.661Y-5.2671G85X8.7397Y-5.2671
G05
X8.8854Y-5.1883G85X8.8854Y-5.1097
G05
T0
M30
