M48
;DRILL file {KiCad 4.0.2-stable} date 2-10-2019 17:22:51
;FORMAT={3:3/ absolute / metric / suppress leading zeros}
FMAT,2
METRIC,TZ
T1C0.400
T2C0.800
T3C0.813
T4C1.000
T5C1.001
T6C1.016
T7C1.200
T8C1.400
T9C1.676
T10C1.800
T11C2.301
T12C3.048
T13C3.200
T14C1.549
T15C2.184
T16C3.000
T17C3.500
%
G90
G05
M71
T1
X34300Y-90170
X36205Y-88265
X63510Y-92710
X64145Y-88900
X64780Y-88265
X92075Y-83185
X95895Y-116840
X97165Y-116205
X99705Y-86360
X114310Y-100965
X115580Y-100965
X127010Y-100330
T2
X35560Y-96520
X35560Y-111760
X38100Y-96520
X38100Y-111760
X40640Y-96520
X40640Y-111760
X43180Y-96520
X43180Y-111760
X45720Y-96520
X45720Y-111760
X48260Y-96520
X48260Y-111760
X50800Y-96520
X50800Y-111760
X53340Y-96520
X53340Y-111760
X55880Y-96520
X55880Y-111760
X58420Y-96520
X58420Y-111760
X60960Y-96520
X60960Y-111760
X63500Y-96520
X63500Y-111760
X66040Y-96520
X66040Y-111760
X68580Y-96520
X68580Y-111760
X74940Y-109855
X74940Y-113030
X76835Y-96520
X76835Y-99060
X76835Y-101600
X76835Y-104140
X77480Y-109855
X77480Y-113030
X80020Y-109855
X80020Y-113030
X82560Y-109855
X82560Y-113030
X84455Y-96520
X84455Y-99060
X84455Y-101600
X84455Y-104140
X85100Y-109855
X85100Y-113030
X87640Y-109855
X87640Y-113030
X90180Y-109855
X90180Y-113030
X90570Y-93980
X90570Y-96520
X90570Y-99060
X92720Y-109855
X92720Y-113030
X100340Y-109855
X100340Y-113030
X102880Y-109855
X102880Y-113030
X103570Y-93980
X103570Y-96520
X103570Y-99060
X105420Y-109855
X105420Y-113030
X107960Y-109855
X107960Y-113030
X110500Y-109855
X110500Y-113030
X113040Y-109855
X113040Y-113030
X115580Y-109855
X115580Y-113030
X118120Y-109855
X118120Y-113030
X126375Y-108585
X126375Y-111125
X126375Y-113665
X130175Y-96520
X130175Y-99060
X130175Y-101600
X130175Y-104140
X137795Y-96520
X137795Y-99060
X137795Y-101600
X137795Y-104140
X137805Y-108585
X137805Y-111125
X137805Y-113665
X165735Y-96520
X165735Y-99060
X165735Y-101600
X165735Y-104140
X173355Y-96520
X173355Y-99060
X173355Y-101600
X173355Y-104140
X198130Y-125374
X199400Y-122834
X200670Y-125374
X201940Y-122834
X203337Y-125374
X204480Y-122834
X205750Y-125374
X207020Y-122707
X224790Y-97155
X224790Y-99695
X224790Y-102235
T3
X34925Y-127061
X34925Y-129060
X37465Y-127061
X37465Y-129060
T4
X35650Y-114935
X40650Y-114935
X71765Y-101600
X71765Y-104140
X71765Y-109855
X78185Y-92920
X83185Y-92920
X126368Y-93981
X126368Y-104141
X131535Y-92710
X136535Y-92710
X161300Y-93980
X161300Y-104140
X167005Y-92920
X172005Y-92920
X200660Y-97790
X200660Y-101590
X200660Y-109855
X200660Y-113655
X200670Y-85090
X200670Y-88890
X208293Y-106681
X208293Y-116841
X212738Y-106681
X212738Y-116841
X214005Y-85090
X214005Y-88890
X216548Y-106681
X216548Y-116841
X220358Y-106681
X220358Y-116841
X224168Y-106681
X224168Y-116841
X227978Y-106681
X227978Y-116841
T5
X94615Y-93980
X94615Y-104140
X98425Y-93980
X98425Y-104140
X107315Y-93980
X107315Y-104140
X111125Y-93980
X111125Y-104140
X114935Y-93980
X114935Y-104140
X118745Y-93980
X118745Y-104140
X122555Y-93980
X122555Y-104140
X130185Y-108585
X130185Y-118745
X133995Y-108585
X133995Y-118745
X142240Y-93980
X142240Y-104140
X142250Y-108585
X142250Y-118745
X146060Y-93980
X146060Y-104140
X146060Y-108585
X146060Y-118745
X149870Y-93980
X149870Y-104140
X157490Y-93980
X157490Y-104140
X169555Y-110490
X169555Y-113030
X169555Y-115570
X178445Y-93980
X178445Y-104140
X182890Y-93980
X182890Y-104140
X186700Y-93980
X186700Y-104140
X193050Y-110490
X193050Y-113030
X193050Y-115570
X210185Y-100330
X210195Y-93980
X210195Y-97155
X220345Y-100330
X220355Y-93980
X220355Y-97155
T6
X31760Y-109220
X31760Y-111760
X38735Y-83185
X41275Y-83185
X43815Y-83185
X46355Y-83185
X48895Y-83185
X57150Y-83185
X59690Y-83185
X62230Y-83185
X64770Y-83185
X67310Y-83185
X76835Y-83185
X79375Y-83185
X81915Y-83185
X84455Y-83185
X92075Y-83185
X94615Y-83185
X97155Y-83185
X99695Y-83185
X106680Y-83185
X109220Y-83185
X111760Y-83185
X114300Y-83185
X116840Y-83185
X119380Y-83185
X121920Y-83185
X124460Y-83185
X132080Y-83185
X132080Y-85725
X134620Y-83185
X134620Y-85725
X137160Y-83185
X137160Y-85725
X139700Y-83185
X139700Y-85725
X142240Y-83185
X142240Y-85725
X144780Y-83185
X144780Y-85725
X147320Y-83185
X147320Y-85725
X149860Y-83185
X149860Y-85725
X152400Y-83185
X152400Y-85725
X154940Y-83185
X154940Y-85725
X157480Y-83185
X157480Y-85725
X160020Y-83185
X160020Y-85725
X162560Y-83185
X165100Y-83185
X167640Y-83185
X222460Y-83000
X225000Y-83000
T7
X195971Y-126644
T8
X124470Y-122130
X124470Y-127210
X127010Y-124670
X127010Y-137370
X129296Y-137370
X132090Y-127210
X134630Y-137370
X137170Y-124670
X137170Y-137370
X139710Y-122130
X139710Y-127210
X147330Y-127210
X149870Y-124670
X149870Y-137370
X152156Y-137370
X154950Y-127210
X157490Y-137370
X160030Y-124670
X160030Y-137370
X162570Y-127210
X170152Y-122136
X170152Y-127216
X172692Y-124676
X172692Y-137376
X174978Y-137376
X177772Y-127216
X180312Y-137376
X182852Y-124676
X182852Y-137376
X185392Y-122136
X185392Y-127216
T9
X46990Y-123190
X46990Y-129690
X46990Y-136049
X58420Y-123190
X58420Y-129690
X58420Y-136049
X66940Y-123190
X66940Y-129690
X66940Y-136049
X78370Y-123190
X78370Y-129690
X78370Y-136049
X86625Y-123190
X86625Y-129690
X86625Y-136049
X98055Y-123190
X98055Y-129690
X98055Y-136049
X106310Y-123190
X106310Y-129690
X106310Y-136049
X117740Y-123190
X117740Y-129690
X117740Y-136049
T10
X229920Y-129790
X229920Y-134790
X237420Y-129790
X237420Y-134790
T11
X30196Y-131760
X42194Y-131760
T12
X32500Y-85000
X33020Y-118745
X233490Y-125000
T13
X233490Y-85000
T14
X197495Y-136169
X207655Y-127279
T15
X46990Y-132874
X58420Y-132874
X66940Y-132874
X78370Y-132874
X86625Y-132874
X98055Y-132874
X106310Y-132874
X117740Y-132874
T16
X65405Y-104140
T17
X196860Y-131724
X207655Y-131724
T5
X219991Y-127785G85X221989Y-127785
G05
X219991Y-133784G85X221989Y-133784
G05
X225689Y-131784G85X225689Y-129785
G05
T0
M30
