G04 #@! TF.FileFunction,Soldermask,Top*
%FSLAX46Y46*%
G04 Gerber Fmt 4.6, Leading zero omitted, Abs format (unit mm)*
G04 Created by KiCad (PCBNEW 4.0.2-stable) date woensdag 06 september 2017 16:50:35*
%MOMM*%
G01*
G04 APERTURE LIST*
%ADD10C,0.100000*%
%ADD11R,3.900120X3.900120*%
%ADD12R,2.127200X2.432000*%
%ADD13O,2.127200X2.432000*%
%ADD14C,1.924000*%
%ADD15C,3.100020*%
%ADD16C,2.398980*%
%ADD17O,2.700000X2.000000*%
%ADD18C,3.575000*%
%ADD19C,4.464000*%
%ADD20C,5.400000*%
%ADD21O,2.899360X1.901140*%
%ADD22C,2.900000*%
%ADD23C,2.400000*%
%ADD24R,2.432000X2.432000*%
%ADD25O,2.432000X2.432000*%
%ADD26O,2.000000X2.000000*%
%ADD27O,2.000000X2.700000*%
%ADD28C,3.400000*%
%ADD29C,1.600000*%
%ADD30C,1.949400*%
%ADD31C,4.400000*%
%ADD32R,2.400000X2.400000*%
%ADD33R,2.100000X2.100000*%
%ADD34O,2.100000X2.100000*%
%ADD35C,1.920000*%
%ADD36R,1.920000X1.920000*%
G04 APERTURE END LIST*
D10*
D11*
X220990000Y-127784860D03*
X220990000Y-133784340D03*
X225689000Y-130784600D03*
D12*
X76835000Y-83185000D03*
D13*
X79375000Y-83185000D03*
X81915000Y-83185000D03*
X84455000Y-83185000D03*
D12*
X38735000Y-83185000D03*
D13*
X41275000Y-83185000D03*
X43815000Y-83185000D03*
X46355000Y-83185000D03*
X48895000Y-83185000D03*
D12*
X57150000Y-83185000D03*
D13*
X59690000Y-83185000D03*
X62230000Y-83185000D03*
X64770000Y-83185000D03*
X67310000Y-83185000D03*
D12*
X106680000Y-83185000D03*
D13*
X109220000Y-83185000D03*
X111760000Y-83185000D03*
X114300000Y-83185000D03*
X116840000Y-83185000D03*
X119380000Y-83185000D03*
X121920000Y-83185000D03*
X124460000Y-83185000D03*
D14*
X34925000Y-127061000D03*
X37465000Y-127061000D03*
X37465000Y-129059980D03*
X34925000Y-129059980D03*
D15*
X30195520Y-131760000D03*
X42194480Y-131760000D03*
D16*
X149870000Y-93980000D03*
X149870000Y-104140000D03*
X210195000Y-93980000D03*
X220355000Y-93980000D03*
X210185000Y-100330000D03*
X220345000Y-100330000D03*
X122555000Y-93980000D03*
X122555000Y-104140000D03*
X157490000Y-93980000D03*
X157490000Y-104140000D03*
X182890000Y-93980000D03*
X182890000Y-104140000D03*
X146060000Y-93980000D03*
X146060000Y-104140000D03*
X186700000Y-93980000D03*
X186700000Y-104140000D03*
X142240000Y-93980000D03*
X142240000Y-104140000D03*
X178445000Y-93980000D03*
X178445000Y-104140000D03*
X107315000Y-93980000D03*
X107315000Y-104140000D03*
X94615000Y-93980000D03*
X94615000Y-104140000D03*
X111125000Y-104140000D03*
X111125000Y-93980000D03*
X98425000Y-104140000D03*
X98425000Y-93980000D03*
X114935000Y-93980000D03*
X114935000Y-104140000D03*
D17*
X130175000Y-96520000D03*
X130175000Y-99060000D03*
X130175000Y-101600000D03*
X130175000Y-104140000D03*
X137795000Y-104140000D03*
X137795000Y-101600000D03*
X137795000Y-99060000D03*
X137795000Y-96520000D03*
X165735000Y-96520000D03*
X165735000Y-99060000D03*
X165735000Y-101600000D03*
X165735000Y-104140000D03*
X173355000Y-104140000D03*
X173355000Y-101600000D03*
X173355000Y-99060000D03*
X173355000Y-96520000D03*
X76835000Y-96520000D03*
X76835000Y-99060000D03*
X76835000Y-101600000D03*
X76835000Y-104140000D03*
X84455000Y-104140000D03*
X84455000Y-101600000D03*
X84455000Y-99060000D03*
X84455000Y-96520000D03*
D18*
X117740000Y-123190000D03*
X117740000Y-136048800D03*
X106310000Y-136048900D03*
X106310000Y-123190100D03*
X117740000Y-129690000D03*
X106310000Y-129690100D03*
X98055000Y-123190000D03*
X98055000Y-136048800D03*
X86625000Y-136048900D03*
X86625000Y-123190100D03*
X98055000Y-129690000D03*
X86625000Y-129690100D03*
X78370000Y-123190000D03*
X78370000Y-136048800D03*
X66940000Y-136048900D03*
X66940000Y-123190100D03*
X78370000Y-129690000D03*
X66940000Y-129690100D03*
X58420000Y-123190000D03*
X58420000Y-136048800D03*
X46990000Y-136048900D03*
X46990000Y-123190100D03*
X58420000Y-129690000D03*
X46990000Y-129690100D03*
D19*
X32500000Y-85000000D03*
X233490000Y-125000000D03*
D20*
X233490000Y-85000000D03*
D19*
X33020000Y-118745000D03*
D21*
X193050000Y-113030000D03*
X193050000Y-115570000D03*
X193050000Y-110490000D03*
X169555000Y-113030000D03*
X169555000Y-115570000D03*
X169555000Y-110490000D03*
D14*
X224790000Y-99695000D03*
X224790000Y-102235000D03*
X224790000Y-97155000D03*
X103570000Y-96520000D03*
X103570000Y-93980000D03*
X103570000Y-99060000D03*
X90570000Y-96520000D03*
X90570000Y-93980000D03*
X90570000Y-99060000D03*
D12*
X132080000Y-83185000D03*
D13*
X134620000Y-83185000D03*
X137160000Y-83185000D03*
X139700000Y-83185000D03*
X142240000Y-83185000D03*
X144780000Y-83185000D03*
X147320000Y-83185000D03*
X149860000Y-83185000D03*
X152400000Y-83185000D03*
X154940000Y-83185000D03*
X157480000Y-83185000D03*
X160020000Y-83185000D03*
D12*
X132080000Y-85725000D03*
D13*
X134620000Y-85725000D03*
X137160000Y-85725000D03*
X139700000Y-85725000D03*
X142240000Y-85725000D03*
X144780000Y-85725000D03*
X147320000Y-85725000D03*
X149860000Y-85725000D03*
X152400000Y-85725000D03*
X154940000Y-85725000D03*
X157480000Y-85725000D03*
X160020000Y-85725000D03*
D12*
X162560000Y-83185000D03*
D13*
X165100000Y-83185000D03*
X167640000Y-83185000D03*
D22*
X229920000Y-134790000D03*
X229920000Y-129790000D03*
X237420000Y-134790000D03*
X237420000Y-129790000D03*
D23*
X160030000Y-137370000D03*
X149870000Y-137370000D03*
X147330000Y-127210000D03*
X149870000Y-124670000D03*
X154950000Y-127210000D03*
X160030000Y-124670000D03*
X162570000Y-127210000D03*
X157490000Y-137370000D03*
X152156000Y-137370000D03*
X170151900Y-122135900D03*
X185391900Y-122135900D03*
X170151900Y-127215900D03*
X172691900Y-124675900D03*
X177771900Y-127215900D03*
X182851900Y-124675900D03*
X185391900Y-127215900D03*
X180311900Y-137375900D03*
X174977900Y-137375900D03*
X182851900Y-137375900D03*
X172691900Y-137375900D03*
X124470000Y-122130000D03*
X139710000Y-122130000D03*
X124470000Y-127210000D03*
X127010000Y-124670000D03*
X132090000Y-127210000D03*
X137170000Y-124670000D03*
X139710000Y-127210000D03*
X134630000Y-137370000D03*
X129296000Y-137370000D03*
X137170000Y-137370000D03*
X127010000Y-137370000D03*
D24*
X222460000Y-83000000D03*
D25*
X225000000Y-83000000D03*
D12*
X92075000Y-83185000D03*
D13*
X94615000Y-83185000D03*
X97155000Y-83185000D03*
X99695000Y-83185000D03*
D26*
X74940000Y-113030000D03*
X77480000Y-113030000D03*
X100340000Y-113030000D03*
X102880000Y-113030000D03*
X80020000Y-113030000D03*
X82560000Y-113030000D03*
X105420000Y-113030000D03*
X107960000Y-113030000D03*
X85100000Y-113030000D03*
X87640000Y-113030000D03*
X110500000Y-113030000D03*
X113040000Y-113030000D03*
X90180000Y-113030000D03*
X92720000Y-113030000D03*
X115580000Y-113030000D03*
X118120000Y-113030000D03*
X74940000Y-109855000D03*
X77480000Y-109855000D03*
X100340000Y-109855000D03*
X102880000Y-109855000D03*
X80020000Y-109855000D03*
X82560000Y-109855000D03*
X105420000Y-109855000D03*
X107960000Y-109855000D03*
X85100000Y-109855000D03*
X87640000Y-109855000D03*
X110500000Y-109855000D03*
X113040000Y-109855000D03*
X90180000Y-109855000D03*
X92720000Y-109855000D03*
X115580000Y-109855000D03*
X118120000Y-109855000D03*
D16*
X118745000Y-93980000D03*
X118745000Y-104140000D03*
D27*
X43180000Y-96520000D03*
X40640000Y-96520000D03*
X38100000Y-96520000D03*
X35560000Y-96520000D03*
X45720000Y-96520000D03*
X48260000Y-96520000D03*
X50800000Y-96520000D03*
X53340000Y-96520000D03*
X55880000Y-96520000D03*
X58420000Y-96520000D03*
X60960000Y-96520000D03*
X63500000Y-96520000D03*
X66040000Y-96520000D03*
X68580000Y-96520000D03*
X68580000Y-111760000D03*
X66040000Y-111760000D03*
X63500000Y-111760000D03*
X60960000Y-111760000D03*
X58420000Y-111760000D03*
X55880000Y-111760000D03*
X53340000Y-111760000D03*
X50800000Y-111760000D03*
X48260000Y-111760000D03*
X45720000Y-111760000D03*
X43180000Y-111760000D03*
X40640000Y-111760000D03*
X38100000Y-111760000D03*
X35560000Y-111760000D03*
D28*
X65405000Y-104140000D03*
D24*
X31760000Y-109220000D03*
D25*
X31760000Y-111760000D03*
D29*
X198130000Y-125374400D03*
X199400000Y-122834400D03*
X200670000Y-125374400D03*
X201940000Y-122834400D03*
X203337000Y-125374400D03*
X204480000Y-122834400D03*
X205750000Y-125374400D03*
X207020000Y-122707400D03*
X195971000Y-126644400D03*
D30*
X197495000Y-136169400D03*
X207655000Y-127279400D03*
D31*
X196860000Y-131724400D03*
X207655000Y-131724400D03*
D32*
X200670000Y-85090000D03*
D23*
X200670000Y-88890000D03*
D32*
X200660000Y-97790000D03*
D23*
X200660000Y-101590000D03*
D32*
X200660000Y-109855000D03*
D23*
X200660000Y-113655000D03*
X208292540Y-116840520D03*
D32*
X208292540Y-106680520D03*
D23*
X220357540Y-116840520D03*
D32*
X220357540Y-106680520D03*
D23*
X224167540Y-116840520D03*
D32*
X224167540Y-106680520D03*
D23*
X227977540Y-116840520D03*
D32*
X227977540Y-106680520D03*
D23*
X126367540Y-104140520D03*
D32*
X126367540Y-93980520D03*
D23*
X161300000Y-104140000D03*
D32*
X161300000Y-93980000D03*
X35650000Y-114935000D03*
D23*
X40650000Y-114935000D03*
D32*
X83185000Y-92920000D03*
D23*
X78185000Y-92920000D03*
D32*
X136535000Y-92710000D03*
D23*
X131535000Y-92710000D03*
D32*
X172005000Y-92920000D03*
D23*
X167005000Y-92920000D03*
D33*
X71765000Y-109855000D03*
D32*
X214005000Y-85090000D03*
D23*
X214005000Y-88890000D03*
D33*
X71765000Y-101600000D03*
D34*
X71765000Y-104140000D03*
D35*
X126375000Y-111125000D03*
X126375000Y-108585000D03*
D36*
X126375000Y-113665000D03*
D35*
X137805000Y-111125000D03*
X137805000Y-108585000D03*
D36*
X137805000Y-113665000D03*
D23*
X212737540Y-116840520D03*
D32*
X212737540Y-106680520D03*
D23*
X216547540Y-116840520D03*
D32*
X216547540Y-106680520D03*
D16*
X210195000Y-97155000D03*
X220355000Y-97155000D03*
X130185000Y-108585000D03*
X130185000Y-118745000D03*
X142250000Y-108585000D03*
X142250000Y-118745000D03*
X133995000Y-118745000D03*
X133995000Y-108585000D03*
X146060000Y-118745000D03*
X146060000Y-108585000D03*
M02*
