G04 #@! TF.FileFunction,Legend,Bot*
%FSLAX46Y46*%
G04 Gerber Fmt 4.6, Leading zero omitted, Abs format (unit mm)*
G04 Created by KiCad (PCBNEW 4.0.2-stable) date woensdag 06 september 2017 16:50:35*
%MOMM*%
G01*
G04 APERTURE LIST*
%ADD10C,0.100000*%
%ADD11C,0.200000*%
%ADD12C,0.140000*%
%ADD13C,0.300000*%
%ADD14C,0.600000*%
G04 APERTURE END LIST*
D10*
D11*
X155853809Y-88320571D02*
X155520475Y-88320571D01*
X155377618Y-88844381D02*
X155853809Y-88844381D01*
X155853809Y-87844381D01*
X155377618Y-87844381D01*
X155044285Y-87844381D02*
X154377618Y-88844381D01*
X154377618Y-87844381D02*
X155044285Y-88844381D01*
X153996666Y-88844381D02*
X153996666Y-87844381D01*
X153615713Y-87844381D01*
X153520475Y-87892000D01*
X153472856Y-87939619D01*
X153425237Y-88034857D01*
X153425237Y-88177714D01*
X153472856Y-88272952D01*
X153520475Y-88320571D01*
X153615713Y-88368190D01*
X153996666Y-88368190D01*
X152996666Y-88320571D02*
X152663332Y-88320571D01*
X152520475Y-88844381D02*
X152996666Y-88844381D01*
X152996666Y-87844381D01*
X152520475Y-87844381D01*
X151520475Y-88844381D02*
X151853809Y-88368190D01*
X152091904Y-88844381D02*
X152091904Y-87844381D01*
X151710951Y-87844381D01*
X151615713Y-87892000D01*
X151568094Y-87939619D01*
X151520475Y-88034857D01*
X151520475Y-88177714D01*
X151568094Y-88272952D01*
X151615713Y-88320571D01*
X151710951Y-88368190D01*
X152091904Y-88368190D01*
X151091904Y-88844381D02*
X151091904Y-87844381D01*
X150615714Y-88844381D02*
X150615714Y-87844381D01*
X150282380Y-88558667D01*
X149949047Y-87844381D01*
X149949047Y-88844381D01*
X149472857Y-88320571D02*
X149139523Y-88320571D01*
X148996666Y-88844381D02*
X149472857Y-88844381D01*
X149472857Y-87844381D01*
X148996666Y-87844381D01*
X148568095Y-88844381D02*
X148568095Y-87844381D01*
X147996666Y-88844381D01*
X147996666Y-87844381D01*
X147663333Y-87844381D02*
X147091904Y-87844381D01*
X147377619Y-88844381D02*
X147377619Y-87844381D01*
X146806190Y-88558667D02*
X146329999Y-88558667D01*
X146901428Y-88844381D02*
X146568095Y-87844381D01*
X146234761Y-88844381D01*
X146044285Y-87844381D02*
X145472856Y-87844381D01*
X145758571Y-88844381D02*
X145758571Y-87844381D01*
X145139523Y-88844381D02*
X145139523Y-87844381D01*
X144472857Y-87844381D02*
X144282380Y-87844381D01*
X144187142Y-87892000D01*
X144091904Y-87987238D01*
X144044285Y-88177714D01*
X144044285Y-88511048D01*
X144091904Y-88701524D01*
X144187142Y-88796762D01*
X144282380Y-88844381D01*
X144472857Y-88844381D01*
X144568095Y-88796762D01*
X144663333Y-88701524D01*
X144710952Y-88511048D01*
X144710952Y-88177714D01*
X144663333Y-87987238D01*
X144568095Y-87892000D01*
X144472857Y-87844381D01*
X143615714Y-88844381D02*
X143615714Y-87844381D01*
X143044285Y-88844381D01*
X143044285Y-87844381D01*
X141806190Y-88844381D02*
X141806190Y-87844381D01*
X141425237Y-87844381D01*
X141329999Y-87892000D01*
X141282380Y-87939619D01*
X141234761Y-88034857D01*
X141234761Y-88177714D01*
X141282380Y-88272952D01*
X141329999Y-88320571D01*
X141425237Y-88368190D01*
X141806190Y-88368190D01*
X140806190Y-88844381D02*
X140806190Y-87844381D01*
X140330000Y-88844381D02*
X140330000Y-87844381D01*
X139758571Y-88844381D01*
X139758571Y-87844381D01*
X139330000Y-88796762D02*
X139187143Y-88844381D01*
X138949047Y-88844381D01*
X138853809Y-88796762D01*
X138806190Y-88749143D01*
X138758571Y-88653905D01*
X138758571Y-88558667D01*
X138806190Y-88463429D01*
X138853809Y-88415810D01*
X138949047Y-88368190D01*
X139139524Y-88320571D01*
X139234762Y-88272952D01*
X139282381Y-88225333D01*
X139330000Y-88130095D01*
X139330000Y-88034857D01*
X139282381Y-87939619D01*
X139234762Y-87892000D01*
X139139524Y-87844381D01*
X138901428Y-87844381D01*
X138758571Y-87892000D01*
X224537619Y-125928381D02*
X224347143Y-125928381D01*
X224251904Y-125880762D01*
X224204285Y-125833143D01*
X224109047Y-125690286D01*
X224061428Y-125499810D01*
X224061428Y-125118857D01*
X224109047Y-125023619D01*
X224156666Y-124976000D01*
X224251904Y-124928381D01*
X224442381Y-124928381D01*
X224537619Y-124976000D01*
X224585238Y-125023619D01*
X224632857Y-125118857D01*
X224632857Y-125356952D01*
X224585238Y-125452190D01*
X224537619Y-125499810D01*
X224442381Y-125547429D01*
X224251904Y-125547429D01*
X224156666Y-125499810D01*
X224109047Y-125452190D01*
X224061428Y-125356952D01*
X223775714Y-124928381D02*
X223442381Y-125928381D01*
X223109047Y-124928381D01*
X222013809Y-125928381D02*
X222013809Y-124928381D01*
X221632856Y-124928381D01*
X221537618Y-124976000D01*
X221489999Y-125023619D01*
X221442380Y-125118857D01*
X221442380Y-125261714D01*
X221489999Y-125356952D01*
X221537618Y-125404571D01*
X221632856Y-125452190D01*
X222013809Y-125452190D01*
X220823333Y-124928381D02*
X220632856Y-124928381D01*
X220537618Y-124976000D01*
X220442380Y-125071238D01*
X220394761Y-125261714D01*
X220394761Y-125595048D01*
X220442380Y-125785524D01*
X220537618Y-125880762D01*
X220632856Y-125928381D01*
X220823333Y-125928381D01*
X220918571Y-125880762D01*
X221013809Y-125785524D01*
X221061428Y-125595048D01*
X221061428Y-125261714D01*
X221013809Y-125071238D01*
X220918571Y-124976000D01*
X220823333Y-124928381D01*
X220061428Y-124928381D02*
X219823333Y-125928381D01*
X219632856Y-125214095D01*
X219442380Y-125928381D01*
X219204285Y-124928381D01*
X218823333Y-125404571D02*
X218489999Y-125404571D01*
X218347142Y-125928381D02*
X218823333Y-125928381D01*
X218823333Y-124928381D01*
X218347142Y-124928381D01*
X217347142Y-125928381D02*
X217680476Y-125452190D01*
X217918571Y-125928381D02*
X217918571Y-124928381D01*
X217537618Y-124928381D01*
X217442380Y-124976000D01*
X217394761Y-125023619D01*
X217347142Y-125118857D01*
X217347142Y-125261714D01*
X217394761Y-125356952D01*
X217442380Y-125404571D01*
X217537618Y-125452190D01*
X217918571Y-125452190D01*
X225839524Y-86012381D02*
X225839524Y-85012381D01*
X225458571Y-85012381D01*
X225363333Y-85060000D01*
X225315714Y-85107619D01*
X225268095Y-85202857D01*
X225268095Y-85345714D01*
X225315714Y-85440952D01*
X225363333Y-85488571D01*
X225458571Y-85536190D01*
X225839524Y-85536190D01*
X224649048Y-85012381D02*
X224458571Y-85012381D01*
X224363333Y-85060000D01*
X224268095Y-85155238D01*
X224220476Y-85345714D01*
X224220476Y-85679048D01*
X224268095Y-85869524D01*
X224363333Y-85964762D01*
X224458571Y-86012381D01*
X224649048Y-86012381D01*
X224744286Y-85964762D01*
X224839524Y-85869524D01*
X224887143Y-85679048D01*
X224887143Y-85345714D01*
X224839524Y-85155238D01*
X224744286Y-85060000D01*
X224649048Y-85012381D01*
X223887143Y-85012381D02*
X223649048Y-86012381D01*
X223458571Y-85298095D01*
X223268095Y-86012381D01*
X223030000Y-85012381D01*
X222649048Y-85488571D02*
X222315714Y-85488571D01*
X222172857Y-86012381D02*
X222649048Y-86012381D01*
X222649048Y-85012381D01*
X222172857Y-85012381D01*
X221172857Y-86012381D02*
X221506191Y-85536190D01*
X221744286Y-86012381D02*
X221744286Y-85012381D01*
X221363333Y-85012381D01*
X221268095Y-85060000D01*
X221220476Y-85107619D01*
X221172857Y-85202857D01*
X221172857Y-85345714D01*
X221220476Y-85440952D01*
X221268095Y-85488571D01*
X221363333Y-85536190D01*
X221744286Y-85536190D01*
X226030000Y-87564762D02*
X225887143Y-87612381D01*
X225649047Y-87612381D01*
X225553809Y-87564762D01*
X225506190Y-87517143D01*
X225458571Y-87421905D01*
X225458571Y-87326667D01*
X225506190Y-87231429D01*
X225553809Y-87183810D01*
X225649047Y-87136190D01*
X225839524Y-87088571D01*
X225934762Y-87040952D01*
X225982381Y-86993333D01*
X226030000Y-86898095D01*
X226030000Y-86802857D01*
X225982381Y-86707619D01*
X225934762Y-86660000D01*
X225839524Y-86612381D01*
X225601428Y-86612381D01*
X225458571Y-86660000D01*
X225125238Y-86612381D02*
X224887143Y-87612381D01*
X224696666Y-86898095D01*
X224506190Y-87612381D01*
X224268095Y-86612381D01*
X223887143Y-87612381D02*
X223887143Y-86612381D01*
X223553810Y-86612381D02*
X222982381Y-86612381D01*
X223268096Y-87612381D02*
X223268096Y-86612381D01*
X222077619Y-87517143D02*
X222125238Y-87564762D01*
X222268095Y-87612381D01*
X222363333Y-87612381D01*
X222506191Y-87564762D01*
X222601429Y-87469524D01*
X222649048Y-87374286D01*
X222696667Y-87183810D01*
X222696667Y-87040952D01*
X222649048Y-86850476D01*
X222601429Y-86755238D01*
X222506191Y-86660000D01*
X222363333Y-86612381D01*
X222268095Y-86612381D01*
X222125238Y-86660000D01*
X222077619Y-86707619D01*
X221649048Y-87612381D02*
X221649048Y-86612381D01*
X221649048Y-87088571D02*
X221077619Y-87088571D01*
X221077619Y-87612381D02*
X221077619Y-86612381D01*
D12*
X168743333Y-85902000D02*
X168210000Y-85902000D01*
X168476667Y-86168667D02*
X168476667Y-85635333D01*
X167543333Y-85468667D02*
X167876666Y-85468667D01*
X167910000Y-85802000D01*
X167876666Y-85768667D01*
X167810000Y-85735333D01*
X167643333Y-85735333D01*
X167576666Y-85768667D01*
X167543333Y-85802000D01*
X167510000Y-85868667D01*
X167510000Y-86035333D01*
X167543333Y-86102000D01*
X167576666Y-86135333D01*
X167643333Y-86168667D01*
X167810000Y-86168667D01*
X167876666Y-86135333D01*
X167910000Y-86102000D01*
X167309999Y-85468667D02*
X167076666Y-86168667D01*
X166843333Y-85468667D01*
X166143333Y-85468667D02*
X165710000Y-85468667D01*
X165943333Y-85735333D01*
X165843333Y-85735333D01*
X165776666Y-85768667D01*
X165743333Y-85802000D01*
X165710000Y-85868667D01*
X165710000Y-86035333D01*
X165743333Y-86102000D01*
X165776666Y-86135333D01*
X165843333Y-86168667D01*
X166043333Y-86168667D01*
X166110000Y-86135333D01*
X166143333Y-86102000D01*
X165409999Y-86102000D02*
X165376666Y-86135333D01*
X165409999Y-86168667D01*
X165443333Y-86135333D01*
X165409999Y-86102000D01*
X165409999Y-86168667D01*
X165143333Y-85468667D02*
X164710000Y-85468667D01*
X164943333Y-85735333D01*
X164843333Y-85735333D01*
X164776666Y-85768667D01*
X164743333Y-85802000D01*
X164710000Y-85868667D01*
X164710000Y-86035333D01*
X164743333Y-86102000D01*
X164776666Y-86135333D01*
X164843333Y-86168667D01*
X165043333Y-86168667D01*
X165110000Y-86135333D01*
X165143333Y-86102000D01*
X164509999Y-85468667D02*
X164276666Y-86168667D01*
X164043333Y-85468667D01*
X162910000Y-85502000D02*
X162976666Y-85468667D01*
X163076666Y-85468667D01*
X163176666Y-85502000D01*
X163243333Y-85568667D01*
X163276666Y-85635333D01*
X163310000Y-85768667D01*
X163310000Y-85868667D01*
X163276666Y-86002000D01*
X163243333Y-86068667D01*
X163176666Y-86135333D01*
X163076666Y-86168667D01*
X163010000Y-86168667D01*
X162910000Y-86135333D01*
X162876666Y-86102000D01*
X162876666Y-85868667D01*
X163010000Y-85868667D01*
X162576666Y-86168667D02*
X162576666Y-85468667D01*
X162176666Y-86168667D01*
X162176666Y-85468667D01*
X161843333Y-86168667D02*
X161843333Y-85468667D01*
X161676667Y-85468667D01*
X161576667Y-85502000D01*
X161510000Y-85568667D01*
X161476667Y-85635333D01*
X161443333Y-85768667D01*
X161443333Y-85868667D01*
X161476667Y-86002000D01*
X161510000Y-86068667D01*
X161576667Y-86135333D01*
X161676667Y-86168667D01*
X161843333Y-86168667D01*
D13*
X114698571Y-126519714D02*
X114770000Y-126591143D01*
X114984286Y-126662571D01*
X115127143Y-126662571D01*
X115341428Y-126591143D01*
X115484286Y-126448286D01*
X115555714Y-126305429D01*
X115627143Y-126019714D01*
X115627143Y-125805429D01*
X115555714Y-125519714D01*
X115484286Y-125376857D01*
X115341428Y-125234000D01*
X115127143Y-125162571D01*
X114984286Y-125162571D01*
X114770000Y-125234000D01*
X114698571Y-125305429D01*
X114270000Y-125162571D02*
X113412857Y-125162571D01*
X113841428Y-126662571D02*
X113841428Y-125162571D01*
X112198571Y-126662571D02*
X112912857Y-126662571D01*
X112912857Y-125162571D01*
X110912857Y-126662571D02*
X111770000Y-126662571D01*
X111341428Y-126662571D02*
X111341428Y-125162571D01*
X111484285Y-125376857D01*
X111627143Y-125519714D01*
X111770000Y-125591143D01*
X109198572Y-125091143D02*
X110484286Y-127019714D01*
X108770000Y-125305429D02*
X108698571Y-125234000D01*
X108555714Y-125162571D01*
X108198571Y-125162571D01*
X108055714Y-125234000D01*
X107984285Y-125305429D01*
X107912857Y-125448286D01*
X107912857Y-125591143D01*
X107984285Y-125805429D01*
X108841428Y-126662571D01*
X107912857Y-126662571D01*
D11*
X48967905Y-87304571D02*
X48634571Y-87304571D01*
X48491714Y-87828381D02*
X48967905Y-87828381D01*
X48967905Y-86828381D01*
X48491714Y-86828381D01*
X48158381Y-86828381D02*
X47491714Y-87828381D01*
X47491714Y-86828381D02*
X48158381Y-87828381D01*
X47110762Y-87828381D02*
X47110762Y-86828381D01*
X46729809Y-86828381D01*
X46634571Y-86876000D01*
X46586952Y-86923619D01*
X46539333Y-87018857D01*
X46539333Y-87161714D01*
X46586952Y-87256952D01*
X46634571Y-87304571D01*
X46729809Y-87352190D01*
X47110762Y-87352190D01*
X46158381Y-87542667D02*
X45682190Y-87542667D01*
X46253619Y-87828381D02*
X45920286Y-86828381D01*
X45586952Y-87828381D01*
X45253619Y-87828381D02*
X45253619Y-86828381D01*
X44682190Y-87828381D01*
X44682190Y-86828381D01*
X44253619Y-87780762D02*
X44110762Y-87828381D01*
X43872666Y-87828381D01*
X43777428Y-87780762D01*
X43729809Y-87733143D01*
X43682190Y-87637905D01*
X43682190Y-87542667D01*
X43729809Y-87447429D01*
X43777428Y-87399810D01*
X43872666Y-87352190D01*
X44063143Y-87304571D01*
X44158381Y-87256952D01*
X44206000Y-87209333D01*
X44253619Y-87114095D01*
X44253619Y-87018857D01*
X44206000Y-86923619D01*
X44158381Y-86876000D01*
X44063143Y-86828381D01*
X43825047Y-86828381D01*
X43682190Y-86876000D01*
X43253619Y-87828381D02*
X43253619Y-86828381D01*
X42586953Y-86828381D02*
X42396476Y-86828381D01*
X42301238Y-86876000D01*
X42206000Y-86971238D01*
X42158381Y-87161714D01*
X42158381Y-87495048D01*
X42206000Y-87685524D01*
X42301238Y-87780762D01*
X42396476Y-87828381D01*
X42586953Y-87828381D01*
X42682191Y-87780762D01*
X42777429Y-87685524D01*
X42825048Y-87495048D01*
X42825048Y-87161714D01*
X42777429Y-86971238D01*
X42682191Y-86876000D01*
X42586953Y-86828381D01*
X41729810Y-87828381D02*
X41729810Y-86828381D01*
X41158381Y-87828381D01*
X41158381Y-86828381D01*
X39396476Y-87828381D02*
X39967905Y-87828381D01*
X39682191Y-87828381D02*
X39682191Y-86828381D01*
X39777429Y-86971238D01*
X39872667Y-87066476D01*
X39967905Y-87114095D01*
X66747905Y-87304571D02*
X66414571Y-87304571D01*
X66271714Y-87828381D02*
X66747905Y-87828381D01*
X66747905Y-86828381D01*
X66271714Y-86828381D01*
X65938381Y-86828381D02*
X65271714Y-87828381D01*
X65271714Y-86828381D02*
X65938381Y-87828381D01*
X64890762Y-87828381D02*
X64890762Y-86828381D01*
X64509809Y-86828381D01*
X64414571Y-86876000D01*
X64366952Y-86923619D01*
X64319333Y-87018857D01*
X64319333Y-87161714D01*
X64366952Y-87256952D01*
X64414571Y-87304571D01*
X64509809Y-87352190D01*
X64890762Y-87352190D01*
X63938381Y-87542667D02*
X63462190Y-87542667D01*
X64033619Y-87828381D02*
X63700286Y-86828381D01*
X63366952Y-87828381D01*
X63033619Y-87828381D02*
X63033619Y-86828381D01*
X62462190Y-87828381D01*
X62462190Y-86828381D01*
X62033619Y-87780762D02*
X61890762Y-87828381D01*
X61652666Y-87828381D01*
X61557428Y-87780762D01*
X61509809Y-87733143D01*
X61462190Y-87637905D01*
X61462190Y-87542667D01*
X61509809Y-87447429D01*
X61557428Y-87399810D01*
X61652666Y-87352190D01*
X61843143Y-87304571D01*
X61938381Y-87256952D01*
X61986000Y-87209333D01*
X62033619Y-87114095D01*
X62033619Y-87018857D01*
X61986000Y-86923619D01*
X61938381Y-86876000D01*
X61843143Y-86828381D01*
X61605047Y-86828381D01*
X61462190Y-86876000D01*
X61033619Y-87828381D02*
X61033619Y-86828381D01*
X60366953Y-86828381D02*
X60176476Y-86828381D01*
X60081238Y-86876000D01*
X59986000Y-86971238D01*
X59938381Y-87161714D01*
X59938381Y-87495048D01*
X59986000Y-87685524D01*
X60081238Y-87780762D01*
X60176476Y-87828381D01*
X60366953Y-87828381D01*
X60462191Y-87780762D01*
X60557429Y-87685524D01*
X60605048Y-87495048D01*
X60605048Y-87161714D01*
X60557429Y-86971238D01*
X60462191Y-86876000D01*
X60366953Y-86828381D01*
X59509810Y-87828381D02*
X59509810Y-86828381D01*
X58938381Y-87828381D01*
X58938381Y-86828381D01*
X57747905Y-86923619D02*
X57700286Y-86876000D01*
X57605048Y-86828381D01*
X57366952Y-86828381D01*
X57271714Y-86876000D01*
X57224095Y-86923619D01*
X57176476Y-87018857D01*
X57176476Y-87114095D01*
X57224095Y-87256952D01*
X57795524Y-87828381D01*
X57176476Y-87828381D01*
X85035905Y-87304571D02*
X84702571Y-87304571D01*
X84559714Y-87828381D02*
X85035905Y-87828381D01*
X85035905Y-86828381D01*
X84559714Y-86828381D01*
X84226381Y-86828381D02*
X83559714Y-87828381D01*
X83559714Y-86828381D02*
X84226381Y-87828381D01*
X83178762Y-87828381D02*
X83178762Y-86828381D01*
X82797809Y-86828381D01*
X82702571Y-86876000D01*
X82654952Y-86923619D01*
X82607333Y-87018857D01*
X82607333Y-87161714D01*
X82654952Y-87256952D01*
X82702571Y-87304571D01*
X82797809Y-87352190D01*
X83178762Y-87352190D01*
X82226381Y-87542667D02*
X81750190Y-87542667D01*
X82321619Y-87828381D02*
X81988286Y-86828381D01*
X81654952Y-87828381D01*
X81321619Y-87828381D02*
X81321619Y-86828381D01*
X80750190Y-87828381D01*
X80750190Y-86828381D01*
X80321619Y-87780762D02*
X80178762Y-87828381D01*
X79940666Y-87828381D01*
X79845428Y-87780762D01*
X79797809Y-87733143D01*
X79750190Y-87637905D01*
X79750190Y-87542667D01*
X79797809Y-87447429D01*
X79845428Y-87399810D01*
X79940666Y-87352190D01*
X80131143Y-87304571D01*
X80226381Y-87256952D01*
X80274000Y-87209333D01*
X80321619Y-87114095D01*
X80321619Y-87018857D01*
X80274000Y-86923619D01*
X80226381Y-86876000D01*
X80131143Y-86828381D01*
X79893047Y-86828381D01*
X79750190Y-86876000D01*
X79321619Y-87828381D02*
X79321619Y-86828381D01*
X78654953Y-86828381D02*
X78464476Y-86828381D01*
X78369238Y-86876000D01*
X78274000Y-86971238D01*
X78226381Y-87161714D01*
X78226381Y-87495048D01*
X78274000Y-87685524D01*
X78369238Y-87780762D01*
X78464476Y-87828381D01*
X78654953Y-87828381D01*
X78750191Y-87780762D01*
X78845429Y-87685524D01*
X78893048Y-87495048D01*
X78893048Y-87161714D01*
X78845429Y-86971238D01*
X78750191Y-86876000D01*
X78654953Y-86828381D01*
X77797810Y-87828381D02*
X77797810Y-86828381D01*
X77226381Y-87828381D01*
X77226381Y-86828381D01*
X76083524Y-86828381D02*
X75464476Y-86828381D01*
X75797810Y-87209333D01*
X75654952Y-87209333D01*
X75559714Y-87256952D01*
X75512095Y-87304571D01*
X75464476Y-87399810D01*
X75464476Y-87637905D01*
X75512095Y-87733143D01*
X75559714Y-87780762D01*
X75654952Y-87828381D01*
X75940667Y-87828381D01*
X76035905Y-87780762D01*
X76083524Y-87733143D01*
X100283905Y-87828381D02*
X100283905Y-87161714D01*
X100283905Y-86828381D02*
X100331524Y-86876000D01*
X100283905Y-86923619D01*
X100236286Y-86876000D01*
X100283905Y-86828381D01*
X100283905Y-86923619D01*
X99855334Y-86923619D02*
X99807715Y-86876000D01*
X99712477Y-86828381D01*
X99474381Y-86828381D01*
X99379143Y-86876000D01*
X99331524Y-86923619D01*
X99283905Y-87018857D01*
X99283905Y-87114095D01*
X99331524Y-87256952D01*
X99902953Y-87828381D01*
X99283905Y-87828381D01*
X98426762Y-87780762D02*
X98522000Y-87828381D01*
X98712477Y-87828381D01*
X98807715Y-87780762D01*
X98855334Y-87733143D01*
X98902953Y-87637905D01*
X98902953Y-87352190D01*
X98855334Y-87256952D01*
X98807715Y-87209333D01*
X98712477Y-87161714D01*
X98522000Y-87161714D01*
X98426762Y-87209333D01*
X97236286Y-87828381D02*
X97236286Y-86828381D01*
X96998191Y-86828381D01*
X96855333Y-86876000D01*
X96760095Y-86971238D01*
X96712476Y-87066476D01*
X96664857Y-87256952D01*
X96664857Y-87399810D01*
X96712476Y-87590286D01*
X96760095Y-87685524D01*
X96855333Y-87780762D01*
X96998191Y-87828381D01*
X97236286Y-87828381D01*
X96236286Y-87828381D02*
X96236286Y-86828381D01*
X95807715Y-87780762D02*
X95664858Y-87828381D01*
X95426762Y-87828381D01*
X95331524Y-87780762D01*
X95283905Y-87733143D01*
X95236286Y-87637905D01*
X95236286Y-87542667D01*
X95283905Y-87447429D01*
X95331524Y-87399810D01*
X95426762Y-87352190D01*
X95617239Y-87304571D01*
X95712477Y-87256952D01*
X95760096Y-87209333D01*
X95807715Y-87114095D01*
X95807715Y-87018857D01*
X95760096Y-86923619D01*
X95712477Y-86876000D01*
X95617239Y-86828381D01*
X95379143Y-86828381D01*
X95236286Y-86876000D01*
X94807715Y-87828381D02*
X94807715Y-86828381D01*
X94426762Y-86828381D01*
X94331524Y-86876000D01*
X94283905Y-86923619D01*
X94236286Y-87018857D01*
X94236286Y-87161714D01*
X94283905Y-87256952D01*
X94331524Y-87304571D01*
X94426762Y-87352190D01*
X94807715Y-87352190D01*
X93331524Y-87828381D02*
X93807715Y-87828381D01*
X93807715Y-86828381D01*
X93045810Y-87542667D02*
X92569619Y-87542667D01*
X93141048Y-87828381D02*
X92807715Y-86828381D01*
X92474381Y-87828381D01*
X91950572Y-87352190D02*
X91950572Y-87828381D01*
X92283905Y-86828381D02*
X91950572Y-87352190D01*
X91617238Y-86828381D01*
X123818191Y-86828381D02*
X123246762Y-86828381D01*
X123532477Y-87828381D02*
X123532477Y-86828381D01*
X122722953Y-86828381D02*
X122532476Y-86828381D01*
X122437238Y-86876000D01*
X122342000Y-86971238D01*
X122294381Y-87161714D01*
X122294381Y-87495048D01*
X122342000Y-87685524D01*
X122437238Y-87780762D01*
X122532476Y-87828381D01*
X122722953Y-87828381D01*
X122818191Y-87780762D01*
X122913429Y-87685524D01*
X122961048Y-87495048D01*
X122961048Y-87161714D01*
X122913429Y-86971238D01*
X122818191Y-86876000D01*
X122722953Y-86828381D01*
X121103905Y-87828381D02*
X121103905Y-86828381D01*
X120865810Y-86828381D01*
X120722952Y-86876000D01*
X120627714Y-86971238D01*
X120580095Y-87066476D01*
X120532476Y-87256952D01*
X120532476Y-87399810D01*
X120580095Y-87590286D01*
X120627714Y-87685524D01*
X120722952Y-87780762D01*
X120865810Y-87828381D01*
X121103905Y-87828381D01*
X120103905Y-87828381D02*
X120103905Y-86828381D01*
X119675334Y-87780762D02*
X119532477Y-87828381D01*
X119294381Y-87828381D01*
X119199143Y-87780762D01*
X119151524Y-87733143D01*
X119103905Y-87637905D01*
X119103905Y-87542667D01*
X119151524Y-87447429D01*
X119199143Y-87399810D01*
X119294381Y-87352190D01*
X119484858Y-87304571D01*
X119580096Y-87256952D01*
X119627715Y-87209333D01*
X119675334Y-87114095D01*
X119675334Y-87018857D01*
X119627715Y-86923619D01*
X119580096Y-86876000D01*
X119484858Y-86828381D01*
X119246762Y-86828381D01*
X119103905Y-86876000D01*
X118675334Y-87828381D02*
X118675334Y-86828381D01*
X118294381Y-86828381D01*
X118199143Y-86876000D01*
X118151524Y-86923619D01*
X118103905Y-87018857D01*
X118103905Y-87161714D01*
X118151524Y-87256952D01*
X118199143Y-87304571D01*
X118294381Y-87352190D01*
X118675334Y-87352190D01*
X117199143Y-87828381D02*
X117675334Y-87828381D01*
X117675334Y-86828381D01*
X116913429Y-87542667D02*
X116437238Y-87542667D01*
X117008667Y-87828381D02*
X116675334Y-86828381D01*
X116342000Y-87828381D01*
X115818191Y-87352190D02*
X115818191Y-87828381D01*
X116151524Y-86828381D02*
X115818191Y-87352190D01*
X115484857Y-86828381D01*
X114056285Y-87304571D02*
X113913428Y-87352190D01*
X113865809Y-87399810D01*
X113818190Y-87495048D01*
X113818190Y-87637905D01*
X113865809Y-87733143D01*
X113913428Y-87780762D01*
X114008666Y-87828381D01*
X114389619Y-87828381D01*
X114389619Y-86828381D01*
X114056285Y-86828381D01*
X113961047Y-86876000D01*
X113913428Y-86923619D01*
X113865809Y-87018857D01*
X113865809Y-87114095D01*
X113913428Y-87209333D01*
X113961047Y-87256952D01*
X114056285Y-87304571D01*
X114389619Y-87304571D01*
X113199143Y-86828381D02*
X113008666Y-86828381D01*
X112913428Y-86876000D01*
X112818190Y-86971238D01*
X112770571Y-87161714D01*
X112770571Y-87495048D01*
X112818190Y-87685524D01*
X112913428Y-87780762D01*
X113008666Y-87828381D01*
X113199143Y-87828381D01*
X113294381Y-87780762D01*
X113389619Y-87685524D01*
X113437238Y-87495048D01*
X113437238Y-87161714D01*
X113389619Y-86971238D01*
X113294381Y-86876000D01*
X113199143Y-86828381D01*
X112389619Y-87542667D02*
X111913428Y-87542667D01*
X112484857Y-87828381D02*
X112151524Y-86828381D01*
X111818190Y-87828381D01*
X110913428Y-87828381D02*
X111246762Y-87352190D01*
X111484857Y-87828381D02*
X111484857Y-86828381D01*
X111103904Y-86828381D01*
X111008666Y-86876000D01*
X110961047Y-86923619D01*
X110913428Y-87018857D01*
X110913428Y-87161714D01*
X110961047Y-87256952D01*
X111008666Y-87304571D01*
X111103904Y-87352190D01*
X111484857Y-87352190D01*
X110484857Y-87828381D02*
X110484857Y-86828381D01*
X110246762Y-86828381D01*
X110103904Y-86876000D01*
X110008666Y-86971238D01*
X109961047Y-87066476D01*
X109913428Y-87256952D01*
X109913428Y-87399810D01*
X109961047Y-87590286D01*
X110008666Y-87685524D01*
X110103904Y-87780762D01*
X110246762Y-87828381D01*
X110484857Y-87828381D01*
X109532476Y-87780762D02*
X109389619Y-87828381D01*
X109151523Y-87828381D01*
X109056285Y-87780762D01*
X109008666Y-87733143D01*
X108961047Y-87637905D01*
X108961047Y-87542667D01*
X109008666Y-87447429D01*
X109056285Y-87399810D01*
X109151523Y-87352190D01*
X109342000Y-87304571D01*
X109437238Y-87256952D01*
X109484857Y-87209333D01*
X109532476Y-87114095D01*
X109532476Y-87018857D01*
X109484857Y-86923619D01*
X109437238Y-86876000D01*
X109342000Y-86828381D01*
X109103904Y-86828381D01*
X108961047Y-86876000D01*
D12*
X125667331Y-86168667D02*
X125667331Y-85468667D01*
X125267331Y-86168667D01*
X125267331Y-85468667D01*
X124933998Y-86168667D02*
X124933998Y-85468667D01*
X124767332Y-85468667D01*
X124667332Y-85502000D01*
X124600665Y-85568667D01*
X124567332Y-85635333D01*
X124533998Y-85768667D01*
X124533998Y-85868667D01*
X124567332Y-86002000D01*
X124600665Y-86068667D01*
X124667332Y-86135333D01*
X124767332Y-86168667D01*
X124933998Y-86168667D01*
X124133998Y-86168667D02*
X124200665Y-86135333D01*
X124233998Y-86102000D01*
X124267332Y-86035333D01*
X124267332Y-85835333D01*
X124233998Y-85768667D01*
X124200665Y-85735333D01*
X124133998Y-85702000D01*
X124033998Y-85702000D01*
X123967332Y-85735333D01*
X123933998Y-85768667D01*
X123900665Y-85835333D01*
X123900665Y-86035333D01*
X123933998Y-86102000D01*
X123967332Y-86135333D01*
X124033998Y-86168667D01*
X124133998Y-86168667D01*
X123133999Y-85468667D02*
X122700666Y-85468667D01*
X122933999Y-85735333D01*
X122833999Y-85735333D01*
X122767332Y-85768667D01*
X122733999Y-85802000D01*
X122700666Y-85868667D01*
X122700666Y-86035333D01*
X122733999Y-86102000D01*
X122767332Y-86135333D01*
X122833999Y-86168667D01*
X123033999Y-86168667D01*
X123100666Y-86135333D01*
X123133999Y-86102000D01*
X122400665Y-86102000D02*
X122367332Y-86135333D01*
X122400665Y-86168667D01*
X122433999Y-86135333D01*
X122400665Y-86102000D01*
X122400665Y-86168667D01*
X122133999Y-85468667D02*
X121700666Y-85468667D01*
X121933999Y-85735333D01*
X121833999Y-85735333D01*
X121767332Y-85768667D01*
X121733999Y-85802000D01*
X121700666Y-85868667D01*
X121700666Y-86035333D01*
X121733999Y-86102000D01*
X121767332Y-86135333D01*
X121833999Y-86168667D01*
X122033999Y-86168667D01*
X122100666Y-86135333D01*
X122133999Y-86102000D01*
X120933999Y-85468667D02*
X120767332Y-86168667D01*
X120633999Y-85668667D01*
X120500666Y-86168667D01*
X120333999Y-85468667D01*
X120067332Y-86168667D02*
X120067332Y-85468667D01*
X119900666Y-85468667D01*
X119800666Y-85502000D01*
X119733999Y-85568667D01*
X119700666Y-85635333D01*
X119667332Y-85768667D01*
X119667332Y-85868667D01*
X119700666Y-86002000D01*
X119733999Y-86068667D01*
X119800666Y-86135333D01*
X119900666Y-86168667D01*
X120067332Y-86168667D01*
X119267332Y-86168667D02*
X119333999Y-86135333D01*
X119367332Y-86102000D01*
X119400666Y-86035333D01*
X119400666Y-85835333D01*
X119367332Y-85768667D01*
X119333999Y-85735333D01*
X119267332Y-85702000D01*
X119167332Y-85702000D01*
X119100666Y-85735333D01*
X119067332Y-85768667D01*
X119033999Y-85835333D01*
X119033999Y-86035333D01*
X119067332Y-86102000D01*
X119100666Y-86135333D01*
X119167332Y-86168667D01*
X119267332Y-86168667D01*
X118200666Y-86168667D02*
X118200666Y-85468667D01*
X117867333Y-86168667D02*
X117867333Y-85468667D01*
X117467333Y-86168667D01*
X117467333Y-85468667D01*
X117234000Y-85468667D02*
X116834000Y-85468667D01*
X117034000Y-86168667D02*
X117034000Y-85468667D01*
X116300667Y-86168667D02*
X116300667Y-85802000D01*
X116334001Y-85735333D01*
X116400667Y-85702000D01*
X116534001Y-85702000D01*
X116600667Y-85735333D01*
X116300667Y-86135333D02*
X116367334Y-86168667D01*
X116534001Y-86168667D01*
X116600667Y-86135333D01*
X116634001Y-86068667D01*
X116634001Y-86002000D01*
X116600667Y-85935333D01*
X116534001Y-85902000D01*
X116367334Y-85902000D01*
X116300667Y-85868667D01*
X115467335Y-86135333D02*
X115367335Y-86168667D01*
X115200668Y-86168667D01*
X115134001Y-86135333D01*
X115100668Y-86102000D01*
X115067335Y-86035333D01*
X115067335Y-85968667D01*
X115100668Y-85902000D01*
X115134001Y-85868667D01*
X115200668Y-85835333D01*
X115334001Y-85802000D01*
X115400668Y-85768667D01*
X115434001Y-85735333D01*
X115467335Y-85668667D01*
X115467335Y-85602000D01*
X115434001Y-85535333D01*
X115400668Y-85502000D01*
X115334001Y-85468667D01*
X115167335Y-85468667D01*
X115067335Y-85502000D01*
X114367334Y-86102000D02*
X114400668Y-86135333D01*
X114500668Y-86168667D01*
X114567334Y-86168667D01*
X114667334Y-86135333D01*
X114734001Y-86068667D01*
X114767334Y-86002000D01*
X114800668Y-85868667D01*
X114800668Y-85768667D01*
X114767334Y-85635333D01*
X114734001Y-85568667D01*
X114667334Y-85502000D01*
X114567334Y-85468667D01*
X114500668Y-85468667D01*
X114400668Y-85502000D01*
X114367334Y-85535333D01*
X113734001Y-86168667D02*
X114067334Y-86168667D01*
X114067334Y-85468667D01*
X113000668Y-86135333D02*
X112900668Y-86168667D01*
X112734001Y-86168667D01*
X112667334Y-86135333D01*
X112634001Y-86102000D01*
X112600668Y-86035333D01*
X112600668Y-85968667D01*
X112634001Y-85902000D01*
X112667334Y-85868667D01*
X112734001Y-85835333D01*
X112867334Y-85802000D01*
X112934001Y-85768667D01*
X112967334Y-85735333D01*
X113000668Y-85668667D01*
X113000668Y-85602000D01*
X112967334Y-85535333D01*
X112934001Y-85502000D01*
X112867334Y-85468667D01*
X112700668Y-85468667D01*
X112600668Y-85502000D01*
X112300667Y-86168667D02*
X112300667Y-85468667D01*
X112134001Y-85468667D01*
X112034001Y-85502000D01*
X111967334Y-85568667D01*
X111934001Y-85635333D01*
X111900667Y-85768667D01*
X111900667Y-85868667D01*
X111934001Y-86002000D01*
X111967334Y-86068667D01*
X112034001Y-86135333D01*
X112134001Y-86168667D01*
X112300667Y-86168667D01*
X111634001Y-85968667D02*
X111300667Y-85968667D01*
X111700667Y-86168667D02*
X111467334Y-85468667D01*
X111234001Y-86168667D01*
X110467334Y-85902000D02*
X109934001Y-85902000D01*
X110200668Y-86168667D02*
X110200668Y-85635333D01*
X109267334Y-85468667D02*
X109600667Y-85468667D01*
X109634001Y-85802000D01*
X109600667Y-85768667D01*
X109534001Y-85735333D01*
X109367334Y-85735333D01*
X109300667Y-85768667D01*
X109267334Y-85802000D01*
X109234001Y-85868667D01*
X109234001Y-86035333D01*
X109267334Y-86102000D01*
X109300667Y-86135333D01*
X109367334Y-86168667D01*
X109534001Y-86168667D01*
X109600667Y-86135333D01*
X109634001Y-86102000D01*
X109034000Y-85468667D02*
X108800667Y-86168667D01*
X108567334Y-85468667D01*
X107434001Y-85502000D02*
X107500667Y-85468667D01*
X107600667Y-85468667D01*
X107700667Y-85502000D01*
X107767334Y-85568667D01*
X107800667Y-85635333D01*
X107834001Y-85768667D01*
X107834001Y-85868667D01*
X107800667Y-86002000D01*
X107767334Y-86068667D01*
X107700667Y-86135333D01*
X107600667Y-86168667D01*
X107534001Y-86168667D01*
X107434001Y-86135333D01*
X107400667Y-86102000D01*
X107400667Y-85868667D01*
X107534001Y-85868667D01*
X107100667Y-86168667D02*
X107100667Y-85468667D01*
X106700667Y-86168667D01*
X106700667Y-85468667D01*
X106367334Y-86168667D02*
X106367334Y-85468667D01*
X106200668Y-85468667D01*
X106100668Y-85502000D01*
X106034001Y-85568667D01*
X106000668Y-85635333D01*
X105967334Y-85768667D01*
X105967334Y-85868667D01*
X106000668Y-86002000D01*
X106034001Y-86068667D01*
X106100668Y-86135333D01*
X106200668Y-86168667D01*
X106367334Y-86168667D01*
X101038667Y-86135333D02*
X100938667Y-86168667D01*
X100772000Y-86168667D01*
X100705333Y-86135333D01*
X100672000Y-86102000D01*
X100638667Y-86035333D01*
X100638667Y-85968667D01*
X100672000Y-85902000D01*
X100705333Y-85868667D01*
X100772000Y-85835333D01*
X100905333Y-85802000D01*
X100972000Y-85768667D01*
X101005333Y-85735333D01*
X101038667Y-85668667D01*
X101038667Y-85602000D01*
X101005333Y-85535333D01*
X100972000Y-85502000D01*
X100905333Y-85468667D01*
X100738667Y-85468667D01*
X100638667Y-85502000D01*
X99938666Y-86102000D02*
X99972000Y-86135333D01*
X100072000Y-86168667D01*
X100138666Y-86168667D01*
X100238666Y-86135333D01*
X100305333Y-86068667D01*
X100338666Y-86002000D01*
X100372000Y-85868667D01*
X100372000Y-85768667D01*
X100338666Y-85635333D01*
X100305333Y-85568667D01*
X100238666Y-85502000D01*
X100138666Y-85468667D01*
X100072000Y-85468667D01*
X99972000Y-85502000D01*
X99938666Y-85535333D01*
X99305333Y-86168667D02*
X99638666Y-86168667D01*
X99638666Y-85468667D01*
X98572000Y-86135333D02*
X98472000Y-86168667D01*
X98305333Y-86168667D01*
X98238666Y-86135333D01*
X98205333Y-86102000D01*
X98172000Y-86035333D01*
X98172000Y-85968667D01*
X98205333Y-85902000D01*
X98238666Y-85868667D01*
X98305333Y-85835333D01*
X98438666Y-85802000D01*
X98505333Y-85768667D01*
X98538666Y-85735333D01*
X98572000Y-85668667D01*
X98572000Y-85602000D01*
X98538666Y-85535333D01*
X98505333Y-85502000D01*
X98438666Y-85468667D01*
X98272000Y-85468667D01*
X98172000Y-85502000D01*
X97871999Y-86168667D02*
X97871999Y-85468667D01*
X97705333Y-85468667D01*
X97605333Y-85502000D01*
X97538666Y-85568667D01*
X97505333Y-85635333D01*
X97471999Y-85768667D01*
X97471999Y-85868667D01*
X97505333Y-86002000D01*
X97538666Y-86068667D01*
X97605333Y-86135333D01*
X97705333Y-86168667D01*
X97871999Y-86168667D01*
X97205333Y-85968667D02*
X96871999Y-85968667D01*
X97271999Y-86168667D02*
X97038666Y-85468667D01*
X96805333Y-86168667D01*
X95505333Y-85902000D02*
X94972000Y-85902000D01*
X95238667Y-86168667D02*
X95238667Y-85635333D01*
X94305333Y-85468667D02*
X94638666Y-85468667D01*
X94672000Y-85802000D01*
X94638666Y-85768667D01*
X94572000Y-85735333D01*
X94405333Y-85735333D01*
X94338666Y-85768667D01*
X94305333Y-85802000D01*
X94272000Y-85868667D01*
X94272000Y-86035333D01*
X94305333Y-86102000D01*
X94338666Y-86135333D01*
X94405333Y-86168667D01*
X94572000Y-86168667D01*
X94638666Y-86135333D01*
X94672000Y-86102000D01*
X94071999Y-85468667D02*
X93838666Y-86168667D01*
X93605333Y-85468667D01*
X92472000Y-85502000D02*
X92538666Y-85468667D01*
X92638666Y-85468667D01*
X92738666Y-85502000D01*
X92805333Y-85568667D01*
X92838666Y-85635333D01*
X92872000Y-85768667D01*
X92872000Y-85868667D01*
X92838666Y-86002000D01*
X92805333Y-86068667D01*
X92738666Y-86135333D01*
X92638666Y-86168667D01*
X92572000Y-86168667D01*
X92472000Y-86135333D01*
X92438666Y-86102000D01*
X92438666Y-85868667D01*
X92572000Y-85868667D01*
X92138666Y-86168667D02*
X92138666Y-85468667D01*
X91738666Y-86168667D01*
X91738666Y-85468667D01*
X91405333Y-86168667D02*
X91405333Y-85468667D01*
X91238667Y-85468667D01*
X91138667Y-85502000D01*
X91072000Y-85568667D01*
X91038667Y-85635333D01*
X91005333Y-85768667D01*
X91005333Y-85868667D01*
X91038667Y-86002000D01*
X91072000Y-86068667D01*
X91138667Y-86135333D01*
X91238667Y-86168667D01*
X91405333Y-86168667D01*
X85432000Y-85468667D02*
X84998667Y-85468667D01*
X85232000Y-85735333D01*
X85132000Y-85735333D01*
X85065333Y-85768667D01*
X85032000Y-85802000D01*
X84998667Y-85868667D01*
X84998667Y-86035333D01*
X85032000Y-86102000D01*
X85065333Y-86135333D01*
X85132000Y-86168667D01*
X85332000Y-86168667D01*
X85398667Y-86135333D01*
X85432000Y-86102000D01*
X84698666Y-86102000D02*
X84665333Y-86135333D01*
X84698666Y-86168667D01*
X84732000Y-86135333D01*
X84698666Y-86102000D01*
X84698666Y-86168667D01*
X84432000Y-85468667D02*
X83998667Y-85468667D01*
X84232000Y-85735333D01*
X84132000Y-85735333D01*
X84065333Y-85768667D01*
X84032000Y-85802000D01*
X83998667Y-85868667D01*
X83998667Y-86035333D01*
X84032000Y-86102000D01*
X84065333Y-86135333D01*
X84132000Y-86168667D01*
X84332000Y-86168667D01*
X84398667Y-86135333D01*
X84432000Y-86102000D01*
X83798666Y-85468667D02*
X83565333Y-86168667D01*
X83332000Y-85468667D01*
X82565333Y-86168667D02*
X82565333Y-85468667D01*
X82398667Y-85468667D01*
X82298667Y-85502000D01*
X82232000Y-85568667D01*
X82198667Y-85635333D01*
X82165333Y-85768667D01*
X82165333Y-85868667D01*
X82198667Y-86002000D01*
X82232000Y-86068667D01*
X82298667Y-86135333D01*
X82398667Y-86168667D01*
X82565333Y-86168667D01*
X81565333Y-85468667D02*
X81698667Y-85468667D01*
X81765333Y-85502000D01*
X81798667Y-85535333D01*
X81865333Y-85635333D01*
X81898667Y-85768667D01*
X81898667Y-86035333D01*
X81865333Y-86102000D01*
X81832000Y-86135333D01*
X81765333Y-86168667D01*
X81632000Y-86168667D01*
X81565333Y-86135333D01*
X81532000Y-86102000D01*
X81498667Y-86035333D01*
X81498667Y-85868667D01*
X81532000Y-85802000D01*
X81565333Y-85768667D01*
X81632000Y-85735333D01*
X81765333Y-85735333D01*
X81832000Y-85768667D01*
X81865333Y-85802000D01*
X81898667Y-85868667D01*
X80298667Y-85502000D02*
X80365333Y-85468667D01*
X80465333Y-85468667D01*
X80565333Y-85502000D01*
X80632000Y-85568667D01*
X80665333Y-85635333D01*
X80698667Y-85768667D01*
X80698667Y-85868667D01*
X80665333Y-86002000D01*
X80632000Y-86068667D01*
X80565333Y-86135333D01*
X80465333Y-86168667D01*
X80398667Y-86168667D01*
X80298667Y-86135333D01*
X80265333Y-86102000D01*
X80265333Y-85868667D01*
X80398667Y-85868667D01*
X79965333Y-86168667D02*
X79965333Y-85468667D01*
X79565333Y-86168667D01*
X79565333Y-85468667D01*
X79232000Y-86168667D02*
X79232000Y-85468667D01*
X79065334Y-85468667D01*
X78965334Y-85502000D01*
X78898667Y-85568667D01*
X78865334Y-85635333D01*
X78832000Y-85768667D01*
X78832000Y-85868667D01*
X78865334Y-86002000D01*
X78898667Y-86068667D01*
X78965334Y-86135333D01*
X79065334Y-86168667D01*
X79232000Y-86168667D01*
X77998667Y-85902000D02*
X77465334Y-85902000D01*
X77732001Y-86168667D02*
X77732001Y-85635333D01*
X76798667Y-85468667D02*
X77132000Y-85468667D01*
X77165334Y-85802000D01*
X77132000Y-85768667D01*
X77065334Y-85735333D01*
X76898667Y-85735333D01*
X76832000Y-85768667D01*
X76798667Y-85802000D01*
X76765334Y-85868667D01*
X76765334Y-86035333D01*
X76798667Y-86102000D01*
X76832000Y-86135333D01*
X76898667Y-86168667D01*
X77065334Y-86168667D01*
X77132000Y-86135333D01*
X77165334Y-86102000D01*
X76565333Y-85468667D02*
X76332000Y-86168667D01*
X76098667Y-85468667D01*
X68760667Y-85468667D02*
X68327334Y-85468667D01*
X68560667Y-85735333D01*
X68460667Y-85735333D01*
X68394000Y-85768667D01*
X68360667Y-85802000D01*
X68327334Y-85868667D01*
X68327334Y-86035333D01*
X68360667Y-86102000D01*
X68394000Y-86135333D01*
X68460667Y-86168667D01*
X68660667Y-86168667D01*
X68727334Y-86135333D01*
X68760667Y-86102000D01*
X68027333Y-86102000D02*
X67994000Y-86135333D01*
X68027333Y-86168667D01*
X68060667Y-86135333D01*
X68027333Y-86102000D01*
X68027333Y-86168667D01*
X67760667Y-85468667D02*
X67327334Y-85468667D01*
X67560667Y-85735333D01*
X67460667Y-85735333D01*
X67394000Y-85768667D01*
X67360667Y-85802000D01*
X67327334Y-85868667D01*
X67327334Y-86035333D01*
X67360667Y-86102000D01*
X67394000Y-86135333D01*
X67460667Y-86168667D01*
X67660667Y-86168667D01*
X67727334Y-86135333D01*
X67760667Y-86102000D01*
X67127333Y-85468667D02*
X66894000Y-86168667D01*
X66660667Y-85468667D01*
X65894000Y-86168667D02*
X65894000Y-85468667D01*
X65727334Y-85468667D01*
X65627334Y-85502000D01*
X65560667Y-85568667D01*
X65527334Y-85635333D01*
X65494000Y-85768667D01*
X65494000Y-85868667D01*
X65527334Y-86002000D01*
X65560667Y-86068667D01*
X65627334Y-86135333D01*
X65727334Y-86168667D01*
X65894000Y-86168667D01*
X64827334Y-86168667D02*
X65227334Y-86168667D01*
X65027334Y-86168667D02*
X65027334Y-85468667D01*
X65094000Y-85568667D01*
X65160667Y-85635333D01*
X65227334Y-85668667D01*
X64560667Y-85535333D02*
X64527333Y-85502000D01*
X64460667Y-85468667D01*
X64294000Y-85468667D01*
X64227333Y-85502000D01*
X64194000Y-85535333D01*
X64160667Y-85602000D01*
X64160667Y-85668667D01*
X64194000Y-85768667D01*
X64594000Y-86168667D01*
X64160667Y-86168667D01*
X63327333Y-86168667D02*
X63327333Y-85468667D01*
X63160667Y-85468667D01*
X63060667Y-85502000D01*
X62994000Y-85568667D01*
X62960667Y-85635333D01*
X62927333Y-85768667D01*
X62927333Y-85868667D01*
X62960667Y-86002000D01*
X62994000Y-86068667D01*
X63060667Y-86135333D01*
X63160667Y-86168667D01*
X63327333Y-86168667D01*
X62260667Y-86168667D02*
X62660667Y-86168667D01*
X62460667Y-86168667D02*
X62460667Y-85468667D01*
X62527333Y-85568667D01*
X62594000Y-85635333D01*
X62660667Y-85668667D01*
X61594000Y-86168667D02*
X61994000Y-86168667D01*
X61794000Y-86168667D02*
X61794000Y-85468667D01*
X61860666Y-85568667D01*
X61927333Y-85635333D01*
X61994000Y-85668667D01*
X60394000Y-85502000D02*
X60460666Y-85468667D01*
X60560666Y-85468667D01*
X60660666Y-85502000D01*
X60727333Y-85568667D01*
X60760666Y-85635333D01*
X60794000Y-85768667D01*
X60794000Y-85868667D01*
X60760666Y-86002000D01*
X60727333Y-86068667D01*
X60660666Y-86135333D01*
X60560666Y-86168667D01*
X60494000Y-86168667D01*
X60394000Y-86135333D01*
X60360666Y-86102000D01*
X60360666Y-85868667D01*
X60494000Y-85868667D01*
X60060666Y-86168667D02*
X60060666Y-85468667D01*
X59660666Y-86168667D01*
X59660666Y-85468667D01*
X59327333Y-86168667D02*
X59327333Y-85468667D01*
X59160667Y-85468667D01*
X59060667Y-85502000D01*
X58994000Y-85568667D01*
X58960667Y-85635333D01*
X58927333Y-85768667D01*
X58927333Y-85868667D01*
X58960667Y-86002000D01*
X58994000Y-86068667D01*
X59060667Y-86135333D01*
X59160667Y-86168667D01*
X59327333Y-86168667D01*
X58094000Y-85902000D02*
X57560667Y-85902000D01*
X57827334Y-86168667D02*
X57827334Y-85635333D01*
X56894000Y-85468667D02*
X57227333Y-85468667D01*
X57260667Y-85802000D01*
X57227333Y-85768667D01*
X57160667Y-85735333D01*
X56994000Y-85735333D01*
X56927333Y-85768667D01*
X56894000Y-85802000D01*
X56860667Y-85868667D01*
X56860667Y-86035333D01*
X56894000Y-86102000D01*
X56927333Y-86135333D01*
X56994000Y-86168667D01*
X57160667Y-86168667D01*
X57227333Y-86135333D01*
X57260667Y-86102000D01*
X56660666Y-85468667D02*
X56427333Y-86168667D01*
X56194000Y-85468667D01*
X49881333Y-85468667D02*
X49448000Y-85468667D01*
X49681333Y-85735333D01*
X49581333Y-85735333D01*
X49514666Y-85768667D01*
X49481333Y-85802000D01*
X49448000Y-85868667D01*
X49448000Y-86035333D01*
X49481333Y-86102000D01*
X49514666Y-86135333D01*
X49581333Y-86168667D01*
X49781333Y-86168667D01*
X49848000Y-86135333D01*
X49881333Y-86102000D01*
X49147999Y-86102000D02*
X49114666Y-86135333D01*
X49147999Y-86168667D01*
X49181333Y-86135333D01*
X49147999Y-86102000D01*
X49147999Y-86168667D01*
X48881333Y-85468667D02*
X48448000Y-85468667D01*
X48681333Y-85735333D01*
X48581333Y-85735333D01*
X48514666Y-85768667D01*
X48481333Y-85802000D01*
X48448000Y-85868667D01*
X48448000Y-86035333D01*
X48481333Y-86102000D01*
X48514666Y-86135333D01*
X48581333Y-86168667D01*
X48781333Y-86168667D01*
X48848000Y-86135333D01*
X48881333Y-86102000D01*
X48247999Y-85468667D02*
X48014666Y-86168667D01*
X47781333Y-85468667D01*
X47114666Y-85468667D02*
X46714666Y-85468667D01*
X46914666Y-86168667D02*
X46914666Y-85468667D01*
X46548000Y-85468667D02*
X46081333Y-86168667D01*
X46081333Y-85468667D02*
X46548000Y-86168667D01*
X45881333Y-85468667D02*
X45448000Y-85468667D01*
X45681333Y-85735333D01*
X45581333Y-85735333D01*
X45514666Y-85768667D01*
X45481333Y-85802000D01*
X45448000Y-85868667D01*
X45448000Y-86035333D01*
X45481333Y-86102000D01*
X45514666Y-86135333D01*
X45581333Y-86168667D01*
X45781333Y-86168667D01*
X45848000Y-86135333D01*
X45881333Y-86102000D01*
X44214666Y-86168667D02*
X44448000Y-85835333D01*
X44614666Y-86168667D02*
X44614666Y-85468667D01*
X44348000Y-85468667D01*
X44281333Y-85502000D01*
X44248000Y-85535333D01*
X44214666Y-85602000D01*
X44214666Y-85702000D01*
X44248000Y-85768667D01*
X44281333Y-85802000D01*
X44348000Y-85835333D01*
X44614666Y-85835333D01*
X43981333Y-85468667D02*
X43514666Y-86168667D01*
X43514666Y-85468667D02*
X43981333Y-86168667D01*
X43314666Y-85468667D02*
X42881333Y-85468667D01*
X43114666Y-85735333D01*
X43014666Y-85735333D01*
X42947999Y-85768667D01*
X42914666Y-85802000D01*
X42881333Y-85868667D01*
X42881333Y-86035333D01*
X42914666Y-86102000D01*
X42947999Y-86135333D01*
X43014666Y-86168667D01*
X43214666Y-86168667D01*
X43281333Y-86135333D01*
X43314666Y-86102000D01*
X41681333Y-85502000D02*
X41747999Y-85468667D01*
X41847999Y-85468667D01*
X41947999Y-85502000D01*
X42014666Y-85568667D01*
X42047999Y-85635333D01*
X42081333Y-85768667D01*
X42081333Y-85868667D01*
X42047999Y-86002000D01*
X42014666Y-86068667D01*
X41947999Y-86135333D01*
X41847999Y-86168667D01*
X41781333Y-86168667D01*
X41681333Y-86135333D01*
X41647999Y-86102000D01*
X41647999Y-85868667D01*
X41781333Y-85868667D01*
X41347999Y-86168667D02*
X41347999Y-85468667D01*
X40947999Y-86168667D01*
X40947999Y-85468667D01*
X40614666Y-86168667D02*
X40614666Y-85468667D01*
X40448000Y-85468667D01*
X40348000Y-85502000D01*
X40281333Y-85568667D01*
X40248000Y-85635333D01*
X40214666Y-85768667D01*
X40214666Y-85868667D01*
X40248000Y-86002000D01*
X40281333Y-86068667D01*
X40348000Y-86135333D01*
X40448000Y-86168667D01*
X40614666Y-86168667D01*
X39381333Y-85902000D02*
X38848000Y-85902000D01*
X39114667Y-86168667D02*
X39114667Y-85635333D01*
X38181333Y-85468667D02*
X38514666Y-85468667D01*
X38548000Y-85802000D01*
X38514666Y-85768667D01*
X38448000Y-85735333D01*
X38281333Y-85735333D01*
X38214666Y-85768667D01*
X38181333Y-85802000D01*
X38148000Y-85868667D01*
X38148000Y-86035333D01*
X38181333Y-86102000D01*
X38214666Y-86135333D01*
X38281333Y-86168667D01*
X38448000Y-86168667D01*
X38514666Y-86135333D01*
X38548000Y-86102000D01*
X37947999Y-85468667D02*
X37714666Y-86168667D01*
X37481333Y-85468667D01*
D13*
X37970857Y-134306571D02*
X37970857Y-135520857D01*
X37899429Y-135663714D01*
X37828000Y-135735143D01*
X37685143Y-135806571D01*
X37399429Y-135806571D01*
X37256571Y-135735143D01*
X37185143Y-135663714D01*
X37113714Y-135520857D01*
X37113714Y-134306571D01*
X36470857Y-135735143D02*
X36256571Y-135806571D01*
X35899428Y-135806571D01*
X35756571Y-135735143D01*
X35685142Y-135663714D01*
X35613714Y-135520857D01*
X35613714Y-135378000D01*
X35685142Y-135235143D01*
X35756571Y-135163714D01*
X35899428Y-135092286D01*
X36185142Y-135020857D01*
X36328000Y-134949429D01*
X36399428Y-134878000D01*
X36470857Y-134735143D01*
X36470857Y-134592286D01*
X36399428Y-134449429D01*
X36328000Y-134378000D01*
X36185142Y-134306571D01*
X35828000Y-134306571D01*
X35613714Y-134378000D01*
X34470857Y-135020857D02*
X34256571Y-135092286D01*
X34185143Y-135163714D01*
X34113714Y-135306571D01*
X34113714Y-135520857D01*
X34185143Y-135663714D01*
X34256571Y-135735143D01*
X34399429Y-135806571D01*
X34970857Y-135806571D01*
X34970857Y-134306571D01*
X34470857Y-134306571D01*
X34328000Y-134378000D01*
X34256571Y-134449429D01*
X34185143Y-134592286D01*
X34185143Y-134735143D01*
X34256571Y-134878000D01*
X34328000Y-134949429D01*
X34470857Y-135020857D01*
X34970857Y-135020857D01*
X61845715Y-103818571D02*
X62988572Y-104247143D01*
X61845715Y-104675714D01*
X61131429Y-104032857D02*
X59988572Y-104032857D01*
X59988572Y-104461429D02*
X61131429Y-104461429D01*
X58131429Y-104818571D02*
X58131429Y-103318571D01*
X57560001Y-103318571D01*
X57417143Y-103390000D01*
X57345715Y-103461429D01*
X57274286Y-103604286D01*
X57274286Y-103818571D01*
X57345715Y-103961429D01*
X57417143Y-104032857D01*
X57560001Y-104104286D01*
X58131429Y-104104286D01*
X55774286Y-104818571D02*
X56274286Y-104104286D01*
X56631429Y-104818571D02*
X56631429Y-103318571D01*
X56060001Y-103318571D01*
X55917143Y-103390000D01*
X55845715Y-103461429D01*
X55774286Y-103604286D01*
X55774286Y-103818571D01*
X55845715Y-103961429D01*
X55917143Y-104032857D01*
X56060001Y-104104286D01*
X56631429Y-104104286D01*
X54845715Y-103318571D02*
X54560001Y-103318571D01*
X54417143Y-103390000D01*
X54274286Y-103532857D01*
X54202858Y-103818571D01*
X54202858Y-104318571D01*
X54274286Y-104604286D01*
X54417143Y-104747143D01*
X54560001Y-104818571D01*
X54845715Y-104818571D01*
X54988572Y-104747143D01*
X55131429Y-104604286D01*
X55202858Y-104318571D01*
X55202858Y-103818571D01*
X55131429Y-103532857D01*
X54988572Y-103390000D01*
X54845715Y-103318571D01*
X52774286Y-103390000D02*
X52917143Y-103318571D01*
X53131429Y-103318571D01*
X53345714Y-103390000D01*
X53488572Y-103532857D01*
X53560000Y-103675714D01*
X53631429Y-103961429D01*
X53631429Y-104175714D01*
X53560000Y-104461429D01*
X53488572Y-104604286D01*
X53345714Y-104747143D01*
X53131429Y-104818571D01*
X52988572Y-104818571D01*
X52774286Y-104747143D01*
X52702857Y-104675714D01*
X52702857Y-104175714D01*
X52988572Y-104175714D01*
X51202857Y-104818571D02*
X51702857Y-104104286D01*
X52060000Y-104818571D02*
X52060000Y-103318571D01*
X51488572Y-103318571D01*
X51345714Y-103390000D01*
X51274286Y-103461429D01*
X51202857Y-103604286D01*
X51202857Y-103818571D01*
X51274286Y-103961429D01*
X51345714Y-104032857D01*
X51488572Y-104104286D01*
X52060000Y-104104286D01*
X50631429Y-104390000D02*
X49917143Y-104390000D01*
X50774286Y-104818571D02*
X50274286Y-103318571D01*
X49774286Y-104818571D01*
X49274286Y-104818571D02*
X49274286Y-103318571D01*
X48774286Y-104390000D01*
X48274286Y-103318571D01*
X48274286Y-104818571D01*
X45917143Y-104032857D02*
X45702857Y-104104286D01*
X45631429Y-104175714D01*
X45560000Y-104318571D01*
X45560000Y-104532857D01*
X45631429Y-104675714D01*
X45702857Y-104747143D01*
X45845715Y-104818571D01*
X46417143Y-104818571D01*
X46417143Y-103318571D01*
X45917143Y-103318571D01*
X45774286Y-103390000D01*
X45702857Y-103461429D01*
X45631429Y-103604286D01*
X45631429Y-103747143D01*
X45702857Y-103890000D01*
X45774286Y-103961429D01*
X45917143Y-104032857D01*
X46417143Y-104032857D01*
X44917143Y-103318571D02*
X44917143Y-104532857D01*
X44845715Y-104675714D01*
X44774286Y-104747143D01*
X44631429Y-104818571D01*
X44345715Y-104818571D01*
X44202857Y-104747143D01*
X44131429Y-104675714D01*
X44060000Y-104532857D01*
X44060000Y-103318571D01*
X43560000Y-103318571D02*
X42702857Y-103318571D01*
X43131428Y-104818571D02*
X43131428Y-103318571D01*
X42417143Y-103318571D02*
X41560000Y-103318571D01*
X41988571Y-104818571D02*
X41988571Y-103318571D01*
X40774286Y-103318571D02*
X40488572Y-103318571D01*
X40345714Y-103390000D01*
X40202857Y-103532857D01*
X40131429Y-103818571D01*
X40131429Y-104318571D01*
X40202857Y-104604286D01*
X40345714Y-104747143D01*
X40488572Y-104818571D01*
X40774286Y-104818571D01*
X40917143Y-104747143D01*
X41060000Y-104604286D01*
X41131429Y-104318571D01*
X41131429Y-103818571D01*
X41060000Y-103532857D01*
X40917143Y-103390000D01*
X40774286Y-103318571D01*
X39488571Y-104818571D02*
X39488571Y-103318571D01*
X38631428Y-104818571D01*
X38631428Y-103318571D01*
X94886571Y-127027714D02*
X94958000Y-127099143D01*
X95172286Y-127170571D01*
X95315143Y-127170571D01*
X95529428Y-127099143D01*
X95672286Y-126956286D01*
X95743714Y-126813429D01*
X95815143Y-126527714D01*
X95815143Y-126313429D01*
X95743714Y-126027714D01*
X95672286Y-125884857D01*
X95529428Y-125742000D01*
X95315143Y-125670571D01*
X95172286Y-125670571D01*
X94958000Y-125742000D01*
X94886571Y-125813429D01*
X94458000Y-125670571D02*
X93600857Y-125670571D01*
X94029428Y-127170571D02*
X94029428Y-125670571D01*
X92386571Y-127170571D02*
X93100857Y-127170571D01*
X93100857Y-125670571D01*
X92029428Y-125670571D02*
X91100857Y-125670571D01*
X91600857Y-126242000D01*
X91386571Y-126242000D01*
X91243714Y-126313429D01*
X91172285Y-126384857D01*
X91100857Y-126527714D01*
X91100857Y-126884857D01*
X91172285Y-127027714D01*
X91243714Y-127099143D01*
X91386571Y-127170571D01*
X91815143Y-127170571D01*
X91958000Y-127099143D01*
X92029428Y-127027714D01*
X89386572Y-125599143D02*
X90672286Y-127527714D01*
X88243714Y-126170571D02*
X88243714Y-127170571D01*
X88600857Y-125599143D02*
X88958000Y-126670571D01*
X88029428Y-126670571D01*
X75582571Y-127027714D02*
X75654000Y-127099143D01*
X75868286Y-127170571D01*
X76011143Y-127170571D01*
X76225428Y-127099143D01*
X76368286Y-126956286D01*
X76439714Y-126813429D01*
X76511143Y-126527714D01*
X76511143Y-126313429D01*
X76439714Y-126027714D01*
X76368286Y-125884857D01*
X76225428Y-125742000D01*
X76011143Y-125670571D01*
X75868286Y-125670571D01*
X75654000Y-125742000D01*
X75582571Y-125813429D01*
X75154000Y-125670571D02*
X74296857Y-125670571D01*
X74725428Y-127170571D02*
X74725428Y-125670571D01*
X73082571Y-127170571D02*
X73796857Y-127170571D01*
X73796857Y-125670571D01*
X71868285Y-125670571D02*
X72582571Y-125670571D01*
X72654000Y-126384857D01*
X72582571Y-126313429D01*
X72439714Y-126242000D01*
X72082571Y-126242000D01*
X71939714Y-126313429D01*
X71868285Y-126384857D01*
X71796857Y-126527714D01*
X71796857Y-126884857D01*
X71868285Y-127027714D01*
X71939714Y-127099143D01*
X72082571Y-127170571D01*
X72439714Y-127170571D01*
X72582571Y-127099143D01*
X72654000Y-127027714D01*
X70082572Y-125599143D02*
X71368286Y-127527714D01*
X68939714Y-125670571D02*
X69225428Y-125670571D01*
X69368285Y-125742000D01*
X69439714Y-125813429D01*
X69582571Y-126027714D01*
X69654000Y-126313429D01*
X69654000Y-126884857D01*
X69582571Y-127027714D01*
X69511143Y-127099143D01*
X69368285Y-127170571D01*
X69082571Y-127170571D01*
X68939714Y-127099143D01*
X68868285Y-127027714D01*
X68796857Y-126884857D01*
X68796857Y-126527714D01*
X68868285Y-126384857D01*
X68939714Y-126313429D01*
X69082571Y-126242000D01*
X69368285Y-126242000D01*
X69511143Y-126313429D01*
X69582571Y-126384857D01*
X69654000Y-126527714D01*
X55770571Y-127027714D02*
X55842000Y-127099143D01*
X56056286Y-127170571D01*
X56199143Y-127170571D01*
X56413428Y-127099143D01*
X56556286Y-126956286D01*
X56627714Y-126813429D01*
X56699143Y-126527714D01*
X56699143Y-126313429D01*
X56627714Y-126027714D01*
X56556286Y-125884857D01*
X56413428Y-125742000D01*
X56199143Y-125670571D01*
X56056286Y-125670571D01*
X55842000Y-125742000D01*
X55770571Y-125813429D01*
X55342000Y-125670571D02*
X54484857Y-125670571D01*
X54913428Y-127170571D02*
X54913428Y-125670571D01*
X53270571Y-127170571D02*
X53984857Y-127170571D01*
X53984857Y-125670571D01*
X52913428Y-125670571D02*
X51913428Y-125670571D01*
X52556285Y-127170571D01*
X50270572Y-125599143D02*
X51556286Y-127527714D01*
X49556285Y-126313429D02*
X49699143Y-126242000D01*
X49770571Y-126170571D01*
X49842000Y-126027714D01*
X49842000Y-125956286D01*
X49770571Y-125813429D01*
X49699143Y-125742000D01*
X49556285Y-125670571D01*
X49270571Y-125670571D01*
X49127714Y-125742000D01*
X49056285Y-125813429D01*
X48984857Y-125956286D01*
X48984857Y-126027714D01*
X49056285Y-126170571D01*
X49127714Y-126242000D01*
X49270571Y-126313429D01*
X49556285Y-126313429D01*
X49699143Y-126384857D01*
X49770571Y-126456286D01*
X49842000Y-126599143D01*
X49842000Y-126884857D01*
X49770571Y-127027714D01*
X49699143Y-127099143D01*
X49556285Y-127170571D01*
X49270571Y-127170571D01*
X49127714Y-127099143D01*
X49056285Y-127027714D01*
X48984857Y-126884857D01*
X48984857Y-126599143D01*
X49056285Y-126456286D01*
X49127714Y-126384857D01*
X49270571Y-126313429D01*
X204959999Y-136822571D02*
X205459999Y-136108286D01*
X205817142Y-136822571D02*
X205817142Y-135322571D01*
X205245714Y-135322571D01*
X205102856Y-135394000D01*
X205031428Y-135465429D01*
X204959999Y-135608286D01*
X204959999Y-135822571D01*
X205031428Y-135965429D01*
X205102856Y-136036857D01*
X205245714Y-136108286D01*
X205817142Y-136108286D01*
X203459999Y-136822571D02*
X203959999Y-136108286D01*
X204317142Y-136822571D02*
X204317142Y-135322571D01*
X203745714Y-135322571D01*
X203602856Y-135394000D01*
X203531428Y-135465429D01*
X203459999Y-135608286D01*
X203459999Y-135822571D01*
X203531428Y-135965429D01*
X203602856Y-136036857D01*
X203745714Y-136108286D01*
X204317142Y-136108286D01*
X201959999Y-136679714D02*
X202031428Y-136751143D01*
X202245714Y-136822571D01*
X202388571Y-136822571D01*
X202602856Y-136751143D01*
X202745714Y-136608286D01*
X202817142Y-136465429D01*
X202888571Y-136179714D01*
X202888571Y-135965429D01*
X202817142Y-135679714D01*
X202745714Y-135536857D01*
X202602856Y-135394000D01*
X202388571Y-135322571D01*
X202245714Y-135322571D01*
X202031428Y-135394000D01*
X201959999Y-135465429D01*
X201388571Y-135465429D02*
X201317142Y-135394000D01*
X201174285Y-135322571D01*
X200817142Y-135322571D01*
X200674285Y-135394000D01*
X200602856Y-135465429D01*
X200531428Y-135608286D01*
X200531428Y-135751143D01*
X200602856Y-135965429D01*
X201459999Y-136822571D01*
X200531428Y-136822571D01*
X181568000Y-133266571D02*
X181568000Y-131766571D01*
X181068000Y-132838000D01*
X180568000Y-131766571D01*
X180568000Y-133266571D01*
X179853714Y-133266571D02*
X179853714Y-131766571D01*
X179139428Y-133266571D02*
X179139428Y-131766571D01*
X178782285Y-131766571D01*
X178568000Y-131838000D01*
X178425142Y-131980857D01*
X178353714Y-132123714D01*
X178282285Y-132409429D01*
X178282285Y-132623714D01*
X178353714Y-132909429D01*
X178425142Y-133052286D01*
X178568000Y-133195143D01*
X178782285Y-133266571D01*
X179139428Y-133266571D01*
X177639428Y-133266571D02*
X177639428Y-131766571D01*
X175853714Y-131909429D02*
X175782285Y-131838000D01*
X175639428Y-131766571D01*
X175282285Y-131766571D01*
X175139428Y-131838000D01*
X175067999Y-131909429D01*
X174996571Y-132052286D01*
X174996571Y-132195143D01*
X175067999Y-132409429D01*
X175925142Y-133266571D01*
X174996571Y-133266571D01*
X159914286Y-133266571D02*
X159914286Y-131766571D01*
X159414286Y-132838000D01*
X158914286Y-131766571D01*
X158914286Y-133266571D01*
X158200000Y-133266571D02*
X158200000Y-131766571D01*
X157485714Y-133266571D02*
X157485714Y-131766571D01*
X157128571Y-131766571D01*
X156914286Y-131838000D01*
X156771428Y-131980857D01*
X156700000Y-132123714D01*
X156628571Y-132409429D01*
X156628571Y-132623714D01*
X156700000Y-132909429D01*
X156771428Y-133052286D01*
X156914286Y-133195143D01*
X157128571Y-133266571D01*
X157485714Y-133266571D01*
X155985714Y-133266571D02*
X155985714Y-131766571D01*
X153342857Y-133266571D02*
X154200000Y-133266571D01*
X153771428Y-133266571D02*
X153771428Y-131766571D01*
X153914285Y-131980857D01*
X154057143Y-132123714D01*
X154200000Y-132195143D01*
X151557143Y-133266571D02*
X151557143Y-131766571D01*
X150842857Y-133266571D02*
X150842857Y-131766571D01*
X149985714Y-133266571D01*
X149985714Y-131766571D01*
X138054286Y-132758571D02*
X138054286Y-131258571D01*
X137554286Y-132330000D01*
X137054286Y-131258571D01*
X137054286Y-132758571D01*
X136340000Y-132758571D02*
X136340000Y-131258571D01*
X135625714Y-132758571D02*
X135625714Y-131258571D01*
X135268571Y-131258571D01*
X135054286Y-131330000D01*
X134911428Y-131472857D01*
X134840000Y-131615714D01*
X134768571Y-131901429D01*
X134768571Y-132115714D01*
X134840000Y-132401429D01*
X134911428Y-132544286D01*
X135054286Y-132687143D01*
X135268571Y-132758571D01*
X135625714Y-132758571D01*
X134125714Y-132758571D02*
X134125714Y-131258571D01*
X131482857Y-132758571D02*
X132340000Y-132758571D01*
X131911428Y-132758571D02*
X131911428Y-131258571D01*
X132054285Y-131472857D01*
X132197143Y-131615714D01*
X132340000Y-131687143D01*
X129411429Y-131258571D02*
X129125715Y-131258571D01*
X128982857Y-131330000D01*
X128840000Y-131472857D01*
X128768572Y-131758571D01*
X128768572Y-132258571D01*
X128840000Y-132544286D01*
X128982857Y-132687143D01*
X129125715Y-132758571D01*
X129411429Y-132758571D01*
X129554286Y-132687143D01*
X129697143Y-132544286D01*
X129768572Y-132258571D01*
X129768572Y-131758571D01*
X129697143Y-131472857D01*
X129554286Y-131330000D01*
X129411429Y-131258571D01*
X128125714Y-131258571D02*
X128125714Y-132472857D01*
X128054286Y-132615714D01*
X127982857Y-132687143D01*
X127840000Y-132758571D01*
X127554286Y-132758571D01*
X127411428Y-132687143D01*
X127340000Y-132615714D01*
X127268571Y-132472857D01*
X127268571Y-131258571D01*
X126768571Y-131258571D02*
X125911428Y-131258571D01*
X126339999Y-132758571D02*
X126339999Y-131258571D01*
D14*
X189231429Y-86447143D02*
X190231429Y-85018571D01*
X190945714Y-86447143D02*
X190945714Y-83447143D01*
X189802857Y-83447143D01*
X189517143Y-83590000D01*
X189374286Y-83732857D01*
X189231429Y-84018571D01*
X189231429Y-84447143D01*
X189374286Y-84732857D01*
X189517143Y-84875714D01*
X189802857Y-85018571D01*
X190945714Y-85018571D01*
X187945714Y-84875714D02*
X186945714Y-84875714D01*
X186517143Y-86447143D02*
X187945714Y-86447143D01*
X187945714Y-83447143D01*
X186517143Y-83447143D01*
X185660000Y-83447143D02*
X184660000Y-86447143D01*
X183660000Y-83447143D01*
X182659999Y-86161429D02*
X182517142Y-86304286D01*
X182659999Y-86447143D01*
X182802856Y-86304286D01*
X182659999Y-86161429D01*
X182659999Y-86447143D01*
X177231429Y-86161429D02*
X177374286Y-86304286D01*
X177802857Y-86447143D01*
X178088571Y-86447143D01*
X178517143Y-86304286D01*
X178802857Y-86018571D01*
X178945714Y-85732857D01*
X179088571Y-85161429D01*
X179088571Y-84732857D01*
X178945714Y-84161429D01*
X178802857Y-83875714D01*
X178517143Y-83590000D01*
X178088571Y-83447143D01*
X177802857Y-83447143D01*
X177374286Y-83590000D01*
X177231429Y-83732857D01*
D13*
X235224571Y-90612286D02*
X236724571Y-91112286D01*
X235224571Y-91612286D01*
X236153143Y-92112286D02*
X236153143Y-93255143D01*
X236581714Y-94826572D02*
X236653143Y-94755143D01*
X236724571Y-94540857D01*
X236724571Y-94398000D01*
X236653143Y-94183715D01*
X236510286Y-94040857D01*
X236367429Y-93969429D01*
X236081714Y-93898000D01*
X235867429Y-93898000D01*
X235581714Y-93969429D01*
X235438857Y-94040857D01*
X235296000Y-94183715D01*
X235224571Y-94398000D01*
X235224571Y-94540857D01*
X235296000Y-94755143D01*
X235367429Y-94826572D01*
X236724571Y-95683715D02*
X236653143Y-95540857D01*
X236581714Y-95469429D01*
X236438857Y-95398000D01*
X236010286Y-95398000D01*
X235867429Y-95469429D01*
X235796000Y-95540857D01*
X235724571Y-95683715D01*
X235724571Y-95898000D01*
X235796000Y-96040857D01*
X235867429Y-96112286D01*
X236010286Y-96183715D01*
X236438857Y-96183715D01*
X236581714Y-96112286D01*
X236653143Y-96040857D01*
X236724571Y-95898000D01*
X236724571Y-95683715D01*
X235724571Y-96826572D02*
X236724571Y-96826572D01*
X235867429Y-96826572D02*
X235796000Y-96898000D01*
X235724571Y-97040858D01*
X235724571Y-97255143D01*
X235796000Y-97398000D01*
X235938857Y-97469429D01*
X236724571Y-97469429D01*
X235724571Y-97969429D02*
X235724571Y-98540858D01*
X235224571Y-98183715D02*
X236510286Y-98183715D01*
X236653143Y-98255143D01*
X236724571Y-98398001D01*
X236724571Y-98540858D01*
X236724571Y-99040858D02*
X235724571Y-99040858D01*
X236010286Y-99040858D02*
X235867429Y-99112286D01*
X235796000Y-99183715D01*
X235724571Y-99326572D01*
X235724571Y-99469429D01*
X236724571Y-100183715D02*
X236653143Y-100040857D01*
X236581714Y-99969429D01*
X236438857Y-99898000D01*
X236010286Y-99898000D01*
X235867429Y-99969429D01*
X235796000Y-100040857D01*
X235724571Y-100183715D01*
X235724571Y-100398000D01*
X235796000Y-100540857D01*
X235867429Y-100612286D01*
X236010286Y-100683715D01*
X236438857Y-100683715D01*
X236581714Y-100612286D01*
X236653143Y-100540857D01*
X236724571Y-100398000D01*
X236724571Y-100183715D01*
X236724571Y-101540858D02*
X236653143Y-101398000D01*
X236510286Y-101326572D01*
X235224571Y-101326572D01*
X236724571Y-102326572D02*
X236653143Y-102183714D01*
X236510286Y-102112286D01*
X235224571Y-102112286D01*
X236653143Y-103469428D02*
X236724571Y-103326571D01*
X236724571Y-103040857D01*
X236653143Y-102898000D01*
X236510286Y-102826571D01*
X235938857Y-102826571D01*
X235796000Y-102898000D01*
X235724571Y-103040857D01*
X235724571Y-103326571D01*
X235796000Y-103469428D01*
X235938857Y-103540857D01*
X236081714Y-103540857D01*
X236224571Y-102826571D01*
X236724571Y-104183714D02*
X235724571Y-104183714D01*
X236010286Y-104183714D02*
X235867429Y-104255142D01*
X235796000Y-104326571D01*
X235724571Y-104469428D01*
X235724571Y-104612285D01*
X236724571Y-106255142D02*
X235724571Y-106255142D01*
X235867429Y-106255142D02*
X235796000Y-106326570D01*
X235724571Y-106469428D01*
X235724571Y-106683713D01*
X235796000Y-106826570D01*
X235938857Y-106897999D01*
X236724571Y-106897999D01*
X235938857Y-106897999D02*
X235796000Y-106969428D01*
X235724571Y-107112285D01*
X235724571Y-107326570D01*
X235796000Y-107469428D01*
X235938857Y-107540856D01*
X236724571Y-107540856D01*
X236724571Y-108897999D02*
X235938857Y-108897999D01*
X235796000Y-108826570D01*
X235724571Y-108683713D01*
X235724571Y-108397999D01*
X235796000Y-108255142D01*
X236653143Y-108897999D02*
X236724571Y-108755142D01*
X236724571Y-108397999D01*
X236653143Y-108255142D01*
X236510286Y-108183713D01*
X236367429Y-108183713D01*
X236224571Y-108255142D01*
X236153143Y-108397999D01*
X236153143Y-108755142D01*
X236081714Y-108897999D01*
X236724571Y-109612285D02*
X235724571Y-109612285D01*
X235224571Y-109612285D02*
X235296000Y-109540856D01*
X235367429Y-109612285D01*
X235296000Y-109683713D01*
X235224571Y-109612285D01*
X235367429Y-109612285D01*
X235724571Y-110326571D02*
X236724571Y-110326571D01*
X235867429Y-110326571D02*
X235796000Y-110397999D01*
X235724571Y-110540857D01*
X235724571Y-110755142D01*
X235796000Y-110897999D01*
X235938857Y-110969428D01*
X236724571Y-110969428D01*
X236724571Y-112826571D02*
X235224571Y-112826571D01*
X235796000Y-112826571D02*
X235724571Y-112969428D01*
X235724571Y-113255142D01*
X235796000Y-113397999D01*
X235867429Y-113469428D01*
X236010286Y-113540857D01*
X236438857Y-113540857D01*
X236581714Y-113469428D01*
X236653143Y-113397999D01*
X236724571Y-113255142D01*
X236724571Y-112969428D01*
X236653143Y-112826571D01*
X236724571Y-114398000D02*
X236653143Y-114255142D01*
X236581714Y-114183714D01*
X236438857Y-114112285D01*
X236010286Y-114112285D01*
X235867429Y-114183714D01*
X235796000Y-114255142D01*
X235724571Y-114398000D01*
X235724571Y-114612285D01*
X235796000Y-114755142D01*
X235867429Y-114826571D01*
X236010286Y-114898000D01*
X236438857Y-114898000D01*
X236581714Y-114826571D01*
X236653143Y-114755142D01*
X236724571Y-114612285D01*
X236724571Y-114398000D01*
X236724571Y-116183714D02*
X235938857Y-116183714D01*
X235796000Y-116112285D01*
X235724571Y-115969428D01*
X235724571Y-115683714D01*
X235796000Y-115540857D01*
X236653143Y-116183714D02*
X236724571Y-116040857D01*
X236724571Y-115683714D01*
X236653143Y-115540857D01*
X236510286Y-115469428D01*
X236367429Y-115469428D01*
X236224571Y-115540857D01*
X236153143Y-115683714D01*
X236153143Y-116040857D01*
X236081714Y-116183714D01*
X236724571Y-116898000D02*
X235724571Y-116898000D01*
X236010286Y-116898000D02*
X235867429Y-116969428D01*
X235796000Y-117040857D01*
X235724571Y-117183714D01*
X235724571Y-117326571D01*
X236724571Y-118469428D02*
X235224571Y-118469428D01*
X236653143Y-118469428D02*
X236724571Y-118326571D01*
X236724571Y-118040857D01*
X236653143Y-117897999D01*
X236581714Y-117826571D01*
X236438857Y-117755142D01*
X236010286Y-117755142D01*
X235867429Y-117826571D01*
X235796000Y-117897999D01*
X235724571Y-118040857D01*
X235724571Y-118326571D01*
X235796000Y-118469428D01*
X239124571Y-85540857D02*
X237624571Y-85540857D01*
X238196000Y-85540857D02*
X238124571Y-85683714D01*
X238124571Y-85969428D01*
X238196000Y-86112285D01*
X238267429Y-86183714D01*
X238410286Y-86255143D01*
X238838857Y-86255143D01*
X238981714Y-86183714D01*
X239053143Y-86112285D01*
X239124571Y-85969428D01*
X239124571Y-85683714D01*
X239053143Y-85540857D01*
X238124571Y-86755143D02*
X239124571Y-87112286D01*
X238124571Y-87469428D02*
X239124571Y-87112286D01*
X239481714Y-86969428D01*
X239553143Y-86898000D01*
X239624571Y-86755143D01*
X238981714Y-90040857D02*
X239053143Y-89969428D01*
X239124571Y-89755142D01*
X239124571Y-89612285D01*
X239053143Y-89398000D01*
X238910286Y-89255142D01*
X238767429Y-89183714D01*
X238481714Y-89112285D01*
X238267429Y-89112285D01*
X237981714Y-89183714D01*
X237838857Y-89255142D01*
X237696000Y-89398000D01*
X237624571Y-89612285D01*
X237624571Y-89755142D01*
X237696000Y-89969428D01*
X237767429Y-90040857D01*
X239124571Y-91326571D02*
X238338857Y-91326571D01*
X238196000Y-91255142D01*
X238124571Y-91112285D01*
X238124571Y-90826571D01*
X238196000Y-90683714D01*
X239053143Y-91326571D02*
X239124571Y-91183714D01*
X239124571Y-90826571D01*
X239053143Y-90683714D01*
X238910286Y-90612285D01*
X238767429Y-90612285D01*
X238624571Y-90683714D01*
X238553143Y-90826571D01*
X238553143Y-91183714D01*
X238481714Y-91326571D01*
X238124571Y-91826571D02*
X238124571Y-92398000D01*
X237624571Y-92040857D02*
X238910286Y-92040857D01*
X239053143Y-92112285D01*
X239124571Y-92255143D01*
X239124571Y-92398000D01*
X239124571Y-92898000D02*
X238124571Y-92898000D01*
X238410286Y-92898000D02*
X238267429Y-92969428D01*
X238196000Y-93040857D01*
X238124571Y-93183714D01*
X238124571Y-93326571D01*
X239124571Y-93826571D02*
X238124571Y-93826571D01*
X237624571Y-93826571D02*
X237696000Y-93755142D01*
X237767429Y-93826571D01*
X237696000Y-93897999D01*
X237624571Y-93826571D01*
X237767429Y-93826571D01*
X238124571Y-94540857D02*
X239124571Y-94540857D01*
X238267429Y-94540857D02*
X238196000Y-94612285D01*
X238124571Y-94755143D01*
X238124571Y-94969428D01*
X238196000Y-95112285D01*
X238338857Y-95183714D01*
X239124571Y-95183714D01*
X238124571Y-96540857D02*
X239124571Y-96540857D01*
X238124571Y-95898000D02*
X238910286Y-95898000D01*
X239053143Y-95969428D01*
X239124571Y-96112286D01*
X239124571Y-96326571D01*
X239053143Y-96469428D01*
X238981714Y-96540857D01*
X239053143Y-97183714D02*
X239124571Y-97326571D01*
X239124571Y-97612286D01*
X239053143Y-97755143D01*
X238910286Y-97826571D01*
X238838857Y-97826571D01*
X238696000Y-97755143D01*
X238624571Y-97612286D01*
X238624571Y-97398000D01*
X238553143Y-97255143D01*
X238410286Y-97183714D01*
X238338857Y-97183714D01*
X238196000Y-97255143D01*
X238124571Y-97398000D01*
X238124571Y-97612286D01*
X238196000Y-97755143D01*
X238338857Y-100112286D02*
X238338857Y-99612286D01*
X239124571Y-99612286D02*
X237624571Y-99612286D01*
X237624571Y-100326572D01*
X239053143Y-101469428D02*
X239124571Y-101326571D01*
X239124571Y-101040857D01*
X239053143Y-100898000D01*
X238910286Y-100826571D01*
X238338857Y-100826571D01*
X238196000Y-100898000D01*
X238124571Y-101040857D01*
X238124571Y-101326571D01*
X238196000Y-101469428D01*
X238338857Y-101540857D01*
X238481714Y-101540857D01*
X238624571Y-100826571D01*
X239124571Y-102826571D02*
X237624571Y-102826571D01*
X239053143Y-102826571D02*
X239124571Y-102683714D01*
X239124571Y-102398000D01*
X239053143Y-102255142D01*
X238981714Y-102183714D01*
X238838857Y-102112285D01*
X238410286Y-102112285D01*
X238267429Y-102183714D01*
X238196000Y-102255142D01*
X238124571Y-102398000D01*
X238124571Y-102683714D01*
X238196000Y-102826571D01*
X239124571Y-104183714D02*
X237624571Y-104183714D01*
X239053143Y-104183714D02*
X239124571Y-104040857D01*
X239124571Y-103755143D01*
X239053143Y-103612285D01*
X238981714Y-103540857D01*
X238838857Y-103469428D01*
X238410286Y-103469428D01*
X238267429Y-103540857D01*
X238196000Y-103612285D01*
X238124571Y-103755143D01*
X238124571Y-104040857D01*
X238196000Y-104183714D01*
X239053143Y-105469428D02*
X239124571Y-105326571D01*
X239124571Y-105040857D01*
X239053143Y-104898000D01*
X238910286Y-104826571D01*
X238338857Y-104826571D01*
X238196000Y-104898000D01*
X238124571Y-105040857D01*
X238124571Y-105326571D01*
X238196000Y-105469428D01*
X238338857Y-105540857D01*
X238481714Y-105540857D01*
X238624571Y-104826571D01*
X239124571Y-106183714D02*
X238124571Y-106183714D01*
X238267429Y-106183714D02*
X238196000Y-106255142D01*
X238124571Y-106398000D01*
X238124571Y-106612285D01*
X238196000Y-106755142D01*
X238338857Y-106826571D01*
X239124571Y-106826571D01*
X238338857Y-106826571D02*
X238196000Y-106898000D01*
X238124571Y-107040857D01*
X238124571Y-107255142D01*
X238196000Y-107398000D01*
X238338857Y-107469428D01*
X239124571Y-107469428D01*
X239124571Y-108826571D02*
X238338857Y-108826571D01*
X238196000Y-108755142D01*
X238124571Y-108612285D01*
X238124571Y-108326571D01*
X238196000Y-108183714D01*
X239053143Y-108826571D02*
X239124571Y-108683714D01*
X239124571Y-108326571D01*
X239053143Y-108183714D01*
X238910286Y-108112285D01*
X238767429Y-108112285D01*
X238624571Y-108183714D01*
X238553143Y-108326571D01*
X238553143Y-108683714D01*
X238481714Y-108826571D01*
X239124571Y-111326571D02*
X238338857Y-111326571D01*
X238196000Y-111255142D01*
X238124571Y-111112285D01*
X238124571Y-110826571D01*
X238196000Y-110683714D01*
X239053143Y-111326571D02*
X239124571Y-111183714D01*
X239124571Y-110826571D01*
X239053143Y-110683714D01*
X238910286Y-110612285D01*
X238767429Y-110612285D01*
X238624571Y-110683714D01*
X238553143Y-110826571D01*
X238553143Y-111183714D01*
X238481714Y-111326571D01*
X239124571Y-112040857D02*
X237624571Y-112040857D01*
X238553143Y-112183714D02*
X239124571Y-112612285D01*
X238124571Y-112612285D02*
X238696000Y-112040857D01*
X239124571Y-113898000D02*
X238338857Y-113898000D01*
X238196000Y-113826571D01*
X238124571Y-113683714D01*
X238124571Y-113398000D01*
X238196000Y-113255143D01*
X239053143Y-113898000D02*
X239124571Y-113755143D01*
X239124571Y-113398000D01*
X239053143Y-113255143D01*
X238910286Y-113183714D01*
X238767429Y-113183714D01*
X238624571Y-113255143D01*
X238553143Y-113398000D01*
X238553143Y-113755143D01*
X238481714Y-113898000D01*
X239053143Y-115683714D02*
X239124571Y-115826571D01*
X239124571Y-116112286D01*
X239053143Y-116255143D01*
X238910286Y-116326571D01*
X238838857Y-116326571D01*
X238696000Y-116255143D01*
X238624571Y-116112286D01*
X238624571Y-115898000D01*
X238553143Y-115755143D01*
X238410286Y-115683714D01*
X238338857Y-115683714D01*
X238196000Y-115755143D01*
X238124571Y-115898000D01*
X238124571Y-116112286D01*
X238196000Y-116255143D01*
X239124571Y-116969429D02*
X238124571Y-116969429D01*
X237624571Y-116969429D02*
X237696000Y-116898000D01*
X237767429Y-116969429D01*
X237696000Y-117040857D01*
X237624571Y-116969429D01*
X237767429Y-116969429D01*
X239124571Y-117540858D02*
X238124571Y-118326572D01*
X238124571Y-117540858D02*
X239124571Y-118326572D01*
X239053143Y-119469429D02*
X239124571Y-119326572D01*
X239124571Y-119040858D01*
X239053143Y-118898001D01*
X238910286Y-118826572D01*
X238338857Y-118826572D01*
X238196000Y-118898001D01*
X238124571Y-119040858D01*
X238124571Y-119326572D01*
X238196000Y-119469429D01*
X238338857Y-119540858D01*
X238481714Y-119540858D01*
X238624571Y-118826572D01*
X239124571Y-120183715D02*
X238124571Y-120183715D01*
X237624571Y-120183715D02*
X237696000Y-120112286D01*
X237767429Y-120183715D01*
X237696000Y-120255143D01*
X237624571Y-120183715D01*
X237767429Y-120183715D01*
X238124571Y-121540858D02*
X239338857Y-121540858D01*
X239481714Y-121469429D01*
X239553143Y-121398001D01*
X239624571Y-121255144D01*
X239624571Y-121040858D01*
X239553143Y-120898001D01*
X239053143Y-121540858D02*
X239124571Y-121398001D01*
X239124571Y-121112287D01*
X239053143Y-120969429D01*
X238981714Y-120898001D01*
X238838857Y-120826572D01*
X238410286Y-120826572D01*
X238267429Y-120898001D01*
X238196000Y-120969429D01*
X238124571Y-121112287D01*
X238124571Y-121398001D01*
X238196000Y-121540858D01*
X239124571Y-122255144D02*
X237624571Y-122255144D01*
X239124571Y-122898001D02*
X238338857Y-122898001D01*
X238196000Y-122826572D01*
X238124571Y-122683715D01*
X238124571Y-122469430D01*
X238196000Y-122326572D01*
X238267429Y-122255144D01*
X238124571Y-123398001D02*
X238124571Y-123969430D01*
X237624571Y-123612287D02*
X238910286Y-123612287D01*
X239053143Y-123683715D01*
X239124571Y-123826573D01*
X239124571Y-123969430D01*
M02*
