M48
;DRILL file {KiCad 4.0.2-stable} date 23-3-2017 17:14:35
;FORMAT={-:-/ absolute / metric / decimal}
FMAT,2
METRIC,TZ
T1C0.400
T2C0.800
T3C0.813
T4C1.000
T5C1.001
T6C1.016
T7C1.200
T8C1.400
T9C1.676
T10C1.800
T11C2.301
T12C3.048
T13C3.200
%
G90
G05
M71
T1
X63.51Y-92.71
X64.145Y-88.9
X64.78Y-88.265
X95.895Y-116.84
X97.165Y-116.205
X99.705Y-85.935
T2
X35.56Y-96.52
X35.56Y-111.76
X38.1Y-96.52
X38.1Y-111.76
X40.64Y-96.52
X40.64Y-111.76
X43.18Y-96.52
X43.18Y-111.76
X45.72Y-96.52
X45.72Y-111.76
X48.26Y-96.52
X48.26Y-111.76
X50.8Y-96.52
X50.8Y-111.76
X53.34Y-96.52
X53.34Y-111.76
X55.88Y-96.52
X55.88Y-111.76
X58.42Y-96.52
X58.42Y-111.76
X60.96Y-96.52
X60.96Y-111.76
X63.5Y-96.52
X63.5Y-111.76
X66.04Y-96.52
X66.04Y-111.76
X68.58Y-96.52
X68.58Y-111.76
X74.94Y-109.855
X74.94Y-113.03
X76.835Y-96.52
X76.835Y-99.06
X76.835Y-101.6
X76.835Y-104.14
X77.48Y-109.855
X77.48Y-113.03
X80.02Y-109.855
X80.02Y-113.03
X82.56Y-109.855
X82.56Y-113.03
X84.455Y-96.52
X84.455Y-99.06
X84.455Y-101.6
X84.455Y-104.14
X85.1Y-109.855
X85.1Y-113.03
X87.64Y-109.855
X87.64Y-113.03
X90.18Y-109.855
X90.18Y-113.03
X90.57Y-93.98
X90.57Y-96.52
X90.57Y-99.06
X92.72Y-109.855
X92.72Y-113.03
X100.34Y-109.855
X100.34Y-113.03
X102.88Y-109.855
X102.88Y-113.03
X103.57Y-93.98
X103.57Y-96.52
X103.57Y-99.06
X105.42Y-109.855
X105.42Y-113.03
X107.96Y-109.855
X107.96Y-113.03
X110.5Y-109.855
X110.5Y-113.03
X113.04Y-109.855
X113.04Y-113.03
X115.58Y-109.855
X115.58Y-113.03
X118.12Y-109.855
X118.12Y-113.03
X130.175Y-96.52
X130.175Y-99.06
X130.175Y-101.6
X130.175Y-104.14
X137.795Y-96.52
X137.795Y-99.06
X137.795Y-101.6
X137.795Y-104.14
X165.735Y-96.52
X165.735Y-99.06
X165.735Y-101.6
X165.735Y-104.14
X173.355Y-96.52
X173.355Y-99.06
X173.355Y-101.6
X173.355Y-104.14
X198.13Y-125.374
X199.4Y-122.834
X200.67Y-125.374
X201.94Y-122.834
X203.337Y-125.374
X204.48Y-122.834
X205.75Y-125.374
X207.02Y-122.707
X224.79Y-97.155
X224.79Y-99.695
X224.79Y-102.235
T3
X34.925Y-127.061
X34.925Y-129.06
X37.465Y-127.061
X37.465Y-129.06
T4
X35.65Y-114.935
X40.65Y-114.935
X71.765Y-109.855
X78.185Y-92.92
X83.185Y-92.92
X126.368Y-93.981
X126.368Y-104.141
X131.535Y-92.71
X136.535Y-92.71
X161.3Y-93.98
X161.3Y-104.14
X167.005Y-92.92
X172.005Y-92.92
X200.66Y-97.79
X200.66Y-101.59
X200.66Y-109.855
X200.66Y-113.655
X200.67Y-85.09
X200.67Y-88.89
X210.82Y-106.681
X210.82Y-116.841
X214.63Y-106.68
X214.63Y-116.84
X218.445Y-106.681
X218.445Y-116.841
X222.25Y-106.68
X222.25Y-116.84
T5
X94.615Y-93.98
X94.615Y-104.14
X98.425Y-93.98
X98.425Y-104.14
X107.315Y-93.98
X107.315Y-104.14
X111.125Y-93.98
X111.125Y-104.14
X114.935Y-93.98
X114.935Y-104.14
X118.745Y-93.98
X118.745Y-104.14
X122.555Y-93.98
X122.555Y-104.14
X142.24Y-93.98
X142.24Y-104.14
X146.05Y-93.98
X146.05Y-104.14
X149.86Y-93.98
X149.86Y-104.14
X153.67Y-93.98
X153.67Y-104.14
X157.49Y-93.98
X157.49Y-104.14
X167.005Y-110.49
X167.005Y-113.03
X167.005Y-115.57
X178.435Y-93.98
X178.435Y-104.14
X182.245Y-93.98
X182.245Y-104.14
X186.055Y-93.98
X186.055Y-104.14
X189.865Y-93.98
X189.865Y-104.14
X191.135Y-110.49
X191.135Y-113.03
X191.135Y-115.57
X210.185Y-97.155
X210.185Y-100.33
X220.345Y-97.155
X220.345Y-100.33
T6
X31.76Y-109.22
X31.76Y-111.76
X38.735Y-83.185
X41.275Y-83.185
X43.815Y-83.185
X46.355Y-83.185
X48.895Y-83.185
X57.15Y-83.185
X59.69Y-83.185
X62.23Y-83.185
X64.77Y-83.185
X67.31Y-83.185
X76.835Y-83.185
X79.375Y-83.185
X81.915Y-83.185
X84.455Y-83.185
X92.075Y-83.185
X94.615Y-83.185
X97.155Y-83.185
X99.695Y-83.185
X106.68Y-83.185
X109.22Y-83.185
X111.76Y-83.185
X114.3Y-83.185
X116.84Y-83.185
X119.38Y-83.185
X121.92Y-83.185
X124.46Y-83.185
X132.08Y-83.185
X132.08Y-85.725
X134.62Y-83.185
X134.62Y-85.725
X137.16Y-83.185
X137.16Y-85.725
X139.7Y-83.185
X139.7Y-85.725
X142.24Y-83.185
X142.24Y-85.725
X144.78Y-83.185
X144.78Y-85.725
X147.32Y-83.185
X147.32Y-85.725
X149.86Y-83.185
X149.86Y-85.725
X152.4Y-83.185
X152.4Y-85.725
X154.94Y-83.185
X154.94Y-85.725
X157.48Y-83.185
X157.48Y-85.725
X160.02Y-83.185
X160.02Y-85.725
X162.56Y-83.185
X165.1Y-83.185
X167.64Y-83.185
X222.46Y-83.
X225.Y-83.
T7
X195.971Y-126.644
T8
X124.47Y-122.13
X124.47Y-127.21
X127.01Y-124.67
X127.01Y-137.37
X129.296Y-137.37
X132.09Y-127.21
X134.63Y-137.37
X137.17Y-124.67
X137.17Y-137.37
X139.71Y-122.13
X139.71Y-127.21
X147.33Y-127.21
X149.87Y-124.67
X149.87Y-137.37
X152.156Y-137.37
X154.95Y-127.21
X157.49Y-137.37
X160.03Y-124.67
X160.03Y-137.37
X162.57Y-127.21
X170.152Y-122.136
X170.152Y-127.216
X172.692Y-124.676
X172.692Y-137.376
X174.978Y-137.376
X177.772Y-127.216
X180.312Y-137.376
X182.852Y-124.676
X182.852Y-137.376
X185.392Y-122.136
X185.392Y-127.216
T9
X46.99Y-123.19
X46.99Y-129.69
X46.99Y-136.049
X58.42Y-123.19
X58.42Y-129.69
X58.42Y-136.049
X66.94Y-123.19
X66.94Y-129.69
X66.94Y-136.049
X78.37Y-123.19
X78.37Y-129.69
X78.37Y-136.049
X86.625Y-123.19
X86.625Y-129.69
X86.625Y-136.049
X98.055Y-123.19
X98.055Y-129.69
X98.055Y-136.049
X106.31Y-123.19
X106.31Y-129.69
X106.31Y-136.049
X117.74Y-123.19
X117.74Y-129.69
X117.74Y-136.049
T10
X229.92Y-129.79
X229.92Y-134.79
X237.42Y-129.79
X237.42Y-134.79
T11
X30.196Y-131.76
X42.194Y-131.76
T12
X32.5Y-85.
X33.02Y-118.745
X233.49Y-125.
T13
X233.49Y-85.
T5
X219.991Y-127.785G85X221.989Y-127.785
G05
X219.991Y-133.784G85X221.989Y-133.784
G05
X225.689Y-131.784G85X225.689Y-129.785
G05
T0
M30
